M48
INCH
T01C0.031
T02C0.0354
T03C0.04
T04C0.0433
T05C0.125
%
T01
X+026438Y+009126
X+027188Y+012064
X+029938Y+009126
X+033438Y+009126
X+034688Y+009064
X+034376Y+005626
X+023250Y+010502
X+021315Y+012315
X+020877Y+011878
X+020437Y+011439
X+019315Y+009627
X+017187Y+007689
X+015374Y+007751
X+012561Y+007126
X+007690Y+006253
X+007690Y+005190
X+020499Y+004438
X+019503Y+013502
X+022125Y+019565
X+021500Y+019940
X+015561Y+022628
X+011874Y+022878
X+010498Y+024003
X+010561Y+025191
X+031940Y+019440
X+032940Y+019440
X+033940Y+019440
X+035001Y+019440
T02
X+031313Y+015502
X+031313Y+017502
X+028250Y+015564
X+026690Y+014940
X+025690Y+014940
X+024690Y+014940
X+023690Y+014940
X+022690Y+014940
X+021690Y+014940
X+020690Y+014940
X+019690Y+014940
X+019690Y+017940
X+020690Y+017940
X+021690Y+017940
X+022690Y+017940
X+023690Y+017940
X+024690Y+017940
X+025690Y+017940
X+026690Y+017940
X+028250Y+013564
X+035001Y+015502
X+035001Y+017502
X+033440Y+024190
X+033440Y+025190
X+032440Y+025190
X+032440Y+024190
X+031440Y+024190
X+030440Y+024190
X+030440Y+025190
X+031440Y+025190
X+029440Y+025190
X+029440Y+024190
X+028440Y+024190
X+028440Y+025190
X+027440Y+025190
X+027440Y+024190
X+026440Y+024190
X+026440Y+025190
X+025440Y+025190
X+025440Y+024190
X+024440Y+024190
X+024440Y+025190
X+023440Y+025190
X+022440Y+025190
X+022440Y+024190
X+023440Y+024190
X+021440Y+024190
X+021440Y+025190
X+020440Y+025190
X+020440Y+024190
X+019440Y+024190
X+019440Y+025190
X+018440Y+025190
X+017440Y+025190
X+017440Y+024190
X+018440Y+024190
X+016440Y+024190
X+016440Y+025190
X+015440Y+025190
X+015440Y+024190
X+014440Y+024190
X+014440Y+025190
X+013440Y+025190
X+013440Y+024190
X+012440Y+024190
X+012440Y+025190
X+011440Y+025190
X+011440Y+024190
X+011440Y+006190
X+011440Y+005190
X+012440Y+005190
X+012440Y+006190
X+013440Y+006190
X+013440Y+005190
X+014440Y+005190
X+014440Y+006190
X+015440Y+006190
X+015440Y+005190
X+016440Y+005190
X+016440Y+006190
X+017440Y+006190
X+017440Y+005190
X+018440Y+005190
X+018440Y+006190
X+019440Y+006190
X+019440Y+005190
X+020440Y+005190
X+020440Y+006190
X+021440Y+006190
X+021440Y+005190
X+022440Y+005190
X+023440Y+005190
X+023440Y+006190
X+022440Y+006190
X+024440Y+006190
X+024440Y+005190
X+025440Y+005190
X+025440Y+006190
X+026440Y+006190
X+026440Y+005190
X+027440Y+005190
X+027440Y+006190
X+028440Y+006190
X+028440Y+005190
X+029440Y+005190
X+029440Y+006190
X+030440Y+006190
X+031440Y+006190
X+031440Y+005190
X+030440Y+005190
X+032440Y+005190
X+032440Y+006190
X+033440Y+006190
X+033440Y+005190
T03
X+014380Y+020720
X+014380Y+018940
X+014380Y+017720
X+014380Y+015940
X+014380Y+014720
X+014380Y+012940
X+016940Y+012940
X+016940Y+014720
X+016940Y+015940
X+016940Y+017720
X+016940Y+018940
X+016940Y+020720
T04
X+018440Y+008940
X+017440Y+008940
X+016440Y+008940
X+015440Y+008940
X+014440Y+008940
X+013440Y+008940
X+020940Y+008190
X+021940Y+008190
X+022940Y+008190
X+023940Y+008190
X+024440Y+011440
X+025440Y+011440
X+026440Y+011440
X+027940Y+011440
X+028940Y+011440
X+029940Y+011440
X+031440Y+011440
X+032440Y+011440
X+033440Y+011440
X+033251Y+015690
X+033251Y+016690
X+033251Y+017690
X+029688Y+017440
X+029688Y+016440
X+036626Y+016502
X+036626Y+015502
X+018565Y+021815
X+017565Y+021815
X+016565Y+021815
X+015565Y+021815
X+014565Y+021815
X+013565Y+021815
T05
X+035440Y+023440
X+036190Y+012440
X+035440Y+006940
X+009440Y+005690
X+005940Y+005690
X+009440Y+024690
T00
M30
