G04 DipTrace 2.4.0.2*
%INTop.gbr*%
%MOIN*%
%ADD13C,0.025*%
%ADD18R,0.0433X0.0394*%
%ADD19R,0.0394X0.0433*%
%ADD20C,0.063*%
%ADD21R,0.063X0.063*%
%ADD22R,0.0591X0.0512*%
%ADD23R,0.0669X0.0669*%
%ADD24C,0.0669*%
%ADD25C,0.0591*%
%ADD26R,0.0591X0.0591*%
%ADD28C,0.074*%
%ADD29R,0.0748X0.0748*%
%ADD30C,0.0748*%
%ADD31C,0.06*%
%ADD56C,0.0216*%
%ADD57C,0.0124*%
%FSLAX44Y44*%
G04*
G70*
G90*
G75*
G01*
%LNTop*%
%LPD*%
X12690Y16859D2*
D13*
Y18815D1*
X12440D1*
X12690Y14359D2*
X11874D1*
Y7126D1*
X12061D1*
Y6569D1*
X12440Y6190D1*
X12690Y16859D2*
X11874D1*
Y14359D1*
X12440Y5190D2*
Y6190D1*
X12561Y7126D2*
X12061D1*
X17187Y7689D2*
X15440D1*
Y8940D1*
X14440Y6190D2*
Y5190D1*
Y6190D2*
Y6685D1*
X13186Y7939D1*
X12561D1*
Y11439D1*
X13124Y12002D1*
X17312D1*
X17874Y12564D1*
Y13124D1*
X19690Y14940D1*
Y17940D1*
X27188Y12064D2*
Y14189D1*
X27438Y14439D1*
Y17192D1*
X26690Y17940D1*
X31605Y8940D2*
Y9940D1*
X28105D2*
Y8940D1*
X24605Y9940D2*
Y9065D1*
X11440Y5190D2*
Y6190D1*
X10561Y25191D2*
X11439D1*
X11440Y25190D1*
X10498Y24003D2*
X11253D1*
X11440Y24190D1*
X35001Y19440D2*
X33940D1*
X32940D1*
X31940D1*
X7690Y5190D2*
Y6253D1*
Y6502D1*
X8253Y7065D1*
X10565D1*
X11440Y6190D1*
X16440Y25190D2*
Y25625D1*
X16124Y25941D1*
X8561D1*
X8061Y25441D1*
Y24065D1*
X8873Y23253D1*
X11498D1*
X11874Y22878D1*
X15561Y22690D2*
Y22878D1*
X16440Y23756D1*
Y24190D1*
X34688Y9064D2*
Y9001D1*
X34001Y8314D1*
X33438D1*
X31440Y6316D1*
Y6190D1*
X34376Y5626D2*
Y4938D1*
X33876Y4438D1*
X24875D1*
X24440Y4873D1*
Y5190D1*
X21003Y21940D2*
Y21188D1*
X22503D2*
Y21940D1*
X24003Y21188D2*
Y21940D1*
X14380Y18940D2*
X13690D1*
X13190Y19440D1*
X12484D1*
X12440Y19484D1*
Y22382D1*
X13061Y23003D1*
X14811D1*
X15440Y23632D1*
Y24190D1*
X20440D2*
Y23506D1*
X20249Y23315D1*
Y19815D1*
X21375Y18690D1*
X25437D1*
X25625Y18502D1*
Y18005D1*
X25690Y17940D1*
X17440Y6190D2*
Y6630D1*
X22187Y11377D1*
Y13689D1*
X21750Y14127D1*
X20937D1*
X20690Y14374D1*
Y14940D1*
X18440Y6190D2*
Y6817D1*
X25690Y14067D1*
Y14940D1*
X33775Y9940D2*
Y9463D1*
X33438Y9126D1*
X32275Y8940D2*
Y9940D1*
Y8940D2*
Y8463D1*
X30440Y6628D1*
Y6190D1*
X26438Y9126D2*
X26625D1*
X26775Y9276D1*
Y9940D1*
X29938Y9126D2*
X30063D1*
X30313Y9376D1*
Y9940D1*
X30275D1*
X28775D2*
X29605D1*
X28775D2*
Y8940D1*
X28813D1*
Y7126D1*
X29375Y6564D1*
Y6190D1*
X29440D1*
X25275Y9940D2*
X26105D1*
X25275Y9065D2*
Y9940D1*
Y9065D2*
Y8727D1*
X26938Y7064D1*
X27813D1*
X28440Y6436D1*
Y6190D1*
X12690Y16190D2*
X13440D1*
X14130D1*
X14380Y15940D1*
X18437Y23378D2*
Y24190D1*
X18440D1*
X14380Y12940D2*
X14190D1*
X13440Y13690D1*
X12690D1*
X19437Y23315D2*
Y24190D1*
X19440D1*
X25503Y21940D2*
Y21188D1*
X27003D2*
Y21940D1*
X28503D2*
Y21188D1*
X30003D2*
Y21940D1*
X27440Y24190D2*
Y24126D1*
X28188Y23378D1*
X29234D1*
X30003Y22609D1*
X26440Y24190D2*
Y24000D1*
X27125Y23315D1*
X27375D1*
X28081Y22609D1*
X28503D1*
X25440Y24190D2*
Y23688D1*
X26519Y22609D1*
X27003D1*
X24440Y24190D2*
Y23672D1*
X25503Y22609D1*
X23440Y24190D2*
Y23172D1*
X24003Y22609D1*
X22503D2*
Y24127D1*
X22440Y24190D1*
X21003Y22609D2*
Y23068D1*
X21440Y23506D1*
Y24190D1*
X17440D2*
Y23187D1*
X17999Y22628D1*
X18937D1*
X19499Y22065D1*
Y19752D1*
X20687Y18565D1*
Y17943D1*
X20690Y17940D1*
X20440Y5190D2*
Y4498D1*
X20499Y4438D1*
X20440Y6190D2*
Y7567D1*
X20940Y8067D1*
Y8190D1*
Y8379D1*
X23062Y10502D1*
X23250D1*
D31*
X26438Y9126D3*
X29938D3*
X33438D3*
X12561Y7126D3*
X15561Y22690D3*
X11874Y22878D3*
X23250Y10502D3*
X34376Y5626D3*
X20499Y4438D3*
X34688Y9064D3*
X17187Y7689D3*
X15374Y7751D3*
X27188Y12064D3*
X10498Y24003D3*
X10561Y25191D3*
X35001Y19440D3*
X19502Y13502D3*
X21500Y19940D3*
X22125Y19565D3*
X21315Y12315D3*
X20437Y11439D3*
X20877Y11877D3*
X33940Y19440D3*
X32940D3*
X31940D3*
X7690Y6253D3*
Y5190D3*
X19315Y9627D3*
X19437Y23315D3*
X18437Y23378D3*
X23000Y8939D3*
X6908Y25746D2*
D13*
X7553D1*
X33955D2*
X37221D1*
X6908Y25498D2*
X7467D1*
X34139D2*
X37221D1*
X6908Y25249D2*
X7467D1*
X10377D2*
X11678D1*
X34201D2*
X37221D1*
X6908Y25000D2*
X7467D1*
X10490D2*
X11698D1*
X34181D2*
X37221D1*
X6908Y24752D2*
X7467D1*
X10533D2*
X11819D1*
X34060D2*
X37221D1*
X6908Y24503D2*
X7467D1*
X10517D2*
X11745D1*
X34135D2*
X35292D1*
X35588D2*
X37221D1*
X6908Y24254D2*
X7467D1*
X10443D2*
X11678D1*
X34201D2*
X34721D1*
X36158D2*
X37221D1*
X6908Y24005D2*
X7467D1*
X10287D2*
X11698D1*
X34181D2*
X34506D1*
X36373D2*
X37221D1*
X6908Y23757D2*
X7557D1*
X34064D2*
X34393D1*
X36486D2*
X37221D1*
X6908Y23508D2*
X7788D1*
X29935D2*
X30128D1*
X30752D2*
X31128D1*
X31752D2*
X32128D1*
X32752D2*
X33128D1*
X33752D2*
X34346D1*
X36533D2*
X37221D1*
X6908Y23259D2*
X8034D1*
X30670D2*
X34362D1*
X36521D2*
X37221D1*
X6908Y23011D2*
X8284D1*
X16525D2*
X16874D1*
X30670D2*
X34436D1*
X36443D2*
X37221D1*
X6908Y22762D2*
X8557D1*
X16326D2*
X17034D1*
X21670D2*
X21834D1*
X30670D2*
X34589D1*
X36291D2*
X37221D1*
X6908Y22513D2*
X11198D1*
X16935D2*
X17194D1*
X21670D2*
X21834D1*
X23170D2*
X23266D1*
X24670D2*
X24766D1*
X29170D2*
X29266D1*
X30670D2*
X34881D1*
X35998D2*
X37221D1*
X6908Y22265D2*
X11424D1*
X13154D2*
X13905D1*
X21670D2*
X21834D1*
X23170D2*
X23334D1*
X24670D2*
X24834D1*
X29170D2*
X29334D1*
X30670D2*
X37221D1*
X6908Y22016D2*
X11846D1*
X13033D2*
X13788D1*
X21670D2*
X21834D1*
X23170D2*
X23334D1*
X24670D2*
X24834D1*
X26170D2*
X26334D1*
X27670D2*
X27834D1*
X29170D2*
X29334D1*
X30670D2*
X37221D1*
X6908Y21767D2*
X11846D1*
X13033D2*
X13760D1*
X30767D2*
X37221D1*
X6908Y21519D2*
X11846D1*
X13033D2*
X13819D1*
X30767D2*
X37221D1*
X6908Y21270D2*
X11846D1*
X13033D2*
X13983D1*
X30767D2*
X37221D1*
X6908Y21021D2*
X11846D1*
X13033D2*
X16159D1*
X17721D2*
X18905D1*
X30767D2*
X37221D1*
X6908Y20773D2*
X11846D1*
X13033D2*
X16100D1*
X17779D2*
X18905D1*
X30767D2*
X37221D1*
X6908Y20524D2*
X11846D1*
X13033D2*
X16124D1*
X17756D2*
X18905D1*
X30767D2*
X37221D1*
X7010Y20275D2*
X11846D1*
X13033D2*
X16233D1*
X17646D2*
X18905D1*
X20846D2*
X37221D1*
X13857Y20026D2*
X16487D1*
X17392D2*
X18905D1*
X20869D2*
X37221D1*
X13857Y19778D2*
X18905D1*
X21119D2*
X37221D1*
X14967Y19529D2*
X16350D1*
X17529D2*
X18952D1*
X21365D2*
X37221D1*
X15146Y19280D2*
X16174D1*
X17705D2*
X19139D1*
X21615D2*
X37221D1*
X15217Y19032D2*
X16104D1*
X17775D2*
X19389D1*
X25928D2*
X37221D1*
X15205Y18783D2*
X16116D1*
X17764D2*
X19639D1*
X26146D2*
X37221D1*
X15111Y18534D2*
X16210D1*
X17674D2*
X19225D1*
X27154D2*
X37221D1*
X13283Y18286D2*
X13870D1*
X14892D2*
X16327D1*
X17553D2*
X19010D1*
X27369D2*
X32663D1*
X33838D2*
X37221D1*
X13283Y18037D2*
X16163D1*
X17717D2*
X18932D1*
X22447D2*
X23932D1*
X27447D2*
X28881D1*
X32099D2*
X32483D1*
X34017D2*
X37221D1*
X13283Y17788D2*
X16104D1*
X17775D2*
X18940D1*
X22439D2*
X23940D1*
X27674D2*
X28881D1*
X32099D2*
X32413D1*
X34088D2*
X37221D1*
X13283Y17540D2*
X16120D1*
X17760D2*
X19042D1*
X22338D2*
X24042D1*
X27916D2*
X28881D1*
X32099D2*
X32421D1*
X34080D2*
X37221D1*
X13357Y17291D2*
X16221D1*
X17658D2*
X19096D1*
X21072D2*
X21311D1*
X22072D2*
X24311D1*
X25072D2*
X25311D1*
X26072D2*
X26311D1*
X28025D2*
X28881D1*
X32099D2*
X32510D1*
X33990D2*
X37221D1*
X13357Y17042D2*
X16464D1*
X17416D2*
X19096D1*
X20283D2*
X26756D1*
X28033D2*
X28881D1*
X32099D2*
X32725D1*
X33779D2*
X37221D1*
X14107Y16794D2*
X19096D1*
X20283D2*
X26842D1*
X28033D2*
X28881D1*
X32099D2*
X37221D1*
X14951Y16545D2*
X16370D1*
X17510D2*
X19096D1*
X20283D2*
X26842D1*
X28033D2*
X37221D1*
X15139Y16296D2*
X16182D1*
X17697D2*
X19096D1*
X20283D2*
X26842D1*
X29037D2*
X32405D1*
X34096D2*
X37221D1*
X15213Y16047D2*
X16108D1*
X17771D2*
X19096D1*
X20283D2*
X26842D1*
X29037D2*
X32405D1*
X34096D2*
X34214D1*
X15209Y15799D2*
X16112D1*
X17767D2*
X19096D1*
X20283D2*
X26842D1*
X29037D2*
X32405D1*
X34096D2*
X34214D1*
X15119Y15550D2*
X16198D1*
X17681D2*
X18924D1*
X21135D2*
X21245D1*
X22135D2*
X24245D1*
X25135D2*
X25245D1*
X26135D2*
X26245D1*
X29037D2*
X32405D1*
X34096D2*
X34214D1*
X12467Y15301D2*
X13850D1*
X14912D2*
X16342D1*
X17537D2*
X18924D1*
X22361D2*
X24018D1*
X29037D2*
X32405D1*
X34096D2*
X34214D1*
X12467Y15053D2*
X16171D1*
X17709D2*
X18924D1*
X22447D2*
X23932D1*
X29037D2*
X32405D1*
X34096D2*
X34214D1*
X13357Y14804D2*
X16104D1*
X17775D2*
X18721D1*
X22443D2*
X23936D1*
X28033D2*
X34217D1*
X13357Y14555D2*
X16116D1*
X17764D2*
X18475D1*
X22346D2*
X24034D1*
X28033D2*
X37221D1*
X14107Y14307D2*
X16214D1*
X17666D2*
X18225D1*
X22400D2*
X24284D1*
X28017D2*
X37221D1*
X14107Y14058D2*
X16440D1*
X17439D2*
X17975D1*
X19639D2*
X20190D1*
X22646D2*
X24850D1*
X26283D2*
X26592D1*
X27885D2*
X37221D1*
X14150Y13809D2*
X17729D1*
X19389D2*
X20424D1*
X22767D2*
X24600D1*
X26224D2*
X26592D1*
X27783D2*
X37221D1*
X14931Y13561D2*
X16385D1*
X19142D2*
X20846D1*
X22783D2*
X24354D1*
X26014D2*
X26592D1*
X27783D2*
X37221D1*
X15131Y13312D2*
X16190D1*
X18892D2*
X21592D1*
X22783D2*
X24104D1*
X25767D2*
X26592D1*
X27783D2*
X35546D1*
X36834D2*
X37221D1*
X15209Y13063D2*
X16108D1*
X18642D2*
X21592D1*
X22783D2*
X23854D1*
X25517D2*
X26592D1*
X27783D2*
X35296D1*
X37084D2*
X37219D1*
X12467Y12815D2*
X13483D1*
X15209D2*
X16108D1*
X18471D2*
X21592D1*
X22783D2*
X23608D1*
X25267D2*
X26592D1*
X27783D2*
X35163D1*
X12467Y12566D2*
X13018D1*
X18471D2*
X21592D1*
X22783D2*
X23358D1*
X25021D2*
X26592D1*
X27783D2*
X35104D1*
X12467Y12317D2*
X12607D1*
X18412D2*
X21592D1*
X22783D2*
X23108D1*
X24771D2*
X26464D1*
X27912D2*
X35104D1*
X4474Y12068D2*
X4706D1*
X6306D2*
X11280D1*
X18209D2*
X21592D1*
X22783D2*
X22862D1*
X25244D2*
X25956D1*
X28744D2*
X29456D1*
X30428D2*
X30635D1*
X32244D2*
X32956D1*
X33928D2*
X35163D1*
X4410Y11820D2*
X4706D1*
X6306D2*
X11280D1*
X17959D2*
X21592D1*
X25244D2*
X25733D1*
X28744D2*
X29233D1*
X32244D2*
X32733D1*
X34146D2*
X35292D1*
X37088D2*
X37220D1*
X4410Y11571D2*
X4706D1*
X6306D2*
X11280D1*
X17709D2*
X21549D1*
X25244D2*
X25647D1*
X28744D2*
X29147D1*
X32244D2*
X32647D1*
X34232D2*
X35542D1*
X36838D2*
X37221D1*
X4410Y11322D2*
X4706D1*
X6306D2*
X11280D1*
X13275D2*
X21303D1*
X25244D2*
X25643D1*
X28744D2*
X29143D1*
X32244D2*
X32643D1*
X34236D2*
X37221D1*
X4410Y11074D2*
X4706D1*
X6306D2*
X11280D1*
X13154D2*
X21053D1*
X25244D2*
X25725D1*
X28744D2*
X29225D1*
X32244D2*
X32725D1*
X34154D2*
X37221D1*
X4410Y10825D2*
X4706D1*
X6306D2*
X11280D1*
X13154D2*
X20803D1*
X25244D2*
X25936D1*
X26943D2*
X27135D1*
X28744D2*
X29436D1*
X30443D2*
X30635D1*
X32244D2*
X32936D1*
X33943D2*
X37221D1*
X4410Y10576D2*
X4706D1*
X6306D2*
X11280D1*
X13154D2*
X20557D1*
X24017D2*
X24589D1*
X27463D2*
X28089D1*
X30963D2*
X31589D1*
X34463D2*
X37221D1*
X11170Y10328D2*
X11281D1*
X13154D2*
X20307D1*
X23998D2*
X24589D1*
X27463D2*
X28089D1*
X30963D2*
X31589D1*
X34463D2*
X37221D1*
X11170Y10079D2*
X11281D1*
X13154D2*
X20057D1*
X23889D2*
X24589D1*
X27463D2*
X28089D1*
X30963D2*
X31589D1*
X34463D2*
X37221D1*
X11170Y9830D2*
X11281D1*
X13154D2*
X19811D1*
X23599D2*
X24589D1*
X27463D2*
X28089D1*
X30963D2*
X31589D1*
X34463D2*
X37221D1*
X11170Y9582D2*
X11281D1*
X17908D2*
X19561D1*
X22974D2*
X24589D1*
X27463D2*
X28089D1*
X30963D2*
X31589D1*
X35248D2*
X37221D1*
X11170Y9333D2*
X11281D1*
X18139D2*
X19311D1*
X22724D2*
X24589D1*
X27463D2*
X28089D1*
X30963D2*
X31589D1*
X35408D2*
X37221D1*
X11170Y9084D2*
X11281D1*
X18232D2*
X19065D1*
X22474D2*
X24589D1*
X27338D2*
X28089D1*
X30826D2*
X31589D1*
X35459D2*
X37221D1*
X11170Y8836D2*
X11281D1*
X18236D2*
X18815D1*
X22400D2*
X23135D1*
X27166D2*
X28089D1*
X30650D2*
X31589D1*
X35424D2*
X37221D1*
X11170Y8587D2*
X11281D1*
X18158D2*
X18565D1*
X22635D2*
X23135D1*
X26974D2*
X28089D1*
X30478D2*
X31569D1*
X35287D2*
X37221D1*
X11170Y8338D2*
X11281D1*
X17959D2*
X18319D1*
X22732D2*
X23135D1*
X24744D2*
X24831D1*
X26494D2*
X28089D1*
X29463D2*
X31319D1*
X34881D2*
X37221D1*
X11170Y8089D2*
X11281D1*
X13865D2*
X14686D1*
X17838D2*
X18069D1*
X22736D2*
X23135D1*
X24744D2*
X25081D1*
X26744D2*
X28217D1*
X29408D2*
X31069D1*
X34607D2*
X37221D1*
X11170Y7841D2*
X11281D1*
X14115D2*
X14608D1*
X22662D2*
X23135D1*
X24744D2*
X25331D1*
X26990D2*
X28217D1*
X29408D2*
X30823D1*
X34346D2*
X34839D1*
X36041D2*
X37221D1*
X11170Y7592D2*
X11281D1*
X14365D2*
X14620D1*
X22467D2*
X23135D1*
X24744D2*
X25577D1*
X28053D2*
X28217D1*
X29408D2*
X30573D1*
X33549D2*
X34565D1*
X36314D2*
X37221D1*
X11170Y7343D2*
X11281D1*
X14611D2*
X14727D1*
X21049D2*
X25827D1*
X29428D2*
X30323D1*
X33299D2*
X34424D1*
X36455D2*
X37221D1*
X4410Y7095D2*
X11280D1*
X14861D2*
X14999D1*
X15752D2*
X16714D1*
X19549D2*
X19846D1*
X21033D2*
X26077D1*
X29674D2*
X30077D1*
X33049D2*
X34358D1*
X36525D2*
X37221D1*
X4410Y6846D2*
X11354D1*
X15806D2*
X16073D1*
X16806D2*
X16889D1*
X21806D2*
X22073D1*
X22806D2*
X23073D1*
X23806D2*
X24073D1*
X24806D2*
X25073D1*
X25806D2*
X26073D1*
X32806D2*
X33073D1*
X33806D2*
X34350D1*
X36529D2*
X37221D1*
X4410Y6597D2*
X5346D1*
X6533D2*
X8846D1*
X10033D2*
X11467D1*
X34084D2*
X34401D1*
X36478D2*
X37221D1*
X4410Y6349D2*
X5073D1*
X6806D2*
X8573D1*
X10306D2*
X11510D1*
X36357D2*
X37221D1*
X4410Y6100D2*
X4928D1*
X6955D2*
X8428D1*
X10455D2*
X11682D1*
X36127D2*
X37221D1*
X4410Y5851D2*
X4858D1*
X7021D2*
X8358D1*
X10521D2*
X11756D1*
X35111D2*
X37221D1*
X4410Y5603D2*
X4850D1*
X7033D2*
X8350D1*
X10533D2*
X11799D1*
X35146D2*
X37221D1*
X4410Y5354D2*
X4901D1*
X6982D2*
X8401D1*
X10482D2*
X11694D1*
X35096D2*
X37221D1*
X4410Y5105D2*
X5018D1*
X6861D2*
X8518D1*
X10361D2*
X11678D1*
X34971D2*
X37221D1*
X4410Y4857D2*
X5245D1*
X6635D2*
X8745D1*
X10135D2*
X11753D1*
X34967D2*
X37221D1*
X4428Y4608D2*
X11960D1*
X34865D2*
X37202D1*
X31613Y8607D2*
X31617Y9582D1*
X31613Y9673D1*
Y10582D1*
X32936Y10578D1*
X33194Y10582D1*
X33767Y10578D1*
X33863Y10582D1*
X34436D1*
Y9765D1*
X34553Y9797D1*
X34678Y9809D1*
X34802Y9800D1*
X34924Y9771D1*
X35038Y9722D1*
X35143Y9654D1*
X35235Y9570D1*
X35312Y9471D1*
X35371Y9361D1*
X35412Y9243D1*
X35433Y9064D1*
X35423Y8939D1*
X35392Y8819D1*
X35341Y8704D1*
X35272Y8601D1*
X35186Y8510D1*
X35087Y8434D1*
X34976Y8377D1*
X34830Y8334D1*
X34404Y7911D1*
X34307Y7833D1*
X34195Y7778D1*
X34041Y7745D1*
X33677Y7744D1*
X32778Y6847D1*
X32912Y6760D1*
X32937Y6736D1*
X33091Y6843D1*
X33206Y6892D1*
X33327Y6922D1*
X33452Y6930D1*
X33576Y6918D1*
X33696Y6885D1*
X33809Y6832D1*
X33912Y6760D1*
X34001Y6673D1*
X34074Y6572D1*
X34129Y6460D1*
X34164Y6344D1*
X34365Y6371D1*
X34490Y6362D1*
X34547Y6348D1*
X34479Y6470D1*
X34430Y6585D1*
X34396Y6705D1*
X34376Y6829D1*
X34370Y6953D1*
X34379Y7078D1*
X34402Y7201D1*
X34440Y7320D1*
X34491Y7434D1*
X34555Y7541D1*
X34631Y7640D1*
X34718Y7730D1*
X34815Y7809D1*
X34921Y7876D1*
X35033Y7930D1*
X35151Y7970D1*
X35273Y7997D1*
X35398Y8009D1*
X35523Y8007D1*
X35646Y7990D1*
X35767Y7959D1*
X35884Y7914D1*
X35994Y7855D1*
X36097Y7784D1*
X36191Y7702D1*
X36275Y7609D1*
X36347Y7507D1*
X36407Y7398D1*
X36454Y7282D1*
X36487Y7161D1*
X36510Y6940D1*
X36503Y6815D1*
X36481Y6692D1*
X36445Y6573D1*
X36395Y6458D1*
X36333Y6350D1*
X36258Y6250D1*
X36172Y6159D1*
X36076Y6079D1*
X35971Y6011D1*
X35859Y5956D1*
X35742Y5913D1*
X35620Y5885D1*
X35496Y5871D1*
X35371Y5872D1*
X35247Y5888D1*
X35049Y5946D1*
X35099Y5805D1*
X35121Y5626D1*
X35110Y5502D1*
X35079Y5381D1*
X35028Y5267D1*
X34946Y5148D1*
Y4938D1*
X34932Y4814D1*
X34892Y4696D1*
X34807Y4565D1*
X34627Y4383D1*
X37006Y4385D1*
X37245Y4624D1*
Y12264D1*
X37195Y12073D1*
X37145Y11958D1*
X37083Y11850D1*
X37008Y11750D1*
X36922Y11659D1*
X36826Y11579D1*
X36721Y11511D1*
X36609Y11456D1*
X36492Y11413D1*
X36370Y11385D1*
X36246Y11371D1*
X36121Y11372D1*
X35997Y11388D1*
X35875Y11417D1*
X35758Y11461D1*
X35647Y11518D1*
X35543Y11587D1*
X35448Y11669D1*
X35364Y11760D1*
X35290Y11861D1*
X35229Y11970D1*
X35180Y12085D1*
X35146Y12205D1*
X35126Y12329D1*
X35120Y12453D1*
X35129Y12578D1*
X35152Y12701D1*
X35190Y12820D1*
X35241Y12934D1*
X35305Y13041D1*
X35381Y13140D1*
X35468Y13230D1*
X35565Y13309D1*
X35671Y13376D1*
X35783Y13430D1*
X35901Y13470D1*
X36023Y13497D1*
X36148Y13509D1*
X36273Y13507D1*
X36396Y13490D1*
X36517Y13459D1*
X36634Y13414D1*
X36744Y13355D1*
X36847Y13284D1*
X36941Y13202D1*
X37025Y13109D1*
X37097Y13007D1*
X37157Y12898D1*
X37204Y12782D1*
X37246Y12603D1*
X37245Y14725D1*
X35846Y14722D1*
Y16282D1*
X37249D1*
X37245Y16690D1*
Y25752D1*
X37006Y25995D1*
X16874D1*
X16921Y25930D1*
X16987Y25784D1*
X17091Y25843D1*
X17206Y25892D1*
X17327Y25922D1*
X17452Y25930D1*
X17576Y25918D1*
X17696Y25885D1*
X17809Y25832D1*
X17937Y25736D1*
X18091Y25843D1*
X18206Y25892D1*
X18327Y25922D1*
X18452Y25930D1*
X18576Y25918D1*
X18696Y25885D1*
X18809Y25832D1*
X18937Y25736D1*
X19091Y25843D1*
X19206Y25892D1*
X19327Y25922D1*
X19452Y25930D1*
X19576Y25918D1*
X19696Y25885D1*
X19809Y25832D1*
X19937Y25736D1*
X20091Y25843D1*
X20206Y25892D1*
X20327Y25922D1*
X20452Y25930D1*
X20576Y25918D1*
X20696Y25885D1*
X20809Y25832D1*
X20937Y25736D1*
X21091Y25843D1*
X21206Y25892D1*
X21327Y25922D1*
X21452Y25930D1*
X21576Y25918D1*
X21696Y25885D1*
X21809Y25832D1*
X21937Y25736D1*
X22091Y25843D1*
X22206Y25892D1*
X22327Y25922D1*
X22452Y25930D1*
X22576Y25918D1*
X22696Y25885D1*
X22809Y25832D1*
X22937Y25736D1*
X23091Y25843D1*
X23206Y25892D1*
X23327Y25922D1*
X23452Y25930D1*
X23576Y25918D1*
X23696Y25885D1*
X23809Y25832D1*
X23937Y25736D1*
X24091Y25843D1*
X24206Y25892D1*
X24327Y25922D1*
X24452Y25930D1*
X24576Y25918D1*
X24696Y25885D1*
X24809Y25832D1*
X24937Y25736D1*
X25091Y25843D1*
X25206Y25892D1*
X25327Y25922D1*
X25452Y25930D1*
X25576Y25918D1*
X25696Y25885D1*
X25809Y25832D1*
X25937Y25736D1*
X26091Y25843D1*
X26206Y25892D1*
X26327Y25922D1*
X26452Y25930D1*
X26576Y25918D1*
X26696Y25885D1*
X26809Y25832D1*
X26937Y25736D1*
X27091Y25843D1*
X27206Y25892D1*
X27327Y25922D1*
X27452Y25930D1*
X27576Y25918D1*
X27696Y25885D1*
X27809Y25832D1*
X27937Y25736D1*
X28091Y25843D1*
X28206Y25892D1*
X28327Y25922D1*
X28452Y25930D1*
X28576Y25918D1*
X28696Y25885D1*
X28809Y25832D1*
X28937Y25736D1*
X29091Y25843D1*
X29206Y25892D1*
X29327Y25922D1*
X29452Y25930D1*
X29576Y25918D1*
X29696Y25885D1*
X29809Y25832D1*
X29937Y25736D1*
X30091Y25843D1*
X30206Y25892D1*
X30327Y25922D1*
X30452Y25930D1*
X30576Y25918D1*
X30696Y25885D1*
X30809Y25832D1*
X30937Y25736D1*
X31091Y25843D1*
X31206Y25892D1*
X31327Y25922D1*
X31452Y25930D1*
X31576Y25918D1*
X31696Y25885D1*
X31809Y25832D1*
X31937Y25736D1*
X32091Y25843D1*
X32206Y25892D1*
X32327Y25922D1*
X32452Y25930D1*
X32576Y25918D1*
X32696Y25885D1*
X32809Y25832D1*
X32937Y25736D1*
X33091Y25843D1*
X33206Y25892D1*
X33327Y25922D1*
X33452Y25930D1*
X33576Y25918D1*
X33696Y25885D1*
X33809Y25832D1*
X33912Y25760D1*
X34001Y25673D1*
X34074Y25572D1*
X34129Y25460D1*
X34165Y25340D1*
X34180Y25190D1*
X34170Y25066D1*
X34138Y24945D1*
X34087Y24831D1*
X33983Y24690D1*
X34074Y24572D1*
X34129Y24460D1*
X34165Y24340D1*
X34180Y24190D1*
X34170Y24066D1*
X34138Y23945D1*
X34087Y23831D1*
X34018Y23727D1*
X33932Y23637D1*
X33832Y23562D1*
X33721Y23505D1*
X33602Y23468D1*
X33478Y23451D1*
X33353Y23455D1*
X33231Y23480D1*
X33114Y23525D1*
X33007Y23589D1*
X32939Y23648D1*
X32832Y23562D1*
X32721Y23505D1*
X32602Y23468D1*
X32478Y23451D1*
X32353Y23455D1*
X32231Y23480D1*
X32114Y23525D1*
X32007Y23589D1*
X31939Y23648D1*
X31832Y23562D1*
X31721Y23505D1*
X31602Y23468D1*
X31478Y23451D1*
X31353Y23455D1*
X31231Y23480D1*
X31114Y23525D1*
X31007Y23589D1*
X30939Y23648D1*
X30832Y23562D1*
X30721Y23505D1*
X30602Y23468D1*
X30478Y23451D1*
X30353Y23455D1*
X30231Y23480D1*
X30114Y23525D1*
X30007Y23589D1*
X29939Y23648D1*
X29847Y23574D1*
X30148Y23270D1*
X30644Y23271D1*
X30640Y21948D1*
X30644Y21887D1*
X30743Y21889D1*
Y20487D1*
X29262D1*
Y21889D1*
X29360D1*
X29361Y22446D1*
X29144Y22662D1*
X29140Y21948D1*
X29144Y21887D1*
X29243Y21889D1*
Y20487D1*
X27762D1*
Y21889D1*
X27860D1*
X27861Y22084D1*
X27730Y22161D1*
X27642Y22242D1*
X27644Y21948D1*
X27743Y21889D1*
Y20487D1*
X26262D1*
Y21889D1*
X26360D1*
X26361Y22064D1*
X26276Y22093D1*
X26167Y22161D1*
X26144Y22146D1*
X26140Y21948D1*
X26144Y21887D1*
X26243Y21889D1*
Y20487D1*
X24762D1*
Y21889D1*
X24860D1*
X24861Y22446D1*
X24644Y22662D1*
X24640Y21948D1*
X24644Y21887D1*
X24743Y21889D1*
Y20487D1*
X23262D1*
Y21889D1*
X23360D1*
X23361Y22446D1*
X23144Y22662D1*
X23140Y21948D1*
X23144Y21887D1*
X23243Y21889D1*
Y20487D1*
X21762D1*
Y21889D1*
X21860D1*
X21865Y22602D1*
X21861Y22698D1*
Y23124D1*
X21647Y22907D1*
X21644Y22146D1*
X21640Y21948D1*
X21644Y21887D1*
X21743Y21889D1*
Y20487D1*
X20817D1*
X20819Y20054D1*
X21611Y19260D1*
X25437D1*
X25561Y19246D1*
X25679Y19206D1*
X25811Y19121D1*
X26028Y18905D1*
X26106Y18808D1*
X26161Y18696D1*
X26193Y18543D1*
X26195Y18491D1*
X26341Y18593D1*
X26456Y18642D1*
X26577Y18672D1*
X26702Y18680D1*
X26826Y18668D1*
X26946Y18635D1*
X27059Y18582D1*
X27162Y18510D1*
X27251Y18423D1*
X27324Y18322D1*
X27379Y18210D1*
X27415Y18090D1*
X27425Y18009D1*
X27841Y17595D1*
X27919Y17498D1*
X27974Y17386D1*
X28006Y17233D1*
X28008Y16321D1*
X29010Y16324D1*
Y14804D1*
X28006D1*
X28008Y14439D1*
X27994Y14315D1*
X27954Y14197D1*
X27868Y14066D1*
X27755Y13951D1*
X27758Y13189D1*
Y12545D1*
X27811Y12472D1*
X27871Y12362D1*
X27915Y12216D1*
X28720Y12220D1*
Y10660D1*
X27160D1*
Y11141D1*
X27065Y10974D1*
X26982Y10880D1*
X26886Y10800D1*
X26778Y10737D1*
X26662Y10693D1*
X26539Y10667D1*
X26415Y10661D1*
X26291Y10675D1*
X26170Y10708D1*
X26057Y10761D1*
X25954Y10831D1*
X25863Y10916D1*
X25786Y11015D1*
X25727Y11125D1*
X25686Y11243D1*
X25664Y11366D1*
X25662Y11491D1*
X25680Y11614D1*
X25718Y11733D1*
X25774Y11845D1*
X25847Y11946D1*
X25935Y12034D1*
X26037Y12107D1*
X26148Y12163D1*
X26267Y12200D1*
X26391Y12218D1*
X26460Y12222D1*
X26496Y12342D1*
X26552Y12453D1*
X26619Y12545D1*
X26618Y14193D1*
X26603Y14205D1*
X26481Y14230D1*
X26364Y14275D1*
X26261Y14337D1*
X26260Y14067D1*
X26246Y13943D1*
X26206Y13825D1*
X26121Y13694D1*
X24648Y12219D1*
X25220Y12220D1*
Y10660D1*
X23974D1*
X23995Y10502D1*
X23984Y10377D1*
X23953Y10256D1*
X23902Y10142D1*
X23833Y10038D1*
X23748Y9947D1*
X23648Y9872D1*
X23537Y9814D1*
X23418Y9776D1*
X23295Y9758D1*
X23136Y9767D1*
X22264Y8897D1*
X22366Y8843D1*
X22465Y8766D1*
X22550Y8675D1*
X22620Y8572D1*
X22672Y8458D1*
X22706Y8338D1*
X22720Y8190D1*
X22710Y8066D1*
X22680Y7944D1*
X22631Y7829D1*
X22565Y7724D1*
X22482Y7630D1*
X22386Y7550D1*
X22278Y7488D1*
X22162Y7443D1*
X22039Y7417D1*
X21915Y7411D1*
X21791Y7425D1*
X21670Y7459D1*
X21557Y7511D1*
X21439Y7594D1*
X21386Y7550D1*
X21278Y7488D1*
X21112Y7432D1*
X21009Y7330D1*
X21010Y6789D1*
X21091Y6843D1*
X21206Y6892D1*
X21327Y6922D1*
X21452Y6930D1*
X21576Y6918D1*
X21696Y6885D1*
X21809Y6832D1*
X21937Y6736D1*
X22091Y6843D1*
X22206Y6892D1*
X22327Y6922D1*
X22452Y6930D1*
X22576Y6918D1*
X22696Y6885D1*
X22809Y6832D1*
X22937Y6736D1*
X23091Y6843D1*
X23206Y6892D1*
X23327Y6922D1*
X23452Y6930D1*
X23576Y6918D1*
X23696Y6885D1*
X23809Y6832D1*
X23937Y6736D1*
X24091Y6843D1*
X24206Y6892D1*
X24327Y6922D1*
X24452Y6930D1*
X24576Y6918D1*
X24696Y6885D1*
X24809Y6832D1*
X24937Y6736D1*
X25091Y6843D1*
X25206Y6892D1*
X25327Y6922D1*
X25452Y6930D1*
X25576Y6918D1*
X25696Y6885D1*
X25809Y6832D1*
X25937Y6736D1*
X26091Y6843D1*
X26206Y6892D1*
X26285Y6911D1*
X24872Y8324D1*
X24792Y8424D1*
X24847Y8350D1*
X24720Y8345D1*
Y7410D1*
X23160D1*
Y8970D1*
X24610D1*
X24613Y9707D1*
Y10582D1*
X25936Y10578D1*
X26194Y10582D1*
X26767Y10578D1*
X26863Y10582D1*
X27436D1*
Y9298D1*
X27346D1*
X27331Y9152D1*
X27291Y9034D1*
X27205Y8903D1*
X27109Y8804D1*
X27021Y8663D1*
X26935Y8572D1*
X26836Y8497D1*
X26725Y8439D1*
X26606Y8401D1*
X26483Y8383D1*
X26424Y8384D1*
X27172Y7635D1*
X27813Y7634D1*
X27937Y7620D1*
X28055Y7580D1*
X28186Y7494D1*
X28241Y7442D1*
X28243Y8302D1*
X28113Y8298D1*
X28117Y9582D1*
X28113Y9673D1*
Y10582D1*
X29436Y10578D1*
X29694Y10582D1*
X30267Y10578D1*
X30363Y10582D1*
X30936D1*
Y9298D1*
X30878D1*
X30829Y9134D1*
X30744Y9003D1*
X30652Y8910D1*
X30590Y8767D1*
X30521Y8663D1*
X30436Y8572D1*
X30336Y8497D1*
X30225Y8439D1*
X30107Y8401D1*
X29983Y8383D1*
X29858Y8386D1*
X29736Y8409D1*
X29619Y8453D1*
X29511Y8516D1*
X29436Y8578D1*
Y8298D1*
X29385D1*
X29383Y7366D1*
X29778Y6967D1*
X29874Y6838D1*
X29924Y6870D1*
X30009Y7001D1*
X31614Y8608D1*
X13333Y14352D2*
X14082D1*
Y13855D1*
X14199Y13737D1*
X14414Y13754D1*
X14538Y13739D1*
X14659Y13706D1*
X14772Y13654D1*
X14877Y13586D1*
X14970Y13502D1*
X15049Y13406D1*
X15112Y13298D1*
X15158Y13182D1*
X15186Y13060D1*
X15195Y12940D1*
X15185Y12815D1*
X15157Y12694D1*
X15108Y12575D1*
X15624Y12572D1*
X16213D1*
X16146Y12756D1*
X16127Y12880D1*
X16128Y13005D1*
X16147Y13128D1*
X16185Y13247D1*
X16241Y13359D1*
X16313Y13461D1*
X16400Y13550D1*
X16499Y13626D1*
X16609Y13685D1*
X16727Y13727D1*
X16850Y13750D1*
X16974Y13754D1*
X17098Y13739D1*
X17219Y13706D1*
X17332Y13654D1*
X17437Y13586D1*
X17486Y13542D1*
X18949Y15005D1*
X18950Y15680D1*
X19118D1*
X19120Y16690D1*
Y17467D1*
X19020Y17625D1*
X18977Y17742D1*
X18954Y17864D1*
X18951Y17989D1*
X18970Y18113D1*
X19009Y18231D1*
X19068Y18341D1*
X19144Y18440D1*
X19236Y18525D1*
X19341Y18593D1*
X19456Y18642D1*
X19577Y18672D1*
X19702Y18680D1*
X19775Y18673D1*
X19096Y19349D1*
X19018Y19447D1*
X18963Y19559D1*
X18931Y19712D1*
X18929Y21124D1*
X18787Y21068D1*
X18664Y21042D1*
X18540Y21036D1*
X18416Y21050D1*
X18295Y21083D1*
X18182Y21136D1*
X18064Y21219D1*
X18011Y21175D1*
X17903Y21112D1*
X17787Y21068D1*
X17683Y21046D1*
X17718Y20962D1*
X17746Y20840D1*
X17755Y20720D1*
X17745Y20595D1*
X17717Y20474D1*
X17670Y20358D1*
X17606Y20251D1*
X17527Y20154D1*
X17434Y20071D1*
X17329Y20004D1*
X17215Y19953D1*
X17094Y19920D1*
X16970Y19906D1*
X16845Y19911D1*
X16723Y19934D1*
X16605Y19977D1*
X16496Y20037D1*
X16397Y20113D1*
X16310Y20203D1*
X16239Y20305D1*
X16183Y20417D1*
X16146Y20536D1*
X16127Y20660D1*
X16128Y20785D1*
X16147Y20908D1*
X16185Y21027D1*
X16229Y21114D1*
X16079Y21206D1*
X16064Y21219D1*
X16011Y21175D1*
X15903Y21112D1*
X15787Y21068D1*
X15664Y21042D1*
X15540Y21036D1*
X15416Y21050D1*
X15295Y21083D1*
X15182Y21136D1*
X15064Y21219D1*
X15011Y21175D1*
X14903Y21112D1*
X14787Y21068D1*
X14664Y21042D1*
X14540Y21036D1*
X14416Y21050D1*
X14295Y21083D1*
X14182Y21136D1*
X14079Y21206D1*
X13988Y21291D1*
X13911Y21390D1*
X13852Y21500D1*
X13811Y21618D1*
X13789Y21741D1*
X13787Y21866D1*
X13805Y21989D1*
X13843Y22108D1*
X13899Y22220D1*
X13972Y22321D1*
X14095Y22434D1*
X13300Y22433D1*
X13008Y22144D1*
X13010Y20143D1*
X13082Y20146D1*
Y20103D1*
X13832Y20102D1*
Y19605D1*
X13867Y19570D1*
X13939Y19626D1*
X14049Y19685D1*
X14167Y19727D1*
X14290Y19750D1*
X14414Y19754D1*
X14538Y19739D1*
X14659Y19706D1*
X14772Y19654D1*
X14877Y19586D1*
X14970Y19502D1*
X15049Y19406D1*
X15112Y19298D1*
X15158Y19182D1*
X15186Y19060D1*
X15195Y18940D1*
X15185Y18815D1*
X15157Y18694D1*
X15110Y18578D1*
X15046Y18471D1*
X14967Y18374D1*
X14874Y18291D1*
X14769Y18224D1*
X14655Y18173D1*
X14534Y18140D1*
X14410Y18126D1*
X14285Y18131D1*
X14163Y18154D1*
X14045Y18197D1*
X13936Y18257D1*
X13802Y18369D1*
X13690Y18370D1*
X13566Y18384D1*
X13448Y18424D1*
X13317Y18509D1*
X13262Y18562D1*
X13260Y17522D1*
X13332Y17521D1*
Y16848D1*
X14048Y16852D1*
X14082D1*
Y16762D1*
X14258Y16745D1*
X14414Y16754D1*
X14538Y16739D1*
X14659Y16706D1*
X14772Y16654D1*
X14877Y16586D1*
X14970Y16502D1*
X15049Y16406D1*
X15112Y16298D1*
X15158Y16182D1*
X15186Y16060D1*
X15195Y15940D1*
X15185Y15815D1*
X15157Y15694D1*
X15110Y15578D1*
X15046Y15471D1*
X14967Y15374D1*
X14874Y15291D1*
X14769Y15224D1*
X14655Y15173D1*
X14534Y15140D1*
X14410Y15126D1*
X14285Y15131D1*
X14163Y15154D1*
X14045Y15197D1*
X13936Y15257D1*
X13837Y15333D1*
X13750Y15423D1*
X13677Y15529D1*
X12798Y15532D1*
X12707Y15528D1*
X12445D1*
X12444Y15019D1*
X13332Y15021D1*
Y14348D1*
X13297Y13028D2*
X12798Y13032D1*
X12707Y13028D1*
X12445D1*
X12444Y12129D1*
X12721Y12405D1*
X12818Y12483D1*
X12930Y12538D1*
X13083Y12570D1*
X13651Y12572D1*
X13594Y12730D1*
X13298Y13026D1*
X12832Y13028D1*
X30678Y18262D2*
X32073D1*
Y16742D1*
X30553D1*
Y18262D1*
X30678D1*
X34366Y16262D2*
X35761D1*
Y14742D1*
X34241D1*
Y16262D1*
X34366D1*
X18210Y8816D2*
X18180Y8694D1*
X18131Y8579D1*
X18065Y8474D1*
X17982Y8380D1*
X17886Y8300D1*
X17778Y8237D1*
X17716Y8214D1*
X17810Y8096D1*
X17870Y7986D1*
X17901Y7894D1*
X19512Y9507D1*
X21619Y11615D1*
X21617Y12752D1*
Y13451D1*
X21511Y13560D1*
X20937Y13557D1*
X20813Y13571D1*
X20695Y13611D1*
X20564Y13696D1*
X20287Y13971D1*
X20209Y14068D1*
X20153Y14184D1*
X20191Y14099D1*
X20055Y14200D1*
X19754D1*
X18444Y12888D1*
Y12564D1*
X18430Y12440D1*
X18390Y12322D1*
X18305Y12191D1*
X17715Y11599D1*
X17617Y11521D1*
X17505Y11466D1*
X17352Y11433D1*
X13362Y11432D1*
X13132Y11204D1*
X13131Y9654D1*
X13267Y9700D1*
X13391Y9718D1*
X13516Y9716D1*
X13639Y9694D1*
X13757Y9652D1*
X13866Y9593D1*
X13937Y9538D1*
X14037Y9607D1*
X14148Y9663D1*
X14267Y9700D1*
X14391Y9718D1*
X14516Y9716D1*
X14639Y9694D1*
X14757Y9652D1*
X14866Y9593D1*
X14937Y9538D1*
X15037Y9607D1*
X15148Y9663D1*
X15267Y9700D1*
X15391Y9718D1*
X15516Y9716D1*
X15639Y9694D1*
X15757Y9652D1*
X15866Y9593D1*
X15937Y9538D1*
X16037Y9607D1*
X16148Y9663D1*
X16267Y9700D1*
X16391Y9718D1*
X16516Y9716D1*
X16639Y9694D1*
X16757Y9652D1*
X16866Y9593D1*
X16937Y9538D1*
X17037Y9607D1*
X17148Y9663D1*
X17267Y9700D1*
X17391Y9718D1*
X17516Y9716D1*
X17639Y9694D1*
X17757Y9652D1*
X17866Y9593D1*
X17965Y9516D1*
X18050Y9425D1*
X18120Y9322D1*
X18172Y9208D1*
X18206Y9088D1*
X18220Y8940D1*
X18210Y8816D1*
X14849Y8279D2*
X14778Y8237D1*
X14662Y8193D1*
X14539Y8167D1*
X14415Y8161D1*
X14291Y8175D1*
X14170Y8208D1*
X14057Y8261D1*
X13939Y8344D1*
X13886Y8300D1*
X13778Y8237D1*
X13716Y8214D1*
X14843Y7088D1*
X14921Y6991D1*
X14987Y6844D1*
X15091Y6843D1*
X15206Y6892D1*
X15327Y6922D1*
X15452Y6930D1*
X15576Y6918D1*
X15696Y6885D1*
X15809Y6832D1*
X15937Y6736D1*
X16091Y6843D1*
X16206Y6892D1*
X16327Y6922D1*
X16452Y6930D1*
X16576Y6918D1*
X16696Y6885D1*
X16809Y6832D1*
X16889Y6776D1*
X16941Y6903D1*
X16926Y6875D1*
X16867Y7016D1*
X16760Y7078D1*
X16709Y7121D1*
X15769Y7119D1*
X15661Y7064D1*
X15543Y7026D1*
X15419Y7008D1*
X15294Y7010D1*
X15172Y7034D1*
X15055Y7078D1*
X14947Y7141D1*
X14851Y7221D1*
X14770Y7315D1*
X14705Y7422D1*
X14660Y7539D1*
X14634Y7661D1*
X14630Y7786D1*
X14646Y7910D1*
X14683Y8029D1*
X14739Y8140D1*
X14849Y8276D1*
X16292Y22544D2*
X16392Y22575D1*
X16516Y22593D1*
X16641Y22591D1*
X16764Y22569D1*
X16882Y22527D1*
X16991Y22468D1*
X17062Y22413D1*
X17162Y22482D1*
X17277Y22539D1*
X17037Y22784D1*
X16959Y22881D1*
X16904Y22993D1*
X16871Y23146D1*
X16870Y23386D1*
X16578Y23088D1*
X16299Y22809D1*
X16306Y22690D1*
X16291Y22547D1*
X30785Y12220D2*
X32220D1*
Y10660D1*
X30660D1*
Y11141D1*
X30565Y10974D1*
X30482Y10880D1*
X30386Y10800D1*
X30278Y10737D1*
X30162Y10693D1*
X30039Y10667D1*
X29915Y10661D1*
X29791Y10675D1*
X29670Y10708D1*
X29557Y10761D1*
X29454Y10831D1*
X29363Y10916D1*
X29286Y11015D1*
X29227Y11125D1*
X29186Y11243D1*
X29164Y11366D1*
X29162Y11491D1*
X29180Y11614D1*
X29218Y11733D1*
X29274Y11845D1*
X29347Y11946D1*
X29435Y12034D1*
X29537Y12107D1*
X29648Y12163D1*
X29767Y12200D1*
X29891Y12218D1*
X30016Y12216D1*
X30139Y12194D1*
X30257Y12152D1*
X30366Y12093D1*
X30465Y12016D1*
X30550Y11925D1*
X30620Y11822D1*
X30661Y11733D1*
X30660Y12220D1*
X30785D1*
X34210Y11316D2*
X34180Y11194D1*
X34131Y11079D1*
X34065Y10974D1*
X33982Y10880D1*
X33886Y10800D1*
X33778Y10737D1*
X33662Y10693D1*
X33539Y10667D1*
X33415Y10661D1*
X33291Y10675D1*
X33170Y10708D1*
X33057Y10761D1*
X32954Y10831D1*
X32863Y10916D1*
X32786Y11015D1*
X32727Y11125D1*
X32686Y11243D1*
X32664Y11366D1*
X32662Y11491D1*
X32680Y11614D1*
X32718Y11733D1*
X32774Y11845D1*
X32847Y11946D1*
X32935Y12034D1*
X33037Y12107D1*
X33148Y12163D1*
X33267Y12200D1*
X33391Y12218D1*
X33516Y12216D1*
X33639Y12194D1*
X33757Y12152D1*
X33866Y12093D1*
X33965Y12016D1*
X34050Y11925D1*
X34120Y11822D1*
X34172Y11708D1*
X34206Y11588D1*
X34220Y11440D1*
X34210Y11316D1*
X11798Y20134D2*
Y20146D1*
X11872D1*
X11870Y22137D1*
X11794D1*
X11671Y22161D1*
X11554Y22205D1*
X11446Y22267D1*
X11351Y22347D1*
X11269Y22442D1*
X11205Y22549D1*
X11155Y22684D1*
X8873Y22683D1*
X8749Y22696D1*
X8631Y22737D1*
X8500Y22822D1*
X7658Y23662D1*
X7580Y23760D1*
X7525Y23872D1*
X7492Y24025D1*
X7491Y25441D1*
X7504Y25565D1*
X7545Y25683D1*
X7630Y25814D1*
X7807Y25995D1*
X7124D1*
X6885Y25756D1*
Y20374D1*
X7124Y20135D1*
X11795D1*
X29143Y22602D2*
X29144Y21977D1*
X29361Y21948D1*
Y22444D1*
X21643Y22602D2*
X21644Y21977D1*
X21861Y21948D1*
Y22573D1*
X23143Y22602D2*
X23144Y21977D1*
X23361Y21948D1*
Y22444D1*
X24643Y22602D2*
X24644Y21977D1*
X24861Y21948D1*
Y22444D1*
X11870Y5722D2*
X11833Y5767D1*
X11770Y5875D1*
X11727Y5992D1*
X11704Y6118D1*
X11580Y6263D1*
X11525Y6375D1*
X11492Y6528D1*
X11491Y6706D1*
X11448Y6746D1*
X11376Y6848D1*
X11327Y6963D1*
X11304Y7126D1*
Y12247D1*
X9635Y12245D1*
X6280D1*
Y10521D1*
X6543Y10525D1*
X11144D1*
Y7110D1*
X4384D1*
X4385Y4624D1*
X4624Y4385D1*
X19756D1*
X19762Y4523D1*
X19602Y4468D1*
X19478Y4451D1*
X19353Y4455D1*
X19231Y4480D1*
X19114Y4525D1*
X19007Y4589D1*
X18939Y4648D1*
X18832Y4562D1*
X18721Y4505D1*
X18602Y4468D1*
X18478Y4451D1*
X18353Y4455D1*
X18231Y4480D1*
X18114Y4525D1*
X18007Y4589D1*
X17939Y4648D1*
X17832Y4562D1*
X17721Y4505D1*
X17602Y4468D1*
X17478Y4451D1*
X17353Y4455D1*
X17231Y4480D1*
X17114Y4525D1*
X17007Y4589D1*
X16939Y4648D1*
X16832Y4562D1*
X16721Y4505D1*
X16602Y4468D1*
X16478Y4451D1*
X16353Y4455D1*
X16231Y4480D1*
X16114Y4525D1*
X16007Y4589D1*
X15939Y4648D1*
X15832Y4562D1*
X15721Y4505D1*
X15602Y4468D1*
X15478Y4451D1*
X15353Y4455D1*
X15231Y4480D1*
X15114Y4525D1*
X15007Y4589D1*
X14939Y4648D1*
X14832Y4562D1*
X14721Y4505D1*
X14602Y4468D1*
X14478Y4451D1*
X14353Y4455D1*
X14231Y4480D1*
X14114Y4525D1*
X14007Y4589D1*
X13939Y4648D1*
X13832Y4562D1*
X13721Y4505D1*
X13602Y4468D1*
X13478Y4451D1*
X13353Y4455D1*
X13231Y4480D1*
X13114Y4525D1*
X13007Y4589D1*
X12939Y4648D1*
X12832Y4562D1*
X12721Y4505D1*
X12602Y4468D1*
X12478Y4451D1*
X12353Y4455D1*
X12231Y4480D1*
X12114Y4525D1*
X12007Y4589D1*
X11912Y4671D1*
X11833Y4767D1*
X11770Y4875D1*
X11727Y4992D1*
X11704Y5114D1*
X11701Y5239D1*
X11720Y5363D1*
X11759Y5481D1*
X11818Y5591D1*
X11868Y5656D1*
X11870Y5717D1*
X19354Y6923D2*
X19452Y6930D1*
X19576Y6918D1*
X19696Y6885D1*
X19809Y6832D1*
X19870Y6789D1*
Y7444D1*
X19356Y6927D1*
X23922Y4630D2*
X23832Y4562D1*
X23721Y4505D1*
X23602Y4468D1*
X23478Y4451D1*
X23353Y4455D1*
X23231Y4480D1*
X23114Y4525D1*
X23007Y4589D1*
X22939Y4648D1*
X22832Y4562D1*
X22721Y4505D1*
X22602Y4468D1*
X22478Y4451D1*
X22353Y4455D1*
X22231Y4480D1*
X22114Y4525D1*
X22007Y4589D1*
X21939Y4648D1*
X21832Y4562D1*
X21721Y4505D1*
X21602Y4468D1*
X21478Y4451D1*
X21353Y4455D1*
X21242Y4478D1*
X21240Y4388D1*
X22448Y4385D1*
X24118Y4389D1*
X24037Y4470D1*
X23941Y4599D1*
X11895Y24692D2*
X11833Y24767D1*
X11770Y24875D1*
X11727Y24992D1*
X11704Y25114D1*
X11701Y25239D1*
X11724Y25374D1*
X10749Y25371D1*
X10268D1*
X10347Y25257D1*
X10407Y25148D1*
X10454Y25032D1*
X10487Y24911D1*
X10510Y24690D1*
X10503Y24565D1*
X10481Y24442D1*
X10445Y24323D1*
X10395Y24208D1*
X10333Y24100D1*
X10258Y24000D1*
X10172Y23909D1*
X10066Y23823D1*
X11498D1*
X11622Y23809D1*
X11741Y23769D1*
X11872Y23684D1*
X11937Y23620D1*
X11912Y23671D1*
X11833Y23767D1*
X11770Y23875D1*
X11727Y23992D1*
X11704Y24114D1*
X11701Y24239D1*
X11720Y24363D1*
X11759Y24481D1*
X11818Y24591D1*
X11892Y24687D1*
X36503Y23315D2*
X36481Y23192D1*
X36445Y23073D1*
X36395Y22958D1*
X36333Y22850D1*
X36258Y22750D1*
X36172Y22659D1*
X36076Y22579D1*
X35971Y22511D1*
X35859Y22456D1*
X35742Y22413D1*
X35620Y22385D1*
X35496Y22371D1*
X35371Y22372D1*
X35247Y22388D1*
X35125Y22417D1*
X35008Y22461D1*
X34897Y22518D1*
X34793Y22587D1*
X34698Y22669D1*
X34614Y22760D1*
X34540Y22861D1*
X34479Y22970D1*
X34430Y23085D1*
X34396Y23205D1*
X34376Y23329D1*
X34370Y23453D1*
X34379Y23578D1*
X34402Y23701D1*
X34440Y23820D1*
X34491Y23934D1*
X34555Y24041D1*
X34631Y24140D1*
X34718Y24230D1*
X34815Y24309D1*
X34921Y24376D1*
X35033Y24430D1*
X35151Y24470D1*
X35273Y24497D1*
X35398Y24509D1*
X35523Y24507D1*
X35646Y24490D1*
X35767Y24459D1*
X35884Y24414D1*
X35994Y24355D1*
X36097Y24284D1*
X36191Y24202D1*
X36275Y24109D1*
X36347Y24007D1*
X36407Y23898D1*
X36454Y23782D1*
X36487Y23661D1*
X36510Y23440D1*
X36503Y23315D1*
X10503Y5565D2*
X10481Y5442D1*
X10445Y5323D1*
X10395Y5208D1*
X10333Y5100D1*
X10258Y5000D1*
X10172Y4909D1*
X10076Y4829D1*
X9971Y4761D1*
X9859Y4706D1*
X9742Y4663D1*
X9620Y4635D1*
X9496Y4621D1*
X9371Y4622D1*
X9247Y4638D1*
X9125Y4667D1*
X9008Y4711D1*
X8897Y4768D1*
X8793Y4837D1*
X8698Y4919D1*
X8614Y5010D1*
X8540Y5111D1*
X8479Y5220D1*
X8430Y5335D1*
X8396Y5455D1*
X8376Y5579D1*
X8370Y5703D1*
X8379Y5828D1*
X8402Y5951D1*
X8440Y6070D1*
X8491Y6184D1*
X8555Y6291D1*
X8631Y6390D1*
X8718Y6480D1*
X8815Y6559D1*
X8921Y6626D1*
X9033Y6680D1*
X9151Y6720D1*
X9273Y6747D1*
X9398Y6759D1*
X9523Y6757D1*
X9646Y6740D1*
X9767Y6709D1*
X9884Y6664D1*
X9994Y6605D1*
X10097Y6534D1*
X10191Y6452D1*
X10275Y6359D1*
X10347Y6257D1*
X10407Y6148D1*
X10454Y6032D1*
X10487Y5911D1*
X10510Y5690D1*
X10503Y5565D1*
X20258Y15680D2*
X20430D1*
Y15629D1*
X20577Y15672D1*
X20702Y15680D1*
X20826Y15668D1*
X20946Y15635D1*
X21059Y15582D1*
X21187Y15486D1*
X21341Y15593D1*
X21456Y15642D1*
X21577Y15672D1*
X21702Y15680D1*
X21826Y15668D1*
X21946Y15635D1*
X22059Y15582D1*
X22162Y15510D1*
X22251Y15423D1*
X22324Y15322D1*
X22379Y15210D1*
X22415Y15090D1*
X22430Y14940D1*
X22420Y14816D1*
X22388Y14695D1*
X22337Y14581D1*
X22238Y14446D1*
X22590Y14092D1*
X22668Y13995D1*
X22723Y13883D1*
X22756Y13730D1*
X22757Y11943D1*
X24313Y13496D1*
X25122Y14305D1*
X25120Y14336D1*
X24971Y14255D1*
X24852Y14218D1*
X24728Y14201D1*
X24603Y14205D1*
X24481Y14230D1*
X24364Y14275D1*
X24257Y14339D1*
X24162Y14421D1*
X24083Y14517D1*
X24020Y14625D1*
X23977Y14742D1*
X23954Y14864D1*
X23951Y14989D1*
X23970Y15113D1*
X24009Y15231D1*
X24068Y15341D1*
X24144Y15440D1*
X24236Y15525D1*
X24341Y15593D1*
X24456Y15642D1*
X24577Y15672D1*
X24702Y15680D1*
X24826Y15668D1*
X24946Y15635D1*
X25059Y15582D1*
X25187Y15486D1*
X25341Y15593D1*
X25456Y15642D1*
X25577Y15672D1*
X25702Y15680D1*
X25826Y15668D1*
X25946Y15635D1*
X26059Y15582D1*
X26187Y15486D1*
X26341Y15593D1*
X26456Y15642D1*
X26577Y15672D1*
X26702Y15680D1*
X26867Y15656D1*
X26868Y16959D1*
X26623Y17201D1*
X26481Y17230D1*
X26364Y17275D1*
X26257Y17339D1*
X26189Y17398D1*
X26082Y17312D1*
X25971Y17255D1*
X25852Y17218D1*
X25728Y17201D1*
X25603Y17205D1*
X25481Y17230D1*
X25364Y17275D1*
X25257Y17339D1*
X25189Y17398D1*
X25082Y17312D1*
X24971Y17255D1*
X24852Y17218D1*
X24728Y17201D1*
X24603Y17205D1*
X24481Y17230D1*
X24364Y17275D1*
X24257Y17339D1*
X24162Y17421D1*
X24083Y17517D1*
X24020Y17625D1*
X23977Y17742D1*
X23954Y17864D1*
X23951Y17989D1*
X23971Y18116D1*
X23437Y18120D1*
X22410D1*
X22430Y17940D1*
X22420Y17816D1*
X22388Y17695D1*
X22337Y17581D1*
X22268Y17477D1*
X22182Y17387D1*
X22082Y17312D1*
X21971Y17255D1*
X21852Y17218D1*
X21728Y17201D1*
X21603Y17205D1*
X21481Y17230D1*
X21364Y17275D1*
X21257Y17339D1*
X21189Y17398D1*
X21082Y17312D1*
X20971Y17255D1*
X20852Y17218D1*
X20728Y17201D1*
X20603Y17205D1*
X20481Y17230D1*
X20364Y17275D1*
X20261Y17337D1*
X20260Y15678D1*
X17745Y18815D2*
X17717Y18694D1*
X17670Y18578D1*
X17606Y18471D1*
X17527Y18374D1*
X17477Y18330D1*
X17530Y18282D1*
X17609Y18186D1*
X17672Y18078D1*
X17718Y17962D1*
X17746Y17840D1*
X17755Y17720D1*
X17745Y17595D1*
X17717Y17474D1*
X17670Y17358D1*
X17606Y17251D1*
X17527Y17154D1*
X17434Y17071D1*
X17329Y17004D1*
X17215Y16953D1*
X17094Y16920D1*
X16970Y16906D1*
X16845Y16911D1*
X16723Y16934D1*
X16605Y16977D1*
X16496Y17037D1*
X16397Y17113D1*
X16310Y17203D1*
X16239Y17305D1*
X16183Y17417D1*
X16146Y17536D1*
X16127Y17660D1*
X16128Y17785D1*
X16147Y17908D1*
X16185Y18027D1*
X16241Y18139D1*
X16313Y18241D1*
X16397Y18333D1*
X16310Y18423D1*
X16239Y18525D1*
X16183Y18637D1*
X16146Y18756D1*
X16127Y18880D1*
X16128Y19005D1*
X16147Y19128D1*
X16185Y19247D1*
X16241Y19359D1*
X16313Y19461D1*
X16400Y19550D1*
X16499Y19626D1*
X16609Y19685D1*
X16727Y19727D1*
X16850Y19750D1*
X16974Y19754D1*
X17098Y19739D1*
X17219Y19706D1*
X17332Y19654D1*
X17437Y19586D1*
X17530Y19502D1*
X17609Y19406D1*
X17672Y19298D1*
X17718Y19182D1*
X17746Y19060D1*
X17755Y18940D1*
X17745Y18815D1*
Y15815D2*
X17717Y15694D1*
X17670Y15578D1*
X17606Y15471D1*
X17527Y15374D1*
X17477Y15330D1*
X17530Y15282D1*
X17609Y15186D1*
X17672Y15078D1*
X17718Y14962D1*
X17746Y14840D1*
X17755Y14720D1*
X17745Y14595D1*
X17717Y14474D1*
X17670Y14358D1*
X17606Y14251D1*
X17527Y14154D1*
X17434Y14071D1*
X17329Y14004D1*
X17215Y13953D1*
X17094Y13920D1*
X16970Y13906D1*
X16845Y13911D1*
X16723Y13934D1*
X16605Y13977D1*
X16496Y14037D1*
X16397Y14113D1*
X16310Y14203D1*
X16239Y14305D1*
X16183Y14417D1*
X16146Y14536D1*
X16127Y14660D1*
X16128Y14785D1*
X16147Y14908D1*
X16185Y15027D1*
X16241Y15139D1*
X16313Y15241D1*
X16397Y15333D1*
X16310Y15423D1*
X16239Y15525D1*
X16183Y15637D1*
X16146Y15756D1*
X16127Y15880D1*
X16128Y16005D1*
X16147Y16128D1*
X16185Y16247D1*
X16241Y16359D1*
X16313Y16461D1*
X16400Y16550D1*
X16499Y16626D1*
X16609Y16685D1*
X16727Y16727D1*
X16850Y16750D1*
X16974Y16754D1*
X17098Y16739D1*
X17219Y16706D1*
X17332Y16654D1*
X17437Y16586D1*
X17530Y16502D1*
X17609Y16406D1*
X17672Y16298D1*
X17718Y16182D1*
X17746Y16060D1*
X17755Y15940D1*
X17745Y15815D1*
X32557Y16509D2*
X34070D1*
Y14871D1*
X32432D1*
Y16509D1*
X32557D1*
X34060Y17565D2*
X34032Y17443D1*
X33985Y17328D1*
X33922Y17220D1*
X33843Y17123D1*
X33750Y17040D1*
X33645Y16972D1*
X33531Y16920D1*
X33411Y16886D1*
X33287Y16871D1*
X33162Y16875D1*
X33040Y16898D1*
X32922Y16939D1*
X32812Y16998D1*
X32712Y17073D1*
X32624Y17162D1*
X32551Y17264D1*
X32495Y17375D1*
X32456Y17493D1*
X32435Y17617D1*
X32433Y17742D1*
X32451Y17865D1*
X32487Y17985D1*
X32541Y18097D1*
X32611Y18201D1*
X32696Y18292D1*
X32794Y18369D1*
X32903Y18431D1*
X33019Y18475D1*
X33142Y18501D1*
X33266Y18508D1*
X33391Y18497D1*
X33512Y18466D1*
X33627Y18417D1*
X33733Y18352D1*
X33828Y18271D1*
X33910Y18176D1*
X33976Y18070D1*
X34025Y17956D1*
X34057Y17835D1*
X34070Y17690D1*
X34060Y17565D1*
X29033Y18219D2*
X30468D1*
Y16660D1*
X28908D1*
Y18219D1*
X29033D1*
X7003Y5565D2*
X6981Y5442D1*
X6945Y5323D1*
X6895Y5208D1*
X6833Y5100D1*
X6758Y5000D1*
X6672Y4909D1*
X6576Y4829D1*
X6471Y4761D1*
X6359Y4706D1*
X6242Y4663D1*
X6120Y4635D1*
X5996Y4621D1*
X5871Y4622D1*
X5747Y4638D1*
X5625Y4667D1*
X5508Y4711D1*
X5397Y4768D1*
X5293Y4837D1*
X5198Y4919D1*
X5114Y5010D1*
X5040Y5111D1*
X4979Y5220D1*
X4930Y5335D1*
X4896Y5455D1*
X4876Y5579D1*
X4870Y5703D1*
X4879Y5828D1*
X4902Y5951D1*
X4940Y6070D1*
X4991Y6184D1*
X5055Y6291D1*
X5131Y6390D1*
X5218Y6480D1*
X5315Y6559D1*
X5421Y6626D1*
X5533Y6680D1*
X5651Y6720D1*
X5773Y6747D1*
X5898Y6759D1*
X6023Y6757D1*
X6146Y6740D1*
X6267Y6709D1*
X6384Y6664D1*
X6494Y6605D1*
X6597Y6534D1*
X6691Y6452D1*
X6775Y6359D1*
X6847Y6257D1*
X6907Y6148D1*
X6954Y6032D1*
X6987Y5911D1*
X7010Y5690D1*
X7003Y5565D1*
X4383Y10525D2*
X4734D1*
X4730Y10942D1*
Y12243D1*
X4625Y12245D1*
X4385Y12006D1*
Y10522D1*
D18*
X32275Y8940D3*
X31605D3*
X28775D3*
X28105D3*
X25275Y9065D3*
X24605D3*
D19*
X13440Y13690D3*
Y14359D3*
Y16190D3*
Y16859D3*
X13190Y19440D3*
Y20109D3*
D20*
X31313Y15502D3*
D21*
Y17502D3*
D20*
X35001D3*
D21*
Y15502D3*
D22*
X30003Y20440D3*
Y21188D3*
X28503Y20440D3*
Y21188D3*
X27003Y20440D3*
Y21188D3*
X25503Y20440D3*
Y21188D3*
X24003Y20440D3*
Y21188D3*
X22503Y20440D3*
Y21188D3*
X21003Y20440D3*
Y21188D3*
D23*
X18440Y8940D3*
D24*
X17440D3*
X16440D3*
X15440D3*
X14440D3*
X13440D3*
D23*
X13565Y21815D3*
D24*
X14565D3*
X15565D3*
X16565D3*
X17565D3*
X18565D3*
D23*
X31440Y11440D3*
D24*
X32440D3*
X33440D3*
D23*
X27940D3*
D24*
X28940D3*
X29940D3*
D23*
X24440D3*
D24*
X25440D3*
X26440D3*
D23*
X23940Y8190D3*
D24*
X22940D3*
X21940D3*
X20940D3*
D23*
X36626Y15502D3*
D24*
Y16502D3*
D18*
X32275Y9940D3*
X31605D3*
X33105D3*
X33775D3*
X28775D3*
X28105D3*
X29605D3*
X30275D3*
X25275D3*
X24605D3*
X26105D3*
X26775D3*
D19*
X12690Y14359D3*
Y13690D3*
Y16859D3*
Y16190D3*
X12440Y18815D3*
Y19484D3*
X27003Y21940D3*
Y22609D3*
X28503Y21940D3*
Y22609D3*
X30003Y21940D3*
Y22609D3*
X25503Y21940D3*
Y22609D3*
X21003Y21940D3*
Y22609D3*
X22503Y21940D3*
Y22609D3*
X24003Y21940D3*
Y22609D3*
D25*
X11440Y6190D3*
X12440D3*
X13440D3*
X14440D3*
X15440D3*
X16440D3*
X17440D3*
X18440D3*
X19440D3*
X20440D3*
X21440D3*
X22440D3*
X23440D3*
X24440D3*
X25440D3*
X26440D3*
X27440D3*
X28440D3*
X29440D3*
X30440D3*
X31440D3*
X32440D3*
X33440D3*
Y5190D3*
X32440D3*
X31440D3*
X30440D3*
X29440D3*
X28440D3*
X27440D3*
X26440D3*
X25440D3*
X24440D3*
X23440D3*
X22440D3*
X21440D3*
X20440D3*
X19440D3*
X18440D3*
X17440D3*
X16440D3*
X15440D3*
X14440D3*
X13440D3*
X12440D3*
X11440D3*
Y25190D3*
X12440D3*
X13440D3*
X14440D3*
X15440D3*
X16440D3*
X17440D3*
X18440D3*
X19440D3*
X20440D3*
X21440D3*
X22440D3*
X23440D3*
X24440D3*
X25440D3*
X26440D3*
X27440D3*
X28440D3*
X29440D3*
X30440D3*
X31440D3*
X32440D3*
X33440D3*
Y24190D3*
X32440D3*
X31440D3*
X30440D3*
X29440D3*
X28440D3*
X27440D3*
X26440D3*
X25440D3*
X24440D3*
X23440D3*
X22440D3*
X21440D3*
X20440D3*
X19440D3*
X18440D3*
X17440D3*
X16440D3*
X15440D3*
X14440D3*
X13440D3*
X12440D3*
X11440D3*
D26*
X19690Y14940D3*
D25*
X20690D3*
X21690D3*
X22690D3*
X23690D3*
X24690D3*
X25690D3*
X26690D3*
Y17940D3*
X25690D3*
X24690D3*
X23690D3*
X22690D3*
X21690D3*
X20690D3*
X19690D3*
D28*
X14380Y20720D3*
X16940D3*
X14380Y18940D3*
X16940D3*
X14380Y17720D3*
X16940D3*
X14380Y15940D3*
X16940D3*
X14380Y14720D3*
X16940D3*
X14380Y12940D3*
X16940D3*
D29*
X33251Y15690D3*
D30*
Y16690D3*
Y17690D3*
D23*
X29688Y17440D3*
D24*
Y16440D3*
D20*
X28250Y13564D3*
D21*
Y15564D3*
X5516Y8198D2*
D56*
Y9603D1*
X4846Y8667D1*
X5850D1*
X6349Y8333D2*
X6283Y8265D1*
X6349Y8198D1*
X6417Y8265D1*
X6349Y8333D1*
X6849Y9336D2*
X6984Y9404D1*
X7185Y9603D1*
Y8198D1*
X7618Y9336D2*
X7752Y9404D1*
X7953Y9603D1*
Y8198D1*
X8452Y8333D2*
X8386Y8265D1*
X8452Y8198D1*
X8520Y8265D1*
X8452Y8333D1*
X8953Y9336D2*
X9087Y9404D1*
X9288Y9603D1*
Y8198D1*
X10524Y9404D2*
X10457Y9537D1*
X10256Y9603D1*
X10123D1*
X9922Y9537D1*
X9787Y9336D1*
X9721Y9001D1*
Y8667D1*
X9787Y8399D1*
X9922Y8265D1*
X10123Y8198D1*
X10190D1*
X10389Y8265D1*
X10524Y8399D1*
X10590Y8600D1*
Y8667D1*
X10524Y8868D1*
X10389Y9001D1*
X10190Y9068D1*
X10123D1*
X9922Y9001D1*
X9787Y8868D1*
X9721Y8667D1*
X5237Y11683D2*
D57*
Y10880D1*
X5582D1*
X5697Y10918D1*
X5735Y10956D1*
X5773Y11033D1*
Y11147D1*
X5735Y11224D1*
X5697Y11262D1*
X5582Y11300D1*
X5697Y11339D1*
X5735Y11377D1*
X5773Y11453D1*
Y11530D1*
X5735Y11606D1*
X5697Y11645D1*
X5582Y11683D1*
X5237D1*
Y11300D2*
X5582D1*
M02*
