G04 DipTrace 2.4.0.2*
%INTopAssy.gbr*%
%MOIN*%
%ADD10C,0.0098*%
%ADD12C,0.003*%
%ADD26C,0.008*%
%FSLAX44Y44*%
G04*
G70*
G90*
G75*
G01*
%LNTopAssy*%
%LPD*%
X19231Y8342D2*
D10*
X12649D1*
X12774Y22413D2*
X19356D1*
X30546Y12038D2*
X34334D1*
X27046D2*
X30834D1*
X23546D2*
X27334D1*
X24834Y7592D2*
X20046D1*
X36028Y14608D2*
Y17396D1*
X16860Y20230D2*
D26*
Y20830D1*
X16660Y21030D1*
Y18630D2*
X16860Y18830D1*
Y19430D1*
X14660Y21030D2*
X14460Y20830D1*
Y20230D1*
X14660Y18630D2*
X14460Y18830D1*
Y19430D1*
X16660Y18630D2*
X16510D1*
X14660D2*
X14810D1*
X14660Y21030D2*
X14810D1*
X16660D2*
X16510D1*
X14660Y20330D2*
Y20030D1*
Y19630D2*
Y19330D1*
Y20030D2*
X14810Y19680D1*
X16860Y17230D2*
Y17830D1*
X16660Y18030D1*
Y15630D2*
X16860Y15830D1*
Y16430D1*
X14660Y18030D2*
X14460Y17830D1*
Y17230D1*
X14660Y15630D2*
X14460Y15830D1*
Y16430D1*
X16660Y15630D2*
X16510D1*
X14660D2*
X14810D1*
X14660Y18030D2*
X14810D1*
X16660D2*
X16510D1*
X14660Y17330D2*
Y17030D1*
Y16630D2*
Y16330D1*
Y17030D2*
X14810Y16680D1*
X16860Y14230D2*
Y14830D1*
X16660Y15030D1*
Y12630D2*
X16860Y12830D1*
Y13430D1*
X14660Y15030D2*
X14460Y14830D1*
Y14230D1*
X14660Y12630D2*
X14460Y12830D1*
Y13430D1*
X16660Y12630D2*
X16510D1*
X14660D2*
X14810D1*
X14660Y15030D2*
X14810D1*
X16660D2*
X16510D1*
X14660Y14330D2*
Y14030D1*
Y13630D2*
Y13330D1*
Y14030D2*
X14810Y13680D1*
X30286Y18333D2*
D10*
Y15546D1*
X16934Y7959D2*
D12*
Y8160D1*
X16848D1*
X16819Y8150D1*
X16810Y8140D1*
X16800Y8121D1*
Y8093D1*
X16810Y8073D1*
X16819Y8064D1*
X16848Y8054D1*
X16819Y8045D1*
X16810Y8035D1*
X16800Y8016D1*
Y7997D1*
X16810Y7978D1*
X16819Y7968D1*
X16848Y7959D1*
X16934D1*
Y8054D2*
X16848D1*
X16681Y7959D2*
X16700Y7968D1*
X16719Y7987D1*
X16729Y8006D1*
X16739Y8035D1*
Y8083D1*
X16729Y8112D1*
X16719Y8131D1*
X16700Y8150D1*
X16681Y8160D1*
X16643D1*
X16624Y8150D1*
X16605Y8131D1*
X16595Y8112D1*
X16586Y8083D1*
Y8035D1*
X16595Y8006D1*
X16605Y7987D1*
X16624Y7968D1*
X16643Y7959D1*
X16681D1*
X16371Y8160D2*
X16447Y7959D1*
X16524Y8160D1*
X16495Y8093D2*
X16399D1*
X16309Y8054D2*
X16223D1*
X16194Y8045D1*
X16184Y8035D1*
X16175Y8016D1*
Y7997D1*
X16184Y7978D1*
X16194Y7968D1*
X16223Y7959D1*
X16309D1*
Y8160D1*
X16242Y8054D2*
X16175Y8160D1*
X16113Y7959D2*
Y8160D1*
X16046D1*
X16017Y8150D1*
X15998Y8131D1*
X15989Y8112D1*
X15979Y8083D1*
Y8035D1*
X15989Y8006D1*
X15998Y7987D1*
X16017Y7968D1*
X16046Y7959D1*
X16113D1*
X15599D2*
X15723D1*
Y8160D1*
X15599D1*
X15723Y8054D2*
X15647D1*
X15537Y7959D2*
Y8160D1*
X15470D1*
X15441Y8150D1*
X15422Y8131D1*
X15413Y8112D1*
X15403Y8083D1*
Y8035D1*
X15413Y8006D1*
X15422Y7987D1*
X15441Y7968D1*
X15470Y7959D1*
X15537D1*
X15198Y8006D2*
X15207Y7987D1*
X15227Y7968D1*
X15246Y7959D1*
X15284D1*
X15303Y7968D1*
X15322Y7987D1*
X15332Y8006D1*
X15341Y8035D1*
Y8083D1*
X15332Y8112D1*
X15322Y8131D1*
X15303Y8150D1*
X15284Y8160D1*
X15246D1*
X15227Y8150D1*
X15207Y8131D1*
X15198Y8112D1*
Y8083D1*
X15246D1*
X15012Y7959D2*
X15136D1*
Y8160D1*
X15012D1*
X15136Y8054D2*
X15060D1*
X15071Y22796D2*
Y22595D1*
X15157D1*
X15186Y22605D1*
X15195Y22615D1*
X15205Y22634D1*
Y22662D1*
X15195Y22682D1*
X15186Y22691D1*
X15157Y22701D1*
X15186Y22710D1*
X15195Y22720D1*
X15205Y22739D1*
Y22758D1*
X15195Y22777D1*
X15186Y22787D1*
X15157Y22796D1*
X15071D1*
Y22701D2*
X15157D1*
X15324Y22796D2*
X15305Y22787D1*
X15286Y22768D1*
X15276Y22749D1*
X15266Y22720D1*
Y22672D1*
X15276Y22643D1*
X15286Y22624D1*
X15305Y22605D1*
X15324Y22595D1*
X15362D1*
X15381Y22605D1*
X15400Y22624D1*
X15410Y22643D1*
X15419Y22672D1*
Y22720D1*
X15410Y22749D1*
X15400Y22768D1*
X15381Y22787D1*
X15362Y22796D1*
X15324D1*
X15634Y22595D2*
X15558Y22796D1*
X15481Y22595D1*
X15510Y22662D2*
X15606D1*
X15696Y22701D2*
X15782D1*
X15811Y22710D1*
X15821Y22720D1*
X15830Y22739D1*
Y22758D1*
X15821Y22777D1*
X15811Y22787D1*
X15782Y22796D1*
X15696D1*
Y22595D1*
X15763Y22701D2*
X15830Y22595D1*
X15892Y22796D2*
Y22595D1*
X15959D1*
X15988Y22605D1*
X16007Y22624D1*
X16016Y22643D1*
X16026Y22672D1*
Y22720D1*
X16016Y22749D1*
X16007Y22768D1*
X15988Y22787D1*
X15959Y22796D1*
X15892D1*
X16406D2*
X16282D1*
Y22595D1*
X16406D1*
X16282Y22701D2*
X16358D1*
X16468Y22796D2*
Y22595D1*
X16535D1*
X16564Y22605D1*
X16583Y22624D1*
X16592Y22643D1*
X16602Y22672D1*
Y22720D1*
X16592Y22749D1*
X16583Y22768D1*
X16564Y22787D1*
X16535Y22796D1*
X16468D1*
X16807Y22749D2*
X16798Y22768D1*
X16778Y22787D1*
X16759Y22796D1*
X16721D1*
X16702Y22787D1*
X16683Y22768D1*
X16673Y22749D1*
X16664Y22720D1*
Y22672D1*
X16673Y22643D1*
X16683Y22624D1*
X16702Y22605D1*
X16721Y22595D1*
X16759D1*
X16778Y22605D1*
X16798Y22624D1*
X16807Y22643D1*
Y22672D1*
X16759D1*
X16993Y22796D2*
X16869D1*
Y22595D1*
X16993D1*
X16869Y22701D2*
X16945D1*
X31456Y12372D2*
Y12171D1*
X31542D1*
X31571Y12181D1*
X31580Y12190D1*
X31590Y12209D1*
Y12238D1*
X31580Y12257D1*
X31571Y12267D1*
X31542Y12276D1*
X31571Y12286D1*
X31580Y12296D1*
X31590Y12315D1*
Y12334D1*
X31580Y12353D1*
X31571Y12363D1*
X31542Y12372D1*
X31456D1*
Y12276D2*
X31542D1*
X31709Y12372D2*
X31690Y12363D1*
X31671Y12343D1*
X31661Y12324D1*
X31651Y12296D1*
Y12248D1*
X31661Y12219D1*
X31671Y12200D1*
X31690Y12181D1*
X31709Y12171D1*
X31747D1*
X31766Y12181D1*
X31785Y12200D1*
X31795Y12219D1*
X31804Y12248D1*
Y12296D1*
X31795Y12324D1*
X31785Y12343D1*
X31766Y12363D1*
X31747Y12372D1*
X31709D1*
X32019Y12171D2*
X31943Y12372D1*
X31866Y12171D1*
X31895Y12238D2*
X31991D1*
X32081Y12276D2*
X32167D1*
X32196Y12286D1*
X32205Y12296D1*
X32215Y12315D1*
Y12334D1*
X32205Y12353D1*
X32196Y12363D1*
X32167Y12372D1*
X32081D1*
Y12171D1*
X32148Y12276D2*
X32215Y12171D1*
X32277Y12372D2*
Y12171D1*
X32344D1*
X32372Y12181D1*
X32392Y12200D1*
X32401Y12219D1*
X32411Y12248D1*
Y12296D1*
X32401Y12324D1*
X32392Y12343D1*
X32372Y12363D1*
X32344Y12372D1*
X32277D1*
X32791D2*
X32667D1*
Y12171D1*
X32791D1*
X32667Y12276D2*
X32743D1*
X32853Y12372D2*
Y12171D1*
X32920D1*
X32949Y12181D1*
X32968Y12200D1*
X32977Y12219D1*
X32987Y12248D1*
Y12296D1*
X32977Y12324D1*
X32968Y12343D1*
X32949Y12363D1*
X32920Y12372D1*
X32853D1*
X33192Y12324D2*
X33183Y12343D1*
X33163Y12363D1*
X33144Y12372D1*
X33106D1*
X33087Y12363D1*
X33068Y12343D1*
X33058Y12324D1*
X33049Y12296D1*
Y12248D1*
X33058Y12219D1*
X33068Y12200D1*
X33087Y12181D1*
X33106Y12171D1*
X33144D1*
X33163Y12181D1*
X33183Y12200D1*
X33192Y12219D1*
Y12248D1*
X33144D1*
X33378Y12372D2*
X33254D1*
Y12171D1*
X33378D1*
X33254Y12276D2*
X33330D1*
X27956Y12372D2*
Y12171D1*
X28042D1*
X28071Y12181D1*
X28080Y12190D1*
X28090Y12209D1*
Y12238D1*
X28080Y12257D1*
X28071Y12267D1*
X28042Y12276D1*
X28071Y12286D1*
X28080Y12296D1*
X28090Y12315D1*
Y12334D1*
X28080Y12353D1*
X28071Y12363D1*
X28042Y12372D1*
X27956D1*
Y12276D2*
X28042D1*
X28209Y12372D2*
X28190Y12363D1*
X28171Y12343D1*
X28161Y12324D1*
X28151Y12296D1*
Y12248D1*
X28161Y12219D1*
X28171Y12200D1*
X28190Y12181D1*
X28209Y12171D1*
X28247D1*
X28266Y12181D1*
X28285Y12200D1*
X28295Y12219D1*
X28304Y12248D1*
Y12296D1*
X28295Y12324D1*
X28285Y12343D1*
X28266Y12363D1*
X28247Y12372D1*
X28209D1*
X28519Y12171D2*
X28443Y12372D1*
X28366Y12171D1*
X28395Y12238D2*
X28491D1*
X28581Y12276D2*
X28667D1*
X28696Y12286D1*
X28705Y12296D1*
X28715Y12315D1*
Y12334D1*
X28705Y12353D1*
X28696Y12363D1*
X28667Y12372D1*
X28581D1*
Y12171D1*
X28648Y12276D2*
X28715Y12171D1*
X28777Y12372D2*
Y12171D1*
X28844D1*
X28872Y12181D1*
X28892Y12200D1*
X28901Y12219D1*
X28911Y12248D1*
Y12296D1*
X28901Y12324D1*
X28892Y12343D1*
X28872Y12363D1*
X28844Y12372D1*
X28777D1*
X29291D2*
X29167D1*
Y12171D1*
X29291D1*
X29167Y12276D2*
X29243D1*
X29353Y12372D2*
Y12171D1*
X29420D1*
X29449Y12181D1*
X29468Y12200D1*
X29477Y12219D1*
X29487Y12248D1*
Y12296D1*
X29477Y12324D1*
X29468Y12343D1*
X29449Y12363D1*
X29420Y12372D1*
X29353D1*
X29692Y12324D2*
X29683Y12343D1*
X29663Y12363D1*
X29644Y12372D1*
X29606D1*
X29587Y12363D1*
X29568Y12343D1*
X29558Y12324D1*
X29549Y12296D1*
Y12248D1*
X29558Y12219D1*
X29568Y12200D1*
X29587Y12181D1*
X29606Y12171D1*
X29644D1*
X29663Y12181D1*
X29683Y12200D1*
X29692Y12219D1*
Y12248D1*
X29644D1*
X29878Y12372D2*
X29754D1*
Y12171D1*
X29878D1*
X29754Y12276D2*
X29830D1*
X24456Y12372D2*
Y12171D1*
X24542D1*
X24571Y12181D1*
X24580Y12190D1*
X24590Y12209D1*
Y12238D1*
X24580Y12257D1*
X24571Y12267D1*
X24542Y12276D1*
X24571Y12286D1*
X24580Y12296D1*
X24590Y12315D1*
Y12334D1*
X24580Y12353D1*
X24571Y12363D1*
X24542Y12372D1*
X24456D1*
Y12276D2*
X24542D1*
X24709Y12372D2*
X24690Y12363D1*
X24671Y12343D1*
X24661Y12324D1*
X24651Y12296D1*
Y12248D1*
X24661Y12219D1*
X24671Y12200D1*
X24690Y12181D1*
X24709Y12171D1*
X24747D1*
X24766Y12181D1*
X24785Y12200D1*
X24795Y12219D1*
X24804Y12248D1*
Y12296D1*
X24795Y12324D1*
X24785Y12343D1*
X24766Y12363D1*
X24747Y12372D1*
X24709D1*
X25019Y12171D2*
X24943Y12372D1*
X24866Y12171D1*
X24895Y12238D2*
X24991D1*
X25081Y12276D2*
X25167D1*
X25196Y12286D1*
X25205Y12296D1*
X25215Y12315D1*
Y12334D1*
X25205Y12353D1*
X25196Y12363D1*
X25167Y12372D1*
X25081D1*
Y12171D1*
X25148Y12276D2*
X25215Y12171D1*
X25277Y12372D2*
Y12171D1*
X25344D1*
X25372Y12181D1*
X25392Y12200D1*
X25401Y12219D1*
X25411Y12248D1*
Y12296D1*
X25401Y12324D1*
X25392Y12343D1*
X25372Y12363D1*
X25344Y12372D1*
X25277D1*
X25791D2*
X25667D1*
Y12171D1*
X25791D1*
X25667Y12276D2*
X25743D1*
X25853Y12372D2*
Y12171D1*
X25920D1*
X25949Y12181D1*
X25968Y12200D1*
X25977Y12219D1*
X25987Y12248D1*
Y12296D1*
X25977Y12324D1*
X25968Y12343D1*
X25949Y12363D1*
X25920Y12372D1*
X25853D1*
X26192Y12324D2*
X26183Y12343D1*
X26163Y12363D1*
X26144Y12372D1*
X26106D1*
X26087Y12363D1*
X26068Y12343D1*
X26058Y12324D1*
X26049Y12296D1*
Y12248D1*
X26058Y12219D1*
X26068Y12200D1*
X26087Y12181D1*
X26106Y12171D1*
X26144D1*
X26163Y12181D1*
X26183Y12200D1*
X26192Y12219D1*
Y12248D1*
X26144D1*
X26378Y12372D2*
X26254D1*
Y12171D1*
X26378D1*
X26254Y12276D2*
X26330D1*
X23434Y7258D2*
Y7459D1*
X23348D1*
X23319Y7449D1*
X23310Y7440D1*
X23300Y7421D1*
Y7392D1*
X23310Y7373D1*
X23319Y7363D1*
X23348Y7354D1*
X23319Y7344D1*
X23310Y7334D1*
X23300Y7315D1*
Y7296D1*
X23310Y7277D1*
X23319Y7267D1*
X23348Y7258D1*
X23434D1*
Y7354D2*
X23348D1*
X23181Y7258D2*
X23200Y7267D1*
X23219Y7287D1*
X23229Y7306D1*
X23239Y7334D1*
Y7382D1*
X23229Y7411D1*
X23219Y7430D1*
X23200Y7449D1*
X23181Y7459D1*
X23143D1*
X23124Y7449D1*
X23105Y7430D1*
X23095Y7411D1*
X23086Y7382D1*
Y7334D1*
X23095Y7306D1*
X23105Y7287D1*
X23124Y7267D1*
X23143Y7258D1*
X23181D1*
X22871Y7459D2*
X22947Y7258D1*
X23024Y7459D1*
X22995Y7392D2*
X22899D1*
X22809Y7354D2*
X22723D1*
X22694Y7344D1*
X22684Y7334D1*
X22675Y7315D1*
Y7296D1*
X22684Y7277D1*
X22694Y7267D1*
X22723Y7258D1*
X22809D1*
Y7459D1*
X22742Y7354D2*
X22675Y7459D1*
X22613Y7258D2*
Y7459D1*
X22546D1*
X22517Y7449D1*
X22498Y7430D1*
X22489Y7411D1*
X22479Y7382D1*
Y7334D1*
X22489Y7306D1*
X22498Y7287D1*
X22517Y7267D1*
X22546Y7258D1*
X22613D1*
X22099D2*
X22223D1*
Y7459D1*
X22099D1*
X22223Y7354D2*
X22146D1*
X22037Y7258D2*
Y7459D1*
X21970D1*
X21941Y7449D1*
X21922Y7430D1*
X21913Y7411D1*
X21903Y7382D1*
Y7334D1*
X21913Y7306D1*
X21922Y7287D1*
X21941Y7267D1*
X21970Y7258D1*
X22037D1*
X21698Y7306D2*
X21707Y7287D1*
X21727Y7267D1*
X21746Y7258D1*
X21784D1*
X21803Y7267D1*
X21822Y7287D1*
X21832Y7306D1*
X21841Y7334D1*
Y7382D1*
X21832Y7411D1*
X21822Y7430D1*
X21803Y7449D1*
X21784Y7459D1*
X21746D1*
X21727Y7449D1*
X21707Y7430D1*
X21698Y7411D1*
Y7382D1*
X21746D1*
X21512Y7258D2*
X21636D1*
Y7459D1*
X21512D1*
X21636Y7354D2*
X21560D1*
X35694Y15017D2*
X35895D1*
Y15104D1*
X35885Y15132D1*
X35876Y15142D1*
X35857Y15151D1*
X35828D1*
X35809Y15142D1*
X35799Y15132D1*
X35790Y15104D1*
X35780Y15132D1*
X35770Y15142D1*
X35751Y15151D1*
X35732D1*
X35713Y15142D1*
X35703Y15132D1*
X35694Y15104D1*
Y15017D1*
X35790D2*
Y15104D1*
X35694Y15271D2*
X35703Y15251D1*
X35723Y15232D1*
X35742Y15223D1*
X35770Y15213D1*
X35818D1*
X35847Y15223D1*
X35866Y15232D1*
X35885Y15251D1*
X35895Y15271D1*
Y15309D1*
X35885Y15328D1*
X35866Y15347D1*
X35847Y15357D1*
X35818Y15366D1*
X35770D1*
X35742Y15357D1*
X35723Y15347D1*
X35703Y15328D1*
X35694Y15309D1*
Y15271D1*
X35895Y15581D2*
X35694Y15504D1*
X35895Y15428D1*
X35828Y15457D2*
Y15552D1*
X35790Y15643D2*
Y15729D1*
X35780Y15758D1*
X35770Y15767D1*
X35751Y15777D1*
X35732D1*
X35713Y15767D1*
X35703Y15758D1*
X35694Y15729D1*
Y15643D1*
X35895D1*
X35790Y15710D2*
X35895Y15777D1*
X35694Y15839D2*
X35895D1*
Y15906D1*
X35885Y15934D1*
X35866Y15953D1*
X35847Y15963D1*
X35818Y15972D1*
X35770D1*
X35742Y15963D1*
X35723Y15953D1*
X35703Y15934D1*
X35694Y15906D1*
Y15839D1*
Y16353D2*
Y16229D1*
X35895D1*
Y16353D1*
X35790Y16229D2*
Y16305D1*
X35694Y16415D2*
X35895D1*
Y16482D1*
X35885Y16510D1*
X35866Y16530D1*
X35847Y16539D1*
X35818Y16549D1*
X35770D1*
X35742Y16539D1*
X35723Y16530D1*
X35703Y16510D1*
X35694Y16482D1*
Y16415D1*
X35742Y16754D2*
X35723Y16744D1*
X35703Y16725D1*
X35694Y16706D1*
Y16668D1*
X35703Y16649D1*
X35723Y16630D1*
X35742Y16620D1*
X35770Y16610D1*
X35818D1*
X35847Y16620D1*
X35866Y16630D1*
X35885Y16649D1*
X35895Y16668D1*
Y16706D1*
X35885Y16725D1*
X35866Y16744D1*
X35847Y16754D1*
X35818D1*
Y16706D1*
X35694Y16940D2*
Y16816D1*
X35895D1*
Y16940D1*
X35790Y16816D2*
Y16892D1*
X30620Y17924D2*
X30419D1*
Y17838D1*
X30429Y17809D1*
X30438Y17800D1*
X30457Y17790D1*
X30486D1*
X30505Y17800D1*
X30515Y17809D1*
X30524Y17838D1*
X30534Y17809D1*
X30544Y17800D1*
X30563Y17790D1*
X30582D1*
X30601Y17800D1*
X30611Y17809D1*
X30620Y17838D1*
Y17924D1*
X30524D2*
Y17838D1*
X30620Y17671D2*
X30611Y17690D1*
X30591Y17709D1*
X30572Y17719D1*
X30544Y17729D1*
X30496D1*
X30467Y17719D1*
X30448Y17709D1*
X30429Y17690D1*
X30419Y17671D1*
Y17633D1*
X30429Y17614D1*
X30448Y17595D1*
X30467Y17585D1*
X30496Y17576D1*
X30544D1*
X30572Y17585D1*
X30591Y17595D1*
X30611Y17614D1*
X30620Y17633D1*
Y17671D1*
X30419Y17361D2*
X30620Y17437D1*
X30419Y17514D1*
X30486Y17485D2*
Y17389D1*
X30524Y17299D2*
Y17213D1*
X30534Y17184D1*
X30544Y17175D1*
X30563Y17165D1*
X30582D1*
X30601Y17175D1*
X30611Y17184D1*
X30620Y17213D1*
Y17299D1*
X30419D1*
X30524Y17232D2*
X30419Y17165D1*
X30620Y17103D2*
X30419D1*
Y17036D1*
X30429Y17008D1*
X30448Y16988D1*
X30467Y16979D1*
X30496Y16969D1*
X30544D1*
X30572Y16979D1*
X30591Y16988D1*
X30611Y17008D1*
X30620Y17036D1*
Y17103D1*
Y16589D2*
Y16713D1*
X30419D1*
Y16589D1*
X30524Y16713D2*
Y16637D1*
X30620Y16527D2*
X30419D1*
Y16460D1*
X30429Y16431D1*
X30448Y16412D1*
X30467Y16403D1*
X30496Y16393D1*
X30544D1*
X30572Y16403D1*
X30591Y16412D1*
X30611Y16431D1*
X30620Y16460D1*
Y16527D1*
X30572Y16188D2*
X30591Y16197D1*
X30611Y16217D1*
X30620Y16236D1*
Y16274D1*
X30611Y16293D1*
X30591Y16312D1*
X30572Y16322D1*
X30544Y16331D1*
X30496D1*
X30467Y16322D1*
X30448Y16312D1*
X30429Y16293D1*
X30419Y16274D1*
Y16236D1*
X30429Y16217D1*
X30448Y16197D1*
X30467Y16188D1*
X30496D1*
Y16236D1*
X30620Y16002D2*
Y16126D1*
X30419D1*
Y16002D1*
X30524Y16126D2*
Y16050D1*
M02*
