G04 DipTrace 2.4.0.2*
%INTopMask.gbr*%
%MOIN*%
%ADD22R,0.0669X0.0669*%
%ADD23C,0.0669*%
%ADD27C,0.074*%
%ADD28R,0.0748X0.0748*%
%ADD29C,0.0748*%
%ADD32C,0.125*%
%ADD38C,0.0828*%
%ADD39R,0.0828X0.0828*%
%ADD44R,0.0671X0.0592*%
%ADD46R,0.071X0.071*%
%ADD48C,0.071*%
%ADD50R,0.0474X0.0513*%
%ADD52R,0.0513X0.0474*%
%FSLAX44Y44*%
G04*
G70*
G90*
G75*
G01*
%LNTopMask*%
%LPD*%
D52*
X32275Y8940D3*
X31605D3*
X28775D3*
X28105D3*
X25275Y9065D3*
X24605D3*
D50*
X13440Y13690D3*
Y14359D3*
Y16190D3*
Y16859D3*
X13190Y19440D3*
Y20109D3*
D48*
X31313Y15502D3*
D46*
Y17502D3*
D48*
X35001D3*
D46*
Y15502D3*
D44*
X30003Y20440D3*
Y21188D3*
X28503Y20440D3*
Y21188D3*
X27003Y20440D3*
Y21188D3*
X25503Y20440D3*
Y21188D3*
X24003Y20440D3*
Y21188D3*
X22503Y20440D3*
Y21188D3*
X21003Y20440D3*
Y21188D3*
D28*
X18440Y8940D3*
D29*
X17440D3*
X16440D3*
X15440D3*
X14440D3*
X13440D3*
D28*
X13565Y21815D3*
D29*
X14565D3*
X15565D3*
X16565D3*
X17565D3*
X18565D3*
D28*
X31440Y11440D3*
D29*
X32440D3*
X33440D3*
D28*
X27940D3*
D29*
X28940D3*
X29940D3*
D28*
X24440D3*
D29*
X25440D3*
X26440D3*
D28*
X23940Y8190D3*
D29*
X22940D3*
X21940D3*
X20940D3*
D28*
X36626Y15502D3*
D29*
Y16502D3*
D52*
X32275Y9940D3*
X31605D3*
X33105D3*
X33775D3*
X28775D3*
X28105D3*
X29605D3*
X30275D3*
X25275D3*
X24605D3*
X26105D3*
X26775D3*
D50*
X12690Y14359D3*
Y13690D3*
Y16859D3*
Y16190D3*
X12440Y18815D3*
Y19484D3*
X27003Y21940D3*
Y22609D3*
X28503Y21940D3*
Y22609D3*
X30003Y21940D3*
Y22609D3*
X25503Y21940D3*
Y22609D3*
X21003Y21940D3*
Y22609D3*
X22503Y21940D3*
Y22609D3*
X24003Y21940D3*
Y22609D3*
D23*
X11440Y6190D3*
X12440D3*
X13440D3*
X14440D3*
X15440D3*
X16440D3*
X17440D3*
X18440D3*
X19440D3*
X20440D3*
X21440D3*
X22440D3*
X23440D3*
X24440D3*
X25440D3*
X26440D3*
X27440D3*
X28440D3*
X29440D3*
X30440D3*
X31440D3*
X32440D3*
X33440D3*
Y5190D3*
X32440D3*
X31440D3*
X30440D3*
X29440D3*
X28440D3*
X27440D3*
X26440D3*
X25440D3*
X24440D3*
X23440D3*
X22440D3*
X21440D3*
X20440D3*
X19440D3*
X18440D3*
X17440D3*
X16440D3*
X15440D3*
X14440D3*
X13440D3*
X12440D3*
X11440D3*
Y25190D3*
X12440D3*
X13440D3*
X14440D3*
X15440D3*
X16440D3*
X17440D3*
X18440D3*
X19440D3*
X20440D3*
X21440D3*
X22440D3*
X23440D3*
X24440D3*
X25440D3*
X26440D3*
X27440D3*
X28440D3*
X29440D3*
X30440D3*
X31440D3*
X32440D3*
X33440D3*
Y24190D3*
X32440D3*
X31440D3*
X30440D3*
X29440D3*
X28440D3*
X27440D3*
X26440D3*
X25440D3*
X24440D3*
X23440D3*
X22440D3*
X21440D3*
X20440D3*
X19440D3*
X18440D3*
X17440D3*
X16440D3*
X15440D3*
X14440D3*
X13440D3*
X12440D3*
X11440D3*
D32*
X35440Y23440D3*
Y6940D3*
X9440Y24690D3*
Y5690D3*
D22*
X19690Y14940D3*
D23*
X20690D3*
X21690D3*
X22690D3*
X23690D3*
X24690D3*
X25690D3*
X26690D3*
Y17940D3*
X25690D3*
X24690D3*
X23690D3*
X22690D3*
X21690D3*
X20690D3*
X19690D3*
D27*
X14380Y20720D3*
X16940D3*
X14380Y18940D3*
X16940D3*
X14380Y17720D3*
X16940D3*
X14380Y15940D3*
X16940D3*
X14380Y14720D3*
X16940D3*
X14380Y12940D3*
X16940D3*
D39*
X33251Y15690D3*
D38*
Y16690D3*
Y17690D3*
D28*
X29688Y17440D3*
D29*
Y16440D3*
D48*
X28250Y13564D3*
D46*
Y15564D3*
D32*
X5940Y5690D3*
X36190Y12440D3*
M02*
