G04 DipTrace 2.4.0.2*
%INTopSilk.gbr*%
%MOIN*%
%ADD10C,0.0098*%
%ADD26C,0.008*%
%ADD54C,0.0062*%
%FSLAX44Y44*%
G04*
G70*
G90*
G75*
G01*
%LNTopSilk*%
%LPD*%
X31913Y17701D2*
D10*
Y15303D1*
X30713Y17701D2*
Y15303D1*
G03X31913Y15303I600J-1D01*
G01*
Y17701D2*
G03X30713Y17701I-600J1D01*
G01*
X34401Y15303D2*
Y17701D1*
X35601Y15303D2*
Y17701D1*
G03X34401Y17701I-600J1D01*
G01*
Y15303D2*
G03X35601Y15303I600J-1D01*
G01*
X30258Y20066D2*
X29747D1*
X28758D2*
X28247D1*
X27258D2*
X26747D1*
X25758D2*
X25247D1*
X24258D2*
X23747D1*
X22758D2*
X22247D1*
X21258D2*
X20747D1*
X18940Y8440D2*
X12940D1*
Y9440D1*
X18940D1*
Y8440D1*
X13065Y22315D2*
X19065D1*
Y21315D1*
X13065D1*
Y22315D1*
X30940Y11940D2*
X33940D1*
Y10940D1*
X30940D1*
Y11940D1*
X27440D2*
X30440D1*
Y10940D1*
X27440D1*
Y11940D1*
X23940D2*
X26940D1*
Y10940D1*
X23940D1*
Y11940D1*
X24440Y7690D2*
X20440D1*
Y8690D1*
X24440D1*
Y7690D1*
X36126Y15002D2*
X37126D1*
Y17002D1*
X36126D1*
Y15002D1*
X37690Y8701D2*
Y21678D1*
X33188Y4457D2*
G03X37690Y8701I229J4267D01*
G01*
X33188Y25922D2*
G02X37690Y21678I229J-4267D01*
G01*
X3690Y12694D2*
X11690D1*
Y19683D1*
X6441D1*
Y25922D1*
Y4457D2*
G02X3690Y6953I-177J2568D01*
G01*
Y12694D1*
X6441Y4457D2*
X33188D1*
Y25922D2*
X6441D1*
X19174Y17464D2*
X27206D1*
Y15416D2*
Y17464D1*
X19174Y15416D2*
X27206D1*
X19174D2*
Y16204D1*
Y17464D2*
Y16676D1*
Y16204D2*
G03X19174Y16676I0J236D01*
G01*
X16510Y21030D2*
D26*
X14810D1*
Y18630D2*
X16510D1*
X16860Y20223D2*
Y19430D1*
X14460Y20235D2*
Y19430D1*
X14960Y19830D2*
G02X14960Y19830I700J0D01*
G01*
X16510Y18030D2*
X14810D1*
Y15630D2*
X16510D1*
X16860Y17223D2*
Y16430D1*
X14460Y17235D2*
Y16430D1*
X14960Y16830D2*
G02X14960Y16830I700J0D01*
G01*
X16510Y15030D2*
X14810D1*
Y12630D2*
X16510D1*
X16860Y14223D2*
Y13430D1*
X14460Y14235D2*
Y13430D1*
X14960Y13830D2*
G02X14960Y13830I700J0D01*
G01*
X32188Y14721D2*
D10*
X33959D1*
Y18658D1*
X32188D1*
Y14721D1*
X32542D2*
Y18658D1*
X30188Y17940D2*
X29188D1*
Y15940D1*
X30188D1*
Y17940D1*
X28850Y15763D2*
Y13366D1*
X27650Y15763D2*
Y13366D1*
G03X28850Y13366I600J-1D01*
G01*
Y15763D2*
G03X27650Y15763I-600J1D01*
G01*
X31974Y9627D2*
D54*
X31955Y9665D1*
X31916Y9704D1*
X31878Y9723D1*
X31802D1*
X31763Y9704D1*
X31725Y9665D1*
X31706Y9627D1*
X31687Y9570D1*
Y9474D1*
X31706Y9417D1*
X31725Y9378D1*
X31763Y9340D1*
X31802Y9321D1*
X31878D1*
X31916Y9340D1*
X31955Y9378D1*
X31974Y9417D1*
X32097Y9646D2*
X32136Y9665D1*
X32193Y9722D1*
Y9321D1*
X28388Y9627D2*
X28369Y9665D1*
X28330Y9704D1*
X28292Y9723D1*
X28216D1*
X28177Y9704D1*
X28139Y9665D1*
X28120Y9627D1*
X28101Y9570D1*
Y9474D1*
X28120Y9417D1*
X28139Y9378D1*
X28177Y9340D1*
X28216Y9321D1*
X28292D1*
X28330Y9340D1*
X28369Y9378D1*
X28388Y9417D1*
X28531Y9627D2*
Y9646D1*
X28550Y9684D1*
X28569Y9703D1*
X28607Y9722D1*
X28684D1*
X28722Y9703D1*
X28741Y9684D1*
X28760Y9646D1*
Y9608D1*
X28741Y9569D1*
X28703Y9512D1*
X28511Y9321D1*
X28779D1*
X24888Y9752D2*
X24869Y9790D1*
X24830Y9829D1*
X24792Y9848D1*
X24716D1*
X24677Y9829D1*
X24639Y9790D1*
X24620Y9752D1*
X24601Y9695D1*
Y9599D1*
X24620Y9542D1*
X24639Y9503D1*
X24677Y9465D1*
X24716Y9446D1*
X24792D1*
X24830Y9465D1*
X24869Y9503D1*
X24888Y9542D1*
X25050Y9847D2*
X25260D1*
X25145Y9694D1*
X25203D1*
X25241Y9675D1*
X25260Y9656D1*
X25279Y9599D1*
Y9561D1*
X25260Y9503D1*
X25222Y9465D1*
X25164Y9446D1*
X25107D1*
X25050Y9465D1*
X25031Y9484D1*
X25011Y9522D1*
X12753Y13963D2*
X12715Y13944D1*
X12676Y13905D1*
X12657Y13867D1*
Y13791D1*
X12676Y13752D1*
X12715Y13714D1*
X12753Y13695D1*
X12810Y13676D1*
X12906D1*
X12963Y13695D1*
X13002Y13714D1*
X13040Y13752D1*
X13059Y13791D1*
Y13867D1*
X13040Y13905D1*
X13002Y13944D1*
X12963Y13963D1*
X13059Y14278D2*
X12658D1*
X12925Y14086D1*
Y14373D1*
X12753Y16472D2*
X12715Y16453D1*
X12676Y16415D1*
X12657Y16377D1*
Y16300D1*
X12676Y16262D1*
X12715Y16224D1*
X12753Y16204D1*
X12810Y16185D1*
X12906D1*
X12963Y16204D1*
X13002Y16224D1*
X13040Y16262D1*
X13059Y16300D1*
Y16377D1*
X13040Y16415D1*
X13002Y16453D1*
X12963Y16472D1*
X12658Y16825D2*
Y16634D1*
X12830Y16615D1*
X12811Y16634D1*
X12791Y16692D1*
Y16749D1*
X12811Y16806D1*
X12849Y16845D1*
X12906Y16864D1*
X12944D1*
X13002Y16845D1*
X13040Y16806D1*
X13059Y16749D1*
Y16692D1*
X13040Y16634D1*
X13021Y16615D1*
X12983Y16596D1*
X12503Y19732D2*
X12465Y19713D1*
X12426Y19675D1*
X12407Y19637D1*
Y19560D1*
X12426Y19522D1*
X12465Y19484D1*
X12503Y19464D1*
X12560Y19445D1*
X12656D1*
X12713Y19464D1*
X12752Y19484D1*
X12790Y19522D1*
X12809Y19560D1*
Y19637D1*
X12790Y19675D1*
X12752Y19713D1*
X12713Y19732D1*
X12465Y20085D2*
X12427Y20066D1*
X12408Y20009D1*
Y19971D1*
X12427Y19913D1*
X12484Y19875D1*
X12580Y19856D1*
X12675D1*
X12752Y19875D1*
X12790Y19913D1*
X12809Y19971D1*
Y19990D1*
X12790Y20047D1*
X12752Y20085D1*
X12694Y20104D1*
X12675D1*
X12618Y20085D1*
X12580Y20047D1*
X12561Y19990D1*
Y19971D1*
X12580Y19913D1*
X12618Y19875D1*
X12675Y19856D1*
X31261Y18792D2*
X31242Y18830D1*
X31203Y18869D1*
X31165Y18888D1*
X31089D1*
X31050Y18869D1*
X31012Y18830D1*
X30993Y18792D1*
X30974Y18735D1*
Y18639D1*
X30993Y18582D1*
X31012Y18543D1*
X31050Y18505D1*
X31089Y18486D1*
X31165D1*
X31203Y18505D1*
X31242Y18543D1*
X31261Y18582D1*
X31461Y18486D2*
X31652Y18887D1*
X31384D1*
X34949Y18793D2*
X34930Y18831D1*
X34891Y18869D1*
X34853Y18888D1*
X34777D1*
X34738Y18869D1*
X34700Y18831D1*
X34681Y18793D1*
X34662Y18735D1*
Y18639D1*
X34681Y18582D1*
X34700Y18544D1*
X34738Y18506D1*
X34777Y18486D1*
X34853D1*
X34891Y18506D1*
X34930Y18544D1*
X34949Y18582D1*
X35168Y18888D2*
X35111Y18869D1*
X35091Y18831D1*
Y18792D1*
X35111Y18754D1*
X35149Y18735D1*
X35225Y18716D1*
X35283Y18697D1*
X35321Y18658D1*
X35340Y18620D1*
Y18563D1*
X35321Y18525D1*
X35302Y18505D1*
X35244Y18486D1*
X35168D1*
X35111Y18505D1*
X35091Y18525D1*
X35072Y18563D1*
Y18620D1*
X35091Y18658D1*
X35130Y18697D1*
X35187Y18716D1*
X35263Y18735D1*
X35302Y18754D1*
X35321Y18792D1*
Y18831D1*
X35302Y18869D1*
X35244Y18888D1*
X35168D1*
X29121Y20511D2*
X29523D1*
Y20645D1*
X29504Y20703D1*
X29466Y20741D1*
X29427Y20760D1*
X29370Y20779D1*
X29274D1*
X29217Y20760D1*
X29179Y20741D1*
X29140Y20703D1*
X29121Y20645D1*
Y20511D1*
X29198Y20903D2*
X29179Y20941D1*
X29122Y20999D1*
X29523D1*
X27621Y20425D2*
X28023D1*
Y20559D1*
X28004Y20617D1*
X27966Y20655D1*
X27927Y20674D1*
X27870Y20693D1*
X27774D1*
X27717Y20674D1*
X27679Y20655D1*
X27640Y20617D1*
X27621Y20559D1*
Y20425D1*
X27717Y20836D2*
X27698D1*
X27660Y20855D1*
X27641Y20874D1*
X27622Y20913D1*
Y20989D1*
X27641Y21027D1*
X27660Y21046D1*
X27698Y21066D1*
X27736D1*
X27775Y21046D1*
X27832Y21008D1*
X28023Y20817D1*
Y21085D1*
X26121Y20425D2*
X26523D1*
Y20559D1*
X26504Y20617D1*
X26466Y20655D1*
X26427Y20674D1*
X26370Y20693D1*
X26274D1*
X26217Y20674D1*
X26179Y20655D1*
X26140Y20617D1*
X26121Y20559D1*
Y20425D1*
X26122Y20855D2*
Y21065D1*
X26275Y20951D1*
Y21008D1*
X26294Y21046D1*
X26313Y21065D1*
X26370Y21085D1*
X26408D1*
X26466Y21065D1*
X26504Y21027D1*
X26523Y20970D1*
Y20912D1*
X26504Y20855D1*
X26485Y20836D1*
X26447Y20817D1*
X24621Y20416D2*
X25023D1*
Y20550D1*
X25004Y20607D1*
X24966Y20646D1*
X24927Y20665D1*
X24870Y20684D1*
X24774D1*
X24717Y20665D1*
X24679Y20646D1*
X24640Y20607D1*
X24621Y20550D1*
Y20416D1*
X25023Y20999D2*
X24622D1*
X24889Y20807D1*
Y21094D1*
X23121Y20425D2*
X23523D1*
Y20559D1*
X23504Y20617D1*
X23466Y20655D1*
X23427Y20674D1*
X23370Y20693D1*
X23274D1*
X23217Y20674D1*
X23179Y20655D1*
X23140Y20617D1*
X23121Y20559D1*
Y20425D1*
X23122Y21046D2*
Y20855D1*
X23294Y20836D1*
X23275Y20855D1*
X23255Y20913D1*
Y20970D1*
X23275Y21027D1*
X23313Y21066D1*
X23370Y21085D1*
X23408D1*
X23466Y21066D1*
X23504Y21027D1*
X23523Y20970D1*
Y20913D1*
X23504Y20855D1*
X23485Y20836D1*
X23447Y20817D1*
X21621Y20435D2*
X22023D1*
Y20569D1*
X22004Y20627D1*
X21966Y20665D1*
X21927Y20684D1*
X21870Y20703D1*
X21774D1*
X21717Y20684D1*
X21679Y20665D1*
X21640Y20627D1*
X21621Y20569D1*
Y20435D1*
X21679Y21056D2*
X21641Y21037D1*
X21622Y20980D1*
Y20942D1*
X21641Y20884D1*
X21698Y20846D1*
X21794Y20827D1*
X21889D1*
X21966Y20846D1*
X22004Y20884D1*
X22023Y20942D1*
Y20961D1*
X22004Y21018D1*
X21966Y21056D1*
X21908Y21075D1*
X21889D1*
X21832Y21056D1*
X21794Y21018D1*
X21775Y20961D1*
Y20942D1*
X21794Y20884D1*
X21832Y20846D1*
X21889Y20827D1*
X20121Y20425D2*
X20523D1*
Y20559D1*
X20504Y20617D1*
X20466Y20655D1*
X20427Y20674D1*
X20370Y20693D1*
X20274D1*
X20217Y20674D1*
X20179Y20655D1*
X20140Y20617D1*
X20121Y20559D1*
Y20425D1*
X20523Y20893D2*
X20122Y21085D1*
Y20817D1*
X15926Y10026D2*
Y9720D1*
X15907Y9662D1*
X15888Y9643D1*
X15850Y9624D1*
X15811D1*
X15773Y9643D1*
X15754Y9662D1*
X15735Y9720D1*
Y9758D1*
X16050Y9949D2*
X16088Y9968D1*
X16145Y10025D1*
Y9624D1*
X15965Y23450D2*
Y23144D1*
X15946Y23087D1*
X15927Y23068D1*
X15889Y23048D1*
X15850D1*
X15812Y23068D1*
X15793Y23087D1*
X15774Y23144D1*
Y23182D1*
X16108Y23354D2*
Y23373D1*
X16127Y23412D1*
X16146Y23431D1*
X16184Y23450D1*
X16261D1*
X16299Y23431D1*
X16318Y23412D1*
X16337Y23373D1*
Y23335D1*
X16318Y23297D1*
X16280Y23240D1*
X16089Y23048D1*
X16356D1*
X32340Y13026D2*
Y12720D1*
X32321Y12662D1*
X32302Y12643D1*
X32264Y12624D1*
X32225D1*
X32187Y12643D1*
X32168Y12662D1*
X32149Y12720D1*
Y12758D1*
X32502Y13025D2*
X32712D1*
X32597Y12872D1*
X32655D1*
X32693Y12853D1*
X32712Y12834D1*
X32731Y12777D1*
Y12739D1*
X32712Y12681D1*
X32674Y12643D1*
X32616Y12624D1*
X32559D1*
X32502Y12643D1*
X32483Y12662D1*
X32464Y12700D1*
X28830Y13026D2*
Y12720D1*
X28811Y12662D1*
X28792Y12643D1*
X28754Y12624D1*
X28716D1*
X28678Y12643D1*
X28658Y12662D1*
X28639Y12720D1*
Y12758D1*
X29145Y12624D2*
Y13025D1*
X28954Y12758D1*
X29241D1*
X25340Y13026D2*
Y12720D1*
X25321Y12662D1*
X25302Y12643D1*
X25264Y12624D1*
X25225D1*
X25187Y12643D1*
X25168Y12662D1*
X25149Y12720D1*
Y12758D1*
X25693Y13025D2*
X25502D1*
X25483Y12853D1*
X25502Y12872D1*
X25559Y12892D1*
X25616D1*
X25674Y12872D1*
X25712Y12834D1*
X25731Y12777D1*
Y12739D1*
X25712Y12681D1*
X25674Y12643D1*
X25616Y12624D1*
X25559D1*
X25502Y12643D1*
X25483Y12662D1*
X25464Y12700D1*
X22350Y9276D2*
Y8970D1*
X22331Y8912D1*
X22311Y8893D1*
X22273Y8874D1*
X22235D1*
X22197Y8893D1*
X22178Y8912D1*
X22158Y8970D1*
Y9008D1*
X22703Y9218D2*
X22684Y9256D1*
X22626Y9275D1*
X22588D1*
X22531Y9256D1*
X22492Y9199D1*
X22473Y9103D1*
Y9008D1*
X22492Y8931D1*
X22531Y8893D1*
X22588Y8874D1*
X22607D1*
X22664Y8893D1*
X22703Y8931D1*
X22722Y8989D1*
Y9008D1*
X22703Y9065D1*
X22664Y9103D1*
X22607Y9122D1*
X22588D1*
X22531Y9103D1*
X22492Y9065D1*
X22473Y9008D1*
X36276Y17982D2*
Y17676D1*
X36257Y17618D1*
X36238Y17599D1*
X36200Y17580D1*
X36161D1*
X36123Y17599D1*
X36104Y17618D1*
X36085Y17676D1*
Y17714D1*
X36476Y17580D2*
X36668Y17981D1*
X36400D1*
X31696Y10531D2*
X31868D1*
X31926Y10551D1*
X31945Y10570D1*
X31964Y10608D1*
Y10646D1*
X31945Y10684D1*
X31926Y10704D1*
X31868Y10723D1*
X31696D1*
Y10321D1*
X31830Y10531D2*
X31964Y10321D1*
X32088Y10646D2*
X32126Y10665D1*
X32184Y10722D1*
Y10321D1*
X33110Y10531D2*
X33282D1*
X33340Y10551D1*
X33359Y10570D1*
X33378Y10608D1*
Y10646D1*
X33359Y10684D1*
X33340Y10704D1*
X33282Y10723D1*
X33110D1*
Y10321D1*
X33244Y10531D2*
X33378Y10321D1*
X33521Y10627D2*
Y10646D1*
X33540Y10684D1*
X33559Y10703D1*
X33598Y10722D1*
X33674D1*
X33712Y10703D1*
X33731Y10684D1*
X33751Y10646D1*
Y10608D1*
X33731Y10569D1*
X33693Y10512D1*
X33502Y10321D1*
X33770D1*
X28110Y10531D2*
X28282D1*
X28340Y10551D1*
X28359Y10570D1*
X28378Y10608D1*
Y10646D1*
X28359Y10684D1*
X28340Y10704D1*
X28282Y10723D1*
X28110D1*
Y10321D1*
X28244Y10531D2*
X28378Y10321D1*
X28540Y10722D2*
X28750D1*
X28636Y10569D1*
X28693D1*
X28731Y10550D1*
X28750Y10531D1*
X28770Y10474D1*
Y10436D1*
X28750Y10378D1*
X28712Y10340D1*
X28655Y10321D1*
X28597D1*
X28540Y10340D1*
X28521Y10359D1*
X28502Y10397D1*
X29601Y10531D2*
X29773D1*
X29830Y10551D1*
X29850Y10570D1*
X29869Y10608D1*
Y10646D1*
X29850Y10684D1*
X29830Y10704D1*
X29773Y10723D1*
X29601D1*
Y10321D1*
X29735Y10531D2*
X29869Y10321D1*
X30184D2*
Y10722D1*
X29992Y10455D1*
X30279D1*
X24610Y10531D2*
X24782D1*
X24840Y10551D1*
X24859Y10570D1*
X24878Y10608D1*
Y10646D1*
X24859Y10684D1*
X24840Y10704D1*
X24782Y10723D1*
X24610D1*
Y10321D1*
X24744Y10531D2*
X24878Y10321D1*
X25231Y10722D2*
X25040D1*
X25021Y10550D1*
X25040Y10569D1*
X25098Y10589D1*
X25155D1*
X25212Y10569D1*
X25251Y10531D1*
X25270Y10474D1*
Y10436D1*
X25251Y10378D1*
X25212Y10340D1*
X25155Y10321D1*
X25098D1*
X25040Y10340D1*
X25021Y10359D1*
X25002Y10397D1*
X26120Y10531D2*
X26292D1*
X26350Y10551D1*
X26369Y10570D1*
X26388Y10608D1*
Y10646D1*
X26369Y10684D1*
X26350Y10704D1*
X26292Y10723D1*
X26120D1*
Y10321D1*
X26254Y10531D2*
X26388Y10321D1*
X26741Y10665D2*
X26722Y10703D1*
X26664Y10722D1*
X26626D1*
X26569Y10703D1*
X26530Y10646D1*
X26511Y10550D1*
Y10455D1*
X26530Y10378D1*
X26569Y10340D1*
X26626Y10321D1*
X26645D1*
X26702Y10340D1*
X26741Y10378D1*
X26760Y10436D1*
Y10455D1*
X26741Y10512D1*
X26702Y10550D1*
X26645Y10569D1*
X26626D1*
X26569Y10550D1*
X26530Y10512D1*
X26511Y10455D1*
X12099Y13695D2*
Y13867D1*
X12079Y13924D1*
X12060Y13944D1*
X12022Y13963D1*
X11984D1*
X11946Y13944D1*
X11926Y13924D1*
X11907Y13867D1*
Y13695D1*
X12309D1*
X12099Y13829D2*
X12309Y13963D1*
Y14163D2*
X11908Y14354D1*
Y14086D1*
X12099Y16195D2*
Y16367D1*
X12079Y16425D1*
X12060Y16444D1*
X12022Y16463D1*
X11984D1*
X11946Y16444D1*
X11926Y16425D1*
X11907Y16367D1*
Y16195D1*
X12309D1*
X12099Y16329D2*
X12309Y16463D1*
X11908Y16682D2*
X11927Y16625D1*
X11965Y16606D1*
X12003D1*
X12041Y16625D1*
X12061Y16663D1*
X12080Y16740D1*
X12099Y16797D1*
X12137Y16835D1*
X12175Y16854D1*
X12233D1*
X12271Y16835D1*
X12290Y16816D1*
X12309Y16759D1*
Y16682D1*
X12290Y16625D1*
X12271Y16606D1*
X12233Y16587D1*
X12175D1*
X12137Y16606D1*
X12099Y16644D1*
X12080Y16701D1*
X12061Y16778D1*
X12041Y16816D1*
X12003Y16835D1*
X11965D1*
X11927Y16816D1*
X11908Y16759D1*
Y16682D1*
X11849Y18829D2*
Y19001D1*
X11829Y19059D1*
X11810Y19078D1*
X11772Y19097D1*
X11734D1*
X11696Y19078D1*
X11676Y19059D1*
X11657Y19001D1*
Y18829D1*
X12059D1*
X11849Y18963D2*
X12059Y19097D1*
X11791Y19470D2*
X11849Y19450D1*
X11887Y19412D1*
X11906Y19355D1*
Y19336D1*
X11887Y19278D1*
X11849Y19240D1*
X11791Y19221D1*
X11772D1*
X11715Y19240D1*
X11677Y19278D1*
X11658Y19336D1*
Y19355D1*
X11677Y19412D1*
X11715Y19450D1*
X11791Y19470D1*
X11887D1*
X11983Y19450D1*
X12040Y19412D1*
X12059Y19355D1*
Y19317D1*
X12040Y19259D1*
X12002Y19240D1*
X26411Y21835D2*
Y22007D1*
X26392Y22065D1*
X26373Y22084D1*
X26335Y22103D1*
X26296D1*
X26258Y22084D1*
X26239Y22065D1*
X26220Y22007D1*
Y21835D1*
X26622D1*
X26411Y21969D2*
X26622Y22103D1*
X26297Y22227D2*
X26277Y22265D1*
X26220Y22323D1*
X26622D1*
X26220Y22561D2*
X26239Y22504D1*
X26297Y22465D1*
X26392Y22446D1*
X26450D1*
X26545Y22465D1*
X26603Y22504D1*
X26622Y22561D1*
Y22599D1*
X26603Y22657D1*
X26545Y22695D1*
X26450Y22714D1*
X26392D1*
X26297Y22695D1*
X26239Y22657D1*
X26220Y22599D1*
Y22561D1*
X26297Y22695D2*
X26545Y22465D1*
X27911Y21921D2*
Y22093D1*
X27892Y22151D1*
X27873Y22170D1*
X27835Y22189D1*
X27796D1*
X27758Y22170D1*
X27739Y22151D1*
X27720Y22093D1*
Y21921D1*
X28122D1*
X27911Y22055D2*
X28122Y22189D1*
X27797Y22313D2*
X27777Y22351D1*
X27720Y22409D1*
X28122D1*
X27797Y22532D2*
X27777Y22571D1*
X27720Y22628D1*
X28122D1*
X29411Y21835D2*
Y22007D1*
X29392Y22065D1*
X29373Y22084D1*
X29335Y22103D1*
X29296D1*
X29258Y22084D1*
X29239Y22065D1*
X29220Y22007D1*
Y21835D1*
X29622D1*
X29411Y21969D2*
X29622Y22103D1*
X29297Y22227D2*
X29277Y22265D1*
X29220Y22323D1*
X29622D1*
X29316Y22466D2*
X29297D1*
X29258Y22485D1*
X29239Y22504D1*
X29220Y22542D1*
Y22619D1*
X29239Y22657D1*
X29258Y22676D1*
X29297Y22695D1*
X29335D1*
X29373Y22676D1*
X29430Y22638D1*
X29622Y22446D1*
Y22714D1*
X24911Y21835D2*
Y22007D1*
X24892Y22065D1*
X24873Y22084D1*
X24835Y22103D1*
X24796D1*
X24758Y22084D1*
X24739Y22065D1*
X24720Y22007D1*
Y21835D1*
X25122D1*
X24911Y21969D2*
X25122Y22103D1*
X24797Y22227D2*
X24777Y22265D1*
X24720Y22323D1*
X25122D1*
X24720Y22485D2*
Y22695D1*
X24873Y22580D1*
Y22638D1*
X24892Y22676D1*
X24911Y22695D1*
X24969Y22714D1*
X25007D1*
X25064Y22695D1*
X25103Y22657D1*
X25122Y22599D1*
Y22542D1*
X25103Y22485D1*
X25083Y22466D1*
X25045Y22446D1*
X20411Y21826D2*
Y21998D1*
X20392Y22055D1*
X20373Y22075D1*
X20335Y22094D1*
X20296D1*
X20258Y22075D1*
X20239Y22055D1*
X20220Y21998D1*
Y21826D1*
X20622D1*
X20411Y21960D2*
X20622Y22094D1*
X20297Y22217D2*
X20277Y22256D1*
X20220Y22313D1*
X20622D1*
Y22628D2*
X20220D1*
X20488Y22437D1*
Y22724D1*
X21911Y21835D2*
Y22007D1*
X21892Y22065D1*
X21873Y22084D1*
X21835Y22103D1*
X21796D1*
X21758Y22084D1*
X21739Y22065D1*
X21720Y22007D1*
Y21835D1*
X22122D1*
X21911Y21969D2*
X22122Y22103D1*
X21797Y22227D2*
X21777Y22265D1*
X21720Y22323D1*
X22122D1*
X21720Y22676D2*
Y22485D1*
X21892Y22466D1*
X21873Y22485D1*
X21854Y22542D1*
Y22599D1*
X21873Y22657D1*
X21911Y22695D1*
X21969Y22714D1*
X22007D1*
X22064Y22695D1*
X22103Y22657D1*
X22122Y22599D1*
Y22542D1*
X22103Y22485D1*
X22083Y22466D1*
X22045Y22446D1*
X23411Y21845D2*
Y22017D1*
X23392Y22074D1*
X23373Y22094D1*
X23335Y22113D1*
X23296D1*
X23258Y22094D1*
X23239Y22074D1*
X23220Y22017D1*
Y21845D1*
X23622D1*
X23411Y21979D2*
X23622Y22113D1*
X23297Y22236D2*
X23277Y22275D1*
X23220Y22332D1*
X23622D1*
X23277Y22685D2*
X23239Y22666D1*
X23220Y22609D1*
Y22571D1*
X23239Y22513D1*
X23297Y22475D1*
X23392Y22456D1*
X23488D1*
X23564Y22475D1*
X23603Y22513D1*
X23622Y22571D1*
Y22590D1*
X23603Y22647D1*
X23564Y22685D1*
X23507Y22704D1*
X23488D1*
X23430Y22685D1*
X23392Y22647D1*
X23373Y22590D1*
Y22571D1*
X23392Y22513D1*
X23430Y22475D1*
X23488Y22456D1*
X20446Y26514D2*
Y26227D1*
X20465Y26170D1*
X20504Y26132D1*
X20561Y26112D1*
X20599D1*
X20657Y26132D1*
X20695Y26170D1*
X20714Y26227D1*
Y26514D1*
X20838Y26437D2*
X20876Y26457D1*
X20934Y26514D1*
Y26112D1*
X22860Y18821D2*
Y18534D1*
X22879Y18477D1*
X22918Y18439D1*
X22975Y18419D1*
X23013D1*
X23071Y18439D1*
X23109Y18477D1*
X23128Y18534D1*
Y18821D1*
X23271Y18725D2*
Y18744D1*
X23290Y18783D1*
X23309Y18802D1*
X23348Y18821D1*
X23424D1*
X23462Y18802D1*
X23481Y18783D1*
X23501Y18744D1*
Y18706D1*
X23481Y18668D1*
X23443Y18611D1*
X23252Y18419D1*
X23520D1*
X15330Y21676D2*
Y21389D1*
X15349Y21331D1*
X15388Y21293D1*
X15445Y21274D1*
X15483D1*
X15541Y21293D1*
X15579Y21331D1*
X15598Y21389D1*
Y21676D1*
X15760Y21675D2*
X15970D1*
X15856Y21522D1*
X15913D1*
X15951Y21503D1*
X15970Y21484D1*
X15990Y21427D1*
Y21389D1*
X15970Y21331D1*
X15932Y21293D1*
X15875Y21274D1*
X15817D1*
X15760Y21293D1*
X15741Y21312D1*
X15722Y21350D1*
X15321Y18676D2*
Y18389D1*
X15340Y18331D1*
X15378Y18293D1*
X15436Y18274D1*
X15474D1*
X15531Y18293D1*
X15570Y18331D1*
X15589Y18389D1*
Y18676D1*
X15904Y18274D2*
Y18675D1*
X15712Y18408D1*
X15999D1*
X15330Y15676D2*
Y15389D1*
X15349Y15331D1*
X15388Y15293D1*
X15445Y15274D1*
X15483D1*
X15541Y15293D1*
X15579Y15331D1*
X15598Y15389D1*
Y15676D1*
X15951Y15675D2*
X15760D1*
X15741Y15503D1*
X15760Y15522D1*
X15818Y15542D1*
X15875D1*
X15932Y15522D1*
X15971Y15484D1*
X15990Y15427D1*
Y15389D1*
X15971Y15331D1*
X15932Y15293D1*
X15875Y15274D1*
X15818D1*
X15760Y15293D1*
X15741Y15312D1*
X15722Y15350D1*
X32754Y19244D2*
Y18957D1*
X32773Y18899D1*
X32811Y18861D1*
X32869Y18842D1*
X32907D1*
X32964Y18861D1*
X33003Y18899D1*
X33022Y18957D1*
Y19244D1*
X33375Y19186D2*
X33356Y19224D1*
X33298Y19243D1*
X33260D1*
X33203Y19224D1*
X33164Y19167D1*
X33145Y19071D1*
Y18976D1*
X33164Y18899D1*
X33203Y18861D1*
X33260Y18842D1*
X33279D1*
X33336Y18861D1*
X33375Y18899D1*
X33394Y18957D1*
Y18976D1*
X33375Y19033D1*
X33336Y19071D1*
X33279Y19090D1*
X33260D1*
X33203Y19071D1*
X33164Y19033D1*
X33145Y18976D1*
X29838Y18919D2*
Y18613D1*
X29819Y18556D1*
X29800Y18537D1*
X29762Y18517D1*
X29723D1*
X29685Y18537D1*
X29666Y18556D1*
X29647Y18613D1*
Y18651D1*
X30057Y18919D2*
X30000Y18900D1*
X29981Y18862D1*
Y18823D1*
X30000Y18785D1*
X30038Y18766D1*
X30115Y18747D1*
X30172Y18728D1*
X30210Y18689D1*
X30229Y18651D1*
Y18594D1*
X30210Y18556D1*
X30191Y18536D1*
X30134Y18517D1*
X30057D1*
X30000Y18536D1*
X29981Y18556D1*
X29962Y18594D1*
Y18651D1*
X29981Y18689D1*
X30019Y18728D1*
X30076Y18747D1*
X30153Y18766D1*
X30191Y18785D1*
X30210Y18823D1*
Y18862D1*
X30191Y18900D1*
X30134Y18919D1*
X30057D1*
X28207Y16855D2*
X28188Y16893D1*
X28150Y16931D1*
X28112Y16950D1*
X28035D1*
X27997Y16931D1*
X27959Y16893D1*
X27940Y16855D1*
X27921Y16797D1*
Y16701D1*
X27940Y16644D1*
X27959Y16606D1*
X27997Y16568D1*
X28035Y16548D1*
X28112D1*
X28150Y16568D1*
X28188Y16606D1*
X28207Y16644D1*
X28580Y16816D2*
X28560Y16759D1*
X28522Y16720D1*
X28465Y16701D1*
X28446D1*
X28388Y16720D1*
X28350Y16759D1*
X28331Y16816D1*
Y16835D1*
X28350Y16893D1*
X28388Y16931D1*
X28446Y16950D1*
X28465D1*
X28522Y16931D1*
X28560Y16893D1*
X28580Y16816D1*
Y16720D1*
X28560Y16625D1*
X28522Y16567D1*
X28465Y16548D1*
X28427D1*
X28369Y16567D1*
X28350Y16606D1*
M02*
