G04 DipTrace 2.4.0.2*
%INBottom.gbr*%
%MOIN*%
%ADD13C,0.02*%
%ADD14C,0.01*%
%ADD18R,0.0669X0.0669*%
%ADD19C,0.0669*%
%ADD20R,0.065X0.065*%
%ADD21R,0.0591X0.0591*%
%ADD22C,0.0591*%
%ADD24C,0.074*%
%ADD25R,0.0748X0.0748*%
%ADD26C,0.0748*%
%ADD27C,0.063*%
%ADD28R,0.063X0.063*%
%ADD29C,0.0591*%
%ADD30C,0.065*%
%FSLAX44Y44*%
G04*
G70*
G90*
G75*
G01*
%LNBottom*%
%LPD*%
X11690Y7690D2*
D13*
Y7564D1*
X18564D1*
X20315Y9315D1*
X22440D1*
X23628Y8128D1*
Y7690D1*
X23690D1*
X11690Y9440D2*
Y9315D1*
X12815Y8190D1*
X15690D1*
Y8940D1*
X11690Y9440D2*
X12315D1*
X16815Y13940D1*
X18940D1*
X19940Y14940D1*
X31690Y11440D2*
X30940Y12190D1*
X28190D1*
Y11440D1*
X24690D2*
X24815D1*
Y12190D1*
X28190D1*
X19940Y14940D2*
Y17940D1*
X16690Y21752D2*
X16752D1*
X16377Y21377D1*
Y20378D1*
X16815Y19940D1*
X17940D1*
X19940Y17940D1*
X24690Y11440D2*
X21065D1*
X20627Y11002D1*
X17190D1*
X15753Y9565D1*
Y8940D1*
X15690D1*
X22940Y17940D2*
X23940D1*
X22940Y14940D2*
X23940D1*
X22690Y7690D2*
Y7127D1*
X22877Y6940D1*
X24315D1*
X25065Y7690D1*
X11690Y10440D2*
Y11780D1*
X14630Y14720D1*
X11690Y5190D2*
Y6190D1*
Y25190D2*
Y24190D1*
X11940Y22503D2*
X14252D1*
X14690Y22065D1*
Y21752D1*
X15690D2*
Y22315D1*
X16377Y23002D1*
X32878Y7315D2*
X27440D1*
X24440Y10315D1*
X18690D1*
X17752Y9378D1*
Y8940D1*
X17690D1*
X16690D2*
Y9440D1*
X17315Y10065D1*
X21940Y14940D2*
Y14315D1*
X19753Y12128D1*
X16502D1*
X13690Y9315D1*
Y8940D1*
X14690D2*
Y9440D1*
X16815Y11565D1*
X20315D1*
X22690Y13940D1*
X23940D1*
X24940Y14940D1*
X18690Y21752D2*
X21252Y19190D1*
X23815D1*
X25065Y17940D1*
X24940D1*
X17690Y21752D2*
X17628D1*
X20690Y18690D1*
X21253D1*
X21940Y18003D1*
Y17940D1*
X17752Y22940D2*
X18690D1*
X21753Y19877D1*
X23878D1*
X24940Y18815D1*
X27440D1*
X27940Y18315D1*
Y17690D1*
X27440Y17190D1*
X21690D1*
X20940Y17940D1*
X10690Y4690D2*
X10752D1*
Y6940D1*
X21190D1*
X21940Y7690D1*
X21690D1*
X20690D2*
Y8440D1*
X20753Y8503D1*
D30*
X32878Y7315D3*
X20753Y8503D3*
X25065Y7690D3*
X11940Y22503D3*
X16377Y23002D3*
X17752Y22940D3*
X11690Y7690D3*
X17315Y10065D3*
X5190Y11565D3*
X35503Y17877D3*
X7815Y5815D3*
X6751Y26291D2*
D14*
X38131D1*
X6752Y26193D2*
X38131D1*
X6752Y26094D2*
X38131D1*
X6754Y25995D2*
X38131D1*
X6755Y25897D2*
X38131D1*
X6755Y25798D2*
X11992D1*
X34388D2*
X38131D1*
X6757Y25699D2*
X11992D1*
X34388D2*
X38131D1*
X6757Y25600D2*
X9295D1*
X10085D2*
X11992D1*
X34388D2*
X38131D1*
X6759Y25502D2*
X9115D1*
X10265D2*
X11992D1*
X34388D2*
X38131D1*
X6760Y25403D2*
X8995D1*
X10385D2*
X11992D1*
X34388D2*
X38131D1*
X6760Y25304D2*
X8906D1*
X10474D2*
X11992D1*
X34388D2*
X38131D1*
X6762Y25206D2*
X8837D1*
X10543D2*
X11992D1*
X34388D2*
X38131D1*
X6762Y25107D2*
X8784D1*
X10596D2*
X11992D1*
X34388D2*
X38131D1*
X6763Y25008D2*
X8743D1*
X10637D2*
X11992D1*
X34388D2*
X38131D1*
X6763Y24910D2*
X8715D1*
X10665D2*
X11992D1*
X34388D2*
X38131D1*
X6765Y24811D2*
X8698D1*
X10682D2*
X11992D1*
X34388D2*
X38131D1*
X6766Y24712D2*
X8692D1*
X10688D2*
X11992D1*
X34388D2*
X38131D1*
X6766Y24614D2*
X8695D1*
X10685D2*
X11992D1*
X34388D2*
X38131D1*
X6768Y24515D2*
X8707D1*
X10673D2*
X11992D1*
X34388D2*
X38131D1*
X6768Y24416D2*
X8729D1*
X10651D2*
X11992D1*
X34388D2*
X35523D1*
X35857D2*
X38131D1*
X6770Y24318D2*
X8764D1*
X10616D2*
X11992D1*
X34388D2*
X35225D1*
X36155D2*
X38131D1*
X6771Y24219D2*
X8810D1*
X10570D2*
X11992D1*
X34388D2*
X35071D1*
X36309D2*
X38131D1*
X6771Y24120D2*
X8871D1*
X10509D2*
X11992D1*
X34388D2*
X34962D1*
X36418D2*
X38131D1*
X6773Y24021D2*
X8951D1*
X10429D2*
X11992D1*
X34388D2*
X34881D1*
X36499D2*
X38131D1*
X6773Y23923D2*
X9056D1*
X10324D2*
X11992D1*
X34388D2*
X34817D1*
X36563D2*
X38131D1*
X6774Y23824D2*
X9203D1*
X10177D2*
X11992D1*
X34388D2*
X34768D1*
X36612D2*
X38131D1*
X6776Y23725D2*
X9462D1*
X9918D2*
X11992D1*
X34388D2*
X34734D1*
X36646D2*
X38131D1*
X6776Y23627D2*
X11992D1*
X34388D2*
X34709D1*
X36671D2*
X38131D1*
X6777Y23528D2*
X11992D1*
X34388D2*
X34695D1*
X36685D2*
X38131D1*
X6777Y23429D2*
X15826D1*
X16929D2*
X17257D1*
X18248D2*
X34692D1*
X36688D2*
X38131D1*
X6779Y23331D2*
X15762D1*
X16993D2*
X17175D1*
X18951D2*
X34698D1*
X36682D2*
X38131D1*
X6779Y23232D2*
X15718D1*
X17037D2*
X17118D1*
X19063D2*
X34714D1*
X36666D2*
X38131D1*
X6780Y23133D2*
X11653D1*
X12227D2*
X15692D1*
X19163D2*
X34740D1*
X36640D2*
X38131D1*
X6782Y23035D2*
X11493D1*
X12387D2*
X15679D1*
X19262D2*
X34778D1*
X36602D2*
X38131D1*
X6782Y22936D2*
X11395D1*
X14427D2*
X15645D1*
X19360D2*
X34829D1*
X36551D2*
X38131D1*
X6784Y22837D2*
X11328D1*
X14584D2*
X15546D1*
X19459D2*
X34896D1*
X36484D2*
X38131D1*
X6784Y22739D2*
X11282D1*
X14682D2*
X15448D1*
X17024D2*
X17084D1*
X19557D2*
X34982D1*
X36398D2*
X38131D1*
X6785Y22640D2*
X11254D1*
X14780D2*
X15350D1*
X16973D2*
X17123D1*
X19655D2*
X35100D1*
X36280D2*
X38131D1*
X6787Y22541D2*
X11242D1*
X14880D2*
X15275D1*
X16899D2*
X17181D1*
X19755D2*
X35268D1*
X36112D2*
X38131D1*
X6787Y22442D2*
X11243D1*
X14979D2*
X15234D1*
X16809D2*
X17267D1*
X18238D2*
X18521D1*
X19854D2*
X38131D1*
X6788Y22344D2*
X11259D1*
X15071D2*
X15217D1*
X17071D2*
X17309D1*
X18107D2*
X18309D1*
X19952D2*
X38131D1*
X6788Y22245D2*
X11292D1*
X20051D2*
X38131D1*
X6790Y22146D2*
X11340D1*
X20149D2*
X38131D1*
X6790Y22048D2*
X11412D1*
X20248D2*
X38131D1*
X6791Y21949D2*
X11520D1*
X12360D2*
X14010D1*
X20348D2*
X38131D1*
X6793Y21850D2*
X11707D1*
X12173D2*
X13989D1*
X20446D2*
X38131D1*
X6793Y21752D2*
X13981D1*
X20545D2*
X38131D1*
X6795Y21653D2*
X13989D1*
X20643D2*
X38131D1*
X6795Y21554D2*
X14010D1*
X20741D2*
X38131D1*
X6796Y21456D2*
X14048D1*
X20840D2*
X38131D1*
X6798Y21357D2*
X14104D1*
X20940D2*
X38131D1*
X6798Y21258D2*
X14187D1*
X21038D2*
X38131D1*
X6799Y21160D2*
X14310D1*
X15070D2*
X15310D1*
X21137D2*
X38131D1*
X6799Y21061D2*
X14582D1*
X14798D2*
X15582D1*
X15798D2*
X15904D1*
X21235D2*
X38131D1*
X6801Y20962D2*
X15904D1*
X21334D2*
X38131D1*
X6801Y20863D2*
X15904D1*
X21432D2*
X38131D1*
X6802Y20765D2*
X15904D1*
X21530D2*
X38131D1*
X6804Y20666D2*
X15904D1*
X17932D2*
X18048D1*
X21630D2*
X38131D1*
X6804Y20567D2*
X15904D1*
X17918D2*
X18146D1*
X21729D2*
X38131D1*
X6805Y20469D2*
X15904D1*
X17890D2*
X18245D1*
X21827D2*
X38131D1*
X6805Y20370D2*
X15904D1*
X18124D2*
X18343D1*
X21926D2*
X38131D1*
X6807Y20271D2*
X15915D1*
X18274D2*
X18443D1*
X24132D2*
X38131D1*
X6809Y20173D2*
X15951D1*
X18373D2*
X18542D1*
X24248D2*
X38131D1*
X6809Y20074D2*
X16017D1*
X18473D2*
X18640D1*
X24348D2*
X38131D1*
X6810Y19975D2*
X16114D1*
X18571D2*
X18739D1*
X24446D2*
X38131D1*
X6810Y19877D2*
X16212D1*
X18670D2*
X18837D1*
X24545D2*
X38131D1*
X6812Y19778D2*
X16310D1*
X18768D2*
X18935D1*
X24643D2*
X38131D1*
X11999Y19679D2*
X16410D1*
X18866D2*
X19035D1*
X24741D2*
X38131D1*
X11999Y19581D2*
X14262D1*
X14998D2*
X16512D1*
X18965D2*
X19134D1*
X24840D2*
X38131D1*
X11999Y19482D2*
X14125D1*
X15135D2*
X16685D1*
X19065D2*
X19232D1*
X24940D2*
X38131D1*
X11999Y19383D2*
X14035D1*
X15224D2*
X16595D1*
X17785D2*
X17831D1*
X19163D2*
X19331D1*
X25038D2*
X38131D1*
X11999Y19284D2*
X13971D1*
X15288D2*
X16532D1*
X17848D2*
X17929D1*
X19262D2*
X19429D1*
X25137D2*
X38131D1*
X11999Y19186D2*
X13929D1*
X15332D2*
X16489D1*
X17891D2*
X18028D1*
X19360D2*
X19528D1*
X27729D2*
X38131D1*
X11999Y19087D2*
X13901D1*
X15359D2*
X16460D1*
X17920D2*
X18128D1*
X19459D2*
X19628D1*
X27834D2*
X38131D1*
X11999Y18988D2*
X13887D1*
X15373D2*
X16448D1*
X17932D2*
X18226D1*
X19557D2*
X19726D1*
X27932D2*
X38131D1*
X11999Y18890D2*
X13889D1*
X15373D2*
X16448D1*
X17932D2*
X18325D1*
X19657D2*
X19825D1*
X28032D2*
X38131D1*
X11999Y18791D2*
X13901D1*
X15359D2*
X16462D1*
X17918D2*
X18423D1*
X19755D2*
X19923D1*
X28130D2*
X38131D1*
X11999Y18692D2*
X13929D1*
X15330D2*
X16489D1*
X17891D2*
X18521D1*
X19854D2*
X20021D1*
X21916D2*
X23646D1*
X28229D2*
X38131D1*
X11999Y18594D2*
X13973D1*
X15287D2*
X16532D1*
X17848D2*
X18620D1*
X20035D2*
X20120D1*
X22035D2*
X23745D1*
X28321D2*
X38131D1*
X11999Y18495D2*
X14037D1*
X15224D2*
X16596D1*
X17784D2*
X18718D1*
X22305D2*
X23843D1*
X28377D2*
X38131D1*
X11999Y18396D2*
X14128D1*
X15134D2*
X16687D1*
X17693D2*
X18818D1*
X22426D2*
X23943D1*
X28407D2*
X38131D1*
X11999Y18298D2*
X14265D1*
X14995D2*
X16728D1*
X17652D2*
X18917D1*
X22504D2*
X24042D1*
X28413D2*
X38131D1*
X11999Y18199D2*
X16625D1*
X17755D2*
X19015D1*
X22555D2*
X24140D1*
X28413D2*
X38131D1*
X11999Y18100D2*
X16553D1*
X17827D2*
X19114D1*
X22590D2*
X24239D1*
X28413D2*
X38131D1*
X11999Y18002D2*
X16503D1*
X17877D2*
X19212D1*
X22607D2*
X24273D1*
X28413D2*
X38131D1*
X11999Y17903D2*
X16470D1*
X17910D2*
X19271D1*
X22609D2*
X24271D1*
X28413D2*
X38131D1*
X11999Y17804D2*
X16451D1*
X17929D2*
X19285D1*
X22595D2*
X24285D1*
X28413D2*
X38131D1*
X11999Y17705D2*
X16446D1*
X17934D2*
X19314D1*
X22566D2*
X24314D1*
X28413D2*
X38131D1*
X11999Y17607D2*
X16454D1*
X17926D2*
X19362D1*
X28407D2*
X38131D1*
X11999Y17508D2*
X16478D1*
X17902D2*
X19432D1*
X28377D2*
X38131D1*
X11999Y17409D2*
X16515D1*
X17865D2*
X19467D1*
X20413D2*
X20539D1*
X28320D2*
X38131D1*
X11999Y17311D2*
X16571D1*
X17809D2*
X19467D1*
X20413D2*
X20734D1*
X28227D2*
X38131D1*
X11999Y17212D2*
X16651D1*
X17729D2*
X19467D1*
X20413D2*
X21003D1*
X28127D2*
X38131D1*
X11999Y17113D2*
X16767D1*
X17613D2*
X19467D1*
X20413D2*
X21101D1*
X28029D2*
X38131D1*
X11999Y17015D2*
X16978D1*
X17402D2*
X19467D1*
X20413D2*
X21200D1*
X27930D2*
X38131D1*
X11999Y16916D2*
X19467D1*
X20413D2*
X21298D1*
X27832D2*
X38131D1*
X11999Y16817D2*
X19467D1*
X20413D2*
X21404D1*
X27726D2*
X38131D1*
X11999Y16719D2*
X19467D1*
X20413D2*
X38131D1*
X11999Y16620D2*
X14343D1*
X14916D2*
X16904D1*
X17476D2*
X19467D1*
X20413D2*
X38131D1*
X11999Y16521D2*
X14171D1*
X15088D2*
X16732D1*
X17648D2*
X19467D1*
X20413D2*
X38131D1*
X11999Y16423D2*
X14067D1*
X15193D2*
X16628D1*
X17752D2*
X19467D1*
X20413D2*
X38131D1*
X11999Y16324D2*
X13995D1*
X15265D2*
X16554D1*
X17826D2*
X19467D1*
X20413D2*
X38131D1*
X11999Y16225D2*
X13943D1*
X15316D2*
X16504D1*
X17876D2*
X19467D1*
X20413D2*
X38131D1*
X11999Y16126D2*
X13910D1*
X15349D2*
X16470D1*
X17910D2*
X19467D1*
X20413D2*
X38131D1*
X11999Y16028D2*
X13892D1*
X15368D2*
X16451D1*
X17929D2*
X19467D1*
X20413D2*
X38131D1*
X11999Y15929D2*
X13885D1*
X15374D2*
X16446D1*
X17934D2*
X19467D1*
X20413D2*
X38131D1*
X11999Y15830D2*
X13895D1*
X15366D2*
X16454D1*
X17926D2*
X19467D1*
X20413D2*
X38131D1*
X11999Y15732D2*
X13917D1*
X15343D2*
X16476D1*
X17904D2*
X19467D1*
X20413D2*
X38131D1*
X11999Y15633D2*
X13953D1*
X15307D2*
X16514D1*
X17866D2*
X19467D1*
X20413D2*
X38131D1*
X11999Y15534D2*
X14009D1*
X15252D2*
X16568D1*
X17812D2*
X19271D1*
X20609D2*
X20644D1*
X21235D2*
X21645D1*
X22235D2*
X24645D1*
X25235D2*
X25645D1*
X26235D2*
X26645D1*
X27235D2*
X38131D1*
X11999Y15436D2*
X14087D1*
X15173D2*
X16646D1*
X17734D2*
X19271D1*
X21385D2*
X21495D1*
X22385D2*
X24495D1*
X25385D2*
X25495D1*
X26385D2*
X26495D1*
X27385D2*
X38131D1*
X11999Y15337D2*
X14201D1*
X15059D2*
X16762D1*
X17618D2*
X19271D1*
X22476D2*
X24404D1*
X27476D2*
X38131D1*
X11999Y15238D2*
X14406D1*
X14855D2*
X16660D1*
X17720D2*
X19271D1*
X22538D2*
X24342D1*
X27538D2*
X38131D1*
X11999Y15140D2*
X16578D1*
X17802D2*
X19271D1*
X22579D2*
X24301D1*
X27579D2*
X38131D1*
X11999Y15041D2*
X16520D1*
X17860D2*
X19271D1*
X22601D2*
X24279D1*
X27601D2*
X38131D1*
X11999Y14942D2*
X16481D1*
X17899D2*
X19271D1*
X22609D2*
X24271D1*
X27609D2*
X38131D1*
X11999Y14844D2*
X16457D1*
X17923D2*
X19178D1*
X22602D2*
X24178D1*
X27602D2*
X38131D1*
X11999Y14745D2*
X16446D1*
X17934D2*
X19079D1*
X22579D2*
X24079D1*
X27579D2*
X38131D1*
X11999Y14646D2*
X16450D1*
X17930D2*
X18981D1*
X22540D2*
X23981D1*
X27540D2*
X38131D1*
X11999Y14547D2*
X16467D1*
X17913D2*
X18881D1*
X22479D2*
X23881D1*
X27479D2*
X38131D1*
X11999Y14449D2*
X16498D1*
X17882D2*
X18782D1*
X22413D2*
X23782D1*
X25390D2*
X25490D1*
X26390D2*
X26490D1*
X27390D2*
X38131D1*
X11999Y14350D2*
X16546D1*
X21245D2*
X21309D1*
X22413D2*
X22462D1*
X25245D2*
X25635D1*
X26245D2*
X26635D1*
X27245D2*
X38131D1*
X11999Y14251D2*
X16460D1*
X19918D2*
X21210D1*
X24918D2*
X38131D1*
X11999Y14153D2*
X16362D1*
X19818D2*
X21112D1*
X24818D2*
X38131D1*
X11999Y14054D2*
X16264D1*
X19720D2*
X21014D1*
X24720D2*
X38131D1*
X11999Y13955D2*
X16164D1*
X19621D2*
X20914D1*
X24621D2*
X38131D1*
X11999Y13857D2*
X16065D1*
X19523D2*
X20815D1*
X24523D2*
X38131D1*
X11999Y13758D2*
X15967D1*
X19424D2*
X20717D1*
X24424D2*
X38131D1*
X11999Y13659D2*
X14475D1*
X14785D2*
X15868D1*
X19326D2*
X20618D1*
X24326D2*
X38131D1*
X11999Y13561D2*
X14228D1*
X15032D2*
X15770D1*
X19216D2*
X20520D1*
X24216D2*
X38131D1*
X11999Y13462D2*
X14104D1*
X15155D2*
X15671D1*
X17716D2*
X20421D1*
X22877D2*
X38131D1*
X11999Y13363D2*
X14020D1*
X15240D2*
X15573D1*
X17799D2*
X20323D1*
X22779D2*
X38131D1*
X11999Y13265D2*
X13962D1*
X15298D2*
X15473D1*
X17859D2*
X20223D1*
X22680D2*
X38131D1*
X11999Y13166D2*
X13921D1*
X15338D2*
X15375D1*
X17898D2*
X20125D1*
X22582D2*
X38131D1*
X11999Y13067D2*
X13898D1*
X17923D2*
X20026D1*
X22484D2*
X38131D1*
X11999Y12968D2*
X13887D1*
X17934D2*
X19928D1*
X22385D2*
X38131D1*
X11999Y12870D2*
X13890D1*
X16410D2*
X16451D1*
X17930D2*
X19829D1*
X22285D2*
X38131D1*
X11999Y12771D2*
X13906D1*
X16312D2*
X16465D1*
X17915D2*
X19731D1*
X22187D2*
X38131D1*
X11996Y12672D2*
X13937D1*
X16213D2*
X16496D1*
X17884D2*
X19631D1*
X22088D2*
X38131D1*
X4000Y12574D2*
X13984D1*
X16115D2*
X16365D1*
X21990D2*
X24545D1*
X31210D2*
X38131D1*
X4000Y12475D2*
X14053D1*
X16016D2*
X16185D1*
X21891D2*
X24439D1*
X31321D2*
X38131D1*
X4000Y12376D2*
X14150D1*
X15918D2*
X16085D1*
X21793D2*
X24381D1*
X31420D2*
X38131D1*
X4000Y12278D2*
X14304D1*
X15818D2*
X15987D1*
X21693D2*
X24350D1*
X31518D2*
X38131D1*
X4000Y12179D2*
X14389D1*
X15720D2*
X15889D1*
X21595D2*
X24342D1*
X31616D2*
X38131D1*
X4000Y12080D2*
X14289D1*
X15621D2*
X15789D1*
X21496D2*
X23981D1*
X32399D2*
X33401D1*
X33979D2*
X38131D1*
X4000Y11982D2*
X14190D1*
X15523D2*
X15690D1*
X21398D2*
X23981D1*
X32399D2*
X33239D1*
X34141D2*
X38131D1*
X4000Y11883D2*
X14092D1*
X15424D2*
X15592D1*
X32399D2*
X33140D1*
X34240D2*
X38131D1*
X4000Y11784D2*
X13993D1*
X15326D2*
X15493D1*
X32399D2*
X33073D1*
X34307D2*
X38131D1*
X4000Y11686D2*
X13895D1*
X15226D2*
X15395D1*
X25399D2*
X26026D1*
X27354D2*
X27481D1*
X28899D2*
X29526D1*
X32399D2*
X33026D1*
X34354D2*
X38131D1*
X4000Y11587D2*
X13796D1*
X15127D2*
X15296D1*
X25399D2*
X25996D1*
X27384D2*
X27481D1*
X28899D2*
X29496D1*
X32399D2*
X32996D1*
X34384D2*
X38131D1*
X4000Y11488D2*
X13696D1*
X15029D2*
X15196D1*
X25399D2*
X25984D1*
X27396D2*
X27481D1*
X28899D2*
X29484D1*
X30896D2*
X30976D1*
X32399D2*
X32984D1*
X34396D2*
X38131D1*
X4000Y11389D2*
X13598D1*
X14930D2*
X15098D1*
X25399D2*
X25984D1*
X27396D2*
X27481D1*
X28899D2*
X29484D1*
X30896D2*
X30981D1*
X32399D2*
X32984D1*
X34396D2*
X38131D1*
X4000Y11291D2*
X13500D1*
X14832D2*
X15000D1*
X25399D2*
X25998D1*
X27382D2*
X27481D1*
X28899D2*
X29498D1*
X30882D2*
X30981D1*
X32399D2*
X32998D1*
X34382D2*
X38131D1*
X4000Y11192D2*
X13401D1*
X14734D2*
X14901D1*
X25399D2*
X26028D1*
X27352D2*
X27481D1*
X28899D2*
X29528D1*
X30852D2*
X30981D1*
X32399D2*
X33028D1*
X34352D2*
X38131D1*
X4000Y11093D2*
X9837D1*
X10543D2*
X13303D1*
X14635D2*
X14803D1*
X25399D2*
X26073D1*
X27307D2*
X27481D1*
X28899D2*
X29573D1*
X30807D2*
X30981D1*
X32399D2*
X33073D1*
X34307D2*
X38131D1*
X4000Y10995D2*
X9693D1*
X10687D2*
X13204D1*
X14535D2*
X14704D1*
X25399D2*
X26142D1*
X27238D2*
X27481D1*
X28899D2*
X29642D1*
X30738D2*
X30981D1*
X32399D2*
X33142D1*
X34238D2*
X38131D1*
X4000Y10896D2*
X9600D1*
X10780D2*
X13106D1*
X14437D2*
X14606D1*
X21187D2*
X23981D1*
X25399D2*
X26242D1*
X27138D2*
X27481D1*
X28899D2*
X29742D1*
X30638D2*
X30981D1*
X32399D2*
X33242D1*
X34138D2*
X38131D1*
X4000Y10797D2*
X9534D1*
X10846D2*
X13006D1*
X14338D2*
X14506D1*
X21088D2*
X23981D1*
X25399D2*
X26406D1*
X26974D2*
X27481D1*
X28899D2*
X29906D1*
X30474D2*
X30981D1*
X32399D2*
X33406D1*
X33974D2*
X38131D1*
X4000Y10699D2*
X9489D1*
X10891D2*
X12907D1*
X14240D2*
X14407D1*
X24710D2*
X38131D1*
X4000Y10600D2*
X9459D1*
X10921D2*
X12809D1*
X14141D2*
X14309D1*
X24821D2*
X38131D1*
X4000Y10501D2*
X9445D1*
X10935D2*
X12710D1*
X14043D2*
X14210D1*
X17859D2*
X18210D1*
X24920D2*
X38131D1*
X4000Y10403D2*
X9443D1*
X10937D2*
X12612D1*
X13943D2*
X14112D1*
X17926D2*
X18112D1*
X25018D2*
X38131D1*
X4000Y10304D2*
X9454D1*
X10926D2*
X12514D1*
X13845D2*
X14014D1*
X17971D2*
X18014D1*
X25116D2*
X38131D1*
X4000Y10205D2*
X9481D1*
X10899D2*
X12414D1*
X13746D2*
X13914D1*
X25216D2*
X38131D1*
X4000Y10107D2*
X9521D1*
X10859D2*
X11001D1*
X13648D2*
X13815D1*
X25315D2*
X38131D1*
X4000Y10008D2*
X9582D1*
X10798D2*
X11001D1*
X13549D2*
X13717D1*
X25413D2*
X38131D1*
X4000Y9909D2*
X9667D1*
X10713D2*
X11001D1*
X13451D2*
X13618D1*
X25512D2*
X38131D1*
X4000Y9810D2*
X9795D1*
X10585D2*
X11001D1*
X13351D2*
X13520D1*
X18851D2*
X24279D1*
X25610D2*
X38131D1*
X4000Y9712D2*
X10060D1*
X10320D2*
X11001D1*
X13252D2*
X13421D1*
X18752D2*
X20065D1*
X22690D2*
X24378D1*
X25709D2*
X38131D1*
X4000Y9613D2*
X11001D1*
X13154D2*
X13325D1*
X18654D2*
X19946D1*
X22809D2*
X24476D1*
X25809D2*
X38131D1*
X4000Y9514D2*
X11001D1*
X13055D2*
X13260D1*
X18555D2*
X19848D1*
X22907D2*
X24575D1*
X25907D2*
X38131D1*
X4000Y9416D2*
X11001D1*
X12957D2*
X13168D1*
X18457D2*
X19750D1*
X23005D2*
X24673D1*
X26005D2*
X38131D1*
X4000Y9317D2*
X11001D1*
X12859D2*
X13092D1*
X18359D2*
X19651D1*
X23104D2*
X24771D1*
X26104D2*
X38131D1*
X4000Y9218D2*
X11001D1*
X12759D2*
X13039D1*
X18341D2*
X19553D1*
X23202D2*
X24871D1*
X26202D2*
X38131D1*
X4000Y9120D2*
X5981D1*
X7399D2*
X9442D1*
X10938D2*
X11001D1*
X12660D2*
X13004D1*
X18376D2*
X19454D1*
X23301D2*
X24970D1*
X26301D2*
X38131D1*
X4000Y9021D2*
X5981D1*
X7399D2*
X7501D1*
X8879D2*
X9442D1*
X10938D2*
X11001D1*
X12651D2*
X12985D1*
X18395D2*
X19354D1*
X23401D2*
X25068D1*
X26401D2*
X38131D1*
X4000Y8922D2*
X5981D1*
X7399D2*
X7501D1*
X8879D2*
X9442D1*
X10938D2*
X11001D1*
X12749D2*
X12982D1*
X18398D2*
X19256D1*
X23499D2*
X25167D1*
X26499D2*
X38131D1*
X4000Y8824D2*
X5981D1*
X7399D2*
X7501D1*
X8879D2*
X9442D1*
X10938D2*
X11001D1*
X12848D2*
X12992D1*
X18388D2*
X19157D1*
X21373D2*
X22265D1*
X23598D2*
X25265D1*
X26598D2*
X38131D1*
X4000Y8725D2*
X5981D1*
X7399D2*
X7501D1*
X8879D2*
X9442D1*
X10938D2*
X11614D1*
X12946D2*
X13015D1*
X18365D2*
X19059D1*
X21415D2*
X22364D1*
X23696D2*
X25364D1*
X26696D2*
X38131D1*
X4000Y8626D2*
X5981D1*
X7399D2*
X7501D1*
X8879D2*
X9442D1*
X10938D2*
X11712D1*
X18324D2*
X18960D1*
X21440D2*
X22462D1*
X23795D2*
X25462D1*
X26795D2*
X38131D1*
X4000Y8528D2*
X5981D1*
X7399D2*
X7501D1*
X8879D2*
X9442D1*
X10938D2*
X11812D1*
X18263D2*
X18862D1*
X21451D2*
X22562D1*
X23893D2*
X25562D1*
X26893D2*
X38131D1*
X4000Y8429D2*
X5981D1*
X7399D2*
X7501D1*
X8879D2*
X9442D1*
X10938D2*
X11910D1*
X18176D2*
X18764D1*
X21448D2*
X22660D1*
X23990D2*
X25660D1*
X26991D2*
X38131D1*
X4000Y8330D2*
X5981D1*
X7399D2*
X7501D1*
X8879D2*
X9442D1*
X10938D2*
X11426D1*
X11954D2*
X12007D1*
X16163D2*
X16340D1*
X17040D2*
X17340D1*
X18040D2*
X18664D1*
X19996D2*
X20076D1*
X21979D2*
X22759D1*
X24399D2*
X25759D1*
X27091D2*
X38131D1*
X4000Y8231D2*
X5981D1*
X7399D2*
X7501D1*
X8879D2*
X9442D1*
X10938D2*
X11254D1*
X16163D2*
X18565D1*
X19898D2*
X20109D1*
X22141D2*
X22857D1*
X24399D2*
X25857D1*
X27190D2*
X38131D1*
X4000Y8133D2*
X5981D1*
X7399D2*
X7501D1*
X8879D2*
X9442D1*
X10938D2*
X11153D1*
X16160D2*
X18467D1*
X19799D2*
X20140D1*
X22240D2*
X22956D1*
X24399D2*
X25956D1*
X27288D2*
X38131D1*
X4000Y8034D2*
X5981D1*
X7399D2*
X7501D1*
X8879D2*
X9442D1*
X10938D2*
X11084D1*
X16137D2*
X18368D1*
X19701D2*
X20071D1*
X22309D2*
X22981D1*
X24399D2*
X26054D1*
X27387D2*
X38131D1*
X4000Y7935D2*
X5981D1*
X7399D2*
X7501D1*
X8879D2*
X9442D1*
X10938D2*
X11037D1*
X19601D2*
X20026D1*
X22354D2*
X22981D1*
X24399D2*
X26154D1*
X27485D2*
X32568D1*
X33187D2*
X38131D1*
X4000Y7837D2*
X5981D1*
X7399D2*
X7501D1*
X8879D2*
X9442D1*
X10938D2*
X11007D1*
X19502D2*
X19996D1*
X22390D2*
X22981D1*
X24399D2*
X26253D1*
X27584D2*
X32418D1*
X33337D2*
X35264D1*
X36116D2*
X38131D1*
X4000Y7738D2*
X9442D1*
X10938D2*
X10993D1*
X19404D2*
X19984D1*
X22412D2*
X22981D1*
X24399D2*
X26351D1*
X33430D2*
X35096D1*
X36284D2*
X38131D1*
X4000Y7639D2*
X10993D1*
X19305D2*
X19984D1*
X22412D2*
X22981D1*
X24399D2*
X26450D1*
X33495D2*
X34981D1*
X36399D2*
X38131D1*
X4000Y7541D2*
X11007D1*
X19207D2*
X19998D1*
X22390D2*
X22981D1*
X24399D2*
X26548D1*
X33538D2*
X34895D1*
X36485D2*
X38131D1*
X4000Y7442D2*
X11037D1*
X19109D2*
X20028D1*
X22352D2*
X22981D1*
X24399D2*
X26646D1*
X33565D2*
X34828D1*
X36552D2*
X38131D1*
X4000Y7343D2*
X10514D1*
X22307D2*
X22981D1*
X24399D2*
X26746D1*
X33576D2*
X34778D1*
X36602D2*
X38131D1*
X4000Y7245D2*
X10393D1*
X22238D2*
X22981D1*
X24399D2*
X26845D1*
X33573D2*
X34739D1*
X36641D2*
X38131D1*
X4000Y7146D2*
X10326D1*
X22138D2*
X22981D1*
X24399D2*
X26943D1*
X33555D2*
X34712D1*
X36668D2*
X38131D1*
X4000Y7047D2*
X10292D1*
X21973D2*
X22981D1*
X24399D2*
X27042D1*
X33523D2*
X34696D1*
X36684D2*
X38131D1*
X4000Y6949D2*
X10279D1*
X21865D2*
X27145D1*
X33471D2*
X34692D1*
X36688D2*
X38131D1*
X4000Y6850D2*
X10279D1*
X34388D2*
X34695D1*
X36685D2*
X38131D1*
X4000Y6751D2*
X10279D1*
X34388D2*
X34709D1*
X36671D2*
X38131D1*
X4000Y6652D2*
X5953D1*
X6427D2*
X9453D1*
X9927D2*
X10279D1*
X34388D2*
X34734D1*
X36646D2*
X38131D1*
X4000Y6554D2*
X5698D1*
X6682D2*
X9198D1*
X10182D2*
X10279D1*
X34388D2*
X34770D1*
X36610D2*
X38131D1*
X4000Y6455D2*
X5554D1*
X6826D2*
X9054D1*
X11226D2*
X11992D1*
X34388D2*
X34818D1*
X36562D2*
X38131D1*
X4000Y6356D2*
X5450D1*
X6930D2*
X8950D1*
X11226D2*
X11992D1*
X34388D2*
X34882D1*
X36498D2*
X38131D1*
X4000Y6258D2*
X5370D1*
X7010D2*
X8870D1*
X11226D2*
X11992D1*
X34388D2*
X34964D1*
X36416D2*
X38131D1*
X4000Y6159D2*
X5309D1*
X7071D2*
X8809D1*
X11226D2*
X11992D1*
X34388D2*
X35073D1*
X36307D2*
X38131D1*
X4000Y6060D2*
X5264D1*
X7116D2*
X8764D1*
X11226D2*
X11992D1*
X34388D2*
X35228D1*
X36152D2*
X38131D1*
X4000Y5962D2*
X5229D1*
X7151D2*
X8729D1*
X11226D2*
X11992D1*
X34388D2*
X35535D1*
X35845D2*
X38131D1*
X4000Y5863D2*
X5206D1*
X7174D2*
X8706D1*
X11226D2*
X11992D1*
X34388D2*
X38131D1*
X4000Y5764D2*
X5193D1*
X7187D2*
X8693D1*
X11226D2*
X11992D1*
X34388D2*
X38131D1*
X4000Y5666D2*
X5192D1*
X7188D2*
X8692D1*
X11226D2*
X11992D1*
X34388D2*
X38131D1*
X4000Y5567D2*
X5200D1*
X7180D2*
X8700D1*
X11226D2*
X11992D1*
X34388D2*
X38131D1*
X4000Y5468D2*
X5217D1*
X7163D2*
X8717D1*
X11226D2*
X11992D1*
X34388D2*
X38131D1*
X4000Y5370D2*
X5245D1*
X7135D2*
X8745D1*
X11226D2*
X11992D1*
X34388D2*
X38131D1*
X4000Y5271D2*
X5284D1*
X7096D2*
X8784D1*
X11226D2*
X11992D1*
X34388D2*
X38131D1*
X4000Y5172D2*
X5337D1*
X7043D2*
X8837D1*
X11226D2*
X11992D1*
X34388D2*
X38131D1*
X4000Y5073D2*
X5407D1*
X6973D2*
X8907D1*
X11237D2*
X11992D1*
X34388D2*
X38131D1*
X4000Y4975D2*
X5496D1*
X6884D2*
X8996D1*
X11295D2*
X11992D1*
X34388D2*
X38131D1*
X4000Y4876D2*
X5618D1*
X6762D2*
X9118D1*
X11332D2*
X11992D1*
X34388D2*
X38131D1*
X4000Y4777D2*
X5800D1*
X6580D2*
X9300D1*
X11354D2*
X11992D1*
X34388D2*
X38131D1*
X4000Y4679D2*
X10021D1*
X11359D2*
X11992D1*
X34388D2*
X38131D1*
X4000Y4580D2*
X10031D1*
X11349D2*
X11992D1*
X34388D2*
X38131D1*
X4000Y4481D2*
X10054D1*
X11326D2*
X38131D1*
X4000Y4383D2*
X10096D1*
X11284D2*
X38131D1*
X4000Y4284D2*
X10160D1*
X11220D2*
X38131D1*
X4000Y4185D2*
X10256D1*
X11124D2*
X38131D1*
X4000Y4087D2*
X10415D1*
X10965D2*
X38131D1*
X18387Y8890D2*
X18373Y8791D1*
X18344Y8695D1*
X18303Y8604D1*
X18249Y8520D1*
X18183Y8445D1*
X18107Y8380D1*
X18023Y8326D1*
X17932Y8285D1*
X17836Y8257D1*
X17737Y8243D1*
X17637D1*
X17539Y8258D1*
X17443Y8287D1*
X17352Y8328D1*
X17268Y8383D1*
X17190Y8452D1*
X17146Y8411D1*
X17066Y8351D1*
X16979Y8304D1*
X16885Y8269D1*
X16787Y8248D1*
X16687Y8241D1*
X16588Y8249D1*
X16490Y8271D1*
X16397Y8306D1*
X16309Y8354D1*
X16230Y8414D1*
X16190Y8452D1*
X16154Y8419D1*
Y8190D1*
X16151Y8140D1*
X16143Y8091D1*
X16129Y8041D1*
X16140Y8028D1*
X18373D1*
X18695Y8351D1*
X19987Y9643D1*
X20024Y9676D1*
X20065Y9706D1*
X20108Y9730D1*
X20154Y9750D1*
X20202Y9765D1*
X20251Y9775D1*
X20315Y9779D1*
X22440D1*
X22490Y9776D1*
X22539Y9768D1*
X22587Y9755D1*
X22634Y9737D1*
X22678Y9713D1*
X22720Y9685D1*
X22768Y9643D1*
X23956Y8456D1*
X23994Y8412D1*
X24041Y8389D1*
X24389D1*
Y6991D1*
X22991D1*
Y8109D1*
X22249Y8850D1*
X21690Y8851D1*
X21348D1*
X21386Y8774D1*
X21418Y8680D1*
X21437Y8581D1*
X21442Y8503D1*
X21434Y8403D1*
X21420Y8334D1*
X21500Y8362D1*
X21598Y8383D1*
X21698Y8389D1*
X21797Y8380D1*
X21895Y8358D1*
X21988Y8322D1*
X22075Y8273D1*
X22154Y8212D1*
X22224Y8141D1*
X22283Y8060D1*
X22329Y7971D1*
X22364Y7878D1*
X22382Y7831D1*
X22395Y7783D1*
X22402Y7733D1*
X22404Y7683D1*
X22401Y7633D1*
X22392Y7584D1*
X22372Y7521D1*
X22344Y7445D1*
X22303Y7354D1*
X22249Y7270D1*
X22183Y7195D1*
X22107Y7130D1*
X22023Y7076D1*
X21945Y7040D1*
X21785Y6879D1*
X22379Y6877D1*
X22551Y6879D1*
X23379Y6877D1*
X23551Y6879D1*
X24379Y6877D1*
X24551Y6879D1*
X25379Y6877D1*
X25551Y6879D1*
X26379Y6877D1*
X26551Y6879D1*
X27281D1*
X27202Y6917D1*
X27160Y6945D1*
X27112Y6987D1*
X24247Y9852D1*
X23490Y9851D1*
X18882D1*
X18303Y9272D1*
X18329Y9221D1*
X18363Y9127D1*
X18383Y9029D1*
X18389Y8940D1*
X18387Y8890D1*
X13052Y8655D2*
X13018Y8748D1*
X12998Y8845D1*
X12991Y8945D1*
X12999Y9045D1*
X13021Y9142D1*
X13057Y9236D1*
X13106Y9323D1*
X13166Y9402D1*
X13237Y9472D1*
X13261Y9491D1*
X13292Y9553D1*
X13320Y9595D1*
X13362Y9643D1*
X16174Y12456D1*
X16212Y12489D1*
X16252Y12518D1*
X16296Y12543D1*
X16341Y12563D1*
X16389Y12577D1*
X16438Y12587D1*
X16502Y12592D1*
X16545D1*
X16519Y12643D1*
X16485Y12737D1*
X16464Y12834D1*
X16456Y12926D1*
X15517Y11986D1*
X12643Y9112D1*
X12599Y9073D1*
X12619Y9042D1*
X13007Y8654D1*
X13054D1*
X15191Y21266D2*
X15146Y21224D1*
X15066Y21164D1*
X14979Y21116D1*
X14885Y21082D1*
X14787Y21061D1*
X14687Y21054D1*
X14588Y21061D1*
X14490Y21083D1*
X14397Y21118D1*
X14309Y21167D1*
X14230Y21227D1*
X14159Y21298D1*
X14100Y21378D1*
X14053Y21466D1*
X14018Y21560D1*
X13998Y21658D1*
X13991Y21758D1*
X13999Y21857D1*
X14021Y21955D1*
X14052Y22039D1*
X12448D1*
X12384Y21976D1*
X12303Y21917D1*
X12214Y21871D1*
X12120Y21837D1*
X12022Y21818D1*
X11922Y21814D1*
X11823Y21824D1*
X11726Y21848D1*
X11633Y21885D1*
X11547Y21936D1*
X11470Y21999D1*
X11402Y22072D1*
X11345Y22155D1*
X11301Y22244D1*
X11271Y22340D1*
X11254Y22438D1*
X11252Y22538D1*
X11264Y22637D1*
X11291Y22733D1*
X11331Y22825D1*
X11384Y22910D1*
X11449Y22986D1*
X11524Y23052D1*
X11608Y23106D1*
X11698Y23148D1*
X11794Y23176D1*
X11893Y23190D1*
X11993Y23189D1*
X12092Y23175D1*
X12188Y23146D1*
X12278Y23103D1*
X12361Y23048D1*
X12436Y22981D1*
X12449Y22966D1*
X14252Y22967D1*
X14302Y22964D1*
X14352Y22956D1*
X14400Y22942D1*
X14446Y22924D1*
X14491Y22901D1*
X14532Y22873D1*
X14581Y22831D1*
X15051Y22356D1*
X15075Y22336D1*
X15154Y22275D1*
X15189Y22241D1*
X15227Y22275D1*
X15229Y22365D1*
X15237Y22414D1*
X15250Y22462D1*
X15268Y22509D1*
X15292Y22553D1*
X15320Y22595D1*
X15362Y22643D1*
X15690Y22971D1*
X15689Y23038D1*
X15702Y23137D1*
X15728Y23233D1*
X15769Y23325D1*
X15822Y23410D1*
X15886Y23486D1*
X15903Y23502D1*
X15001Y23501D1*
X14001D1*
X13001D1*
X12001D1*
X12003Y24879D1*
X12001Y25051D1*
Y25879D1*
X13379Y25877D1*
X13551Y25879D1*
X14379Y25877D1*
X14551Y25879D1*
X15379Y25877D1*
X15551Y25879D1*
X16379Y25877D1*
X16551Y25879D1*
X17379Y25877D1*
X17551Y25879D1*
X18379Y25877D1*
X18551Y25879D1*
X19379Y25877D1*
X19551Y25879D1*
X20379Y25877D1*
X20551Y25879D1*
X21379Y25877D1*
X21551Y25879D1*
X22379Y25877D1*
X22551Y25879D1*
X23379Y25877D1*
X23551Y25879D1*
X24379Y25877D1*
X24551Y25879D1*
X25379Y25877D1*
X25551Y25879D1*
X26379Y25877D1*
X26551Y25879D1*
X27379Y25877D1*
X27551Y25879D1*
X28379Y25877D1*
X28551Y25879D1*
X29379Y25877D1*
X29551Y25879D1*
X30379Y25877D1*
X30551Y25879D1*
X31379Y25877D1*
X31551Y25879D1*
X32379Y25877D1*
X32551Y25879D1*
X33379Y25877D1*
X33551Y25879D1*
X34379D1*
X34377Y24501D1*
X34379Y24329D1*
Y23501D1*
X33001Y23503D1*
X32829Y23501D1*
X32001Y23503D1*
X31829Y23501D1*
X31001Y23503D1*
X30829Y23501D1*
X30001Y23503D1*
X29829Y23501D1*
X29001Y23503D1*
X28829Y23501D1*
X28001Y23503D1*
X27829Y23501D1*
X27001Y23503D1*
X26829Y23501D1*
X26001Y23503D1*
X25829Y23501D1*
X25001Y23503D1*
X24829Y23501D1*
X24001Y23503D1*
X23829Y23501D1*
X23001Y23503D1*
X22829Y23501D1*
X22001Y23503D1*
X21829Y23501D1*
X21001Y23503D1*
X20829Y23501D1*
X20001Y23503D1*
X19829Y23501D1*
X19001Y23503D1*
X18829Y23501D1*
X18152D1*
X18212Y23453D1*
X18262Y23404D1*
X18690D1*
X18740Y23401D1*
X18789Y23393D1*
X18837Y23380D1*
X18884Y23362D1*
X18928Y23338D1*
X18970Y23310D1*
X19018Y23268D1*
X21945Y20341D1*
X23878D1*
X23927Y20339D1*
X23977Y20331D1*
X24025Y20317D1*
X24071Y20299D1*
X24116Y20276D1*
X24157Y20248D1*
X24206Y20206D1*
X25133Y19279D1*
X27440D1*
X27490Y19276D1*
X27539Y19268D1*
X27587Y19255D1*
X27634Y19237D1*
X27678Y19213D1*
X27720Y19185D1*
X27768Y19143D1*
X28268Y18643D1*
X28301Y18606D1*
X28331Y18565D1*
X28355Y18522D1*
X28375Y18476D1*
X28390Y18428D1*
X28400Y18379D1*
X28404Y18315D1*
X28401Y17640D1*
X28393Y17591D1*
X28380Y17543D1*
X28362Y17496D1*
X28338Y17452D1*
X28310Y17410D1*
X28268Y17362D1*
X27768Y16862D1*
X27731Y16829D1*
X27690Y16799D1*
X27647Y16775D1*
X27601Y16755D1*
X27553Y16740D1*
X27504Y16730D1*
X27440Y16726D1*
X21690D1*
X21640Y16729D1*
X21591Y16737D1*
X21543Y16750D1*
X21496Y16768D1*
X21452Y16792D1*
X21410Y16820D1*
X21362Y16862D1*
X20943Y17281D1*
X20876Y17284D1*
X20777Y17301D1*
X20683Y17333D1*
X20594Y17379D1*
X20513Y17438D1*
X20439Y17512D1*
X20404Y17472D1*
Y15598D1*
X20599Y15599D1*
X20600Y15505D1*
X20690Y15550D1*
X20785Y15581D1*
X20883Y15597D1*
X20983Y15598D1*
X21082Y15584D1*
X21178Y15555D1*
X21268Y15512D1*
X21351Y15456D1*
X21424Y15388D1*
X21439Y15370D1*
X21519Y15447D1*
X21600Y15505D1*
X21690Y15550D1*
X21785Y15581D1*
X21883Y15597D1*
X21983Y15598D1*
X22082Y15584D1*
X22178Y15555D1*
X22268Y15512D1*
X22351Y15456D1*
X22424Y15388D1*
X22486Y15310D1*
X22536Y15223D1*
X22571Y15130D1*
X22593Y15032D1*
X22599Y14940D1*
X22592Y14840D1*
X22569Y14743D1*
X22532Y14650D1*
X22482Y14564D1*
X22419Y14487D1*
X22404Y14472D1*
Y14306D1*
X22445Y14334D1*
X22489Y14358D1*
X22535Y14377D1*
X22583Y14392D1*
X22632Y14400D1*
X22740Y14404D1*
X23748D1*
X24280Y14937D1*
X24285Y15019D1*
X24305Y15117D1*
X24339Y15211D1*
X24387Y15298D1*
X24447Y15378D1*
X24519Y15447D1*
X24600Y15505D1*
X24690Y15550D1*
X24785Y15581D1*
X24883Y15597D1*
X24983Y15598D1*
X25082Y15584D1*
X25178Y15555D1*
X25268Y15512D1*
X25351Y15456D1*
X25424Y15388D1*
X25439Y15370D1*
X25519Y15447D1*
X25600Y15505D1*
X25690Y15550D1*
X25785Y15581D1*
X25883Y15597D1*
X25983Y15598D1*
X26082Y15584D1*
X26178Y15555D1*
X26268Y15512D1*
X26351Y15456D1*
X26424Y15388D1*
X26439Y15370D1*
X26519Y15447D1*
X26600Y15505D1*
X26690Y15550D1*
X26785Y15581D1*
X26883Y15597D1*
X26983Y15598D1*
X27082Y15584D1*
X27178Y15555D1*
X27268Y15512D1*
X27351Y15456D1*
X27424Y15388D1*
X27486Y15310D1*
X27536Y15223D1*
X27571Y15130D1*
X27593Y15032D1*
X27599Y14940D1*
X27592Y14840D1*
X27569Y14743D1*
X27532Y14650D1*
X27482Y14564D1*
X27419Y14487D1*
X27345Y14419D1*
X27261Y14364D1*
X27171Y14322D1*
X27075Y14295D1*
X26976Y14282D1*
X26876Y14284D1*
X26777Y14301D1*
X26683Y14333D1*
X26594Y14379D1*
X26513Y14438D1*
X26439Y14512D1*
X26383Y14452D1*
X26304Y14390D1*
X26217Y14342D1*
X26123Y14307D1*
X26025Y14286D1*
X25926Y14281D1*
X25826Y14291D1*
X25729Y14315D1*
X25637Y14354D1*
X25552Y14407D1*
X25476Y14471D1*
X25439Y14512D1*
X25383Y14452D1*
X25304Y14390D1*
X25217Y14342D1*
X25123Y14307D1*
X25025Y14286D1*
X24937Y14281D1*
X24268Y13612D1*
X24231Y13579D1*
X24190Y13549D1*
X24147Y13525D1*
X24101Y13505D1*
X24053Y13490D1*
X24004Y13480D1*
X23940Y13476D1*
X22882D1*
X21311Y11905D1*
X21765Y11904D1*
X23992D1*
X23991Y12139D1*
X24351Y12140D1*
X24354Y12240D1*
X24362Y12289D1*
X24375Y12337D1*
X24393Y12384D1*
X24417Y12428D1*
X24445Y12470D1*
X24477Y12508D1*
X24513Y12542D1*
X24553Y12573D1*
X24595Y12599D1*
X24641Y12620D1*
X24688Y12636D1*
X24737Y12647D1*
X24815Y12654D1*
X30940D1*
X30990Y12651D1*
X31039Y12643D1*
X31087Y12630D1*
X31134Y12612D1*
X31178Y12588D1*
X31220Y12560D1*
X31268Y12518D1*
X31647Y12139D1*
X32389D1*
Y10741D1*
X30991D1*
Y11484D1*
X30868Y11606D1*
X30883Y11529D1*
X30889Y11440D1*
X30882Y11340D1*
X30860Y11243D1*
X30825Y11149D1*
X30777Y11061D1*
X30717Y10982D1*
X30646Y10911D1*
X30566Y10851D1*
X30479Y10804D1*
X30385Y10769D1*
X30287Y10748D1*
X30187Y10741D1*
X30088Y10749D1*
X29990Y10771D1*
X29897Y10806D1*
X29809Y10854D1*
X29730Y10914D1*
X29659Y10985D1*
X29600Y11066D1*
X29553Y11154D1*
X29518Y11248D1*
X29498Y11345D1*
X29491Y11445D1*
X29499Y11545D1*
X29521Y11642D1*
X29553Y11725D1*
X28888Y11726D1*
X28889Y10741D1*
X27491D1*
X27490Y11726D1*
X27326D1*
X27348Y11675D1*
X27375Y11579D1*
X27388Y11480D1*
X27387Y11390D1*
X27373Y11291D1*
X27344Y11195D1*
X27303Y11104D1*
X27249Y11020D1*
X27183Y10945D1*
X27107Y10880D1*
X27023Y10826D1*
X26932Y10785D1*
X26836Y10757D1*
X26737Y10743D1*
X26637D1*
X26539Y10758D1*
X26443Y10787D1*
X26352Y10828D1*
X26268Y10883D1*
X26193Y10949D1*
X26128Y11025D1*
X26075Y11109D1*
X26034Y11200D1*
X26006Y11296D1*
X25993Y11395D1*
X25994Y11495D1*
X26009Y11594D1*
X26037Y11690D1*
X26053Y11725D1*
X25388Y11726D1*
X25389Y10741D1*
X24621D1*
X24678Y10713D1*
X24720Y10685D1*
X24768Y10643D1*
X27633Y7778D1*
X28390Y7779D1*
X32370D1*
X32423Y7832D1*
X32502Y7893D1*
X32590Y7941D1*
X32683Y7976D1*
X32781Y7997D1*
X32881Y8004D1*
X32980Y7996D1*
X33078Y7974D1*
X33171Y7938D1*
X33258Y7889D1*
X33337Y7828D1*
X33407Y7756D1*
X33465Y7675D1*
X33511Y7587D1*
X33543Y7492D1*
X33562Y7394D1*
X33567Y7315D1*
X33559Y7215D1*
X33538Y7118D1*
X33502Y7024D1*
X33454Y6937D1*
X33410Y6878D1*
X34379Y6879D1*
X34377Y5501D1*
X34379Y5329D1*
Y4501D1*
X33001Y4503D1*
X32829Y4501D1*
X32001Y4503D1*
X31829Y4501D1*
X31001Y4503D1*
X30829Y4501D1*
X30001Y4503D1*
X29829Y4501D1*
X29001Y4503D1*
X28829Y4501D1*
X28001Y4503D1*
X27829Y4501D1*
X27001Y4503D1*
X26829Y4501D1*
X26001Y4503D1*
X25829Y4501D1*
X25001Y4503D1*
X24829Y4501D1*
X24001Y4503D1*
X23829Y4501D1*
X23001Y4503D1*
X22829Y4501D1*
X22001Y4503D1*
X21829Y4501D1*
X21001Y4503D1*
X20829Y4501D1*
X20001Y4503D1*
X19829Y4501D1*
X19001Y4503D1*
X18829Y4501D1*
X18001Y4503D1*
X17829Y4501D1*
X17001Y4503D1*
X16829Y4501D1*
X16001Y4503D1*
X15829Y4501D1*
X15001Y4503D1*
X14829Y4501D1*
X14001Y4503D1*
X13829Y4501D1*
X13001Y4503D1*
X12829Y4501D1*
X12001D1*
X12003Y5879D1*
X12001Y6051D1*
Y6478D1*
X11840Y6476D1*
X11217D1*
X11216Y5085D1*
X11262Y5017D1*
X11305Y4927D1*
X11334Y4831D1*
X11348Y4732D1*
X11347Y4640D1*
X11332Y4541D1*
X11302Y4446D1*
X11259Y4356D1*
X11202Y4274D1*
X11133Y4202D1*
X11054Y4140D1*
X10967Y4092D1*
X10873Y4057D1*
X10775Y4036D1*
X10676Y4031D1*
X10576Y4041D1*
X10479Y4065D1*
X10387Y4104D1*
X10302Y4157D1*
X10226Y4221D1*
X10161Y4297D1*
X10107Y4381D1*
X10067Y4473D1*
X10042Y4570D1*
X10031Y4669D1*
X10035Y4764D1*
X9941Y4733D1*
X9843Y4713D1*
X9743Y4702D1*
X9644D1*
X9544Y4712D1*
X9446Y4732D1*
X9351Y4761D1*
X9259Y4800D1*
X9171Y4848D1*
X9089Y4905D1*
X9012Y4970D1*
X8943Y5042D1*
X8882Y5120D1*
X8828Y5205D1*
X8784Y5294D1*
X8748Y5388D1*
X8723Y5484D1*
X8707Y5583D1*
X8701Y5683D1*
X8705Y5783D1*
X8720Y5882D1*
X8744Y5979D1*
X8778Y6073D1*
X8821Y6163D1*
X8873Y6248D1*
X8934Y6328D1*
X9002Y6401D1*
X9077Y6466D1*
X9159Y6524D1*
X9246Y6574D1*
X9337Y6614D1*
X9432Y6645D1*
X9530Y6666D1*
X9629Y6677D1*
X9729Y6678D1*
X9829Y6669D1*
X9927Y6650D1*
X10023Y6621D1*
X10115Y6583D1*
X10203Y6535D1*
X10289Y6476D1*
X10288Y6940D1*
X10291Y6990D1*
X10299Y7039D1*
X10313Y7087D1*
X10331Y7134D1*
X10354Y7178D1*
X10382Y7220D1*
X10414Y7258D1*
X10450Y7292D1*
X10490Y7323D1*
X10533Y7349D1*
X10578Y7370D1*
X10625Y7386D1*
X10674Y7397D1*
X10752Y7404D1*
X11063D1*
X11034Y7479D1*
X11011Y7576D1*
X11001Y7675D1*
X11006Y7775D1*
X11026Y7873D1*
X11059Y7967D1*
X11106Y8056D1*
X11165Y8136D1*
X11235Y8207D1*
X11315Y8268D1*
X11402Y8316D1*
X11496Y8351D1*
X11593Y8372D1*
X11693Y8379D1*
X11793Y8371D1*
X11890Y8349D1*
X11983Y8313D1*
X12071Y8264D1*
X12127Y8222D1*
X11589Y8760D1*
X11011Y8761D1*
Y10119D1*
X12338D1*
X14447Y12229D1*
X14341Y12265D1*
X14252Y12311D1*
X14170Y12368D1*
X14097Y12436D1*
X14033Y12513D1*
X13981Y12598D1*
X13940Y12689D1*
X13913Y12785D1*
X13898Y12884D1*
X13897Y12984D1*
X13910Y13083D1*
X13936Y13180D1*
X13975Y13272D1*
X14026Y13357D1*
X14089Y13436D1*
X14161Y13505D1*
X14242Y13563D1*
X14330Y13610D1*
X14424Y13644D1*
X14522Y13666D1*
X14621Y13674D1*
X14721Y13668D1*
X14819Y13649D1*
X14914Y13617D1*
X15003Y13572D1*
X15085Y13516D1*
X15159Y13449D1*
X15223Y13372D1*
X15277Y13287D1*
X15318Y13196D1*
X15340Y13123D1*
X15487Y13268D1*
X16487Y14268D1*
X16524Y14301D1*
X16566Y14331D1*
X16519Y14423D1*
X16485Y14517D1*
X16464Y14614D1*
X16456Y14714D1*
X16462Y14814D1*
X16482Y14912D1*
X16514Y15006D1*
X16559Y15095D1*
X16616Y15178D1*
X16684Y15251D1*
X16760Y15315D1*
X16782Y15330D1*
X16730Y15368D1*
X16657Y15436D1*
X16593Y15513D1*
X16541Y15598D1*
X16500Y15689D1*
X16473Y15785D1*
X16458Y15884D1*
X16457Y15984D1*
X16470Y16083D1*
X16496Y16180D1*
X16535Y16272D1*
X16586Y16357D1*
X16649Y16436D1*
X16721Y16505D1*
X16802Y16563D1*
X16890Y16610D1*
X16984Y16644D1*
X17082Y16666D1*
X17181Y16674D1*
X17281Y16668D1*
X17379Y16649D1*
X17474Y16617D1*
X17563Y16572D1*
X17645Y16516D1*
X17719Y16449D1*
X17783Y16372D1*
X17837Y16287D1*
X17878Y16196D1*
X17906Y16101D1*
X17921Y16002D1*
X17924Y15940D1*
X17917Y15840D1*
X17897Y15742D1*
X17864Y15648D1*
X17818Y15560D1*
X17760Y15478D1*
X17692Y15405D1*
X17615Y15341D1*
X17598Y15330D1*
X17683Y15263D1*
X17753Y15191D1*
X17811Y15111D1*
X17859Y15023D1*
X17894Y14929D1*
X17915Y14831D1*
X17924Y14732D1*
X17922Y14670D1*
X17909Y14571D1*
X17882Y14475D1*
X17852Y14404D1*
X18748D1*
X19280Y14937D1*
X19281Y15599D1*
X19476D1*
Y17473D1*
X19411Y17547D1*
X19357Y17631D1*
X19317Y17723D1*
X19292Y17820D1*
X19281Y17919D1*
Y17942D1*
X17748Y19476D1*
X17692D1*
X17753Y19411D1*
X17811Y19331D1*
X17859Y19243D1*
X17894Y19149D1*
X17915Y19051D1*
X17924Y18952D1*
X17922Y18890D1*
X17909Y18791D1*
X17882Y18695D1*
X17842Y18603D1*
X17790Y18518D1*
X17727Y18440D1*
X17655Y18372D1*
X17598Y18330D1*
X17683Y18263D1*
X17753Y18191D1*
X17811Y18111D1*
X17859Y18023D1*
X17894Y17929D1*
X17915Y17831D1*
X17924Y17732D1*
X17922Y17670D1*
X17909Y17571D1*
X17882Y17475D1*
X17842Y17383D1*
X17790Y17298D1*
X17727Y17220D1*
X17655Y17152D1*
X17573Y17094D1*
X17484Y17048D1*
X17390Y17014D1*
X17293Y16993D1*
X17193Y16986D1*
X17093Y16992D1*
X16995Y17012D1*
X16901Y17045D1*
X16812Y17091D1*
X16730Y17148D1*
X16657Y17216D1*
X16593Y17293D1*
X16541Y17378D1*
X16500Y17469D1*
X16473Y17565D1*
X16458Y17664D1*
X16457Y17764D1*
X16470Y17863D1*
X16496Y17960D1*
X16535Y18052D1*
X16586Y18137D1*
X16649Y18216D1*
X16721Y18285D1*
X16782Y18330D1*
X16730Y18368D1*
X16657Y18436D1*
X16593Y18513D1*
X16541Y18598D1*
X16500Y18689D1*
X16473Y18785D1*
X16458Y18884D1*
X16457Y18984D1*
X16470Y19083D1*
X16496Y19180D1*
X16535Y19272D1*
X16586Y19357D1*
X16649Y19436D1*
X16703Y19489D1*
X16621Y19518D1*
X16577Y19542D1*
X16535Y19570D1*
X16487Y19612D1*
X16016Y20087D1*
X15987Y20127D1*
X15962Y20171D1*
X15942Y20217D1*
X15928Y20264D1*
X15918Y20313D1*
X15913Y20378D1*
Y21092D1*
X15836Y21069D1*
X15737Y21055D1*
X15637Y21056D1*
X15539Y21070D1*
X15443Y21099D1*
X15352Y21141D1*
X15268Y21195D1*
X15190Y21265D1*
X16780Y22445D2*
X16846Y22433D1*
X16942Y22404D1*
X17032Y22362D1*
X17116Y22306D1*
X17189Y22241D1*
X17277Y22316D1*
X17365Y22371D1*
X17320Y22404D1*
X17247Y22472D1*
X17184Y22550D1*
X17134Y22636D1*
X17097Y22729D1*
X17073Y22826D1*
X17064Y22925D1*
Y22946D1*
X17050Y22854D1*
X17022Y22758D1*
X16979Y22667D1*
X16925Y22584D1*
X16858Y22509D1*
X16783Y22446D1*
X18079Y22333D2*
X18154Y22275D1*
X18189Y22241D1*
X18277Y22316D1*
X18361Y22369D1*
X18453Y22410D1*
X18538Y22434D1*
X18498Y22476D1*
X18260D1*
X18196Y22413D1*
X18115Y22354D1*
X18079Y22333D1*
X34387Y11390D2*
X34373Y11291D1*
X34344Y11195D1*
X34303Y11104D1*
X34249Y11020D1*
X34183Y10945D1*
X34107Y10880D1*
X34023Y10826D1*
X33932Y10785D1*
X33836Y10757D1*
X33737Y10743D1*
X33637D1*
X33539Y10758D1*
X33443Y10787D1*
X33352Y10828D1*
X33268Y10883D1*
X33193Y10949D1*
X33128Y11025D1*
X33075Y11109D1*
X33034Y11200D1*
X33006Y11296D1*
X32993Y11395D1*
X32994Y11495D1*
X33009Y11594D1*
X33037Y11690D1*
X33080Y11780D1*
X33134Y11864D1*
X33201Y11939D1*
X33277Y12003D1*
X33361Y12056D1*
X33453Y12097D1*
X33549Y12124D1*
X33648Y12137D1*
X33748Y12136D1*
X33846Y12121D1*
X33942Y12092D1*
X34032Y12049D1*
X34116Y11994D1*
X34190Y11928D1*
X34255Y11851D1*
X34308Y11766D1*
X34348Y11675D1*
X34375Y11579D1*
X34388Y11480D1*
X34387Y11390D1*
X23991Y10780D2*
X23990Y10976D1*
X21257D1*
X21061Y10779D1*
X23992D1*
X20052Y7405D2*
X20018Y7498D1*
X19998Y7595D1*
X19991Y7695D1*
X19999Y7795D1*
X20021Y7892D1*
X20057Y7986D1*
X20106Y8073D1*
X20163Y8149D1*
X20134Y8199D1*
X20097Y8291D1*
X20073Y8388D1*
X20070Y8415D1*
X19547Y7891D1*
X19060Y7404D1*
X20054D1*
X17352Y23501D2*
X17001Y23503D1*
X16852Y23501D1*
X16907Y23444D1*
X16965Y23363D1*
X17011Y23274D1*
X17043Y23180D1*
X17062Y23081D1*
X17066Y23003D1*
X17077Y23075D1*
X17103Y23171D1*
X17144Y23262D1*
X17197Y23347D1*
X17261Y23423D1*
X17336Y23489D1*
X17353Y23501D1*
X16979D1*
X36678Y23390D2*
X36668Y23291D1*
X36648Y23193D1*
X36618Y23097D1*
X36578Y23005D1*
X36530Y22918D1*
X36473Y22836D1*
X36408Y22760D1*
X36336Y22691D1*
X36257Y22629D1*
X36172Y22576D1*
X36082Y22532D1*
X35989Y22497D1*
X35892Y22472D1*
X35793Y22456D1*
X35694Y22451D1*
X35594Y22456D1*
X35495Y22470D1*
X35398Y22495D1*
X35304Y22529D1*
X35214Y22573D1*
X35129Y22625D1*
X35050Y22686D1*
X34977Y22755D1*
X34911Y22830D1*
X34854Y22912D1*
X34805Y22999D1*
X34765Y23091D1*
X34734Y23186D1*
X34713Y23284D1*
X34703Y23383D1*
X34702Y23483D1*
X34711Y23582D1*
X34731Y23681D1*
X34760Y23776D1*
X34799Y23868D1*
X34846Y23956D1*
X34903Y24039D1*
X34967Y24115D1*
X35039Y24185D1*
X35117Y24246D1*
X35202Y24300D1*
X35291Y24345D1*
X35385Y24381D1*
X35481Y24407D1*
X35580Y24423D1*
X35679Y24429D1*
X35779Y24425D1*
X35878Y24411D1*
X35975Y24387D1*
X36069Y24353D1*
X36160Y24310D1*
X36245Y24258D1*
X36325Y24198D1*
X36398Y24130D1*
X36464Y24055D1*
X36522Y23974D1*
X36572Y23887D1*
X36613Y23796D1*
X36644Y23701D1*
X36665Y23603D1*
X36677Y23504D1*
X36678Y23390D1*
Y6890D2*
X36668Y6791D1*
X36648Y6693D1*
X36618Y6597D1*
X36578Y6505D1*
X36530Y6418D1*
X36473Y6336D1*
X36408Y6260D1*
X36336Y6191D1*
X36257Y6129D1*
X36172Y6076D1*
X36082Y6032D1*
X35989Y5997D1*
X35892Y5972D1*
X35793Y5956D1*
X35694Y5951D1*
X35594Y5956D1*
X35495Y5970D1*
X35398Y5995D1*
X35304Y6029D1*
X35214Y6073D1*
X35129Y6125D1*
X35050Y6186D1*
X34977Y6255D1*
X34911Y6330D1*
X34854Y6412D1*
X34805Y6499D1*
X34765Y6591D1*
X34734Y6686D1*
X34713Y6784D1*
X34703Y6883D1*
X34702Y6983D1*
X34711Y7082D1*
X34731Y7181D1*
X34760Y7276D1*
X34799Y7368D1*
X34846Y7456D1*
X34903Y7539D1*
X34967Y7615D1*
X35039Y7685D1*
X35117Y7746D1*
X35202Y7800D1*
X35291Y7845D1*
X35385Y7881D1*
X35481Y7907D1*
X35580Y7923D1*
X35679Y7929D1*
X35779Y7925D1*
X35878Y7911D1*
X35975Y7887D1*
X36069Y7853D1*
X36160Y7810D1*
X36245Y7758D1*
X36325Y7698D1*
X36398Y7630D1*
X36464Y7555D1*
X36522Y7474D1*
X36572Y7387D1*
X36613Y7296D1*
X36644Y7201D1*
X36665Y7103D1*
X36677Y7004D1*
X36678Y6890D1*
X10678Y24640D2*
X10668Y24541D1*
X10648Y24443D1*
X10618Y24347D1*
X10578Y24255D1*
X10530Y24168D1*
X10473Y24086D1*
X10408Y24010D1*
X10336Y23941D1*
X10257Y23879D1*
X10172Y23826D1*
X10082Y23782D1*
X9989Y23747D1*
X9892Y23722D1*
X9793Y23706D1*
X9694Y23701D1*
X9594Y23706D1*
X9495Y23720D1*
X9398Y23745D1*
X9304Y23779D1*
X9214Y23823D1*
X9129Y23875D1*
X9050Y23936D1*
X8977Y24005D1*
X8911Y24080D1*
X8854Y24162D1*
X8805Y24249D1*
X8765Y24341D1*
X8734Y24436D1*
X8713Y24534D1*
X8703Y24633D1*
X8702Y24733D1*
X8711Y24832D1*
X8731Y24931D1*
X8760Y25026D1*
X8799Y25118D1*
X8846Y25206D1*
X8903Y25289D1*
X8967Y25365D1*
X9039Y25435D1*
X9117Y25496D1*
X9202Y25550D1*
X9291Y25595D1*
X9385Y25631D1*
X9481Y25657D1*
X9580Y25673D1*
X9679Y25679D1*
X9779Y25675D1*
X9878Y25661D1*
X9975Y25637D1*
X10069Y25603D1*
X10160Y25560D1*
X10245Y25508D1*
X10325Y25448D1*
X10398Y25380D1*
X10464Y25305D1*
X10522Y25224D1*
X10572Y25137D1*
X10613Y25046D1*
X10644Y24951D1*
X10665Y24853D1*
X10677Y24754D1*
X10678Y24640D1*
X20599Y14376D2*
Y14281D1*
X19935D1*
X19667Y14011D1*
X19231Y13579D1*
X19190Y13549D1*
X19147Y13525D1*
X19101Y13505D1*
X19053Y13490D1*
X19004Y13480D1*
X18940Y13476D1*
X17692D1*
X17753Y13411D1*
X17811Y13331D1*
X17859Y13243D1*
X17894Y13149D1*
X17915Y13051D1*
X17924Y12952D1*
X17922Y12890D1*
X17909Y12791D1*
X17882Y12695D1*
X17842Y12603D1*
X17835Y12591D1*
X19560Y12592D1*
X21458Y14490D1*
X21439Y14512D1*
X21383Y14452D1*
X21304Y14390D1*
X21217Y14342D1*
X21123Y14307D1*
X21025Y14286D1*
X20926Y14281D1*
X20826Y14291D1*
X20729Y14315D1*
X20637Y14354D1*
X20598Y14377D1*
X24347Y17652D2*
X24317Y17723D1*
X24292Y17820D1*
X24281Y17919D1*
X24285Y18019D1*
X24292Y18057D1*
X23622Y18727D1*
X22465Y18726D1*
X21873D1*
X22002Y18597D1*
X22082Y18584D1*
X22178Y18555D1*
X22268Y18512D1*
X22351Y18456D1*
X22424Y18388D1*
X22486Y18310D1*
X22536Y18223D1*
X22571Y18130D1*
X22593Y18032D1*
X22599Y17940D1*
X22592Y17840D1*
X22569Y17743D1*
X22534Y17655D1*
X24345Y17654D1*
X19938Y18599D2*
X20033Y18593D1*
X20130Y18571D1*
X20164Y18559D1*
X17919Y20805D1*
X17924Y20720D1*
X17917Y20620D1*
X17897Y20522D1*
X17864Y20428D1*
X17852Y20404D1*
X17990Y20401D1*
X18039Y20393D1*
X18087Y20380D1*
X18134Y20362D1*
X18178Y20338D1*
X18220Y20310D1*
X18268Y20268D1*
X19938Y18599D1*
X15362Y18890D2*
X15349Y18791D1*
X15322Y18695D1*
X15282Y18603D1*
X15230Y18518D1*
X15167Y18440D1*
X15095Y18372D1*
X15013Y18314D1*
X14924Y18268D1*
X14830Y18234D1*
X14733Y18213D1*
X14633Y18206D1*
X14533Y18212D1*
X14435Y18232D1*
X14341Y18265D1*
X14252Y18311D1*
X14170Y18368D1*
X14097Y18436D1*
X14033Y18513D1*
X13981Y18598D1*
X13940Y18689D1*
X13913Y18785D1*
X13898Y18884D1*
X13897Y18984D1*
X13910Y19083D1*
X13936Y19180D1*
X13975Y19272D1*
X14026Y19357D1*
X14089Y19436D1*
X14161Y19505D1*
X14242Y19563D1*
X14330Y19610D1*
X14424Y19644D1*
X14522Y19666D1*
X14621Y19674D1*
X14721Y19668D1*
X14819Y19649D1*
X14914Y19617D1*
X15003Y19572D1*
X15085Y19516D1*
X15159Y19449D1*
X15223Y19372D1*
X15277Y19287D1*
X15318Y19196D1*
X15346Y19101D1*
X15361Y19002D1*
X15364Y18940D1*
X15362Y18890D1*
Y15890D2*
X15349Y15791D1*
X15322Y15695D1*
X15282Y15603D1*
X15230Y15518D1*
X15167Y15440D1*
X15095Y15372D1*
X15013Y15314D1*
X14924Y15268D1*
X14830Y15234D1*
X14733Y15213D1*
X14633Y15206D1*
X14533Y15212D1*
X14435Y15232D1*
X14341Y15265D1*
X14252Y15311D1*
X14170Y15368D1*
X14097Y15436D1*
X14033Y15513D1*
X13981Y15598D1*
X13940Y15689D1*
X13913Y15785D1*
X13898Y15884D1*
X13897Y15984D1*
X13910Y16083D1*
X13936Y16180D1*
X13975Y16272D1*
X14026Y16357D1*
X14089Y16436D1*
X14161Y16505D1*
X14242Y16563D1*
X14330Y16610D1*
X14424Y16644D1*
X14522Y16666D1*
X14621Y16674D1*
X14721Y16668D1*
X14819Y16649D1*
X14914Y16617D1*
X15003Y16572D1*
X15085Y16516D1*
X15159Y16449D1*
X15223Y16372D1*
X15277Y16287D1*
X15318Y16196D1*
X15346Y16101D1*
X15361Y16002D1*
X15364Y15940D1*
X15362Y15890D1*
X9502Y9178D2*
X10928D1*
Y7702D1*
X9452D1*
Y9178D1*
X9502D1*
X10926Y10390D2*
X10913Y10291D1*
X10886Y10195D1*
X10847Y10103D1*
X10795Y10017D1*
X10732Y9940D1*
X10660Y9871D1*
X10579Y9813D1*
X10490Y9766D1*
X10396Y9731D1*
X10299Y9710D1*
X10199Y9702D1*
X10100Y9708D1*
X10001Y9726D1*
X9907Y9759D1*
X9817Y9803D1*
X9735Y9859D1*
X9660Y9926D1*
X9596Y10002D1*
X9542Y10087D1*
X9500Y10177D1*
X9471Y10273D1*
X9455Y10372D1*
X9453Y10471D1*
X9464Y10571D1*
X9488Y10668D1*
X9525Y10760D1*
X9575Y10847D1*
X9635Y10927D1*
X9706Y10997D1*
X9786Y11057D1*
X9873Y11106D1*
X9966Y11143D1*
X10063Y11167D1*
X10162Y11177D1*
X10262Y11174D1*
X10361Y11158D1*
X10456Y11128D1*
X10547Y11086D1*
X10631Y11032D1*
X10707Y10967D1*
X10773Y10892D1*
X10829Y10810D1*
X10873Y10720D1*
X10904Y10625D1*
X10923Y10527D1*
X10928Y10440D1*
X10926Y10390D1*
X7561Y9119D2*
X8869D1*
Y7761D1*
X7511D1*
Y9119D1*
X7561D1*
X6041Y9139D2*
X7389D1*
Y7741D1*
X5991D1*
Y9139D1*
X6041D1*
X7178Y5640D2*
X7168Y5541D1*
X7148Y5443D1*
X7118Y5347D1*
X7078Y5255D1*
X7030Y5168D1*
X6973Y5086D1*
X6908Y5010D1*
X6836Y4941D1*
X6757Y4879D1*
X6672Y4826D1*
X6582Y4782D1*
X6489Y4747D1*
X6392Y4722D1*
X6293Y4706D1*
X6194Y4701D1*
X6094Y4706D1*
X5995Y4720D1*
X5898Y4745D1*
X5804Y4779D1*
X5714Y4823D1*
X5629Y4875D1*
X5550Y4936D1*
X5477Y5005D1*
X5411Y5080D1*
X5354Y5162D1*
X5305Y5249D1*
X5265Y5341D1*
X5234Y5436D1*
X5213Y5534D1*
X5203Y5633D1*
X5202Y5733D1*
X5211Y5832D1*
X5231Y5931D1*
X5260Y6026D1*
X5299Y6118D1*
X5346Y6206D1*
X5403Y6289D1*
X5467Y6365D1*
X5539Y6435D1*
X5617Y6496D1*
X5702Y6550D1*
X5791Y6595D1*
X5885Y6631D1*
X5981Y6657D1*
X6080Y6673D1*
X6179Y6679D1*
X6279Y6675D1*
X6378Y6661D1*
X6475Y6637D1*
X6569Y6603D1*
X6660Y6560D1*
X6745Y6508D1*
X6825Y6448D1*
X6898Y6380D1*
X6964Y6305D1*
X7022Y6224D1*
X7072Y6137D1*
X7113Y6046D1*
X7144Y5951D1*
X7165Y5853D1*
X7177Y5754D1*
X7178Y5640D1*
X17816Y10538D2*
X17875Y10467D1*
X17927Y10382D1*
X17966Y10290D1*
X17976Y10259D1*
X18256Y10538D1*
X17817D1*
X6740Y26389D2*
X6803Y19740D1*
X11940D1*
X11982Y19716D1*
X11990Y19690D1*
Y12690D1*
X11966Y12648D1*
X11940Y12640D1*
X3990D1*
Y3990D1*
X38140D1*
Y26390D1*
X6742D1*
X22341Y15791D2*
X24376D1*
X22318Y15693D2*
X24850D1*
X22295Y15594D2*
X24826D1*
X22305Y15495D2*
X24575D1*
X22426Y15397D2*
X24454D1*
X22504Y15298D2*
X24376D1*
X22555Y15199D2*
X24325D1*
X22590Y15100D2*
X24290D1*
X22605Y15002D2*
X24275D1*
X22609Y14903D2*
X24237D1*
X22595Y14804D2*
X24139D1*
X22566Y14706D2*
X24040D1*
X22520Y14607D2*
X23942D1*
X22448Y14508D2*
X23842D1*
X22413Y14410D2*
X23743D1*
X22597Y14890D2*
X22582Y14791D1*
X22552Y14696D1*
X22509Y14606D1*
X22452Y14524D1*
X22404Y14472D1*
Y14306D1*
X22445Y14334D1*
X22489Y14358D1*
X22535Y14377D1*
X22583Y14392D1*
X22632Y14400D1*
X22740Y14404D1*
X23748D1*
X24280Y14937D1*
X24285Y15019D1*
X24305Y15117D1*
X24339Y15211D1*
X24387Y15298D1*
X24447Y15378D1*
X24519Y15447D1*
X24600Y15505D1*
X24690Y15550D1*
X24785Y15581D1*
X24835Y15591D1*
X24878Y15768D1*
X22355Y15888D1*
X22266Y15513D1*
X22351Y15456D1*
X22424Y15388D1*
X22486Y15310D1*
X22536Y15223D1*
X22571Y15130D1*
X22593Y15032D1*
X22599Y14940D1*
X22597Y14890D1*
X22248Y18647D2*
X23692D1*
X22226Y18548D2*
X23792D1*
X22368Y18449D2*
X23890D1*
X22466Y18350D2*
X23989D1*
X22530Y18252D2*
X24087D1*
X22574Y18153D2*
X24185D1*
X22599Y18054D2*
X24281D1*
X22609Y17956D2*
X24271D1*
X22604Y17857D2*
X24276D1*
X22584Y17758D2*
X24296D1*
X22546Y17660D2*
X24334D1*
X24347Y17652D2*
X24317Y17723D1*
X24292Y17820D1*
X24281Y17919D1*
X24285Y18019D1*
X24292Y18057D1*
X23622Y18727D1*
X22465Y18726D1*
X22257D1*
X22214Y18541D1*
X22310Y18485D1*
X22388Y18423D1*
X22456Y18350D1*
X22512Y18267D1*
X22555Y18177D1*
X22584Y18081D1*
X22598Y17982D1*
X22597Y17890D1*
X22582Y17791D1*
X22552Y17696D1*
X22534Y17655D1*
X24345Y17654D1*
D18*
X18690Y8940D3*
D19*
X17690D3*
X16690D3*
X15690D3*
X14690D3*
X13690D3*
D18*
Y21752D3*
D19*
X14690D3*
X15690D3*
X16690D3*
X17690D3*
X18690D3*
D18*
X31690Y11440D3*
D19*
X32690D3*
X33690D3*
D18*
X28190D3*
D19*
X29190D3*
X30190D3*
D18*
X24690D3*
D19*
X25690D3*
X26690D3*
D18*
X23690Y7690D3*
D19*
X22690D3*
X21690D3*
X20690D3*
D20*
X11690Y6190D3*
X12690D3*
X13690D3*
X14690D3*
X15690D3*
X16690D3*
X17690D3*
X18690D3*
X19690D3*
X20690D3*
X21690D3*
X22690D3*
X23690D3*
X24690D3*
X25690D3*
X26690D3*
X27690D3*
X28690D3*
X29690D3*
X30690D3*
X31690D3*
X32690D3*
X33690D3*
Y5190D3*
X32690D3*
X31690D3*
X30690D3*
X29690D3*
X28690D3*
X27690D3*
X26690D3*
X25690D3*
X24690D3*
X23690D3*
X22690D3*
X21690D3*
X20690D3*
X19690D3*
X18690D3*
X17690D3*
X16690D3*
X15690D3*
X14690D3*
X13690D3*
X12690D3*
X11690D3*
Y25190D3*
X12690D3*
X13690D3*
X14690D3*
X15690D3*
X16690D3*
X17690D3*
X18690D3*
X19690D3*
X20690D3*
X21690D3*
X22690D3*
X23690D3*
X24690D3*
X25690D3*
X26690D3*
X27690D3*
X28690D3*
X29690D3*
X30690D3*
X31690D3*
X32690D3*
X33690D3*
Y24190D3*
X32690D3*
X31690D3*
X30690D3*
X29690D3*
X28690D3*
X27690D3*
X26690D3*
X25690D3*
X24690D3*
X23690D3*
X22690D3*
X21690D3*
X20690D3*
X19690D3*
X18690D3*
X17690D3*
X16690D3*
X15690D3*
X14690D3*
X13690D3*
X12690D3*
X11690D3*
D21*
X19940Y14940D3*
D22*
X20940D3*
X21940D3*
X22940D3*
X23940D3*
X24940D3*
X25940D3*
X26940D3*
Y17940D3*
X25940D3*
X24940D3*
X23940D3*
X22940D3*
X21940D3*
X20940D3*
X19940D3*
D24*
X14630Y20720D3*
X17190D3*
X14630Y18940D3*
X17190D3*
X14630Y17720D3*
X17190D3*
X14630Y15940D3*
X17190D3*
X14630Y14720D3*
X17190D3*
X14630Y12940D3*
X17190D3*
D25*
X10190Y8440D3*
D26*
Y9440D3*
Y10440D3*
D27*
X11690D3*
D28*
Y9440D3*
D27*
X8190D3*
D28*
Y8440D3*
D18*
X6690D3*
D19*
Y9440D3*
D29*
X10690Y4690D3*
M02*
