G04 DipTrace 2.4.0.2*
%INBottomMask.gbr*%
%MOIN*%
%ADD18R,0.0669X0.0669*%
%ADD19C,0.0669*%
%ADD24C,0.074*%
%ADD25R,0.0748X0.0748*%
%ADD26C,0.0748*%
%ADD32C,0.125*%
%ADD39C,0.0671*%
%ADD41R,0.071X0.071*%
%ADD43C,0.071*%
%ADD45C,0.0828*%
%ADD46R,0.0828X0.0828*%
%ADD51R,0.073X0.073*%
%FSLAX44Y44*%
G04*
G70*
G90*
G75*
G01*
%LNBotMask*%
%LPD*%
D25*
X18690Y8940D3*
D26*
X17690D3*
X16690D3*
X15690D3*
X14690D3*
X13690D3*
D25*
Y21752D3*
D26*
X14690D3*
X15690D3*
X16690D3*
X17690D3*
X18690D3*
D25*
X31690Y11440D3*
D26*
X32690D3*
X33690D3*
D25*
X28190D3*
D26*
X29190D3*
X30190D3*
D25*
X24690D3*
D26*
X25690D3*
X26690D3*
D25*
X23690Y7690D3*
D26*
X22690D3*
X21690D3*
X20690D3*
D51*
X11690Y6190D3*
X12690D3*
X13690D3*
X14690D3*
X15690D3*
X16690D3*
X17690D3*
X18690D3*
X19690D3*
X20690D3*
X21690D3*
X22690D3*
X23690D3*
X24690D3*
X25690D3*
X26690D3*
X27690D3*
X28690D3*
X29690D3*
X30690D3*
X31690D3*
X32690D3*
X33690D3*
Y5190D3*
X32690D3*
X31690D3*
X30690D3*
X29690D3*
X28690D3*
X27690D3*
X26690D3*
X25690D3*
X24690D3*
X23690D3*
X22690D3*
X21690D3*
X20690D3*
X19690D3*
X18690D3*
X17690D3*
X16690D3*
X15690D3*
X14690D3*
X13690D3*
X12690D3*
X11690D3*
Y25190D3*
X12690D3*
X13690D3*
X14690D3*
X15690D3*
X16690D3*
X17690D3*
X18690D3*
X19690D3*
X20690D3*
X21690D3*
X22690D3*
X23690D3*
X24690D3*
X25690D3*
X26690D3*
X27690D3*
X28690D3*
X29690D3*
X30690D3*
X31690D3*
X32690D3*
X33690D3*
Y24190D3*
X32690D3*
X31690D3*
X30690D3*
X29690D3*
X28690D3*
X27690D3*
X26690D3*
X25690D3*
X24690D3*
X23690D3*
X22690D3*
X21690D3*
X20690D3*
X19690D3*
X18690D3*
X17690D3*
X16690D3*
X15690D3*
X14690D3*
X13690D3*
X12690D3*
X11690D3*
D32*
X35690Y23440D3*
Y6940D3*
X9690Y24690D3*
Y5690D3*
D18*
X19940Y14940D3*
D19*
X20940D3*
X21940D3*
X22940D3*
X23940D3*
X24940D3*
X25940D3*
X26940D3*
Y17940D3*
X25940D3*
X24940D3*
X23940D3*
X22940D3*
X21940D3*
X20940D3*
X19940D3*
D24*
X14630Y20720D3*
X17190D3*
X14630Y18940D3*
X17190D3*
X14630Y17720D3*
X17190D3*
X14630Y15940D3*
X17190D3*
X14630Y14720D3*
X17190D3*
X14630Y12940D3*
X17190D3*
D46*
X10190Y8440D3*
D45*
Y9440D3*
Y10440D3*
D43*
X11690D3*
D41*
Y9440D3*
D43*
X8190D3*
D41*
Y8440D3*
D25*
X6690D3*
D26*
Y9440D3*
D32*
X6190Y5690D3*
D39*
X10690Y4690D3*
M02*
