M48
INCH
T01C0.0313
T02C0.0354
T03C0.0394
T04C0.04
T05C0.0433
T06C0.125
%
T01
X+011690Y+006190
X+011690Y+005190
X+012690Y+005190
X+012690Y+006190
X+013690Y+006190
X+013690Y+005190
X+014690Y+005190
X+014690Y+006190
X+015690Y+006190
X+015690Y+005190
X+016690Y+005190
X+016690Y+006190
X+017690Y+006190
X+017690Y+005190
X+018690Y+005190
X+018690Y+006190
X+019690Y+006190
X+019690Y+005190
X+020690Y+005190
X+020690Y+006190
X+021690Y+006190
X+021690Y+005190
X+022690Y+005190
X+023690Y+005190
X+023690Y+006190
X+022690Y+006190
X+024690Y+006190
X+024690Y+005190
X+025690Y+005190
X+025690Y+006190
X+026690Y+006190
X+026690Y+005190
X+027690Y+005190
X+027690Y+006190
X+028690Y+006190
X+028690Y+005190
X+029690Y+005190
X+029690Y+006190
X+030690Y+006190
X+030690Y+005190
X+031690Y+005190
X+031690Y+006190
X+032690Y+006190
X+032690Y+005190
X+033690Y+005190
X+033690Y+006190
X+033690Y+024190
X+033690Y+025190
X+032690Y+025190
X+032690Y+024190
X+031690Y+024190
X+030690Y+024190
X+030690Y+025190
X+031690Y+025190
X+029690Y+025190
X+029690Y+024190
X+028690Y+024190
X+028690Y+025190
X+027690Y+025190
X+027690Y+024190
X+026690Y+024190
X+026690Y+025190
X+025690Y+025190
X+025690Y+024190
X+024690Y+024190
X+024690Y+025190
X+023690Y+025190
X+022690Y+025190
X+022690Y+024190
X+023690Y+024190
X+021690Y+024190
X+021690Y+025190
X+020690Y+025190
X+020690Y+024190
X+019690Y+024190
X+019690Y+025190
X+018690Y+025190
X+017690Y+025190
X+017690Y+024190
X+018690Y+024190
X+016690Y+024190
X+016690Y+025190
X+015690Y+025190
X+015690Y+024190
X+014690Y+024190
X+014690Y+025190
X+013690Y+025190
X+013690Y+024190
X+012690Y+024190
X+012690Y+025190
X+011690Y+025190
X+011690Y+024190
T02
X+019940Y+014940
X+020940Y+014940
X+021940Y+014940
X+022940Y+014940
X+023940Y+014940
X+024940Y+014940
X+025940Y+014940
X+026940Y+014940
X+026940Y+017940
X+025940Y+017940
X+024940Y+017940
X+023940Y+017940
X+022940Y+017940
X+021940Y+017940
X+020940Y+017940
X+019940Y+017940
X+010690Y+004690
T03
X+011690Y+010440
X+011690Y+009440
X+008190Y+009440
X+008190Y+008440
T04
X+014630Y+020720
X+014630Y+018940
X+014630Y+017720
X+014630Y+015940
X+014630Y+014720
X+014630Y+012940
X+017190Y+012940
X+017190Y+014720
X+017190Y+015940
X+017190Y+017720
X+017190Y+018940
X+017190Y+020720
X+017752Y+022940
X+016377Y+023002
X+011940Y+022503
X+005190Y+011565
X+007815Y+005815
X+011690Y+007690
X+017315Y+010065
X+020753Y+008503
X+025065Y+007690
X+032878Y+007315
X+035503Y+017877
T05
X+018690Y+008940
X+017690Y+008940
X+016690Y+008940
X+015690Y+008940
X+014690Y+008940
X+013690Y+008940
X+010190Y+008440
X+010190Y+009440
X+010190Y+010440
X+006690Y+009440
X+006690Y+008440
X+020690Y+007690
X+021690Y+007690
X+022690Y+007690
X+023690Y+007690
X+024690Y+011440
X+025690Y+011440
X+026690Y+011440
X+028190Y+011440
X+029190Y+011440
X+030190Y+011440
X+031690Y+011440
X+032690Y+011440
X+033690Y+011440
X+018690Y+021752
X+017690Y+021752
X+016690Y+021752
X+015690Y+021752
X+014690Y+021752
X+013690Y+021752
T06
X+035690Y+023440
X+035690Y+006940
X+009690Y+005690
X+006190Y+005690
X+009690Y+024690
T00
M30
