G04 DipTrace 2.4.0.2*
%INTop.gbr*%
%MOIN*%
%ADD13C,0.02*%
%ADD14C,0.01*%
%ADD15R,0.0433X0.0394*%
%ADD16R,0.0394X0.0433*%
%ADD17R,0.0591X0.0512*%
%ADD18R,0.0669X0.0669*%
%ADD19C,0.0669*%
%ADD20R,0.065X0.065*%
%ADD21R,0.0591X0.0591*%
%ADD22C,0.0591*%
%ADD24C,0.074*%
%ADD25R,0.0748X0.0748*%
%ADD26C,0.0748*%
%ADD27C,0.063*%
%ADD28R,0.063X0.063*%
%ADD29C,0.0591*%
%ADD30C,0.065*%
%ADD60C,0.0463*%
%FSLAX44Y44*%
G04*
G70*
G90*
G75*
G01*
%LNTop*%
%LPD*%
X12690Y6190D2*
D13*
Y5190D1*
Y6190D2*
Y6440D1*
X11690Y7440D1*
X6190D1*
X5690Y7940D1*
Y9940D1*
X6190Y10440D1*
X7440D1*
X8940Y11940D1*
X11690D1*
X12190Y12440D1*
Y14940D1*
X12690D1*
Y14359D1*
X12940D1*
X12690Y16859D2*
Y17440D1*
X12190D1*
Y14940D1*
Y17440D2*
Y18752D1*
X12690D1*
Y18815D1*
X11690Y7690D2*
Y7440D1*
X13690Y5190D2*
Y6190D1*
Y7440D1*
X11690Y9440D1*
X11440D1*
X10440Y10440D1*
X10190D1*
X26940Y17940D2*
X25565Y16565D1*
X21315D1*
X19940Y17940D1*
X24855Y8940D2*
Y9940D1*
X28355Y8940D2*
Y9940D1*
X31855Y8940D2*
Y9940D1*
X22940Y14940D2*
X23940D1*
X22940Y17940D2*
X23940D1*
X21253Y20440D2*
X22753D1*
X24253D1*
X25753D1*
X27253D1*
X28753D1*
X30253D1*
X6690Y9440D2*
X8190D1*
X10190D1*
X8190D2*
Y10190D1*
X9440Y11440D1*
X10690D1*
X11690Y10440D1*
X14630Y14720D2*
X14051D1*
X13690Y14359D1*
X14630Y17720D2*
Y17880D1*
Y20720D2*
X14051D1*
X13440Y20109D1*
X14630Y17720D2*
X14301D1*
X13440Y16859D1*
X25065Y7690D2*
Y8730D1*
X24855Y8940D1*
X11690Y6190D2*
Y5190D1*
X16690Y25190D2*
Y25627D1*
X16377Y25940D1*
X10940D1*
Y23503D1*
X11940Y22503D1*
X16377Y23002D2*
Y23502D1*
X16690Y23815D1*
Y24190D1*
X31690Y6190D2*
X31628D1*
Y6690D1*
X32252Y7315D1*
X32878D1*
X24690Y5190D2*
Y4940D1*
X25315Y4315D1*
X34252D1*
X34627Y4690D1*
Y11753D1*
X30315Y16065D1*
X19752D1*
X18565Y14878D1*
Y11128D1*
X17565Y10128D1*
X17378D1*
X16690Y9440D1*
Y8940D1*
X17315Y10065D2*
X17565Y10128D1*
X10190Y8440D2*
X8190D1*
X6690D1*
X21253Y21940D2*
Y21188D1*
X22753D2*
Y21940D1*
X24253D2*
Y21188D1*
X12690Y19484D2*
X13440D1*
Y19440D1*
X14130D1*
X14630Y18940D1*
X12690Y19484D2*
Y22127D1*
X13128Y22565D1*
X14690D1*
X15753Y23628D1*
Y24127D1*
X15690Y24190D1*
X20690D2*
X20502D1*
Y19753D1*
X20753Y19502D1*
X24378D1*
X25940Y17940D1*
X17690Y6190D2*
X17628D1*
Y8127D1*
X19127D1*
X19440Y8440D1*
Y13128D1*
X20940Y14628D1*
Y14940D1*
X18690Y6190D2*
Y6940D1*
X20002Y8253D1*
Y11252D1*
X22440Y13690D1*
X24690D1*
X25940Y14940D1*
X34025Y9940D2*
Y11105D1*
X33690Y11440D1*
X32525Y9940D2*
Y8940D1*
Y9940D2*
X33355D1*
X32525Y8940D2*
Y8587D1*
X30690Y6753D1*
Y6190D1*
X27025Y9940D2*
Y11105D1*
X26690Y11440D1*
X30525Y9940D2*
Y11105D1*
X30190Y11440D1*
X29025Y9940D2*
X29855D1*
X29025D2*
Y8940D1*
Y7480D1*
X29752Y6753D1*
Y6190D1*
X29690D1*
X25525Y9940D2*
X26355D1*
X25525D2*
Y8940D1*
X26377D1*
X28565Y6752D1*
Y6190D1*
X28690D1*
X12690Y16190D2*
X13440D1*
X14380D1*
X14630Y15940D1*
X18690Y24190D2*
Y22628D1*
X18815Y22503D1*
X19002D1*
X19440Y22065D1*
Y21315D1*
X19065Y20940D1*
X18690D1*
X17628Y19877D1*
X16127D1*
X15440Y19190D1*
Y16750D1*
X14630Y15940D1*
X12940Y13690D2*
X13690D1*
X13880D1*
X14630Y12940D1*
X19690Y24190D2*
Y22565D1*
X19940Y22315D1*
Y21003D1*
X18065Y19128D1*
Y17503D1*
X17502Y16940D1*
X16627D1*
X15502Y15815D1*
Y13812D1*
X14630Y12940D1*
X25753Y21188D2*
Y21940D1*
X27253D2*
Y21188D1*
X28753D2*
Y21940D1*
X30253D2*
Y21188D1*
X27690Y24190D2*
Y23940D1*
X28315Y23315D1*
X29315D1*
X30021Y22609D1*
X30253D1*
X26690Y24190D2*
Y23503D1*
X26940Y23253D1*
X27627D1*
X27878Y23002D1*
Y22690D1*
X28753D1*
Y22609D1*
X25690Y24190D2*
X25503D1*
Y23628D1*
X25878Y23253D1*
X26127D1*
X26690Y22690D1*
X27172D1*
X27253Y22609D1*
X24690Y24190D2*
Y23503D1*
X25583Y22609D1*
X25753D1*
X23690Y24190D2*
Y23172D1*
X24253Y22609D1*
X22690Y24190D2*
Y22672D1*
X22753Y22609D1*
X21253D2*
Y23378D1*
X21690Y23815D1*
Y24190D1*
X17752Y22940D2*
Y24128D1*
X17690Y24190D1*
X20690Y5190D2*
Y4940D1*
X20190Y4440D1*
X10815D1*
X10565Y4690D1*
X10690D1*
X20753Y8503D2*
X20690Y8440D1*
Y6190D1*
D30*
X32878Y7315D3*
X20753Y8503D3*
X25065Y7690D3*
X11940Y22503D3*
X16377Y23002D3*
X17752Y22940D3*
X11690Y7690D3*
X17315Y10065D3*
X5190Y11565D3*
X35503Y17877D3*
X7815Y5815D3*
X6751Y26291D2*
D14*
X10628D1*
X16690D2*
X38131D1*
X6752Y26193D2*
X10542D1*
X16791D2*
X38131D1*
X6752Y26094D2*
X10492D1*
X16890D2*
X38131D1*
X6754Y25995D2*
X10470D1*
X16988D2*
X38131D1*
X6755Y25897D2*
X10467D1*
X17077D2*
X38131D1*
X6755Y25798D2*
X10467D1*
X34388D2*
X38131D1*
X6757Y25699D2*
X10467D1*
X34388D2*
X38131D1*
X6757Y25600D2*
X9295D1*
X10085D2*
X10467D1*
X34388D2*
X38131D1*
X6759Y25502D2*
X9115D1*
X10265D2*
X10467D1*
X34388D2*
X38131D1*
X6760Y25403D2*
X8995D1*
X10385D2*
X10467D1*
X11413D2*
X11992D1*
X34388D2*
X38131D1*
X6760Y25304D2*
X8906D1*
X11413D2*
X11992D1*
X34388D2*
X38131D1*
X6762Y25206D2*
X8837D1*
X11413D2*
X11992D1*
X34388D2*
X38131D1*
X6762Y25107D2*
X8784D1*
X11413D2*
X11992D1*
X34388D2*
X38131D1*
X6763Y25008D2*
X8743D1*
X11413D2*
X11992D1*
X34388D2*
X38131D1*
X6763Y24910D2*
X8715D1*
X11413D2*
X11992D1*
X34388D2*
X38131D1*
X6765Y24811D2*
X8698D1*
X11413D2*
X11992D1*
X34388D2*
X38131D1*
X6766Y24712D2*
X8692D1*
X11413D2*
X11992D1*
X34388D2*
X38131D1*
X6766Y24614D2*
X8695D1*
X11413D2*
X11992D1*
X34388D2*
X38131D1*
X6768Y24515D2*
X8707D1*
X11413D2*
X11992D1*
X34388D2*
X38131D1*
X6768Y24416D2*
X8729D1*
X11413D2*
X11992D1*
X34388D2*
X35523D1*
X35857D2*
X38131D1*
X6770Y24318D2*
X8764D1*
X11413D2*
X11992D1*
X34388D2*
X35225D1*
X36155D2*
X38131D1*
X6771Y24219D2*
X8810D1*
X11413D2*
X11992D1*
X34388D2*
X35071D1*
X36309D2*
X38131D1*
X6771Y24120D2*
X8871D1*
X11413D2*
X11992D1*
X34388D2*
X34962D1*
X36418D2*
X38131D1*
X6773Y24021D2*
X8951D1*
X10429D2*
X10466D1*
X11413D2*
X11992D1*
X34388D2*
X34881D1*
X36499D2*
X38131D1*
X6773Y23923D2*
X9056D1*
X10324D2*
X10467D1*
X11413D2*
X11992D1*
X34388D2*
X34817D1*
X36563D2*
X38131D1*
X6774Y23824D2*
X9203D1*
X10177D2*
X10467D1*
X11413D2*
X11992D1*
X34388D2*
X34768D1*
X36612D2*
X38131D1*
X6776Y23725D2*
X9462D1*
X9918D2*
X10467D1*
X11413D2*
X11992D1*
X34388D2*
X34734D1*
X36646D2*
X38131D1*
X6776Y23627D2*
X10467D1*
X11482D2*
X11992D1*
X34388D2*
X34709D1*
X36671D2*
X38131D1*
X6777Y23528D2*
X10467D1*
X11580D2*
X11992D1*
X34388D2*
X34695D1*
X36685D2*
X38131D1*
X6777Y23429D2*
X10471D1*
X11679D2*
X14889D1*
X16971D2*
X17257D1*
X19163D2*
X19215D1*
X21971D2*
X22217D1*
X23163D2*
X23215D1*
X24163D2*
X24223D1*
X29866D2*
X34692D1*
X36688D2*
X38131D1*
X6779Y23331D2*
X10500D1*
X11777D2*
X14790D1*
X16993D2*
X17175D1*
X19163D2*
X19215D1*
X21871D2*
X22217D1*
X23163D2*
X23215D1*
X24198D2*
X24250D1*
X29965D2*
X34698D1*
X36682D2*
X38131D1*
X6779Y23232D2*
X10553D1*
X11876D2*
X14692D1*
X17037D2*
X17118D1*
X19163D2*
X19215D1*
X21773D2*
X22217D1*
X23163D2*
X23215D1*
X30063D2*
X31175D1*
X34395D2*
X34714D1*
X36666D2*
X38131D1*
X6780Y23133D2*
X10643D1*
X12227D2*
X14592D1*
X19163D2*
X19215D1*
X21823D2*
X22182D1*
X30823D2*
X31175D1*
X34395D2*
X34740D1*
X36640D2*
X38131D1*
X6782Y23035D2*
X10742D1*
X12387D2*
X14493D1*
X19163D2*
X19215D1*
X21823D2*
X22182D1*
X30823D2*
X31175D1*
X34395D2*
X34778D1*
X36602D2*
X38131D1*
X6782Y22936D2*
X10840D1*
X12485D2*
X12839D1*
X19177D2*
X19215D1*
X21823D2*
X22182D1*
X30823D2*
X31175D1*
X34395D2*
X34829D1*
X36551D2*
X38131D1*
X6784Y22837D2*
X10939D1*
X12552D2*
X12734D1*
X15629D2*
X15698D1*
X21823D2*
X22182D1*
X23323D2*
X23359D1*
X30823D2*
X31175D1*
X34395D2*
X34896D1*
X36484D2*
X38131D1*
X6784Y22739D2*
X11039D1*
X12598D2*
X12635D1*
X15529D2*
X15731D1*
X17024D2*
X17084D1*
X21823D2*
X22182D1*
X23323D2*
X23457D1*
X30823D2*
X31175D1*
X34395D2*
X34982D1*
X36398D2*
X38131D1*
X6785Y22640D2*
X11137D1*
X15430D2*
X15782D1*
X16973D2*
X17123D1*
X21823D2*
X22182D1*
X23323D2*
X23556D1*
X24823D2*
X24887D1*
X30823D2*
X31175D1*
X34395D2*
X35100D1*
X36280D2*
X38131D1*
X6787Y22541D2*
X11235D1*
X15332D2*
X15856D1*
X16899D2*
X17181D1*
X21823D2*
X22182D1*
X23323D2*
X23654D1*
X24823D2*
X24985D1*
X29323D2*
X29423D1*
X30823D2*
X31175D1*
X34395D2*
X35268D1*
X36112D2*
X38131D1*
X6787Y22442D2*
X11243D1*
X15234D2*
X15571D1*
X15809D2*
X15967D1*
X16809D2*
X17267D1*
X21823D2*
X22182D1*
X23323D2*
X23682D1*
X24823D2*
X25084D1*
X29323D2*
X29521D1*
X30823D2*
X31175D1*
X34395D2*
X38131D1*
X6788Y22344D2*
X11259D1*
X15135D2*
X15309D1*
X16071D2*
X16165D1*
X17071D2*
X17309D1*
X18107D2*
X18309D1*
X21823D2*
X22182D1*
X23323D2*
X23682D1*
X24823D2*
X25182D1*
X26323D2*
X26372D1*
X29323D2*
X29620D1*
X30823D2*
X31175D1*
X34395D2*
X38131D1*
X6788Y22245D2*
X11292D1*
X21823D2*
X22182D1*
X23323D2*
X23682D1*
X24823D2*
X25182D1*
X26323D2*
X26548D1*
X29323D2*
X29682D1*
X30823D2*
X31175D1*
X34395D2*
X38131D1*
X6790Y22146D2*
X11340D1*
X21823D2*
X22182D1*
X23323D2*
X23682D1*
X24823D2*
X25182D1*
X26323D2*
X26682D1*
X27823D2*
X28182D1*
X29323D2*
X29682D1*
X30823D2*
X31175D1*
X34395D2*
X38131D1*
X6790Y22048D2*
X11412D1*
X13276D2*
X14046D1*
X21823D2*
X22182D1*
X23323D2*
X23682D1*
X24823D2*
X25182D1*
X26323D2*
X26682D1*
X27823D2*
X28182D1*
X29323D2*
X29682D1*
X30823D2*
X31175D1*
X34395D2*
X38131D1*
X6791Y21949D2*
X11520D1*
X13177D2*
X14010D1*
X21823D2*
X22182D1*
X23323D2*
X23682D1*
X24823D2*
X25182D1*
X26323D2*
X26682D1*
X27823D2*
X28182D1*
X29323D2*
X29682D1*
X30823D2*
X31175D1*
X34395D2*
X38131D1*
X6793Y21850D2*
X11707D1*
X12173D2*
X12217D1*
X13163D2*
X13989D1*
X21823D2*
X22182D1*
X23323D2*
X23682D1*
X24823D2*
X25182D1*
X26323D2*
X26682D1*
X27823D2*
X28182D1*
X29323D2*
X29682D1*
X30823D2*
X31175D1*
X34395D2*
X38131D1*
X6793Y21752D2*
X12217D1*
X13163D2*
X13981D1*
X21921D2*
X22084D1*
X23421D2*
X23584D1*
X24921D2*
X25084D1*
X26421D2*
X26584D1*
X27921D2*
X28084D1*
X29421D2*
X29584D1*
X30921D2*
X31175D1*
X34395D2*
X38131D1*
X6795Y21653D2*
X12217D1*
X13163D2*
X13989D1*
X21921D2*
X22084D1*
X23421D2*
X23584D1*
X24921D2*
X25084D1*
X26421D2*
X26584D1*
X27921D2*
X28084D1*
X29421D2*
X29584D1*
X30921D2*
X31175D1*
X34395D2*
X38131D1*
X6795Y21554D2*
X12217D1*
X13163D2*
X14010D1*
X21921D2*
X22084D1*
X23421D2*
X23584D1*
X24921D2*
X25084D1*
X26421D2*
X26584D1*
X27921D2*
X28084D1*
X29421D2*
X29584D1*
X30921D2*
X31175D1*
X34395D2*
X38131D1*
X6796Y21456D2*
X12217D1*
X13163D2*
X14048D1*
X21921D2*
X22084D1*
X23421D2*
X23584D1*
X24921D2*
X25084D1*
X26421D2*
X26584D1*
X27921D2*
X28084D1*
X29421D2*
X29584D1*
X30921D2*
X31175D1*
X34395D2*
X38131D1*
X6798Y21357D2*
X12217D1*
X13163D2*
X14104D1*
X21921D2*
X22084D1*
X23421D2*
X23584D1*
X24921D2*
X25084D1*
X26421D2*
X26584D1*
X27921D2*
X28084D1*
X29421D2*
X29584D1*
X30921D2*
X31175D1*
X34395D2*
X38131D1*
X6798Y21258D2*
X12217D1*
X13163D2*
X14187D1*
X21921D2*
X22084D1*
X23421D2*
X23584D1*
X24921D2*
X25084D1*
X26421D2*
X26584D1*
X27921D2*
X28084D1*
X29421D2*
X29584D1*
X30921D2*
X31175D1*
X34395D2*
X38131D1*
X6799Y21160D2*
X12217D1*
X13163D2*
X14310D1*
X15070D2*
X15310D1*
X16070D2*
X16310D1*
X18070D2*
X18243D1*
X21921D2*
X22084D1*
X23421D2*
X23584D1*
X24921D2*
X25084D1*
X26421D2*
X26584D1*
X27921D2*
X28084D1*
X29421D2*
X29584D1*
X30921D2*
X31175D1*
X34395D2*
X38131D1*
X6799Y21061D2*
X12217D1*
X13163D2*
X14582D1*
X14798D2*
X15582D1*
X15798D2*
X16531D1*
X17849D2*
X18145D1*
X21921D2*
X22084D1*
X23421D2*
X23584D1*
X24921D2*
X25084D1*
X26421D2*
X26584D1*
X27921D2*
X28084D1*
X29421D2*
X29584D1*
X30921D2*
X31175D1*
X34395D2*
X38131D1*
X6801Y20962D2*
X12217D1*
X13163D2*
X16487D1*
X17893D2*
X18046D1*
X21921D2*
X22084D1*
X23421D2*
X23584D1*
X24921D2*
X25084D1*
X26421D2*
X26584D1*
X27921D2*
X28084D1*
X29421D2*
X29584D1*
X30921D2*
X31175D1*
X34395D2*
X38131D1*
X6801Y20863D2*
X12217D1*
X13163D2*
X16460D1*
X21921D2*
X22084D1*
X23421D2*
X23584D1*
X24921D2*
X25084D1*
X26421D2*
X26584D1*
X27921D2*
X28084D1*
X29421D2*
X29584D1*
X30921D2*
X31175D1*
X34395D2*
X38131D1*
X6802Y20765D2*
X12217D1*
X13163D2*
X16448D1*
X21921D2*
X22084D1*
X23421D2*
X23584D1*
X24921D2*
X25084D1*
X26421D2*
X26584D1*
X27921D2*
X28084D1*
X29421D2*
X29584D1*
X30921D2*
X31175D1*
X34395D2*
X38131D1*
X6804Y20666D2*
X12217D1*
X13163D2*
X16448D1*
X21921D2*
X22084D1*
X23421D2*
X23584D1*
X24921D2*
X25084D1*
X26421D2*
X26584D1*
X27921D2*
X28084D1*
X29421D2*
X29584D1*
X30921D2*
X31175D1*
X34395D2*
X38131D1*
X6804Y20567D2*
X12217D1*
X13163D2*
X16462D1*
X20976D2*
X31175D1*
X34395D2*
X38131D1*
X6805Y20469D2*
X12217D1*
X13163D2*
X16490D1*
X20976D2*
X31175D1*
X34395D2*
X38131D1*
X6805Y20370D2*
X12217D1*
X13163D2*
X16535D1*
X19974D2*
X20029D1*
X20976D2*
X31175D1*
X34395D2*
X38131D1*
X6807Y20271D2*
X12217D1*
X13163D2*
X15873D1*
X19874D2*
X20029D1*
X20976D2*
X31175D1*
X34395D2*
X38131D1*
X6809Y20173D2*
X12217D1*
X13163D2*
X15757D1*
X19776D2*
X20029D1*
X20976D2*
X31175D1*
X34395D2*
X38131D1*
X6809Y20074D2*
X12217D1*
X13163D2*
X15657D1*
X19677D2*
X20029D1*
X20976D2*
X31175D1*
X34395D2*
X38131D1*
X6810Y19975D2*
X12120D1*
X14010D2*
X15559D1*
X19579D2*
X20029D1*
X20976D2*
X31175D1*
X34395D2*
X38131D1*
X6810Y19877D2*
X12120D1*
X14296D2*
X15460D1*
X19480D2*
X20029D1*
X24662D2*
X31175D1*
X34395D2*
X38131D1*
X6812Y19778D2*
X12120D1*
X14457D2*
X15362D1*
X19382D2*
X20029D1*
X24768D2*
X31175D1*
X34395D2*
X38131D1*
X11999Y19679D2*
X12120D1*
X14557D2*
X15264D1*
X19282D2*
X20034D1*
X24866D2*
X31175D1*
X34395D2*
X38131D1*
X11999Y19581D2*
X12120D1*
X14998D2*
X15165D1*
X19184D2*
X20062D1*
X24965D2*
X31175D1*
X34395D2*
X38131D1*
X11999Y19482D2*
X12120D1*
X19085D2*
X20115D1*
X25065D2*
X31175D1*
X34395D2*
X38131D1*
X11999Y19383D2*
X12120D1*
X16299D2*
X16595D1*
X18987D2*
X20206D1*
X25163D2*
X31175D1*
X34395D2*
X38131D1*
X11999Y19284D2*
X12120D1*
X16201D2*
X16532D1*
X18888D2*
X20304D1*
X25262D2*
X31175D1*
X34395D2*
X38131D1*
X16102Y19186D2*
X16489D1*
X18790D2*
X20403D1*
X25360D2*
X31175D1*
X34395D2*
X38131D1*
X16002Y19087D2*
X16460D1*
X18690D2*
X20535D1*
X25459D2*
X31175D1*
X34395D2*
X38131D1*
X15913Y18988D2*
X16448D1*
X18591D2*
X24226D1*
X25557D2*
X31175D1*
X34395D2*
X38131D1*
X15913Y18890D2*
X16448D1*
X18538D2*
X24325D1*
X25657D2*
X31175D1*
X34395D2*
X38131D1*
X13260Y18791D2*
X13901D1*
X15913D2*
X16462D1*
X18538D2*
X24423D1*
X25755D2*
X31175D1*
X34395D2*
X38131D1*
X13260Y18692D2*
X13929D1*
X15913D2*
X16489D1*
X18538D2*
X24521D1*
X25854D2*
X31175D1*
X34395D2*
X38131D1*
X13260Y18594D2*
X13973D1*
X15913D2*
X16532D1*
X18538D2*
X19845D1*
X20035D2*
X20845D1*
X21035D2*
X21845D1*
X22035D2*
X24620D1*
X26035D2*
X26845D1*
X27035D2*
X31175D1*
X34395D2*
X38131D1*
X13260Y18495D2*
X14037D1*
X15913D2*
X16596D1*
X18538D2*
X19575D1*
X20305D2*
X20575D1*
X21305D2*
X21575D1*
X22305D2*
X24575D1*
X26305D2*
X26575D1*
X27305D2*
X31175D1*
X34395D2*
X38131D1*
X13260Y18396D2*
X14128D1*
X15913D2*
X16687D1*
X18538D2*
X19454D1*
X22426D2*
X24454D1*
X27426D2*
X31175D1*
X34395D2*
X38131D1*
X13260Y18298D2*
X14265D1*
X15913D2*
X16728D1*
X18538D2*
X19376D1*
X22504D2*
X24376D1*
X27504D2*
X31175D1*
X34395D2*
X38131D1*
X12663Y18199D2*
X14967D1*
X15913D2*
X16625D1*
X18538D2*
X19325D1*
X22555D2*
X24325D1*
X27555D2*
X31175D1*
X34395D2*
X38131D1*
X12663Y18100D2*
X14967D1*
X15913D2*
X16553D1*
X18538D2*
X19290D1*
X22590D2*
X24290D1*
X27590D2*
X31175D1*
X34395D2*
X38131D1*
X12663Y18002D2*
X14967D1*
X15913D2*
X16503D1*
X18538D2*
X19273D1*
X22607D2*
X24273D1*
X27607D2*
X31175D1*
X34395D2*
X38131D1*
X12730Y17903D2*
X14967D1*
X15913D2*
X16470D1*
X18538D2*
X19271D1*
X22609D2*
X24271D1*
X27609D2*
X31175D1*
X34395D2*
X38131D1*
X12987Y17804D2*
X14967D1*
X15913D2*
X16451D1*
X18538D2*
X19285D1*
X22595D2*
X24285D1*
X27595D2*
X31175D1*
X34395D2*
X38131D1*
X13080Y17705D2*
X14967D1*
X15913D2*
X16446D1*
X18538D2*
X19314D1*
X22566D2*
X24314D1*
X27566D2*
X31175D1*
X34395D2*
X38131D1*
X13134Y17607D2*
X14967D1*
X15913D2*
X16454D1*
X18538D2*
X19362D1*
X22518D2*
X24362D1*
X27518D2*
X31175D1*
X34395D2*
X38131D1*
X13159Y17508D2*
X14967D1*
X15913D2*
X16478D1*
X18538D2*
X19432D1*
X22448D2*
X24432D1*
X27448D2*
X31175D1*
X34395D2*
X38131D1*
X13260Y17409D2*
X14967D1*
X15913D2*
X16515D1*
X18529D2*
X19539D1*
X21341D2*
X21539D1*
X22341D2*
X24539D1*
X25341D2*
X25539D1*
X27341D2*
X31175D1*
X34395D2*
X38131D1*
X13260Y17311D2*
X14967D1*
X15913D2*
X16339D1*
X18498D2*
X19734D1*
X21235D2*
X21734D1*
X22146D2*
X24734D1*
X25146D2*
X25645D1*
X27146D2*
X31175D1*
X34395D2*
X38131D1*
X13260Y17212D2*
X14967D1*
X15913D2*
X16234D1*
X18437D2*
X20003D1*
X21334D2*
X25546D1*
X26877D2*
X31175D1*
X34395D2*
X38131D1*
X13260Y17113D2*
X14967D1*
X15913D2*
X16135D1*
X18341D2*
X20101D1*
X21432D2*
X25448D1*
X26779D2*
X38131D1*
X13260Y17015D2*
X14967D1*
X15913D2*
X16035D1*
X18243D2*
X20200D1*
X26680D2*
X38131D1*
X13260Y16916D2*
X14940D1*
X18145D2*
X20298D1*
X26582D2*
X38131D1*
X13260Y16817D2*
X14842D1*
X18046D2*
X20396D1*
X26484D2*
X38131D1*
X14010Y16719D2*
X14743D1*
X17948D2*
X20495D1*
X26385D2*
X38131D1*
X17848Y16620D2*
X20595D1*
X26285D2*
X38131D1*
X17712Y16521D2*
X19659D1*
X30409D2*
X38131D1*
X17752Y16423D2*
X19446D1*
X30621D2*
X38131D1*
X17826Y16324D2*
X19345D1*
X30723D2*
X38131D1*
X17876Y16225D2*
X19246D1*
X30821D2*
X38131D1*
X17910Y16126D2*
X19148D1*
X30920D2*
X38131D1*
X16382Y16028D2*
X16451D1*
X17929D2*
X19050D1*
X31018D2*
X38131D1*
X16282Y15929D2*
X16446D1*
X17934D2*
X18951D1*
X31116D2*
X38131D1*
X16184Y15830D2*
X16454D1*
X17926D2*
X18853D1*
X31215D2*
X38131D1*
X16085Y15732D2*
X16476D1*
X17904D2*
X18753D1*
X31315D2*
X38131D1*
X15987Y15633D2*
X16514D1*
X17866D2*
X18654D1*
X31413D2*
X38131D1*
X12663Y15534D2*
X14009D1*
X15976D2*
X16568D1*
X17812D2*
X18556D1*
X20609D2*
X20644D1*
X21235D2*
X21645D1*
X22235D2*
X24645D1*
X25235D2*
X25645D1*
X26235D2*
X26645D1*
X27235D2*
X30179D1*
X31512D2*
X38131D1*
X12663Y15436D2*
X14087D1*
X15976D2*
X16646D1*
X17734D2*
X18457D1*
X21385D2*
X21495D1*
X22385D2*
X24495D1*
X25385D2*
X25495D1*
X26385D2*
X26495D1*
X27385D2*
X30278D1*
X31610D2*
X38131D1*
X12940Y15337D2*
X14201D1*
X15976D2*
X16762D1*
X17618D2*
X18359D1*
X22476D2*
X24404D1*
X27476D2*
X30378D1*
X31709D2*
X38131D1*
X13055Y15238D2*
X14406D1*
X14855D2*
X15029D1*
X15976D2*
X16660D1*
X17720D2*
X18260D1*
X22538D2*
X24342D1*
X27538D2*
X30476D1*
X31807D2*
X38131D1*
X13118Y15140D2*
X15029D1*
X15976D2*
X16578D1*
X17802D2*
X18173D1*
X22579D2*
X24301D1*
X27579D2*
X30575D1*
X31907D2*
X38131D1*
X13152Y15041D2*
X15029D1*
X15976D2*
X16520D1*
X17860D2*
X18121D1*
X22601D2*
X24279D1*
X27601D2*
X30673D1*
X32005D2*
X38131D1*
X13163Y14942D2*
X15029D1*
X15976D2*
X16481D1*
X17899D2*
X18096D1*
X22609D2*
X24271D1*
X27609D2*
X30771D1*
X32104D2*
X38131D1*
X13510Y14844D2*
X15029D1*
X15976D2*
X16457D1*
X17923D2*
X18092D1*
X19198D2*
X19271D1*
X22602D2*
X24278D1*
X27602D2*
X30870D1*
X32202D2*
X38131D1*
X13510Y14745D2*
X15029D1*
X15976D2*
X16446D1*
X17934D2*
X18092D1*
X19098D2*
X19271D1*
X22579D2*
X24301D1*
X27579D2*
X30970D1*
X32301D2*
X38131D1*
X13510Y14646D2*
X15029D1*
X15976D2*
X16450D1*
X17930D2*
X18092D1*
X19038D2*
X19271D1*
X22540D2*
X24340D1*
X27540D2*
X31068D1*
X32399D2*
X38131D1*
X13510Y14547D2*
X15029D1*
X15976D2*
X16467D1*
X17913D2*
X18092D1*
X19038D2*
X19271D1*
X22479D2*
X24401D1*
X27479D2*
X31167D1*
X32499D2*
X38131D1*
X13510Y14449D2*
X15029D1*
X15976D2*
X16498D1*
X17882D2*
X18092D1*
X19038D2*
X19271D1*
X21390D2*
X21490D1*
X22390D2*
X24490D1*
X26390D2*
X26490D1*
X27390D2*
X31265D1*
X32598D2*
X38131D1*
X13510Y14350D2*
X15029D1*
X15976D2*
X16546D1*
X17834D2*
X18092D1*
X19038D2*
X19271D1*
X21321D2*
X21635D1*
X22245D2*
X24635D1*
X26245D2*
X26635D1*
X27245D2*
X31364D1*
X32696D2*
X38131D1*
X14260Y14251D2*
X15029D1*
X15976D2*
X16615D1*
X17765D2*
X18092D1*
X19038D2*
X19898D1*
X21230D2*
X24585D1*
X25918D2*
X31462D1*
X32795D2*
X38131D1*
X14260Y14153D2*
X15029D1*
X15976D2*
X16715D1*
X17665D2*
X18092D1*
X19038D2*
X19800D1*
X21130D2*
X22398D1*
X25818D2*
X31562D1*
X32893D2*
X38131D1*
X14260Y14054D2*
X15029D1*
X15976D2*
X16871D1*
X17509D2*
X18092D1*
X19038D2*
X19701D1*
X21032D2*
X22143D1*
X25720D2*
X31660D1*
X32991D2*
X38131D1*
X14280Y13955D2*
X14979D1*
X15976D2*
X18092D1*
X19038D2*
X19601D1*
X20934D2*
X22039D1*
X25621D2*
X31759D1*
X33091D2*
X38131D1*
X14379Y13857D2*
X14881D1*
X15976D2*
X18092D1*
X19038D2*
X19503D1*
X20835D2*
X21940D1*
X25523D2*
X31857D1*
X33190D2*
X38131D1*
X14477Y13758D2*
X14782D1*
X15973D2*
X18092D1*
X19038D2*
X19404D1*
X20737D2*
X21842D1*
X25424D2*
X31956D1*
X33288D2*
X38131D1*
X15951Y13659D2*
X17034D1*
X17346D2*
X18092D1*
X19038D2*
X19306D1*
X20638D2*
X21743D1*
X25326D2*
X32054D1*
X33387D2*
X38131D1*
X15902Y13561D2*
X16789D1*
X17591D2*
X18092D1*
X19038D2*
X19207D1*
X20540D2*
X21645D1*
X25227D2*
X32153D1*
X33485D2*
X38131D1*
X15818Y13462D2*
X16664D1*
X17716D2*
X18092D1*
X19038D2*
X19109D1*
X20440D2*
X21546D1*
X25127D2*
X32253D1*
X33584D2*
X38131D1*
X15720Y13363D2*
X16581D1*
X17799D2*
X18092D1*
X20341D2*
X21448D1*
X25029D2*
X32351D1*
X33682D2*
X38131D1*
X15621Y13265D2*
X16521D1*
X17859D2*
X18092D1*
X20243D2*
X21348D1*
X24885D2*
X32450D1*
X33782D2*
X38131D1*
X15521Y13166D2*
X16482D1*
X17898D2*
X18092D1*
X20145D2*
X21250D1*
X22582D2*
X32548D1*
X33880D2*
X38131D1*
X12663Y13067D2*
X13837D1*
X15423D2*
X16457D1*
X17923D2*
X18092D1*
X20046D2*
X21151D1*
X22484D2*
X32646D1*
X33979D2*
X38131D1*
X12663Y12968D2*
X13887D1*
X15373D2*
X16446D1*
X17934D2*
X18092D1*
X19948D2*
X21053D1*
X22385D2*
X32745D1*
X34077D2*
X38131D1*
X12663Y12870D2*
X13890D1*
X15371D2*
X16450D1*
X17930D2*
X18092D1*
X19913D2*
X20954D1*
X22285D2*
X32845D1*
X34176D2*
X38131D1*
X12663Y12771D2*
X13906D1*
X15354D2*
X16465D1*
X17915D2*
X18092D1*
X19913D2*
X20856D1*
X22187D2*
X32943D1*
X34274D2*
X38131D1*
X12663Y12672D2*
X13937D1*
X15323D2*
X16496D1*
X17884D2*
X18092D1*
X19913D2*
X20756D1*
X22088D2*
X33042D1*
X34374D2*
X38131D1*
X4000Y12574D2*
X11657D1*
X12663D2*
X13984D1*
X15276D2*
X16545D1*
X17835D2*
X18092D1*
X19913D2*
X20657D1*
X21990D2*
X33140D1*
X34473D2*
X38131D1*
X4000Y12475D2*
X11559D1*
X12663D2*
X14053D1*
X15207D2*
X16612D1*
X17768D2*
X18092D1*
X19913D2*
X20559D1*
X21891D2*
X33239D1*
X34571D2*
X38131D1*
X4000Y12376D2*
X8773D1*
X12660D2*
X14150D1*
X15110D2*
X16710D1*
X17670D2*
X18092D1*
X19913D2*
X20460D1*
X21793D2*
X33337D1*
X34670D2*
X38131D1*
X4000Y12278D2*
X8612D1*
X12635D2*
X14304D1*
X14955D2*
X16864D1*
X17516D2*
X18092D1*
X19913D2*
X20362D1*
X21693D2*
X33437D1*
X34768D2*
X38131D1*
X4000Y12179D2*
X8514D1*
X12584D2*
X18092D1*
X19913D2*
X20264D1*
X21595D2*
X33535D1*
X34866D2*
X38131D1*
X4000Y12080D2*
X8414D1*
X12496D2*
X18092D1*
X19913D2*
X20164D1*
X21496D2*
X23981D1*
X25399D2*
X26401D1*
X26979D2*
X27481D1*
X28899D2*
X29901D1*
X30479D2*
X30981D1*
X32399D2*
X33401D1*
X34966D2*
X38131D1*
X4000Y11982D2*
X8315D1*
X12398D2*
X18092D1*
X19913D2*
X20065D1*
X21398D2*
X23981D1*
X25399D2*
X26239D1*
X27141D2*
X27481D1*
X28899D2*
X29739D1*
X30641D2*
X30981D1*
X32399D2*
X33239D1*
X35041D2*
X38131D1*
X4000Y11883D2*
X8217D1*
X12299D2*
X18092D1*
X19913D2*
X19968D1*
X21299D2*
X23981D1*
X25399D2*
X26140D1*
X27240D2*
X27481D1*
X28899D2*
X29640D1*
X30740D2*
X30981D1*
X32399D2*
X33140D1*
X35082D2*
X38131D1*
X4000Y11784D2*
X8118D1*
X12201D2*
X18092D1*
X21201D2*
X23981D1*
X25399D2*
X26073D1*
X27307D2*
X27481D1*
X28899D2*
X29573D1*
X30807D2*
X30981D1*
X32399D2*
X33073D1*
X35101D2*
X38131D1*
X4000Y11686D2*
X8020D1*
X12101D2*
X18092D1*
X21101D2*
X23981D1*
X25399D2*
X26026D1*
X27354D2*
X27481D1*
X28899D2*
X29526D1*
X30854D2*
X30981D1*
X32399D2*
X33026D1*
X35101D2*
X38131D1*
X4000Y11587D2*
X7921D1*
X12001D2*
X18092D1*
X21002D2*
X23981D1*
X25399D2*
X25996D1*
X27384D2*
X27481D1*
X28899D2*
X29496D1*
X30884D2*
X30981D1*
X32399D2*
X32996D1*
X35101D2*
X38131D1*
X4000Y11488D2*
X7821D1*
X11805D2*
X18092D1*
X20904D2*
X23981D1*
X25399D2*
X25984D1*
X27396D2*
X27481D1*
X28899D2*
X29484D1*
X30896D2*
X30981D1*
X32399D2*
X32984D1*
X35101D2*
X38131D1*
X4000Y11389D2*
X7723D1*
X9055D2*
X18092D1*
X20805D2*
X23981D1*
X25399D2*
X25984D1*
X27401D2*
X27481D1*
X28899D2*
X29484D1*
X30901D2*
X30981D1*
X32399D2*
X32984D1*
X35101D2*
X38131D1*
X4000Y11291D2*
X7625D1*
X8957D2*
X18062D1*
X20707D2*
X23981D1*
X25399D2*
X25998D1*
X28899D2*
X29498D1*
X32399D2*
X32998D1*
X35101D2*
X38131D1*
X4000Y11192D2*
X7526D1*
X8859D2*
X17964D1*
X20609D2*
X23981D1*
X25399D2*
X26028D1*
X28899D2*
X29528D1*
X32399D2*
X33028D1*
X35101D2*
X38131D1*
X4000Y11093D2*
X7428D1*
X8760D2*
X9837D1*
X10543D2*
X17865D1*
X20510D2*
X23981D1*
X25399D2*
X26073D1*
X28899D2*
X29573D1*
X32399D2*
X33073D1*
X35101D2*
X38131D1*
X4000Y10995D2*
X7329D1*
X8660D2*
X9693D1*
X10687D2*
X17767D1*
X20476D2*
X23981D1*
X25399D2*
X26142D1*
X28899D2*
X29642D1*
X32399D2*
X33142D1*
X35101D2*
X38131D1*
X4000Y10896D2*
X6095D1*
X8562D2*
X9600D1*
X10780D2*
X17668D1*
X20476D2*
X23981D1*
X25399D2*
X26242D1*
X28899D2*
X29742D1*
X32399D2*
X33242D1*
X35101D2*
X38131D1*
X4000Y10797D2*
X5884D1*
X8463D2*
X9534D1*
X10846D2*
X17568D1*
X18901D2*
X18966D1*
X20476D2*
X23981D1*
X25399D2*
X26406D1*
X28899D2*
X29906D1*
X32399D2*
X33406D1*
X35101D2*
X38131D1*
X4000Y10699D2*
X5782D1*
X8365D2*
X9489D1*
X10891D2*
X17035D1*
X18802D2*
X18967D1*
X20476D2*
X26551D1*
X27499D2*
X30051D1*
X30999D2*
X33551D1*
X35101D2*
X38131D1*
X4000Y10600D2*
X5684D1*
X8266D2*
X9459D1*
X10946D2*
X16871D1*
X18704D2*
X18967D1*
X20476D2*
X26551D1*
X27499D2*
X30051D1*
X30999D2*
X33551D1*
X35101D2*
X38131D1*
X4000Y10501D2*
X5585D1*
X8168D2*
X9445D1*
X11045D2*
X16771D1*
X18605D2*
X18967D1*
X20476D2*
X26551D1*
X27499D2*
X30051D1*
X30999D2*
X33551D1*
X35101D2*
X38131D1*
X4000Y10403D2*
X5487D1*
X8068D2*
X9443D1*
X11143D2*
X16704D1*
X18505D2*
X18967D1*
X20476D2*
X24934D1*
X27615D2*
X28434D1*
X31115D2*
X31934D1*
X35101D2*
X38131D1*
X4000Y10304D2*
X5389D1*
X7970D2*
X9454D1*
X11241D2*
X16659D1*
X18407D2*
X18967D1*
X20476D2*
X24934D1*
X27615D2*
X28434D1*
X31115D2*
X31934D1*
X35101D2*
X38131D1*
X4000Y10205D2*
X5300D1*
X7871D2*
X9481D1*
X11341D2*
X16631D1*
X18309D2*
X18967D1*
X20476D2*
X24934D1*
X27615D2*
X28434D1*
X31115D2*
X31934D1*
X35101D2*
X38131D1*
X4000Y10107D2*
X5246D1*
X7773D2*
X9521D1*
X12379D2*
X16617D1*
X18210D2*
X18967D1*
X20476D2*
X24934D1*
X27615D2*
X28434D1*
X31115D2*
X31934D1*
X35101D2*
X38131D1*
X4000Y10008D2*
X5221D1*
X7618D2*
X9582D1*
X12379D2*
X16592D1*
X18112D2*
X18967D1*
X20476D2*
X24934D1*
X27615D2*
X28434D1*
X31115D2*
X31934D1*
X35101D2*
X38131D1*
X4000Y9909D2*
X5217D1*
X6326D2*
X9667D1*
X12379D2*
X16493D1*
X18013D2*
X18967D1*
X20476D2*
X24934D1*
X27615D2*
X28434D1*
X31115D2*
X31934D1*
X35101D2*
X38131D1*
X4000Y9810D2*
X5217D1*
X6226D2*
X9795D1*
X12379D2*
X16395D1*
X17965D2*
X18967D1*
X20476D2*
X24934D1*
X27615D2*
X28434D1*
X31115D2*
X31934D1*
X35101D2*
X38131D1*
X4000Y9712D2*
X5217D1*
X6163D2*
X10060D1*
X10320D2*
X10503D1*
X12379D2*
X16304D1*
X17916D2*
X18967D1*
X20476D2*
X24934D1*
X27615D2*
X28434D1*
X31115D2*
X31934D1*
X35101D2*
X38131D1*
X4000Y9613D2*
X5217D1*
X6163D2*
X10601D1*
X12379D2*
X13493D1*
X13887D2*
X14493D1*
X14887D2*
X15493D1*
X15887D2*
X16250D1*
X17887D2*
X18967D1*
X20476D2*
X24934D1*
X27615D2*
X28434D1*
X31115D2*
X31934D1*
X35101D2*
X38131D1*
X4000Y9514D2*
X5217D1*
X6163D2*
X10700D1*
X12379D2*
X13282D1*
X14098D2*
X14282D1*
X15098D2*
X15282D1*
X16098D2*
X16221D1*
X18098D2*
X18967D1*
X20476D2*
X24934D1*
X27615D2*
X28434D1*
X31115D2*
X31934D1*
X35101D2*
X38131D1*
X4000Y9416D2*
X5217D1*
X6163D2*
X10798D1*
X12380D2*
X13168D1*
X18212D2*
X18967D1*
X20476D2*
X24934D1*
X27615D2*
X28434D1*
X31115D2*
X31934D1*
X35101D2*
X38131D1*
X4000Y9317D2*
X5217D1*
X6163D2*
X10896D1*
X12479D2*
X13092D1*
X18288D2*
X18967D1*
X20476D2*
X24934D1*
X26657D2*
X28434D1*
X29615D2*
X31934D1*
X33115D2*
X34154D1*
X35101D2*
X38131D1*
X4000Y9218D2*
X5217D1*
X6163D2*
X10996D1*
X12577D2*
X13039D1*
X18341D2*
X18967D1*
X20476D2*
X24934D1*
X26765D2*
X28434D1*
X29615D2*
X31934D1*
X33115D2*
X34154D1*
X35101D2*
X38131D1*
X4000Y9120D2*
X5217D1*
X7399D2*
X9442D1*
X10938D2*
X11001D1*
X12676D2*
X13004D1*
X18376D2*
X18967D1*
X21068D2*
X24934D1*
X26863D2*
X28434D1*
X29615D2*
X31934D1*
X33115D2*
X34154D1*
X35101D2*
X38131D1*
X4000Y9021D2*
X5217D1*
X7399D2*
X7501D1*
X8879D2*
X9442D1*
X10938D2*
X11001D1*
X12776D2*
X12985D1*
X18395D2*
X18967D1*
X21216D2*
X24934D1*
X26963D2*
X28434D1*
X29615D2*
X31934D1*
X33115D2*
X34154D1*
X35101D2*
X38131D1*
X4000Y8922D2*
X5217D1*
X7399D2*
X7501D1*
X8879D2*
X9442D1*
X10938D2*
X11001D1*
X12874D2*
X12982D1*
X18398D2*
X18967D1*
X21309D2*
X24934D1*
X27062D2*
X28434D1*
X29615D2*
X31934D1*
X33115D2*
X34154D1*
X35101D2*
X38131D1*
X4000Y8824D2*
X5217D1*
X10938D2*
X11001D1*
X18388D2*
X18967D1*
X21373D2*
X24934D1*
X27160D2*
X28434D1*
X29615D2*
X31934D1*
X33115D2*
X34154D1*
X35101D2*
X38131D1*
X4000Y8725D2*
X5217D1*
X10938D2*
X11739D1*
X18365D2*
X18967D1*
X21415D2*
X24934D1*
X27259D2*
X28434D1*
X29615D2*
X31934D1*
X33115D2*
X34154D1*
X35101D2*
X38131D1*
X4000Y8626D2*
X5217D1*
X10938D2*
X11837D1*
X18324D2*
X18960D1*
X21440D2*
X24934D1*
X27357D2*
X28434D1*
X29615D2*
X31898D1*
X33115D2*
X34154D1*
X35101D2*
X38131D1*
X4000Y8528D2*
X5217D1*
X10938D2*
X11937D1*
X21451D2*
X24934D1*
X27455D2*
X28434D1*
X29615D2*
X31800D1*
X33115D2*
X34154D1*
X35101D2*
X38131D1*
X4000Y8429D2*
X5217D1*
X10938D2*
X12035D1*
X21448D2*
X24934D1*
X26115D2*
X26223D1*
X27554D2*
X28434D1*
X29615D2*
X31701D1*
X33115D2*
X34154D1*
X35101D2*
X38131D1*
X4000Y8330D2*
X5217D1*
X10938D2*
X11426D1*
X11954D2*
X12134D1*
X14040D2*
X14340D1*
X15040D2*
X15340D1*
X16040D2*
X16340D1*
X17040D2*
X17200D1*
X21979D2*
X22981D1*
X24399D2*
X26321D1*
X27654D2*
X28551D1*
X29499D2*
X31601D1*
X32921D2*
X34154D1*
X35101D2*
X38131D1*
X4000Y8231D2*
X5217D1*
X10938D2*
X11254D1*
X12126D2*
X12232D1*
X13565D2*
X17165D1*
X22141D2*
X22981D1*
X24399D2*
X26420D1*
X27752D2*
X28551D1*
X29499D2*
X31503D1*
X32835D2*
X34154D1*
X35101D2*
X38131D1*
X4000Y8133D2*
X5217D1*
X10938D2*
X11153D1*
X12227D2*
X12331D1*
X13663D2*
X17154D1*
X22240D2*
X22981D1*
X24399D2*
X26518D1*
X27851D2*
X28551D1*
X29499D2*
X31404D1*
X32737D2*
X34154D1*
X35101D2*
X38131D1*
X4000Y8034D2*
X5217D1*
X10938D2*
X11084D1*
X12296D2*
X12429D1*
X13762D2*
X17154D1*
X22309D2*
X22981D1*
X24399D2*
X26617D1*
X27949D2*
X28551D1*
X29499D2*
X31306D1*
X32638D2*
X34154D1*
X35101D2*
X38131D1*
X4000Y7935D2*
X5217D1*
X8879D2*
X9442D1*
X10938D2*
X11037D1*
X12343D2*
X12529D1*
X13860D2*
X17154D1*
X22354D2*
X22981D1*
X24399D2*
X26717D1*
X28048D2*
X28551D1*
X29499D2*
X31207D1*
X33187D2*
X34154D1*
X35101D2*
X38131D1*
X4000Y7837D2*
X5228D1*
X12373D2*
X12628D1*
X13959D2*
X17154D1*
X22384D2*
X22981D1*
X24399D2*
X26815D1*
X28146D2*
X28551D1*
X29499D2*
X31109D1*
X33337D2*
X34154D1*
X35101D2*
X35264D1*
X36116D2*
X38131D1*
X4000Y7738D2*
X5262D1*
X12387D2*
X12726D1*
X14055D2*
X17154D1*
X22396D2*
X22981D1*
X24399D2*
X26914D1*
X28246D2*
X28551D1*
X29499D2*
X31009D1*
X33430D2*
X34154D1*
X36284D2*
X38131D1*
X4000Y7639D2*
X5326D1*
X12387D2*
X12825D1*
X14120D2*
X17154D1*
X18101D2*
X18723D1*
X22396D2*
X22981D1*
X24399D2*
X27012D1*
X28345D2*
X28551D1*
X29532D2*
X30910D1*
X33495D2*
X34154D1*
X36399D2*
X38131D1*
X4000Y7541D2*
X5423D1*
X12373D2*
X12923D1*
X14152D2*
X17154D1*
X18101D2*
X18625D1*
X19957D2*
X19997D1*
X22382D2*
X22981D1*
X24399D2*
X27110D1*
X28443D2*
X28551D1*
X29630D2*
X30812D1*
X33538D2*
X34154D1*
X36485D2*
X38131D1*
X4000Y7442D2*
X5521D1*
X12354D2*
X13021D1*
X14163D2*
X17154D1*
X18101D2*
X18526D1*
X19859D2*
X20028D1*
X22352D2*
X22981D1*
X24399D2*
X27209D1*
X29729D2*
X30714D1*
X33565D2*
X34154D1*
X36552D2*
X38131D1*
X4000Y7343D2*
X5621D1*
X12452D2*
X13121D1*
X14163D2*
X17154D1*
X18101D2*
X18428D1*
X19759D2*
X20073D1*
X22307D2*
X22981D1*
X24399D2*
X27309D1*
X29827D2*
X30615D1*
X33576D2*
X34154D1*
X36602D2*
X38131D1*
X4000Y7245D2*
X5720D1*
X12551D2*
X13217D1*
X14163D2*
X17154D1*
X18101D2*
X18331D1*
X19660D2*
X20142D1*
X22238D2*
X22981D1*
X24399D2*
X27407D1*
X29926D2*
X30517D1*
X33573D2*
X34154D1*
X36641D2*
X38131D1*
X4000Y7146D2*
X5818D1*
X12651D2*
X13217D1*
X14163D2*
X17154D1*
X18101D2*
X18264D1*
X19562D2*
X20217D1*
X21163D2*
X21242D1*
X22138D2*
X22981D1*
X24399D2*
X27506D1*
X30026D2*
X30417D1*
X33555D2*
X34154D1*
X36668D2*
X38131D1*
X4000Y7047D2*
X5934D1*
X12749D2*
X13217D1*
X14163D2*
X17154D1*
X18101D2*
X18229D1*
X19463D2*
X20217D1*
X21163D2*
X21407D1*
X21973D2*
X22981D1*
X24399D2*
X27604D1*
X30121D2*
X30321D1*
X33523D2*
X34154D1*
X36684D2*
X38131D1*
X4000Y6949D2*
X11515D1*
X12848D2*
X13217D1*
X14163D2*
X17154D1*
X18101D2*
X18217D1*
X19365D2*
X20217D1*
X21163D2*
X27703D1*
X30184D2*
X30259D1*
X33471D2*
X34154D1*
X36688D2*
X38131D1*
X4000Y6850D2*
X11614D1*
X36685D2*
X38131D1*
X4000Y6751D2*
X11714D1*
X36671D2*
X38131D1*
X4000Y6652D2*
X5953D1*
X6427D2*
X9453D1*
X9927D2*
X11812D1*
X36646D2*
X38131D1*
X4000Y6554D2*
X5698D1*
X6682D2*
X9198D1*
X10182D2*
X11910D1*
X36610D2*
X38131D1*
X4000Y6455D2*
X5554D1*
X6826D2*
X9054D1*
X10326D2*
X11992D1*
X36562D2*
X38131D1*
X4000Y6356D2*
X5450D1*
X6930D2*
X8950D1*
X10430D2*
X11992D1*
X36498D2*
X38131D1*
X4000Y6258D2*
X5370D1*
X7010D2*
X8870D1*
X10510D2*
X11992D1*
X36416D2*
X38131D1*
X4000Y6159D2*
X5309D1*
X7071D2*
X8809D1*
X10571D2*
X11992D1*
X36307D2*
X38131D1*
X4000Y6060D2*
X5264D1*
X7116D2*
X8764D1*
X10616D2*
X11992D1*
X35101D2*
X35228D1*
X36152D2*
X38131D1*
X4000Y5962D2*
X5229D1*
X7151D2*
X8729D1*
X10651D2*
X11992D1*
X35101D2*
X35535D1*
X35845D2*
X38131D1*
X4000Y5863D2*
X5206D1*
X7174D2*
X8706D1*
X10674D2*
X11992D1*
X35101D2*
X38131D1*
X4000Y5764D2*
X5193D1*
X7187D2*
X8693D1*
X10687D2*
X11992D1*
X35101D2*
X38131D1*
X4000Y5666D2*
X5192D1*
X7188D2*
X8692D1*
X10688D2*
X11992D1*
X35101D2*
X38131D1*
X4000Y5567D2*
X5200D1*
X7180D2*
X8700D1*
X10680D2*
X11992D1*
X35101D2*
X38131D1*
X4000Y5468D2*
X5217D1*
X7163D2*
X8717D1*
X10663D2*
X11992D1*
X35101D2*
X38131D1*
X4000Y5370D2*
X5245D1*
X7135D2*
X8745D1*
X10635D2*
X11992D1*
X35101D2*
X38131D1*
X4000Y5271D2*
X5284D1*
X7096D2*
X8784D1*
X11012D2*
X11992D1*
X35101D2*
X38131D1*
X4000Y5172D2*
X5337D1*
X7043D2*
X8837D1*
X11149D2*
X11992D1*
X35101D2*
X38131D1*
X4000Y5073D2*
X5407D1*
X6973D2*
X8907D1*
X11237D2*
X11992D1*
X35101D2*
X38131D1*
X4000Y4975D2*
X5496D1*
X6884D2*
X8996D1*
X11295D2*
X11992D1*
X35101D2*
X38131D1*
X4000Y4876D2*
X5618D1*
X6762D2*
X9118D1*
X35101D2*
X38131D1*
X4000Y4777D2*
X5800D1*
X6580D2*
X9300D1*
X35101D2*
X38131D1*
X4000Y4679D2*
X10021D1*
X35101D2*
X38131D1*
X4000Y4580D2*
X10031D1*
X35088D2*
X38131D1*
X4000Y4481D2*
X10054D1*
X20898D2*
X24482D1*
X35052D2*
X38131D1*
X4000Y4383D2*
X10096D1*
X20799D2*
X24581D1*
X34985D2*
X38131D1*
X4000Y4284D2*
X10160D1*
X20699D2*
X24681D1*
X34887D2*
X38131D1*
X4000Y4185D2*
X10256D1*
X20601D2*
X24779D1*
X34788D2*
X38131D1*
X4000Y4087D2*
X10415D1*
X20501D2*
X24878D1*
X34690D2*
X38131D1*
X33105Y9381D2*
Y8379D1*
X32938D1*
X32923Y8349D1*
X32895Y8308D1*
X32853Y8259D1*
X32445Y7851D1*
X32502Y7893D1*
X32590Y7941D1*
X32683Y7976D1*
X32781Y7997D1*
X32881Y8004D1*
X32980Y7996D1*
X33078Y7974D1*
X33171Y7938D1*
X33258Y7889D1*
X33337Y7828D1*
X33407Y7756D1*
X33465Y7675D1*
X33511Y7587D1*
X33543Y7492D1*
X33562Y7394D1*
X33567Y7315D1*
X33559Y7215D1*
X33538Y7118D1*
X33502Y7024D1*
X33454Y6937D1*
X33410Y6878D1*
X34165Y6879D1*
X34163Y7040D1*
Y9379D1*
X33444Y9381D1*
X33336Y9379D1*
X33104D1*
X31944Y8662D2*
X31946Y9501D1*
X31944Y9479D1*
Y10501D1*
X33105Y10499D1*
X33275Y10501D1*
X33561D1*
Y10754D1*
X33490Y10771D1*
X33397Y10806D1*
X33309Y10854D1*
X33230Y10914D1*
X33159Y10985D1*
X33100Y11066D1*
X33053Y11154D1*
X33018Y11248D1*
X32998Y11345D1*
X32991Y11445D1*
X32999Y11545D1*
X33021Y11642D1*
X33057Y11736D1*
X33106Y11823D1*
X33166Y11902D1*
X33237Y11972D1*
X33318Y12031D1*
X33406Y12078D1*
X33500Y12112D1*
X33593Y12132D1*
X32814Y12909D1*
X30122Y15602D1*
X29565Y15601D1*
X20599Y15599D1*
X20600Y15505D1*
X20690Y15550D1*
X20785Y15581D1*
X20883Y15597D1*
X20983Y15598D1*
X21082Y15584D1*
X21178Y15555D1*
X21268Y15512D1*
X21351Y15456D1*
X21424Y15388D1*
X21439Y15370D1*
X21519Y15447D1*
X21600Y15505D1*
X21690Y15550D1*
X21785Y15581D1*
X21883Y15597D1*
X21983Y15598D1*
X22082Y15584D1*
X22178Y15555D1*
X22268Y15512D1*
X22351Y15456D1*
X22424Y15388D1*
X22486Y15310D1*
X22536Y15223D1*
X22571Y15130D1*
X22593Y15032D1*
X22599Y14940D1*
X22592Y14840D1*
X22569Y14743D1*
X22532Y14650D1*
X22482Y14564D1*
X22419Y14487D1*
X22345Y14419D1*
X22261Y14364D1*
X22171Y14322D1*
X22075Y14295D1*
X21976Y14282D1*
X21876Y14284D1*
X21777Y14301D1*
X21683Y14333D1*
X21594Y14379D1*
X21513Y14438D1*
X21439Y14512D1*
X21383Y14452D1*
X21359Y14428D1*
X21335Y14384D1*
X21306Y14343D1*
X21233Y14264D1*
X19904Y12935D1*
Y11810D1*
X22112Y14018D1*
X22149Y14051D1*
X22190Y14081D1*
X22233Y14105D1*
X22279Y14125D1*
X22327Y14140D1*
X22376Y14150D1*
X22440Y14154D1*
X24498D1*
X24679Y14335D1*
X24594Y14379D1*
X24513Y14438D1*
X24442Y14508D1*
X24382Y14588D1*
X24336Y14676D1*
X24303Y14771D1*
X24285Y14869D1*
X24281Y14969D1*
X24293Y15068D1*
X24320Y15164D1*
X24361Y15255D1*
X24415Y15339D1*
X24482Y15414D1*
X24559Y15478D1*
X24644Y15529D1*
X24737Y15567D1*
X24834Y15591D1*
X24933Y15599D1*
X25033Y15593D1*
X25130Y15571D1*
X25224Y15535D1*
X25310Y15485D1*
X25388Y15423D1*
X25439Y15370D1*
X25519Y15447D1*
X25600Y15505D1*
X25690Y15550D1*
X25785Y15581D1*
X25883Y15597D1*
X25983Y15598D1*
X26082Y15584D1*
X26178Y15555D1*
X26268Y15512D1*
X26351Y15456D1*
X26424Y15388D1*
X26439Y15370D1*
X26519Y15447D1*
X26600Y15505D1*
X26690Y15550D1*
X26785Y15581D1*
X26883Y15597D1*
X26983Y15598D1*
X27082Y15584D1*
X27178Y15555D1*
X27268Y15512D1*
X27351Y15456D1*
X27424Y15388D1*
X27486Y15310D1*
X27536Y15223D1*
X27571Y15130D1*
X27593Y15032D1*
X27599Y14940D1*
X27592Y14840D1*
X27569Y14743D1*
X27532Y14650D1*
X27482Y14564D1*
X27419Y14487D1*
X27345Y14419D1*
X27261Y14364D1*
X27171Y14322D1*
X27075Y14295D1*
X26976Y14282D1*
X26876Y14284D1*
X26777Y14301D1*
X26683Y14333D1*
X26594Y14379D1*
X26513Y14438D1*
X26439Y14512D1*
X26383Y14452D1*
X26304Y14390D1*
X26217Y14342D1*
X26123Y14307D1*
X26025Y14286D1*
X25937Y14281D1*
X25018Y13362D1*
X24981Y13329D1*
X24940Y13299D1*
X24897Y13275D1*
X24851Y13255D1*
X24803Y13240D1*
X24754Y13230D1*
X24690Y13226D1*
X22632D1*
X20467Y11060D1*
X20466Y9129D1*
X20558Y9164D1*
X20656Y9185D1*
X20756Y9191D1*
X20855Y9184D1*
X20953Y9162D1*
X21046Y9126D1*
X21133Y9077D1*
X21212Y9016D1*
X21282Y8944D1*
X21340Y8863D1*
X21386Y8774D1*
X21418Y8680D1*
X21437Y8581D1*
X21442Y8503D1*
X21434Y8403D1*
X21420Y8334D1*
X21500Y8362D1*
X21598Y8383D1*
X21698Y8389D1*
X21797Y8380D1*
X21895Y8358D1*
X21988Y8322D1*
X22075Y8273D1*
X22154Y8212D1*
X22224Y8141D1*
X22283Y8060D1*
X22329Y7971D1*
X22363Y7877D1*
X22383Y7779D1*
X22389Y7690D1*
X22382Y7590D1*
X22360Y7493D1*
X22325Y7399D1*
X22277Y7311D1*
X22217Y7232D1*
X22146Y7161D1*
X22066Y7101D1*
X21979Y7054D1*
X21885Y7019D1*
X21787Y6998D1*
X21687Y6991D1*
X21588Y6999D1*
X21490Y7021D1*
X21397Y7056D1*
X21309Y7104D1*
X21230Y7164D1*
X21190Y7202D1*
X21154Y7169D1*
Y6879D1*
X21379Y6877D1*
X21551Y6879D1*
X22379Y6877D1*
X22551Y6879D1*
X23379Y6877D1*
X23551Y6879D1*
X24379Y6877D1*
X24551Y6879D1*
X25379Y6877D1*
X25551Y6879D1*
X26379Y6877D1*
X26551Y6879D1*
X27379Y6877D1*
X27551Y6879D1*
X27784D1*
X27565Y7096D1*
X26185Y8476D1*
X26104D1*
X26105Y8379D1*
X24944D1*
X24946Y9501D1*
X24944Y9479D1*
Y10501D1*
X26105Y10499D1*
X26275Y10501D1*
X26561D1*
Y10754D1*
X26490Y10771D1*
X26397Y10806D1*
X26309Y10854D1*
X26230Y10914D1*
X26159Y10985D1*
X26100Y11066D1*
X26053Y11154D1*
X26018Y11248D1*
X25998Y11345D1*
X25991Y11445D1*
X25999Y11545D1*
X26021Y11642D1*
X26057Y11736D1*
X26106Y11823D1*
X26166Y11902D1*
X26237Y11972D1*
X26318Y12031D1*
X26406Y12078D1*
X26500Y12112D1*
X26598Y12133D1*
X26698Y12139D1*
X26797Y12130D1*
X26895Y12108D1*
X26988Y12072D1*
X27075Y12023D1*
X27154Y11962D1*
X27224Y11891D1*
X27283Y11810D1*
X27329Y11721D1*
X27363Y11627D1*
X27383Y11529D1*
X27389Y11440D1*
X27387Y11395D1*
X27419Y11350D1*
X27443Y11306D1*
X27462Y11260D1*
X27476Y11212D1*
X27485Y11163D1*
X27489Y11055D1*
Y10501D1*
X27605D1*
Y9379D1*
X26531Y9378D1*
X26577Y9359D1*
X26621Y9335D1*
X26662Y9306D1*
X26741Y9233D1*
X28567Y7406D1*
X28561Y7480D1*
Y8379D1*
X28444D1*
X28446Y9501D1*
X28444Y9479D1*
Y10501D1*
X29605Y10499D1*
X29775Y10501D1*
X30061D1*
Y10754D1*
X29990Y10771D1*
X29897Y10806D1*
X29809Y10854D1*
X29730Y10914D1*
X29659Y10985D1*
X29600Y11066D1*
X29553Y11154D1*
X29518Y11248D1*
X29498Y11345D1*
X29491Y11445D1*
X29499Y11545D1*
X29521Y11642D1*
X29557Y11736D1*
X29606Y11823D1*
X29666Y11902D1*
X29737Y11972D1*
X29818Y12031D1*
X29906Y12078D1*
X30000Y12112D1*
X30098Y12133D1*
X30198Y12139D1*
X30297Y12130D1*
X30395Y12108D1*
X30488Y12072D1*
X30575Y12023D1*
X30654Y11962D1*
X30724Y11891D1*
X30783Y11810D1*
X30829Y11721D1*
X30863Y11627D1*
X30883Y11529D1*
X30889Y11440D1*
X30887Y11395D1*
X30919Y11350D1*
X30943Y11306D1*
X30962Y11260D1*
X30976Y11212D1*
X30985Y11163D1*
X30989Y11055D1*
Y10501D1*
X31105D1*
Y9379D1*
X29944Y9381D1*
X29836Y9379D1*
X29604D1*
X29605Y9151D1*
Y8379D1*
X29488D1*
X29489Y7673D1*
X30081Y7081D1*
X30114Y7043D1*
X30143Y7003D1*
X30168Y6959D1*
X30201Y6879D1*
X30243D1*
X30268Y6946D1*
X30292Y6991D1*
X30320Y7032D1*
X30362Y7081D1*
X31945Y8664D1*
X13499Y14271D2*
X14251D1*
Y13975D1*
X14556Y13670D1*
X14621Y13674D1*
X14704Y13670D1*
X15039Y14005D1*
X15038Y15330D1*
X14970Y15289D1*
X14878Y15249D1*
X14782Y15222D1*
X14683Y15208D1*
X14583D1*
X14484Y15221D1*
X14388Y15247D1*
X14296Y15287D1*
X14210Y15338D1*
X14132Y15401D1*
X14064Y15473D1*
X14005Y15554D1*
X13974Y15611D1*
X13451Y15609D1*
X12879Y15611D1*
X12901Y15609D1*
X12652D1*
X12654Y15440D1*
Y15404D1*
X12740Y15401D1*
X12789Y15393D1*
X12837Y15380D1*
X12884Y15362D1*
X12928Y15338D1*
X12970Y15310D1*
X13008Y15278D1*
X13042Y15242D1*
X13073Y15202D1*
X13099Y15160D1*
X13120Y15114D1*
X13136Y15067D1*
X13147Y15018D1*
X13154Y14938D1*
X13429Y14940D1*
X13501D1*
Y14269D1*
X13806Y13109D2*
X13129Y13111D1*
X13151Y13109D1*
X12652D1*
X12654Y12940D1*
X12651Y12390D1*
X12643Y12341D1*
X12630Y12293D1*
X12612Y12246D1*
X12588Y12202D1*
X12560Y12160D1*
X12518Y12112D1*
X12018Y11612D1*
X11981Y11579D1*
X11940Y11549D1*
X11897Y11525D1*
X11851Y11505D1*
X11803Y11490D1*
X11754Y11480D1*
X11690Y11476D1*
X9132D1*
X7768Y10112D1*
X7731Y10079D1*
X7690Y10049D1*
X7647Y10025D1*
X7601Y10005D1*
X7553Y9990D1*
X7504Y9980D1*
X7440Y9976D1*
X6382D1*
X6155Y9748D1*
X6154Y9138D1*
X7389Y9139D1*
X7390Y8904D1*
X7510D1*
X7511Y9119D1*
X8869D1*
Y8905D1*
X9451Y8904D1*
X9452Y9178D1*
X10928D1*
Y7905D1*
X11035Y7904D1*
X11059Y7967D1*
X11106Y8056D1*
X11165Y8136D1*
X11235Y8207D1*
X11315Y8268D1*
X11402Y8316D1*
X11496Y8351D1*
X11593Y8372D1*
X11693Y8379D1*
X11793Y8371D1*
X11890Y8349D1*
X11983Y8313D1*
X12071Y8264D1*
X12150Y8203D1*
X12219Y8131D1*
X12277Y8050D1*
X12323Y7962D1*
X12356Y7867D1*
X12374Y7769D1*
X12379Y7690D1*
X12372Y7590D1*
X12350Y7493D1*
X12336Y7450D1*
X12908Y6879D1*
X13228D1*
X13226Y7040D1*
Y7248D1*
X11712Y8761D1*
X11011D1*
Y9213D1*
X10468Y9756D1*
X10396Y9731D1*
X10299Y9710D1*
X10199Y9702D1*
X10100Y9708D1*
X10001Y9726D1*
X9907Y9759D1*
X9817Y9803D1*
X9735Y9859D1*
X9660Y9926D1*
X9596Y10002D1*
X9542Y10087D1*
X9500Y10177D1*
X9471Y10273D1*
X9455Y10372D1*
X9453Y10471D1*
X9464Y10571D1*
X9488Y10668D1*
X9525Y10760D1*
X9575Y10847D1*
X9635Y10927D1*
X9706Y10997D1*
X9786Y11057D1*
X9873Y11106D1*
X9966Y11143D1*
X10063Y11167D1*
X10162Y11177D1*
X10262Y11174D1*
X10361Y11158D1*
X10456Y11128D1*
X10547Y11086D1*
X10631Y11032D1*
X10707Y10967D1*
X10773Y10892D1*
X10829Y10810D1*
X10873Y10720D1*
X10901Y10636D1*
X11417Y10120D1*
X12369Y10119D1*
Y9417D1*
X13011Y8775D1*
X12998Y8845D1*
X12991Y8945D1*
X12999Y9045D1*
X13021Y9142D1*
X13057Y9236D1*
X13106Y9323D1*
X13166Y9402D1*
X13237Y9472D1*
X13318Y9531D1*
X13406Y9578D1*
X13500Y9612D1*
X13598Y9633D1*
X13698Y9639D1*
X13797Y9630D1*
X13895Y9608D1*
X13988Y9572D1*
X14075Y9523D1*
X14154Y9462D1*
X14189Y9429D1*
X14277Y9503D1*
X14361Y9556D1*
X14453Y9597D1*
X14549Y9624D1*
X14648Y9637D1*
X14748Y9636D1*
X14846Y9621D1*
X14942Y9592D1*
X15032Y9549D1*
X15116Y9494D1*
X15189Y9429D1*
X15277Y9503D1*
X15361Y9556D1*
X15453Y9597D1*
X15549Y9624D1*
X15648Y9637D1*
X15748Y9636D1*
X15846Y9621D1*
X15942Y9592D1*
X16032Y9549D1*
X16116Y9494D1*
X16189Y9429D1*
X16227Y9463D1*
X16237Y9539D1*
X16250Y9587D1*
X16268Y9634D1*
X16292Y9678D1*
X16320Y9720D1*
X16362Y9768D1*
X16626Y10032D1*
X16631Y10150D1*
X16651Y10248D1*
X16684Y10342D1*
X16731Y10431D1*
X16790Y10511D1*
X16860Y10582D1*
X16940Y10643D1*
X17027Y10691D1*
X17121Y10726D1*
X17218Y10747D1*
X17318Y10754D1*
X17418Y10746D1*
X17508Y10726D1*
X18102Y11321D1*
X18101Y11678D1*
Y14878D1*
X18104Y14927D1*
X18112Y14977D1*
X18125Y15025D1*
X18143Y15071D1*
X18167Y15116D1*
X18195Y15157D1*
X18237Y15206D1*
X19424Y16393D1*
X19462Y16426D1*
X19502Y16456D1*
X19546Y16480D1*
X19591Y16500D1*
X19639Y16515D1*
X19688Y16525D1*
X19752Y16529D1*
X20695D1*
X19943Y17281D1*
X19876Y17284D1*
X19777Y17301D1*
X19683Y17333D1*
X19594Y17379D1*
X19513Y17438D1*
X19442Y17508D1*
X19382Y17588D1*
X19336Y17676D1*
X19303Y17771D1*
X19285Y17869D1*
X19281Y17969D1*
X19293Y18068D1*
X19320Y18164D1*
X19361Y18255D1*
X19415Y18339D1*
X19482Y18414D1*
X19559Y18478D1*
X19644Y18529D1*
X19737Y18567D1*
X19834Y18591D1*
X19933Y18599D1*
X20033Y18593D1*
X20130Y18571D1*
X20224Y18535D1*
X20310Y18485D1*
X20388Y18423D1*
X20439Y18370D1*
X20519Y18447D1*
X20600Y18505D1*
X20690Y18550D1*
X20785Y18581D1*
X20883Y18597D1*
X20983Y18598D1*
X21082Y18584D1*
X21178Y18555D1*
X21268Y18512D1*
X21351Y18456D1*
X21424Y18388D1*
X21439Y18370D1*
X21519Y18447D1*
X21600Y18505D1*
X21690Y18550D1*
X21785Y18581D1*
X21883Y18597D1*
X21983Y18598D1*
X22082Y18584D1*
X22178Y18555D1*
X22268Y18512D1*
X22351Y18456D1*
X22424Y18388D1*
X22486Y18310D1*
X22536Y18223D1*
X22571Y18130D1*
X22593Y18032D1*
X22599Y17940D1*
X22592Y17840D1*
X22569Y17743D1*
X22532Y17650D1*
X22482Y17564D1*
X22419Y17487D1*
X22345Y17419D1*
X22261Y17364D1*
X22171Y17322D1*
X22075Y17295D1*
X21976Y17282D1*
X21876Y17284D1*
X21777Y17301D1*
X21683Y17333D1*
X21594Y17379D1*
X21513Y17438D1*
X21439Y17512D1*
X21383Y17452D1*
X21304Y17390D1*
X21217Y17342D1*
X21201Y17335D1*
X21507Y17030D1*
X24665Y17029D1*
X25373D1*
X25678Y17334D1*
X25594Y17379D1*
X25513Y17438D1*
X25439Y17512D1*
X25383Y17452D1*
X25304Y17390D1*
X25217Y17342D1*
X25123Y17307D1*
X25025Y17286D1*
X24926Y17281D1*
X24826Y17291D1*
X24729Y17315D1*
X24637Y17354D1*
X24552Y17407D1*
X24476Y17471D1*
X24411Y17547D1*
X24357Y17631D1*
X24317Y17723D1*
X24292Y17820D1*
X24281Y17919D1*
X24285Y18019D1*
X24305Y18117D1*
X24339Y18211D1*
X24387Y18298D1*
X24447Y18378D1*
X24519Y18447D1*
X24600Y18505D1*
X24680Y18545D1*
X24186Y19038D1*
X20753D1*
X20703Y19041D1*
X20653Y19049D1*
X20605Y19063D1*
X20559Y19081D1*
X20514Y19104D1*
X20473Y19132D1*
X20424Y19174D1*
X20141Y19462D1*
X20112Y19502D1*
X20087Y19546D1*
X20067Y19592D1*
X20053Y19639D1*
X20043Y19688D1*
X20038Y19753D1*
Y20445D1*
X18528Y18934D1*
X18529Y18628D1*
Y17503D1*
X18526Y17453D1*
X18518Y17403D1*
X18505Y17355D1*
X18487Y17309D1*
X18463Y17264D1*
X18435Y17223D1*
X18393Y17174D1*
X17831Y16612D1*
X17793Y16579D1*
X17753Y16549D1*
X17709Y16525D1*
X17662Y16504D1*
X17753Y16411D1*
X17811Y16331D1*
X17859Y16243D1*
X17894Y16149D1*
X17915Y16051D1*
X17924Y15952D1*
X17922Y15890D1*
X17909Y15791D1*
X17882Y15695D1*
X17842Y15603D1*
X17790Y15518D1*
X17727Y15440D1*
X17655Y15372D1*
X17598Y15330D1*
X17683Y15263D1*
X17753Y15191D1*
X17811Y15111D1*
X17859Y15023D1*
X17894Y14929D1*
X17915Y14831D1*
X17924Y14732D1*
X17922Y14670D1*
X17909Y14571D1*
X17882Y14475D1*
X17842Y14383D1*
X17790Y14298D1*
X17727Y14220D1*
X17655Y14152D1*
X17573Y14094D1*
X17484Y14048D1*
X17390Y14014D1*
X17293Y13993D1*
X17193Y13986D1*
X17093Y13992D1*
X16995Y14012D1*
X16901Y14045D1*
X16812Y14091D1*
X16730Y14148D1*
X16657Y14216D1*
X16593Y14293D1*
X16541Y14378D1*
X16500Y14469D1*
X16473Y14565D1*
X16458Y14664D1*
X16457Y14764D1*
X16470Y14863D1*
X16496Y14960D1*
X16535Y15052D1*
X16586Y15137D1*
X16649Y15216D1*
X16721Y15285D1*
X16782Y15330D1*
X16730Y15368D1*
X16657Y15436D1*
X16593Y15513D1*
X16541Y15598D1*
X16500Y15689D1*
X16473Y15785D1*
X16458Y15884D1*
X16457Y15984D1*
X16470Y16083D1*
X16484Y16139D1*
X15967Y15623D1*
X15966Y13812D1*
X15964Y13763D1*
X15956Y13713D1*
X15942Y13665D1*
X15924Y13619D1*
X15901Y13574D1*
X15873Y13533D1*
X15831Y13484D1*
X15361Y13015D1*
X15364Y12940D1*
X15357Y12840D1*
X15337Y12742D1*
X15304Y12648D1*
X15258Y12560D1*
X15200Y12478D1*
X15132Y12405D1*
X15055Y12341D1*
X14970Y12289D1*
X14878Y12249D1*
X14782Y12222D1*
X14683Y12208D1*
X14583D1*
X14484Y12221D1*
X14388Y12247D1*
X14296Y12287D1*
X14210Y12338D1*
X14132Y12401D1*
X14064Y12473D1*
X14005Y12554D1*
X13959Y12643D1*
X13925Y12737D1*
X13904Y12834D1*
X13896Y12934D1*
X13900Y13014D1*
X13804Y13110D1*
X13249Y16771D2*
X14001D1*
Y16653D1*
X14380Y16654D1*
X14438Y16650D1*
X14571Y16672D1*
X14671Y16673D1*
X14704Y16670D1*
X14977Y16943D1*
X14976Y17350D1*
Y18292D1*
X14878Y18249D1*
X14782Y18222D1*
X14683Y18208D1*
X14583D1*
X14484Y18221D1*
X14388Y18247D1*
X14296Y18287D1*
X14210Y18338D1*
X14132Y18401D1*
X14064Y18473D1*
X14005Y18554D1*
X13959Y18643D1*
X13925Y18737D1*
X13904Y18834D1*
X13901Y18861D1*
X13501Y18859D1*
X13249D1*
X13251Y18696D1*
Y18234D1*
X12652D1*
X12654Y18002D1*
Y17904D1*
X12740Y17901D1*
X12789Y17893D1*
X12837Y17880D1*
X12884Y17862D1*
X12928Y17838D1*
X12970Y17810D1*
X13008Y17778D1*
X13042Y17742D1*
X13073Y17702D1*
X13099Y17660D1*
X13120Y17614D1*
X13136Y17567D1*
X13147Y17518D1*
X13154Y17438D1*
X13251Y17440D1*
Y16769D1*
X13249Y20021D2*
X14001D1*
Y19903D1*
X14130Y19904D1*
X14180Y19901D1*
X14229Y19893D1*
X14277Y19880D1*
X14324Y19862D1*
X14368Y19838D1*
X14410Y19810D1*
X14458Y19768D1*
X14556Y19670D1*
X14621Y19674D1*
X14721Y19668D1*
X14819Y19649D1*
X14914Y19617D1*
X15003Y19572D1*
X15085Y19516D1*
X15098Y19505D1*
X15799Y20206D1*
X15837Y20239D1*
X15877Y20268D1*
X15921Y20293D1*
X15966Y20313D1*
X16014Y20327D1*
X16063Y20337D1*
X16127Y20341D1*
X16560D1*
X16519Y20423D1*
X16485Y20517D1*
X16464Y20614D1*
X16456Y20714D1*
X16462Y20814D1*
X16482Y20912D1*
X16514Y21006D1*
X16545Y21069D1*
X16490Y21083D1*
X16397Y21118D1*
X16309Y21167D1*
X16230Y21227D1*
X16190Y21265D1*
X16146Y21224D1*
X16066Y21164D1*
X15979Y21116D1*
X15885Y21082D1*
X15787Y21061D1*
X15687Y21054D1*
X15588Y21061D1*
X15490Y21083D1*
X15397Y21118D1*
X15309Y21167D1*
X15230Y21227D1*
X15190Y21265D1*
X15146Y21224D1*
X15066Y21164D1*
X14979Y21116D1*
X14885Y21082D1*
X14787Y21061D1*
X14687Y21054D1*
X14588Y21061D1*
X14490Y21083D1*
X14397Y21118D1*
X14309Y21167D1*
X14230Y21227D1*
X14159Y21298D1*
X14100Y21378D1*
X14053Y21466D1*
X14018Y21560D1*
X13998Y21658D1*
X13991Y21758D1*
X13999Y21857D1*
X14021Y21955D1*
X14057Y22048D1*
X14085Y22102D1*
X13320Y22101D1*
X13154Y21935D1*
Y20063D1*
X13251Y20065D1*
Y20020D1*
X29643Y21808D2*
X29692Y21809D1*
Y22283D1*
X29314Y22660D1*
X29312Y22029D1*
X29313Y21921D1*
Y21806D1*
X29412Y21808D1*
Y20568D1*
X28093D1*
Y21808D1*
X28192Y21809D1*
Y22227D1*
X27878Y22226D1*
X27826Y22229D1*
X27813Y22221D1*
Y21806D1*
X27912Y21808D1*
Y20568D1*
X26593D1*
Y21808D1*
X26692Y21809D1*
X26690Y22226D1*
X26640Y22229D1*
X26591Y22237D1*
X26543Y22250D1*
X26496Y22268D1*
X26452Y22292D1*
X26410Y22320D1*
X26362Y22362D1*
X26312Y22412D1*
X26313Y22029D1*
Y21806D1*
X26412Y21808D1*
Y20568D1*
X25093D1*
Y21808D1*
X25192Y21809D1*
Y22345D1*
X24814Y22722D1*
X24813Y22029D1*
Y21806D1*
X24912Y21808D1*
Y20568D1*
X23593D1*
Y21808D1*
X23692Y21809D1*
Y22514D1*
X23329Y22881D1*
X23323Y22887D1*
X23313Y22890D1*
X23312Y22029D1*
X23313Y21921D1*
Y21806D1*
X23412Y21808D1*
Y20568D1*
X22093D1*
Y21808D1*
X22192Y21809D1*
X22193Y22521D1*
X22192Y22629D1*
Y23190D1*
X22228D1*
X22226Y23422D1*
Y23501D1*
X22031D1*
X21947Y23416D1*
X21721Y23190D1*
X21813D1*
X21812Y22029D1*
X21813Y21921D1*
Y21806D1*
X21912Y21808D1*
Y20568D1*
X20966D1*
Y19967D1*
X24378Y19966D1*
X24427Y19964D1*
X24477Y19956D1*
X24525Y19942D1*
X24571Y19924D1*
X24616Y19901D1*
X24657Y19873D1*
X24706Y19831D1*
X25938Y18599D1*
X26033Y18593D1*
X26130Y18571D1*
X26224Y18535D1*
X26310Y18485D1*
X26388Y18423D1*
X26439Y18370D1*
X26519Y18447D1*
X26600Y18505D1*
X26690Y18550D1*
X26785Y18581D1*
X26883Y18597D1*
X26983Y18598D1*
X27082Y18584D1*
X27178Y18555D1*
X27268Y18512D1*
X27351Y18456D1*
X27424Y18388D1*
X27486Y18310D1*
X27536Y18223D1*
X27571Y18130D1*
X27593Y18032D1*
X27599Y17940D1*
X27592Y17840D1*
X27569Y17743D1*
X27532Y17650D1*
X27482Y17564D1*
X27419Y17487D1*
X27345Y17419D1*
X27261Y17364D1*
X27171Y17322D1*
X27075Y17295D1*
X26976Y17282D1*
X26937Y17281D1*
X26184Y16528D1*
X26752Y16529D1*
X30315D1*
X30365Y16526D1*
X30414Y16518D1*
X30462Y16505D1*
X30509Y16487D1*
X30553Y16463D1*
X30595Y16435D1*
X30643Y16393D1*
X34956Y12081D1*
X34989Y12043D1*
X35018Y12003D1*
X35043Y11959D1*
X35063Y11914D1*
X35077Y11866D1*
X35087Y11817D1*
X35091Y11753D1*
Y7726D1*
X35159Y7774D1*
X35246Y7824D1*
X35337Y7864D1*
X35432Y7895D1*
X35530Y7916D1*
X35629Y7927D1*
X35729Y7928D1*
X35829Y7919D1*
X35927Y7900D1*
X36023Y7871D1*
X36115Y7833D1*
X36203Y7785D1*
X36286Y7729D1*
X36362Y7665D1*
X36432Y7594D1*
X36494Y7515D1*
X36548Y7431D1*
X36594Y7342D1*
X36630Y7249D1*
X36656Y7152D1*
X36672Y7054D1*
X36679Y6940D1*
X36674Y6840D1*
X36659Y6741D1*
X36634Y6645D1*
X36599Y6551D1*
X36555Y6461D1*
X36503Y6376D1*
X36441Y6297D1*
X36373Y6224D1*
X36297Y6159D1*
X36215Y6102D1*
X36128Y6053D1*
X36036Y6014D1*
X35941Y5983D1*
X35843Y5963D1*
X35743Y5952D1*
X35644D1*
X35544Y5962D1*
X35446Y5982D1*
X35351Y6011D1*
X35259Y6050D1*
X35171Y6098D1*
X35091Y6153D1*
Y4690D1*
X35089Y4640D1*
X35081Y4591D1*
X35067Y4543D1*
X35049Y4496D1*
X35026Y4452D1*
X34998Y4410D1*
X34956Y4362D1*
X34584Y3990D1*
X38140D1*
Y26390D1*
X16492D1*
X16571Y26362D1*
X16616Y26338D1*
X16657Y26310D1*
X16706Y26268D1*
X17051Y25918D1*
X17101Y25879D1*
X17379Y25877D1*
X17551Y25879D1*
X18379Y25877D1*
X18551Y25879D1*
X19379Y25877D1*
X19551Y25879D1*
X20379Y25877D1*
X20551Y25879D1*
X21379Y25877D1*
X21551Y25879D1*
X22379Y25877D1*
X22551Y25879D1*
X23379Y25877D1*
X23551Y25879D1*
X24379Y25877D1*
X24551Y25879D1*
X25379Y25877D1*
X25551Y25879D1*
X26379Y25877D1*
X26551Y25879D1*
X27379Y25877D1*
X27551Y25879D1*
X28379Y25877D1*
X28551Y25879D1*
X29379Y25877D1*
X29551Y25879D1*
X30379Y25877D1*
X30551Y25879D1*
X31379Y25877D1*
X31551Y25879D1*
X32379Y25877D1*
X32551Y25879D1*
X33379Y25877D1*
X33551Y25879D1*
X34379D1*
X34377Y24501D1*
X34379Y24329D1*
Y23501D1*
X33001Y23503D1*
X32829Y23501D1*
X32001Y23503D1*
X31829Y23501D1*
X31001Y23503D1*
X30829Y23501D1*
X30001Y23503D1*
X29829Y23501D1*
X29784D1*
X30097Y23189D1*
X30813Y23190D1*
X30812Y22029D1*
X30813Y21921D1*
Y21806D1*
X30912Y21808D1*
Y20568D1*
X29593D1*
Y21808D1*
X29643D1*
X18387Y8890D2*
X18373Y8791D1*
X18344Y8695D1*
X18303Y8604D1*
X18296Y8592D1*
X18935Y8591D1*
X18975Y8631D1*
X18976Y9090D1*
Y10913D1*
X18935Y10848D1*
X18893Y10799D1*
X17979Y9886D1*
X17959Y9820D1*
X17917Y9730D1*
X17862Y9646D1*
X17841Y9621D1*
X17895Y9608D1*
X17988Y9572D1*
X18075Y9523D1*
X18154Y9462D1*
X18224Y9391D1*
X18283Y9310D1*
X18329Y9221D1*
X18363Y9127D1*
X18383Y9029D1*
X18389Y8940D1*
X18387Y8890D1*
X17250Y8398D2*
X17190Y8452D1*
X17146Y8411D1*
X17066Y8351D1*
X16979Y8304D1*
X16885Y8269D1*
X16787Y8248D1*
X16687Y8241D1*
X16588Y8249D1*
X16490Y8271D1*
X16397Y8306D1*
X16309Y8354D1*
X16230Y8414D1*
X16190Y8452D1*
X16146Y8411D1*
X16066Y8351D1*
X15979Y8304D1*
X15885Y8269D1*
X15787Y8248D1*
X15687Y8241D1*
X15588Y8249D1*
X15490Y8271D1*
X15397Y8306D1*
X15309Y8354D1*
X15230Y8414D1*
X15190Y8452D1*
X15146Y8411D1*
X15066Y8351D1*
X14979Y8304D1*
X14885Y8269D1*
X14787Y8248D1*
X14687Y8241D1*
X14588Y8249D1*
X14490Y8271D1*
X14397Y8306D1*
X14309Y8354D1*
X14230Y8414D1*
X14190Y8452D1*
X14146Y8411D1*
X14066Y8351D1*
X13979Y8304D1*
X13885Y8269D1*
X13787Y8248D1*
X13687Y8241D1*
X13588Y8249D1*
X13525Y8261D1*
X14018Y7768D1*
X14051Y7731D1*
X14081Y7690D1*
X14105Y7647D1*
X14125Y7601D1*
X14140Y7553D1*
X14150Y7504D1*
X14154Y7440D1*
Y6879D1*
X14379Y6877D1*
X14551Y6879D1*
X15379Y6877D1*
X15551Y6879D1*
X16379Y6877D1*
X16551Y6879D1*
X17165D1*
X17164Y7040D1*
Y8127D1*
X17166Y8177D1*
X17174Y8227D1*
X17188Y8275D1*
X17206Y8321D1*
X17241Y8385D1*
X15099Y22318D2*
X15154Y22275D1*
X15189Y22241D1*
X15277Y22316D1*
X15361Y22369D1*
X15453Y22410D1*
X15549Y22437D1*
X15648Y22450D1*
X15748Y22449D1*
X15846Y22433D1*
X15942Y22404D1*
X16032Y22362D1*
X16116Y22306D1*
X16189Y22241D1*
X16277Y22316D1*
X16283Y22320D1*
X16211Y22334D1*
X16116Y22365D1*
X16027Y22409D1*
X15945Y22466D1*
X15872Y22534D1*
X15809Y22612D1*
X15759Y22699D1*
X15722Y22791D1*
X15698Y22888D1*
X15695Y22915D1*
X15444Y22663D1*
X15101Y22319D1*
X16780Y22445D2*
X16846Y22433D1*
X16942Y22404D1*
X17032Y22362D1*
X17116Y22306D1*
X17189Y22241D1*
X17277Y22316D1*
X17365Y22371D1*
X17320Y22404D1*
X17247Y22472D1*
X17184Y22550D1*
X17134Y22636D1*
X17097Y22729D1*
X17073Y22826D1*
X17064Y22925D1*
Y22946D1*
X17050Y22854D1*
X17022Y22758D1*
X16979Y22667D1*
X16925Y22584D1*
X16858Y22509D1*
X16783Y22446D1*
X18191Y21266D2*
X18146Y21224D1*
X18066Y21164D1*
X17979Y21116D1*
X17885Y21082D1*
X17837Y21067D1*
X17878Y20976D1*
X17906Y20881D1*
X17916Y20824D1*
X18279Y21186D1*
X18193Y21261D1*
X18190Y21265D1*
X18079Y22333D2*
X18154Y22275D1*
X18189Y22241D1*
X18277Y22316D1*
X18322Y22346D1*
X18299Y22377D1*
X18275Y22421D1*
X18254Y22468D1*
X18196Y22413D1*
X18115Y22354D1*
X18079Y22333D1*
X31041Y12139D2*
X32389D1*
Y10741D1*
X30991D1*
Y12139D1*
X31041D1*
X27541D2*
X28889D1*
Y10741D1*
X27491D1*
Y12139D1*
X27541D1*
X24041D2*
X25389D1*
Y10741D1*
X23991D1*
Y12139D1*
X24041D1*
X23041Y8389D2*
X24389D1*
Y6991D1*
X22991D1*
Y8389D1*
X23041D1*
X20226Y7168D2*
X20159Y7235D1*
X20100Y7316D1*
X20053Y7404D1*
X20018Y7498D1*
X19999Y7591D1*
X19659Y7253D1*
X19284Y6878D1*
X19379Y6877D1*
X19551Y6879D1*
X20228D1*
X20226Y7040D1*
Y7167D1*
X26936Y9380D2*
X26528Y9379D1*
X26616Y9338D1*
X26657Y9310D1*
X26696Y9277D1*
X12129Y19211D2*
X12131Y19396D1*
X12129Y19504D1*
Y20065D1*
X12228D1*
X12226Y20234D1*
Y21876D1*
X12168Y21852D1*
X12071Y21826D1*
X11972Y21814D1*
X11872Y21817D1*
X11774Y21834D1*
X11679Y21865D1*
X11589Y21909D1*
X11507Y21966D1*
X11434Y22034D1*
X11372Y22113D1*
X11322Y22199D1*
X11284Y22291D1*
X11261Y22388D1*
X11251Y22488D1*
X11252Y22533D1*
X10612Y23174D1*
X10579Y23212D1*
X10549Y23252D1*
X10525Y23296D1*
X10505Y23342D1*
X10490Y23389D1*
X10480Y23438D1*
X10476Y23503D1*
Y24088D1*
X10408Y24010D1*
X10336Y23941D1*
X10257Y23879D1*
X10172Y23826D1*
X10082Y23782D1*
X9989Y23747D1*
X9892Y23722D1*
X9793Y23706D1*
X9694Y23701D1*
X9594Y23706D1*
X9495Y23720D1*
X9398Y23745D1*
X9304Y23779D1*
X9214Y23823D1*
X9129Y23875D1*
X9050Y23936D1*
X8977Y24005D1*
X8911Y24080D1*
X8854Y24162D1*
X8805Y24249D1*
X8765Y24341D1*
X8734Y24436D1*
X8713Y24534D1*
X8703Y24633D1*
X8702Y24733D1*
X8711Y24832D1*
X8731Y24931D1*
X8760Y25026D1*
X8799Y25118D1*
X8846Y25206D1*
X8903Y25289D1*
X8967Y25365D1*
X9039Y25435D1*
X9117Y25496D1*
X9202Y25550D1*
X9291Y25595D1*
X9385Y25631D1*
X9481Y25657D1*
X9580Y25673D1*
X9679Y25679D1*
X9779Y25675D1*
X9878Y25661D1*
X9975Y25637D1*
X10069Y25603D1*
X10160Y25560D1*
X10245Y25508D1*
X10325Y25448D1*
X10398Y25380D1*
X10464Y25305D1*
X10477Y25289D1*
X10476Y25940D1*
X10479Y25990D1*
X10487Y26039D1*
X10500Y26087D1*
X10518Y26134D1*
X10542Y26178D1*
X10570Y26220D1*
X10602Y26258D1*
X10638Y26292D1*
X10678Y26323D1*
X10720Y26349D1*
X10766Y26370D1*
X10814Y26387D1*
X10740Y26390D1*
X6742D1*
X6747Y25690D1*
X6803Y19740D1*
X11940D1*
X11982Y19716D1*
X11990Y19690D1*
Y19170D1*
X12063Y19199D1*
X12085Y19204D1*
X12129Y19254D1*
Y19404D1*
X26692Y22029D2*
Y22227D1*
X26633Y22229D1*
X26584Y22238D1*
X26536Y22252D1*
X26490Y22271D1*
X26446Y22295D1*
X26405Y22324D1*
X26313Y22410D1*
Y22021D1*
X23153Y23190D2*
X23228D1*
X23226Y23422D1*
Y23501D1*
X23152D1*
X23154Y23340D1*
Y23188D1*
X24328Y23190D2*
X24346D1*
X24299Y23252D1*
X24275Y23296D1*
X24255Y23342D1*
X24240Y23389D1*
X24230Y23438D1*
X24226Y23501D1*
X24152D1*
X24154Y23363D1*
X24329Y23189D1*
X24324Y23217D1*
X24296Y23258D1*
X24272Y23302D1*
X24253Y23348D1*
X24238Y23396D1*
X24230Y23445D1*
X24227Y23501D1*
X24152D1*
X12002Y5501D2*
X12001Y5951D1*
Y6474D1*
X11619Y6854D1*
X11497Y6977D1*
X11140Y6976D1*
X6190D1*
X6140Y6979D1*
X6091Y6987D1*
X6043Y7000D1*
X5996Y7018D1*
X5952Y7042D1*
X5910Y7070D1*
X5862Y7112D1*
X5362Y7612D1*
X5329Y7649D1*
X5299Y7690D1*
X5275Y7733D1*
X5255Y7779D1*
X5240Y7827D1*
X5230Y7876D1*
X5226Y7940D1*
Y9940D1*
X5229Y9990D1*
X5237Y10039D1*
X5250Y10087D1*
X5268Y10134D1*
X5292Y10178D1*
X5320Y10220D1*
X5362Y10268D1*
X5862Y10768D1*
X5899Y10801D1*
X5940Y10831D1*
X5983Y10855D1*
X6029Y10875D1*
X6077Y10890D1*
X6126Y10900D1*
X6190Y10904D1*
X7248D1*
X8612Y12268D1*
X8649Y12301D1*
X8690Y12331D1*
X8733Y12355D1*
X8779Y12375D1*
X8827Y12390D1*
X8876Y12400D1*
X8940Y12404D1*
X11498D1*
X11725Y12632D1*
X11726Y12642D1*
X11490Y12640D1*
X3990D1*
Y3990D1*
X10701D1*
X10615Y4021D1*
X10576Y4041D1*
X10479Y4065D1*
X10387Y4104D1*
X10302Y4157D1*
X10226Y4221D1*
X10161Y4297D1*
X10107Y4381D1*
X10067Y4473D1*
X10042Y4570D1*
X10031Y4669D1*
X10035Y4764D1*
X9941Y4733D1*
X9843Y4713D1*
X9743Y4702D1*
X9644D1*
X9544Y4712D1*
X9446Y4732D1*
X9351Y4761D1*
X9259Y4800D1*
X9171Y4848D1*
X9089Y4905D1*
X9012Y4970D1*
X8943Y5042D1*
X8882Y5120D1*
X8828Y5205D1*
X8784Y5294D1*
X8748Y5388D1*
X8723Y5484D1*
X8707Y5583D1*
X8701Y5683D1*
X8705Y5783D1*
X8720Y5882D1*
X8744Y5979D1*
X8778Y6073D1*
X8821Y6163D1*
X8873Y6248D1*
X8934Y6328D1*
X9002Y6401D1*
X9077Y6466D1*
X9159Y6524D1*
X9246Y6574D1*
X9337Y6614D1*
X9432Y6645D1*
X9530Y6666D1*
X9629Y6677D1*
X9729Y6678D1*
X9829Y6669D1*
X9927Y6650D1*
X10023Y6621D1*
X10115Y6583D1*
X10203Y6535D1*
X10286Y6479D1*
X10362Y6415D1*
X10432Y6344D1*
X10494Y6265D1*
X10548Y6181D1*
X10594Y6092D1*
X10630Y5999D1*
X10656Y5902D1*
X10672Y5804D1*
X10679Y5690D1*
X10674Y5590D1*
X10659Y5491D1*
X10634Y5395D1*
X10617Y5346D1*
X10733Y5348D1*
X10832Y5334D1*
X10928Y5305D1*
X11018Y5262D1*
X11101Y5206D1*
X11174Y5138D1*
X11236Y5060D1*
X11286Y4973D1*
X11313Y4905D1*
X12001Y4904D1*
X12003Y5879D1*
X18090Y6879D2*
X18228D1*
X18226Y6940D1*
X18229Y6990D1*
X18237Y7039D1*
X18250Y7087D1*
X18268Y7134D1*
X18292Y7178D1*
X18320Y7220D1*
X18362Y7268D1*
X18756Y7663D1*
X18092D1*
Y6879D1*
X18228D1*
X18226Y6947D1*
X18229Y6997D1*
X18238Y7046D1*
X18252Y7094D1*
X18271Y7140D1*
X18295Y7184D1*
X18324Y7225D1*
X18357Y7263D1*
X24474Y4501D2*
X24001Y4503D1*
X23829Y4501D1*
X23001Y4503D1*
X22829Y4501D1*
X22001Y4503D1*
X21829Y4501D1*
X21001Y4503D1*
X20906Y4501D1*
X20518Y4112D1*
X20481Y4079D1*
X20440Y4049D1*
X20397Y4025D1*
X20351Y4005D1*
X20302Y3990D1*
X24985D1*
X24473Y4501D1*
X12002Y24501D2*
X12001Y24951D1*
Y25478D1*
X11777Y25476D1*
X11404D1*
Y23695D1*
X11908Y23191D1*
X11993Y23189D1*
X12092Y23175D1*
X12188Y23146D1*
X12278Y23103D1*
X12361Y23048D1*
X12436Y22981D1*
X12500Y22904D1*
X12552Y22819D1*
X12591Y22727D1*
X12601Y22696D1*
X12799Y22893D1*
X12837Y22926D1*
X12877Y22956D1*
X12921Y22980D1*
X12967Y23000D1*
X13014Y23015D1*
X13063Y23025D1*
X13128Y23029D1*
X14498D1*
X14971Y23502D1*
X14001Y23501D1*
X13001D1*
X12001D1*
X12003Y24879D1*
X19227Y23501D2*
X19152D1*
X19154Y23340D1*
X19156Y22940D1*
X19198Y22923D1*
X19226Y22915D1*
Y23501D1*
X19152D1*
X17290D2*
X17031D1*
X16937Y23406D1*
X16989Y23319D1*
X17029Y23227D1*
X17054Y23131D1*
X17066Y23032D1*
Y23003D1*
X17077Y23075D1*
X17103Y23171D1*
X17144Y23262D1*
X17197Y23347D1*
X17261Y23423D1*
X17290Y23450D1*
X17288Y23501D1*
X17031D1*
X36678Y23390D2*
X36668Y23291D1*
X36648Y23193D1*
X36618Y23097D1*
X36578Y23005D1*
X36530Y22918D1*
X36473Y22836D1*
X36408Y22760D1*
X36336Y22691D1*
X36257Y22629D1*
X36172Y22576D1*
X36082Y22532D1*
X35989Y22497D1*
X35892Y22472D1*
X35793Y22456D1*
X35694Y22451D1*
X35594Y22456D1*
X35495Y22470D1*
X35398Y22495D1*
X35304Y22529D1*
X35214Y22573D1*
X35129Y22625D1*
X35050Y22686D1*
X34977Y22755D1*
X34911Y22830D1*
X34854Y22912D1*
X34805Y22999D1*
X34765Y23091D1*
X34734Y23186D1*
X34713Y23284D1*
X34703Y23383D1*
X34702Y23483D1*
X34711Y23582D1*
X34731Y23681D1*
X34760Y23776D1*
X34799Y23868D1*
X34846Y23956D1*
X34903Y24039D1*
X34967Y24115D1*
X35039Y24185D1*
X35117Y24246D1*
X35202Y24300D1*
X35291Y24345D1*
X35385Y24381D1*
X35481Y24407D1*
X35580Y24423D1*
X35679Y24429D1*
X35779Y24425D1*
X35878Y24411D1*
X35975Y24387D1*
X36069Y24353D1*
X36160Y24310D1*
X36245Y24258D1*
X36325Y24198D1*
X36398Y24130D1*
X36464Y24055D1*
X36522Y23974D1*
X36572Y23887D1*
X36613Y23796D1*
X36644Y23701D1*
X36665Y23603D1*
X36677Y23504D1*
X36678Y23390D1*
X19938Y14281D2*
X19281D1*
Y14939D1*
X19030Y14686D1*
X19029Y14128D1*
Y13342D1*
X19070Y13407D1*
X19112Y13456D1*
X19937Y14281D1*
X16782Y18330D2*
X16730Y18368D1*
X16657Y18436D1*
X16593Y18513D1*
X16541Y18598D1*
X16500Y18689D1*
X16473Y18785D1*
X16458Y18884D1*
X16457Y18984D1*
X16470Y19083D1*
X16496Y19180D1*
X16535Y19272D1*
X16586Y19357D1*
X16629Y19413D1*
X16320D1*
X15904Y18998D1*
Y16873D1*
X16299Y17268D1*
X16337Y17301D1*
X16377Y17331D1*
X16421Y17355D1*
X16466Y17375D1*
X16522Y17392D1*
X16519Y17423D1*
X16485Y17517D1*
X16464Y17614D1*
X16456Y17714D1*
X16462Y17814D1*
X16482Y17912D1*
X16514Y18006D1*
X16559Y18095D1*
X16616Y18178D1*
X16684Y18251D1*
X16760Y18315D1*
X16782Y18330D1*
X17922Y12890D2*
X17909Y12791D1*
X17882Y12695D1*
X17842Y12603D1*
X17790Y12518D1*
X17727Y12440D1*
X17655Y12372D1*
X17573Y12314D1*
X17484Y12268D1*
X17390Y12234D1*
X17293Y12213D1*
X17193Y12206D1*
X17093Y12212D1*
X16995Y12232D1*
X16901Y12265D1*
X16812Y12311D1*
X16730Y12368D1*
X16657Y12436D1*
X16593Y12513D1*
X16541Y12598D1*
X16500Y12689D1*
X16473Y12785D1*
X16458Y12884D1*
X16457Y12984D1*
X16470Y13083D1*
X16496Y13180D1*
X16535Y13272D1*
X16586Y13357D1*
X16649Y13436D1*
X16721Y13505D1*
X16802Y13563D1*
X16890Y13610D1*
X16984Y13644D1*
X17082Y13666D1*
X17181Y13674D1*
X17281Y13668D1*
X17379Y13649D1*
X17474Y13617D1*
X17563Y13572D1*
X17645Y13516D1*
X17719Y13449D1*
X17783Y13372D1*
X17837Y13287D1*
X17878Y13196D1*
X17906Y13101D1*
X17921Y13002D1*
X17924Y12940D1*
X17922Y12890D1*
X9452Y7904D2*
Y7975D1*
X8870Y7976D1*
X8869Y7905D1*
X9451Y7904D1*
X7178Y5640D2*
X7168Y5541D1*
X7148Y5443D1*
X7118Y5347D1*
X7078Y5255D1*
X7030Y5168D1*
X6973Y5086D1*
X6908Y5010D1*
X6836Y4941D1*
X6757Y4879D1*
X6672Y4826D1*
X6582Y4782D1*
X6489Y4747D1*
X6392Y4722D1*
X6293Y4706D1*
X6194Y4701D1*
X6094Y4706D1*
X5995Y4720D1*
X5898Y4745D1*
X5804Y4779D1*
X5714Y4823D1*
X5629Y4875D1*
X5550Y4936D1*
X5477Y5005D1*
X5411Y5080D1*
X5354Y5162D1*
X5305Y5249D1*
X5265Y5341D1*
X5234Y5436D1*
X5213Y5534D1*
X5203Y5633D1*
X5202Y5733D1*
X5211Y5832D1*
X5231Y5931D1*
X5260Y6026D1*
X5299Y6118D1*
X5346Y6206D1*
X5403Y6289D1*
X5467Y6365D1*
X5539Y6435D1*
X5617Y6496D1*
X5702Y6550D1*
X5791Y6595D1*
X5885Y6631D1*
X5981Y6657D1*
X6080Y6673D1*
X6179Y6679D1*
X6279Y6675D1*
X6378Y6661D1*
X6475Y6637D1*
X6569Y6603D1*
X6660Y6560D1*
X6745Y6508D1*
X6825Y6448D1*
X6898Y6380D1*
X6964Y6305D1*
X7022Y6224D1*
X7072Y6137D1*
X7113Y6046D1*
X7144Y5951D1*
X7165Y5853D1*
X7177Y5754D1*
X7178Y5640D1*
X31234Y23256D2*
X34385D1*
Y17118D1*
X31184D1*
Y23256D1*
X31234D1*
X22676Y15541D2*
X24393D1*
X22376Y15443D2*
X24403D1*
X22471Y15344D2*
X24409D1*
X22534Y15245D2*
X24346D1*
X22576Y15147D2*
X24304D1*
X22601Y15048D2*
X24279D1*
X22609Y14949D2*
X24271D1*
X22602Y14850D2*
X24278D1*
X22582Y14752D2*
X24298D1*
X22543Y14653D2*
X24337D1*
X22485Y14554D2*
X24395D1*
X22398Y14456D2*
X24482D1*
X22257Y14357D2*
X24395D1*
X22132Y14258D2*
X22421D1*
X22597Y14890D2*
X22582Y14791D1*
X22552Y14696D1*
X22509Y14606D1*
X22452Y14524D1*
X22383Y14452D1*
X22304Y14390D1*
X22217Y14342D1*
X22125Y14307D1*
X22120Y14242D1*
X24511Y14362D1*
X24503Y14446D1*
X24442Y14508D1*
X24382Y14588D1*
X24336Y14676D1*
X24303Y14771D1*
X24285Y14869D1*
X24281Y14969D1*
X24293Y15068D1*
X24320Y15164D1*
X24361Y15255D1*
X24415Y15339D1*
X24420Y15345D1*
X24398Y15600D1*
X23738Y15601D1*
X22257Y15519D1*
X22351Y15456D1*
X22424Y15388D1*
X22486Y15310D1*
X22536Y15223D1*
X22571Y15130D1*
X22593Y15032D1*
X22599Y14940D1*
X22597Y14890D1*
X22220Y18541D2*
X24505D1*
X22376Y18443D2*
X24504D1*
X22471Y18344D2*
X24409D1*
X22534Y18245D2*
X24346D1*
X22576Y18147D2*
X24304D1*
X22601Y18048D2*
X24279D1*
X22609Y17949D2*
X24271D1*
X22602Y17850D2*
X24278D1*
X22582Y17752D2*
X24298D1*
X22543Y17653D2*
X24337D1*
X22485Y17554D2*
X24395D1*
X22398Y17456D2*
X24482D1*
X22257Y17357D2*
X24505D1*
X22125Y17258D2*
X24505D1*
X24514Y17437D2*
X24442Y17508D1*
X24382Y17588D1*
X24336Y17676D1*
X24303Y17771D1*
X24285Y17869D1*
X24281Y17969D1*
X24293Y18068D1*
X24320Y18164D1*
X24361Y18255D1*
X24415Y18339D1*
X24482Y18414D1*
X24515Y18444D1*
Y18640D1*
X22115D1*
Y18576D1*
X22178Y18555D1*
X22268Y18512D1*
X22351Y18456D1*
X22424Y18388D1*
X22486Y18310D1*
X22536Y18223D1*
X22571Y18130D1*
X22593Y18032D1*
X22599Y17940D1*
X22592Y17840D1*
X22569Y17743D1*
X22532Y17650D1*
X22482Y17564D1*
X22419Y17487D1*
X22345Y17419D1*
X22261Y17364D1*
X22171Y17322D1*
X22116Y17305D1*
X22115Y17240D1*
X24515D1*
Y17435D1*
D15*
X32525Y8940D3*
X31855D3*
X29025D3*
X28355D3*
X25525D3*
X24855D3*
D16*
X13690Y13690D3*
Y14359D3*
X13440Y16190D3*
Y16859D3*
Y19440D3*
Y20109D3*
D17*
X30253Y20440D3*
Y21188D3*
X28753Y20440D3*
Y21188D3*
X27253Y20440D3*
Y21188D3*
X25753Y20440D3*
Y21188D3*
X24253Y20440D3*
Y21188D3*
X22753Y20440D3*
Y21188D3*
X21253Y20440D3*
Y21188D3*
D18*
X18690Y8940D3*
D19*
X17690D3*
X16690D3*
X15690D3*
X14690D3*
X13690D3*
D18*
Y21752D3*
D19*
X14690D3*
X15690D3*
X16690D3*
X17690D3*
X18690D3*
D18*
X31690Y11440D3*
D19*
X32690D3*
X33690D3*
D18*
X28190D3*
D19*
X29190D3*
X30190D3*
D18*
X24690D3*
D19*
X25690D3*
X26690D3*
D18*
X23690Y7690D3*
D19*
X22690D3*
X21690D3*
X20690D3*
D15*
X32525Y9940D3*
X31855D3*
X33355D3*
X34025D3*
X29025D3*
X28355D3*
X29855D3*
X30525D3*
X25525D3*
X24855D3*
X26355D3*
X27025D3*
D16*
X12940Y14359D3*
Y13690D3*
X12690Y16859D3*
Y16190D3*
Y18815D3*
Y19484D3*
X27253Y21940D3*
Y22609D3*
X28753Y21940D3*
Y22609D3*
X30253Y21940D3*
Y22609D3*
X25753Y21940D3*
Y22609D3*
X21253Y21940D3*
Y22609D3*
X22753Y21940D3*
Y22609D3*
X24253Y21940D3*
Y22609D3*
D20*
X11690Y6190D3*
X12690D3*
X13690D3*
X14690D3*
X15690D3*
X16690D3*
X17690D3*
X18690D3*
X19690D3*
X20690D3*
X21690D3*
X22690D3*
X23690D3*
X24690D3*
X25690D3*
X26690D3*
X27690D3*
X28690D3*
X29690D3*
X30690D3*
X31690D3*
X32690D3*
X33690D3*
Y5190D3*
X32690D3*
X31690D3*
X30690D3*
X29690D3*
X28690D3*
X27690D3*
X26690D3*
X25690D3*
X24690D3*
X23690D3*
X22690D3*
X21690D3*
X20690D3*
X19690D3*
X18690D3*
X17690D3*
X16690D3*
X15690D3*
X14690D3*
X13690D3*
X12690D3*
X11690D3*
Y25190D3*
X12690D3*
X13690D3*
X14690D3*
X15690D3*
X16690D3*
X17690D3*
X18690D3*
X19690D3*
X20690D3*
X21690D3*
X22690D3*
X23690D3*
X24690D3*
X25690D3*
X26690D3*
X27690D3*
X28690D3*
X29690D3*
X30690D3*
X31690D3*
X32690D3*
X33690D3*
Y24190D3*
X32690D3*
X31690D3*
X30690D3*
X29690D3*
X28690D3*
X27690D3*
X26690D3*
X25690D3*
X24690D3*
X23690D3*
X22690D3*
X21690D3*
X20690D3*
X19690D3*
X18690D3*
X17690D3*
X16690D3*
X15690D3*
X14690D3*
X13690D3*
X12690D3*
X11690D3*
D21*
X19940Y14940D3*
D22*
X20940D3*
X21940D3*
X22940D3*
X23940D3*
X24940D3*
X25940D3*
X26940D3*
Y17940D3*
X25940D3*
X24940D3*
X23940D3*
X22940D3*
X21940D3*
X20940D3*
X19940D3*
D24*
X14630Y20720D3*
X17190D3*
X14630Y18940D3*
X17190D3*
X14630Y17720D3*
X17190D3*
X14630Y15940D3*
X17190D3*
X14630Y14720D3*
X17190D3*
X14630Y12940D3*
X17190D3*
D25*
X10190Y8440D3*
D26*
Y9440D3*
Y10440D3*
D27*
X11690D3*
D28*
Y9440D3*
D27*
X8190D3*
D28*
Y8440D3*
D18*
X6690D3*
D19*
Y9440D3*
D29*
X10690Y4690D3*
X31780Y21875D2*
D60*
Y18861D1*
X33073D1*
X33504Y19006D1*
X33647Y19149D1*
X33790Y19434D1*
Y19865D1*
X33647Y20154D1*
X33504Y20296D1*
X33073Y20439D1*
X33504Y20585D1*
X33647Y20728D1*
X33790Y21013D1*
Y21301D1*
X33647Y21586D1*
X33504Y21732D1*
X33073Y21875D1*
X31780D1*
Y20439D2*
X33073D1*
M02*
