G04 DipTrace 2.4.0.2*
%INTopAssy.gbr*%
%MOIN*%
%ADD10C,0.0098*%
%ADD23C,0.008*%
%ADD60C,0.0031*%
%FSLAX44Y44*%
G04*
G70*
G90*
G75*
G01*
%LNTopAssy*%
%LPD*%
X19481Y8342D2*
D10*
X12899D1*
Y22351D2*
X19481D1*
X30796Y12038D2*
X34584D1*
X27296D2*
X31084D1*
X23796D2*
X27584D1*
X24584Y7092D2*
X19796D1*
X17110Y20230D2*
D23*
Y20830D1*
X16910Y21030D1*
Y18630D2*
X17110Y18830D1*
Y19430D1*
X14910Y21030D2*
X14710Y20830D1*
Y20230D1*
X14910Y18630D2*
X14710Y18830D1*
Y19430D1*
X16910Y18630D2*
X16760D1*
X14910D2*
X15060D1*
X14910Y21030D2*
X15060D1*
X16910D2*
X16760D1*
X14910Y20330D2*
Y20030D1*
Y19630D2*
Y19330D1*
Y20030D2*
X15060Y19680D1*
X17110Y17230D2*
Y17830D1*
X16910Y18030D1*
Y15630D2*
X17110Y15830D1*
Y16430D1*
X14910Y18030D2*
X14710Y17830D1*
Y17230D1*
X14910Y15630D2*
X14710Y15830D1*
Y16430D1*
X16910Y15630D2*
X16760D1*
X14910D2*
X15060D1*
X14910Y18030D2*
X15060D1*
X16910D2*
X16760D1*
X14910Y17330D2*
Y17030D1*
Y16630D2*
Y16330D1*
Y17030D2*
X15060Y16680D1*
X17110Y14230D2*
Y14830D1*
X16910Y15030D1*
Y12630D2*
X17110Y12830D1*
Y13430D1*
X14910Y15030D2*
X14710Y14830D1*
Y14230D1*
X14910Y12630D2*
X14710Y12830D1*
Y13430D1*
X16910Y12630D2*
X16760D1*
X14910D2*
X15060D1*
X14910Y15030D2*
X15060D1*
X16910D2*
X16760D1*
X14910Y14330D2*
Y14030D1*
Y13630D2*
Y13330D1*
Y14030D2*
X15060Y13680D1*
X6092Y7546D2*
D10*
Y10334D1*
X17184Y7959D2*
D60*
Y8160D1*
X17098D1*
X17069Y8150D1*
X17060Y8140D1*
X17050Y8121D1*
Y8093D1*
X17060Y8073D1*
X17069Y8064D1*
X17098Y8054D1*
X17069Y8045D1*
X17060Y8035D1*
X17050Y8016D1*
Y7997D1*
X17060Y7978D1*
X17069Y7968D1*
X17098Y7959D1*
X17184D1*
Y8054D2*
X17098D1*
X16931Y7959D2*
X16950Y7968D1*
X16969Y7987D1*
X16979Y8006D1*
X16989Y8035D1*
Y8083D1*
X16979Y8112D1*
X16969Y8131D1*
X16950Y8150D1*
X16931Y8160D1*
X16893D1*
X16874Y8150D1*
X16855Y8131D1*
X16845Y8112D1*
X16836Y8083D1*
Y8035D1*
X16845Y8006D1*
X16855Y7987D1*
X16874Y7968D1*
X16893Y7959D1*
X16931D1*
X16621Y8160D2*
X16697Y7959D1*
X16774Y8160D1*
X16745Y8093D2*
X16649D1*
X16559Y8054D2*
X16473D1*
X16444Y8045D1*
X16434Y8035D1*
X16425Y8016D1*
Y7997D1*
X16434Y7978D1*
X16444Y7968D1*
X16473Y7959D1*
X16559D1*
Y8160D1*
X16492Y8054D2*
X16425Y8160D1*
X16363Y7959D2*
Y8160D1*
X16296D1*
X16267Y8150D1*
X16248Y8131D1*
X16239Y8112D1*
X16229Y8083D1*
Y8035D1*
X16239Y8006D1*
X16248Y7987D1*
X16267Y7968D1*
X16296Y7959D1*
X16363D1*
X15849D2*
X15973D1*
Y8160D1*
X15849D1*
X15973Y8054D2*
X15897D1*
X15787Y7959D2*
Y8160D1*
X15720D1*
X15691Y8150D1*
X15672Y8131D1*
X15663Y8112D1*
X15653Y8083D1*
Y8035D1*
X15663Y8006D1*
X15672Y7987D1*
X15691Y7968D1*
X15720Y7959D1*
X15787D1*
X15448Y8006D2*
X15457Y7987D1*
X15477Y7968D1*
X15496Y7959D1*
X15534D1*
X15553Y7968D1*
X15572Y7987D1*
X15582Y8006D1*
X15591Y8035D1*
Y8083D1*
X15582Y8112D1*
X15572Y8131D1*
X15553Y8150D1*
X15534Y8160D1*
X15496D1*
X15477Y8150D1*
X15457Y8131D1*
X15448Y8112D1*
Y8083D1*
X15496D1*
X15262Y7959D2*
X15386D1*
Y8160D1*
X15262D1*
X15386Y8054D2*
X15310D1*
X15196Y22734D2*
Y22533D1*
X15282D1*
X15311Y22543D1*
X15320Y22552D1*
X15330Y22571D1*
Y22600D1*
X15320Y22619D1*
X15311Y22629D1*
X15282Y22638D1*
X15311Y22648D1*
X15320Y22657D1*
X15330Y22676D1*
Y22696D1*
X15320Y22715D1*
X15311Y22724D1*
X15282Y22734D1*
X15196D1*
Y22638D2*
X15282D1*
X15449Y22734D2*
X15430Y22724D1*
X15411Y22705D1*
X15401Y22686D1*
X15391Y22657D1*
Y22609D1*
X15401Y22581D1*
X15411Y22562D1*
X15430Y22543D1*
X15449Y22533D1*
X15487D1*
X15506Y22543D1*
X15525Y22562D1*
X15535Y22581D1*
X15544Y22609D1*
Y22657D1*
X15535Y22686D1*
X15525Y22705D1*
X15506Y22724D1*
X15487Y22734D1*
X15449D1*
X15759Y22533D2*
X15683Y22734D1*
X15606Y22533D1*
X15635Y22600D2*
X15731D1*
X15821Y22638D2*
X15907D1*
X15936Y22648D1*
X15946Y22657D1*
X15955Y22676D1*
Y22696D1*
X15946Y22715D1*
X15936Y22724D1*
X15907Y22734D1*
X15821D1*
Y22533D1*
X15888Y22638D2*
X15955Y22533D1*
X16017Y22734D2*
Y22533D1*
X16084D1*
X16113Y22543D1*
X16132Y22562D1*
X16141Y22581D1*
X16151Y22609D1*
Y22657D1*
X16141Y22686D1*
X16132Y22705D1*
X16113Y22724D1*
X16084Y22734D1*
X16017D1*
X16531D2*
X16407D1*
Y22533D1*
X16531D1*
X16407Y22638D2*
X16483D1*
X16593Y22734D2*
Y22533D1*
X16660D1*
X16689Y22543D1*
X16708Y22562D1*
X16717Y22581D1*
X16727Y22609D1*
Y22657D1*
X16717Y22686D1*
X16708Y22705D1*
X16689Y22724D1*
X16660Y22734D1*
X16593D1*
X16932Y22686D2*
X16923Y22705D1*
X16903Y22724D1*
X16884Y22734D1*
X16846D1*
X16827Y22724D1*
X16808Y22705D1*
X16798Y22686D1*
X16789Y22657D1*
Y22609D1*
X16798Y22581D1*
X16808Y22562D1*
X16827Y22543D1*
X16846Y22533D1*
X16884D1*
X16903Y22543D1*
X16923Y22562D1*
X16932Y22581D1*
Y22609D1*
X16884D1*
X17118Y22734D2*
X16994D1*
Y22533D1*
X17118D1*
X16994Y22638D2*
X17070D1*
X31706Y12372D2*
Y12171D1*
X31792D1*
X31821Y12181D1*
X31830Y12190D1*
X31840Y12209D1*
Y12238D1*
X31830Y12257D1*
X31821Y12267D1*
X31792Y12276D1*
X31821Y12286D1*
X31830Y12296D1*
X31840Y12315D1*
Y12334D1*
X31830Y12353D1*
X31821Y12363D1*
X31792Y12372D1*
X31706D1*
Y12276D2*
X31792D1*
X31959Y12372D2*
X31940Y12363D1*
X31921Y12343D1*
X31911Y12324D1*
X31901Y12296D1*
Y12248D1*
X31911Y12219D1*
X31921Y12200D1*
X31940Y12181D1*
X31959Y12171D1*
X31997D1*
X32016Y12181D1*
X32035Y12200D1*
X32045Y12219D1*
X32054Y12248D1*
Y12296D1*
X32045Y12324D1*
X32035Y12343D1*
X32016Y12363D1*
X31997Y12372D1*
X31959D1*
X32269Y12171D2*
X32193Y12372D1*
X32116Y12171D1*
X32145Y12238D2*
X32241D1*
X32331Y12276D2*
X32417D1*
X32446Y12286D1*
X32455Y12296D1*
X32465Y12315D1*
Y12334D1*
X32455Y12353D1*
X32446Y12363D1*
X32417Y12372D1*
X32331D1*
Y12171D1*
X32398Y12276D2*
X32465Y12171D1*
X32527Y12372D2*
Y12171D1*
X32594D1*
X32622Y12181D1*
X32642Y12200D1*
X32651Y12219D1*
X32661Y12248D1*
Y12296D1*
X32651Y12324D1*
X32642Y12343D1*
X32622Y12363D1*
X32594Y12372D1*
X32527D1*
X33041D2*
X32917D1*
Y12171D1*
X33041D1*
X32917Y12276D2*
X32993D1*
X33103Y12372D2*
Y12171D1*
X33170D1*
X33199Y12181D1*
X33218Y12200D1*
X33227Y12219D1*
X33237Y12248D1*
Y12296D1*
X33227Y12324D1*
X33218Y12343D1*
X33199Y12363D1*
X33170Y12372D1*
X33103D1*
X33442Y12324D2*
X33433Y12343D1*
X33413Y12363D1*
X33394Y12372D1*
X33356D1*
X33337Y12363D1*
X33318Y12343D1*
X33308Y12324D1*
X33299Y12296D1*
Y12248D1*
X33308Y12219D1*
X33318Y12200D1*
X33337Y12181D1*
X33356Y12171D1*
X33394D1*
X33413Y12181D1*
X33433Y12200D1*
X33442Y12219D1*
Y12248D1*
X33394D1*
X33628Y12372D2*
X33504D1*
Y12171D1*
X33628D1*
X33504Y12276D2*
X33580D1*
X28206Y12372D2*
Y12171D1*
X28292D1*
X28321Y12181D1*
X28330Y12190D1*
X28340Y12209D1*
Y12238D1*
X28330Y12257D1*
X28321Y12267D1*
X28292Y12276D1*
X28321Y12286D1*
X28330Y12296D1*
X28340Y12315D1*
Y12334D1*
X28330Y12353D1*
X28321Y12363D1*
X28292Y12372D1*
X28206D1*
Y12276D2*
X28292D1*
X28459Y12372D2*
X28440Y12363D1*
X28421Y12343D1*
X28411Y12324D1*
X28401Y12296D1*
Y12248D1*
X28411Y12219D1*
X28421Y12200D1*
X28440Y12181D1*
X28459Y12171D1*
X28497D1*
X28516Y12181D1*
X28535Y12200D1*
X28545Y12219D1*
X28554Y12248D1*
Y12296D1*
X28545Y12324D1*
X28535Y12343D1*
X28516Y12363D1*
X28497Y12372D1*
X28459D1*
X28769Y12171D2*
X28693Y12372D1*
X28616Y12171D1*
X28645Y12238D2*
X28741D1*
X28831Y12276D2*
X28917D1*
X28946Y12286D1*
X28955Y12296D1*
X28965Y12315D1*
Y12334D1*
X28955Y12353D1*
X28946Y12363D1*
X28917Y12372D1*
X28831D1*
Y12171D1*
X28898Y12276D2*
X28965Y12171D1*
X29027Y12372D2*
Y12171D1*
X29094D1*
X29122Y12181D1*
X29142Y12200D1*
X29151Y12219D1*
X29161Y12248D1*
Y12296D1*
X29151Y12324D1*
X29142Y12343D1*
X29122Y12363D1*
X29094Y12372D1*
X29027D1*
X29541D2*
X29417D1*
Y12171D1*
X29541D1*
X29417Y12276D2*
X29493D1*
X29603Y12372D2*
Y12171D1*
X29670D1*
X29699Y12181D1*
X29718Y12200D1*
X29727Y12219D1*
X29737Y12248D1*
Y12296D1*
X29727Y12324D1*
X29718Y12343D1*
X29699Y12363D1*
X29670Y12372D1*
X29603D1*
X29942Y12324D2*
X29933Y12343D1*
X29913Y12363D1*
X29894Y12372D1*
X29856D1*
X29837Y12363D1*
X29818Y12343D1*
X29808Y12324D1*
X29799Y12296D1*
Y12248D1*
X29808Y12219D1*
X29818Y12200D1*
X29837Y12181D1*
X29856Y12171D1*
X29894D1*
X29913Y12181D1*
X29933Y12200D1*
X29942Y12219D1*
Y12248D1*
X29894D1*
X30128Y12372D2*
X30004D1*
Y12171D1*
X30128D1*
X30004Y12276D2*
X30080D1*
X24706Y12372D2*
Y12171D1*
X24792D1*
X24821Y12181D1*
X24830Y12190D1*
X24840Y12209D1*
Y12238D1*
X24830Y12257D1*
X24821Y12267D1*
X24792Y12276D1*
X24821Y12286D1*
X24830Y12296D1*
X24840Y12315D1*
Y12334D1*
X24830Y12353D1*
X24821Y12363D1*
X24792Y12372D1*
X24706D1*
Y12276D2*
X24792D1*
X24959Y12372D2*
X24940Y12363D1*
X24921Y12343D1*
X24911Y12324D1*
X24901Y12296D1*
Y12248D1*
X24911Y12219D1*
X24921Y12200D1*
X24940Y12181D1*
X24959Y12171D1*
X24997D1*
X25016Y12181D1*
X25035Y12200D1*
X25045Y12219D1*
X25054Y12248D1*
Y12296D1*
X25045Y12324D1*
X25035Y12343D1*
X25016Y12363D1*
X24997Y12372D1*
X24959D1*
X25269Y12171D2*
X25193Y12372D1*
X25116Y12171D1*
X25145Y12238D2*
X25241D1*
X25331Y12276D2*
X25417D1*
X25446Y12286D1*
X25455Y12296D1*
X25465Y12315D1*
Y12334D1*
X25455Y12353D1*
X25446Y12363D1*
X25417Y12372D1*
X25331D1*
Y12171D1*
X25398Y12276D2*
X25465Y12171D1*
X25527Y12372D2*
Y12171D1*
X25594D1*
X25622Y12181D1*
X25642Y12200D1*
X25651Y12219D1*
X25661Y12248D1*
Y12296D1*
X25651Y12324D1*
X25642Y12343D1*
X25622Y12363D1*
X25594Y12372D1*
X25527D1*
X26041D2*
X25917D1*
Y12171D1*
X26041D1*
X25917Y12276D2*
X25993D1*
X26103Y12372D2*
Y12171D1*
X26170D1*
X26199Y12181D1*
X26218Y12200D1*
X26227Y12219D1*
X26237Y12248D1*
Y12296D1*
X26227Y12324D1*
X26218Y12343D1*
X26199Y12363D1*
X26170Y12372D1*
X26103D1*
X26442Y12324D2*
X26433Y12343D1*
X26413Y12363D1*
X26394Y12372D1*
X26356D1*
X26337Y12363D1*
X26318Y12343D1*
X26308Y12324D1*
X26299Y12296D1*
Y12248D1*
X26308Y12219D1*
X26318Y12200D1*
X26337Y12181D1*
X26356Y12171D1*
X26394D1*
X26413Y12181D1*
X26433Y12200D1*
X26442Y12219D1*
Y12248D1*
X26394D1*
X26628Y12372D2*
X26504D1*
Y12171D1*
X26628D1*
X26504Y12276D2*
X26580D1*
X23184Y6758D2*
Y6959D1*
X23098D1*
X23069Y6949D1*
X23060Y6940D1*
X23050Y6921D1*
Y6892D1*
X23060Y6873D1*
X23069Y6863D1*
X23098Y6854D1*
X23069Y6844D1*
X23060Y6834D1*
X23050Y6815D1*
Y6796D1*
X23060Y6777D1*
X23069Y6767D1*
X23098Y6758D1*
X23184D1*
Y6854D2*
X23098D1*
X22931Y6758D2*
X22950Y6767D1*
X22969Y6787D1*
X22979Y6806D1*
X22988Y6834D1*
Y6882D1*
X22979Y6911D1*
X22969Y6930D1*
X22950Y6949D1*
X22931Y6959D1*
X22893D1*
X22874Y6949D1*
X22855Y6930D1*
X22845Y6911D1*
X22836Y6882D1*
Y6834D1*
X22845Y6806D1*
X22855Y6787D1*
X22874Y6767D1*
X22893Y6758D1*
X22931D1*
X22621Y6959D2*
X22697Y6758D1*
X22774Y6959D1*
X22745Y6892D2*
X22649D1*
X22559Y6854D2*
X22473D1*
X22444Y6844D1*
X22434Y6834D1*
X22425Y6815D1*
Y6796D1*
X22434Y6777D1*
X22444Y6767D1*
X22473Y6758D1*
X22559D1*
Y6959D1*
X22492Y6854D2*
X22425Y6959D1*
X22363Y6758D2*
Y6959D1*
X22296D1*
X22267Y6949D1*
X22248Y6930D1*
X22239Y6911D1*
X22229Y6882D1*
Y6834D1*
X22239Y6806D1*
X22248Y6787D1*
X22267Y6767D1*
X22296Y6758D1*
X22363D1*
X21849D2*
X21973D1*
Y6959D1*
X21849D1*
X21973Y6854D2*
X21896D1*
X21787Y6758D2*
Y6959D1*
X21720D1*
X21691Y6949D1*
X21672Y6930D1*
X21662Y6911D1*
X21653Y6882D1*
Y6834D1*
X21662Y6806D1*
X21672Y6787D1*
X21691Y6767D1*
X21720Y6758D1*
X21787D1*
X21448Y6806D2*
X21457Y6787D1*
X21476Y6767D1*
X21495Y6758D1*
X21534D1*
X21553Y6767D1*
X21572Y6787D1*
X21582Y6806D1*
X21591Y6834D1*
Y6882D1*
X21582Y6911D1*
X21572Y6930D1*
X21553Y6949D1*
X21534Y6959D1*
X21495D1*
X21476Y6949D1*
X21457Y6930D1*
X21448Y6911D1*
Y6882D1*
X21495D1*
X21262Y6758D2*
X21386D1*
Y6959D1*
X21262D1*
X21386Y6854D2*
X21309D1*
X5758Y7955D2*
X5959D1*
Y8042D1*
X5949Y8070D1*
X5940Y8080D1*
X5921Y8089D1*
X5892D1*
X5873Y8080D1*
X5863Y8070D1*
X5854Y8042D1*
X5844Y8070D1*
X5834Y8080D1*
X5815Y8089D1*
X5796D1*
X5777Y8080D1*
X5767Y8070D1*
X5758Y8042D1*
Y7955D1*
X5854D2*
Y8042D1*
X5758Y8209D2*
X5767Y8189D1*
X5787Y8170D1*
X5806Y8161D1*
X5834Y8151D1*
X5882D1*
X5911Y8161D1*
X5930Y8170D1*
X5949Y8189D1*
X5959Y8209D1*
Y8247D1*
X5949Y8266D1*
X5930Y8285D1*
X5911Y8295D1*
X5882Y8304D1*
X5834D1*
X5806Y8295D1*
X5787Y8285D1*
X5767Y8266D1*
X5758Y8247D1*
Y8209D1*
X5959Y8519D2*
X5758Y8442D1*
X5959Y8366D1*
X5892Y8395D2*
Y8490D1*
X5854Y8581D2*
Y8667D1*
X5844Y8695D1*
X5834Y8705D1*
X5815Y8715D1*
X5796D1*
X5777Y8705D1*
X5767Y8695D1*
X5758Y8667D1*
Y8581D1*
X5959D1*
X5854Y8648D2*
X5959Y8715D1*
X5758Y8776D2*
X5959D1*
Y8843D1*
X5949Y8872D1*
X5930Y8891D1*
X5911Y8901D1*
X5882Y8910D1*
X5834D1*
X5806Y8901D1*
X5787Y8891D1*
X5767Y8872D1*
X5758Y8843D1*
Y8776D1*
Y9291D2*
Y9167D1*
X5959D1*
Y9291D1*
X5854Y9167D2*
Y9243D1*
X5758Y9353D2*
X5959D1*
Y9420D1*
X5949Y9448D1*
X5930Y9468D1*
X5911Y9477D1*
X5882Y9487D1*
X5834D1*
X5806Y9477D1*
X5787Y9468D1*
X5767Y9448D1*
X5758Y9420D1*
Y9353D1*
X5806Y9692D2*
X5787Y9682D1*
X5767Y9663D1*
X5758Y9644D1*
Y9606D1*
X5767Y9587D1*
X5787Y9568D1*
X5806Y9558D1*
X5834Y9548D1*
X5882D1*
X5911Y9558D1*
X5930Y9568D1*
X5949Y9587D1*
X5959Y9606D1*
Y9644D1*
X5949Y9663D1*
X5930Y9682D1*
X5911Y9692D1*
X5882D1*
Y9644D1*
X5758Y9878D2*
Y9754D1*
X5959D1*
Y9878D1*
X5854Y9754D2*
Y9830D1*
M02*
