G04 DipTrace 2.4.0.2*
%INBottomMask.gbr*%
%MOIN*%
%ADD15C,0.125*%
%ADD18R,0.073X0.073*%
%FSLAX44Y44*%
G04*
G70*
G90*
G75*
G01*
%LNBotMask*%
%LPD*%
D18*
X28690Y16425D3*
X29690D3*
X30690D3*
X31690D3*
X32690D3*
X33690D3*
X34690D3*
X35690D3*
X36690D3*
X37690D3*
X38690D3*
X39690D3*
X40690D3*
X41690D3*
X42690D3*
X43690D3*
X44690D3*
X45690D3*
X46690D3*
X47690D3*
X48690D3*
X49690D3*
X50690D3*
Y15425D3*
X49690D3*
X48690D3*
X47690D3*
X46690D3*
X45690D3*
X44690D3*
X43690D3*
X42690D3*
X41690D3*
X40690D3*
X39690D3*
X38690D3*
X37690D3*
X36690D3*
X35690D3*
X34690D3*
X33690D3*
X32690D3*
X31690D3*
X30690D3*
X29690D3*
X28690D3*
Y35425D3*
X29690D3*
X30690D3*
X31690D3*
X32690D3*
X33690D3*
X34690D3*
X35690D3*
X36690D3*
X37690D3*
X38690D3*
X39690D3*
X40690D3*
X41690D3*
X42690D3*
X43690D3*
X44690D3*
X45690D3*
X46690D3*
X47690D3*
X48690D3*
X49690D3*
X50690D3*
Y34425D3*
X49690D3*
X48690D3*
X47690D3*
X46690D3*
X45690D3*
X44690D3*
X43690D3*
X42690D3*
X41690D3*
X40690D3*
X39690D3*
X38690D3*
X37690D3*
X36690D3*
X35690D3*
X34690D3*
X33690D3*
X32690D3*
X31690D3*
X30690D3*
X29690D3*
X28690D3*
D15*
X52690Y33675D3*
Y17175D3*
X26690Y34925D3*
Y15925D3*
M02*
