G04 DipTrace 2.4.0.2*
%INBottom.gbr*%
%MOIN*%
%ADD13C,0.01*%
%ADD14R,0.065X0.065*%
%FSLAX44Y44*%
G04*
G70*
G90*
G75*
G01*
%LNBottom*%
%LPD*%
X23751Y36526D2*
D13*
X55131D1*
X23752Y36427D2*
X55131D1*
X23752Y36329D2*
X55131D1*
X23754Y36230D2*
X55131D1*
X23755Y36131D2*
X55131D1*
X23755Y36033D2*
X27992D1*
X51388D2*
X55131D1*
X23757Y35934D2*
X27992D1*
X51388D2*
X55131D1*
X23757Y35835D2*
X26295D1*
X27085D2*
X27992D1*
X51388D2*
X55131D1*
X23759Y35737D2*
X26115D1*
X27265D2*
X27992D1*
X51388D2*
X55131D1*
X23760Y35638D2*
X25995D1*
X27385D2*
X27992D1*
X51388D2*
X55131D1*
X23760Y35539D2*
X25906D1*
X27474D2*
X27992D1*
X51388D2*
X55131D1*
X23762Y35441D2*
X25837D1*
X27543D2*
X27992D1*
X51388D2*
X55131D1*
X23762Y35342D2*
X25784D1*
X27596D2*
X27992D1*
X51388D2*
X55131D1*
X23763Y35243D2*
X25743D1*
X27637D2*
X27992D1*
X51388D2*
X55131D1*
X23763Y35145D2*
X25715D1*
X27665D2*
X27992D1*
X51388D2*
X55131D1*
X23765Y35046D2*
X25698D1*
X27682D2*
X27992D1*
X51388D2*
X55131D1*
X23766Y34947D2*
X25692D1*
X27688D2*
X27992D1*
X51388D2*
X55131D1*
X23766Y34848D2*
X25695D1*
X27685D2*
X27992D1*
X51388D2*
X55131D1*
X23768Y34750D2*
X25707D1*
X27673D2*
X27992D1*
X51388D2*
X55131D1*
X23768Y34651D2*
X25729D1*
X27651D2*
X28992D1*
X51388D2*
X52523D1*
X52857D2*
X55131D1*
X23770Y34552D2*
X25764D1*
X27616D2*
X28992D1*
X51388D2*
X52225D1*
X53155D2*
X55131D1*
X23771Y34454D2*
X25810D1*
X27570D2*
X28992D1*
X51388D2*
X52071D1*
X53309D2*
X55131D1*
X23771Y34355D2*
X25871D1*
X27509D2*
X28992D1*
X51388D2*
X51962D1*
X53418D2*
X55131D1*
X23773Y34256D2*
X25951D1*
X27429D2*
X28992D1*
X51388D2*
X51881D1*
X53499D2*
X55131D1*
X23773Y34158D2*
X26056D1*
X27324D2*
X28992D1*
X51388D2*
X51817D1*
X53563D2*
X55131D1*
X23774Y34059D2*
X26203D1*
X27177D2*
X28992D1*
X51388D2*
X51768D1*
X53612D2*
X55131D1*
X23776Y33960D2*
X26462D1*
X26918D2*
X28992D1*
X51388D2*
X51734D1*
X53646D2*
X55131D1*
X23776Y33862D2*
X28992D1*
X51388D2*
X51709D1*
X53671D2*
X55131D1*
X23777Y33763D2*
X28992D1*
X51388D2*
X51695D1*
X53685D2*
X55131D1*
X23777Y33664D2*
X51692D1*
X53688D2*
X55131D1*
X23779Y33566D2*
X51698D1*
X53682D2*
X55131D1*
X23779Y33467D2*
X51714D1*
X53666D2*
X55131D1*
X23780Y33368D2*
X51740D1*
X53640D2*
X55131D1*
X23782Y33269D2*
X51778D1*
X53602D2*
X55131D1*
X23782Y33171D2*
X51829D1*
X53551D2*
X55131D1*
X23784Y33072D2*
X51896D1*
X53484D2*
X55131D1*
X23784Y32973D2*
X51982D1*
X53398D2*
X55131D1*
X23785Y32875D2*
X52100D1*
X53280D2*
X55131D1*
X23787Y32776D2*
X52268D1*
X53112D2*
X55131D1*
X23787Y32677D2*
X55131D1*
X23788Y32579D2*
X55131D1*
X23788Y32480D2*
X55131D1*
X23790Y32381D2*
X55131D1*
X23790Y32283D2*
X55131D1*
X23791Y32184D2*
X55131D1*
X23793Y32085D2*
X55131D1*
X23793Y31987D2*
X55131D1*
X23795Y31888D2*
X55131D1*
X23795Y31789D2*
X55131D1*
X23796Y31690D2*
X55131D1*
X23798Y31592D2*
X55131D1*
X23798Y31493D2*
X55131D1*
X23799Y31394D2*
X55131D1*
X23799Y31296D2*
X55131D1*
X23801Y31197D2*
X55131D1*
X23801Y31098D2*
X55131D1*
X23802Y31000D2*
X55131D1*
X23804Y30901D2*
X55131D1*
X23804Y30802D2*
X55131D1*
X23805Y30704D2*
X55131D1*
X23805Y30605D2*
X55131D1*
X23807Y30506D2*
X55131D1*
X23809Y30408D2*
X55131D1*
X23809Y30309D2*
X55131D1*
X23810Y30210D2*
X55131D1*
X23810Y30111D2*
X55131D1*
X23812Y30013D2*
X55131D1*
X28999Y29914D2*
X55131D1*
X28999Y29815D2*
X55131D1*
X28999Y29717D2*
X55131D1*
X28999Y29618D2*
X55131D1*
X28999Y29519D2*
X55131D1*
X28999Y29421D2*
X55131D1*
X28999Y29322D2*
X55131D1*
X28999Y29223D2*
X55131D1*
X28999Y29125D2*
X55131D1*
X28999Y29026D2*
X55131D1*
X28999Y28927D2*
X55131D1*
X28999Y28829D2*
X55131D1*
X28999Y28730D2*
X55131D1*
X28999Y28631D2*
X55131D1*
X28999Y28532D2*
X55131D1*
X28999Y28434D2*
X55131D1*
X28999Y28335D2*
X55131D1*
X28999Y28236D2*
X55131D1*
X28999Y28138D2*
X55131D1*
X28999Y28039D2*
X55131D1*
X28999Y27940D2*
X55131D1*
X28999Y27842D2*
X55131D1*
X28999Y27743D2*
X55131D1*
X28999Y27644D2*
X55131D1*
X28999Y27546D2*
X55131D1*
X28999Y27447D2*
X55131D1*
X28999Y27348D2*
X55131D1*
X28999Y27250D2*
X55131D1*
X28999Y27151D2*
X55131D1*
X28999Y27052D2*
X55131D1*
X28999Y26953D2*
X55131D1*
X28999Y26855D2*
X55131D1*
X28999Y26756D2*
X55131D1*
X28999Y26657D2*
X55131D1*
X28999Y26559D2*
X55131D1*
X28999Y26460D2*
X55131D1*
X28999Y26361D2*
X55131D1*
X28999Y26263D2*
X55131D1*
X28999Y26164D2*
X55131D1*
X28999Y26065D2*
X55131D1*
X28999Y25967D2*
X55131D1*
X28999Y25868D2*
X55131D1*
X28999Y25769D2*
X55131D1*
X28999Y25671D2*
X55131D1*
X28999Y25572D2*
X55131D1*
X28999Y25473D2*
X55131D1*
X28999Y25374D2*
X55131D1*
X28999Y25276D2*
X55131D1*
X28999Y25177D2*
X55131D1*
X28999Y25078D2*
X55131D1*
X28999Y24980D2*
X55131D1*
X28999Y24881D2*
X55131D1*
X28999Y24782D2*
X55131D1*
X28999Y24684D2*
X55131D1*
X28999Y24585D2*
X55131D1*
X28999Y24486D2*
X55131D1*
X28999Y24388D2*
X55131D1*
X28999Y24289D2*
X55131D1*
X28999Y24190D2*
X55131D1*
X28999Y24092D2*
X55131D1*
X28999Y23993D2*
X55131D1*
X28999Y23894D2*
X55131D1*
X28999Y23795D2*
X55131D1*
X28999Y23697D2*
X55131D1*
X28999Y23598D2*
X55131D1*
X28999Y23499D2*
X55131D1*
X28999Y23401D2*
X55131D1*
X28999Y23302D2*
X55131D1*
X28999Y23203D2*
X55131D1*
X28999Y23105D2*
X55131D1*
X28999Y23006D2*
X55131D1*
X28996Y22907D2*
X55131D1*
X21000Y22809D2*
X55131D1*
X21000Y22710D2*
X55131D1*
X21000Y22611D2*
X55131D1*
X21000Y22513D2*
X55131D1*
X21000Y22414D2*
X55131D1*
X21000Y22315D2*
X55131D1*
X21000Y22216D2*
X55131D1*
X21000Y22118D2*
X55131D1*
X21000Y22019D2*
X55131D1*
X21000Y21920D2*
X55131D1*
X21000Y21822D2*
X55131D1*
X21000Y21723D2*
X55131D1*
X21000Y21624D2*
X55131D1*
X21000Y21526D2*
X55131D1*
X21000Y21427D2*
X55131D1*
X21000Y21328D2*
X55131D1*
X21000Y21230D2*
X55131D1*
X21000Y21131D2*
X55131D1*
X21000Y21032D2*
X55131D1*
X21000Y20933D2*
X55131D1*
X21000Y20835D2*
X55131D1*
X21000Y20736D2*
X55131D1*
X21000Y20637D2*
X55131D1*
X21000Y20539D2*
X55131D1*
X21000Y20440D2*
X55131D1*
X21000Y20341D2*
X55131D1*
X21000Y20243D2*
X55131D1*
X21000Y20144D2*
X55131D1*
X21000Y20045D2*
X55131D1*
X21000Y19947D2*
X55131D1*
X21000Y19848D2*
X55131D1*
X21000Y19749D2*
X55131D1*
X21000Y19651D2*
X55131D1*
X21000Y19552D2*
X55131D1*
X21000Y19453D2*
X55131D1*
X21000Y19354D2*
X55131D1*
X21000Y19256D2*
X55131D1*
X21000Y19157D2*
X55131D1*
X21000Y19058D2*
X55131D1*
X21000Y18960D2*
X55131D1*
X21000Y18861D2*
X55131D1*
X21000Y18762D2*
X55131D1*
X21000Y18664D2*
X55131D1*
X21000Y18565D2*
X55131D1*
X21000Y18466D2*
X55131D1*
X21000Y18368D2*
X55131D1*
X21000Y18269D2*
X55131D1*
X21000Y18170D2*
X55131D1*
X21000Y18072D2*
X52264D1*
X53116D2*
X55131D1*
X21000Y17973D2*
X52096D1*
X53284D2*
X55131D1*
X21000Y17874D2*
X51981D1*
X53399D2*
X55131D1*
X21000Y17775D2*
X51895D1*
X53485D2*
X55131D1*
X21000Y17677D2*
X51828D1*
X53552D2*
X55131D1*
X21000Y17578D2*
X51778D1*
X53602D2*
X55131D1*
X21000Y17479D2*
X51739D1*
X53641D2*
X55131D1*
X21000Y17381D2*
X51712D1*
X53668D2*
X55131D1*
X21000Y17282D2*
X51696D1*
X53684D2*
X55131D1*
X21000Y17183D2*
X51692D1*
X53688D2*
X55131D1*
X21000Y17085D2*
X28992D1*
X51388D2*
X51695D1*
X53685D2*
X55131D1*
X21000Y16986D2*
X28992D1*
X51388D2*
X51709D1*
X53671D2*
X55131D1*
X21000Y16887D2*
X26453D1*
X26927D2*
X28992D1*
X51388D2*
X51734D1*
X53646D2*
X55131D1*
X21000Y16789D2*
X26198D1*
X27182D2*
X28992D1*
X51388D2*
X51770D1*
X53610D2*
X55131D1*
X21000Y16690D2*
X26054D1*
X27326D2*
X28992D1*
X51388D2*
X51818D1*
X53562D2*
X55131D1*
X21000Y16591D2*
X25950D1*
X27430D2*
X28992D1*
X51388D2*
X51882D1*
X53498D2*
X55131D1*
X21000Y16493D2*
X25870D1*
X27510D2*
X28992D1*
X51388D2*
X51964D1*
X53416D2*
X55131D1*
X21000Y16394D2*
X25809D1*
X27571D2*
X28992D1*
X51388D2*
X52073D1*
X53307D2*
X55131D1*
X21000Y16295D2*
X25764D1*
X27616D2*
X28992D1*
X51388D2*
X52228D1*
X53152D2*
X55131D1*
X21000Y16196D2*
X25729D1*
X27651D2*
X28992D1*
X51388D2*
X52535D1*
X52845D2*
X55131D1*
X21000Y16098D2*
X25706D1*
X27674D2*
X27992D1*
X51388D2*
X55131D1*
X21000Y15999D2*
X25693D1*
X27687D2*
X27992D1*
X51388D2*
X55131D1*
X21000Y15900D2*
X25692D1*
X27688D2*
X27992D1*
X51388D2*
X55131D1*
X21000Y15802D2*
X25700D1*
X27680D2*
X27992D1*
X51388D2*
X55131D1*
X21000Y15703D2*
X25717D1*
X27663D2*
X27992D1*
X51388D2*
X55131D1*
X21000Y15604D2*
X25745D1*
X27635D2*
X27992D1*
X51388D2*
X55131D1*
X21000Y15506D2*
X25784D1*
X27596D2*
X27992D1*
X51388D2*
X55131D1*
X21000Y15407D2*
X25837D1*
X27543D2*
X27992D1*
X51388D2*
X55131D1*
X21000Y15308D2*
X25907D1*
X27473D2*
X27992D1*
X51388D2*
X55131D1*
X21000Y15210D2*
X25996D1*
X27384D2*
X27992D1*
X51388D2*
X55131D1*
X21000Y15111D2*
X26118D1*
X27262D2*
X27992D1*
X51388D2*
X55131D1*
X21000Y15012D2*
X26300D1*
X27080D2*
X27992D1*
X51388D2*
X55131D1*
X21000Y14914D2*
X27992D1*
X51388D2*
X55131D1*
X21000Y14815D2*
X27992D1*
X51388D2*
X55131D1*
X21000Y14716D2*
X55131D1*
X21000Y14617D2*
X55131D1*
X21000Y14519D2*
X55131D1*
X21000Y14420D2*
X55131D1*
X21000Y14321D2*
X55131D1*
X29051Y17114D2*
X30379Y17112D1*
X30551Y17114D1*
X31379Y17112D1*
X31551Y17114D1*
X32379Y17112D1*
X32551Y17114D1*
X33379Y17112D1*
X33551Y17114D1*
X34379Y17112D1*
X34551Y17114D1*
X35379Y17112D1*
X35551Y17114D1*
X36379Y17112D1*
X36551Y17114D1*
X37379Y17112D1*
X37551Y17114D1*
X38379Y17112D1*
X38551Y17114D1*
X39379Y17112D1*
X39551Y17114D1*
X40379Y17112D1*
X40551Y17114D1*
X41379Y17112D1*
X41551Y17114D1*
X42379Y17112D1*
X42551Y17114D1*
X43379Y17112D1*
X43551Y17114D1*
X44379Y17112D1*
X44551Y17114D1*
X45379Y17112D1*
X45551Y17114D1*
X46379Y17112D1*
X46551Y17114D1*
X47379Y17112D1*
X47551Y17114D1*
X48379Y17112D1*
X48551Y17114D1*
X49379Y17112D1*
X49551Y17114D1*
X50379Y17112D1*
X50551Y17114D1*
X51379D1*
X51377Y15736D1*
X51379Y15564D1*
Y14736D1*
X50001Y14737D1*
X49829Y14736D1*
X49001Y14737D1*
X48829Y14736D1*
X48001Y14737D1*
X47829Y14736D1*
X47001Y14737D1*
X46829Y14736D1*
X46001Y14737D1*
X45829Y14736D1*
X45001Y14737D1*
X44829Y14736D1*
X44001Y14737D1*
X43829Y14736D1*
X43001Y14737D1*
X42829Y14736D1*
X42001Y14737D1*
X41829Y14736D1*
X41001Y14737D1*
X40829Y14736D1*
X40001Y14737D1*
X39829Y14736D1*
X39001Y14737D1*
X38829Y14736D1*
X38001Y14737D1*
X37829Y14736D1*
X37001Y14737D1*
X36829Y14736D1*
X36001Y14737D1*
X35829Y14736D1*
X35001Y14737D1*
X34829Y14736D1*
X34001Y14737D1*
X33829Y14736D1*
X33001Y14737D1*
X32829Y14736D1*
X32001Y14737D1*
X31829Y14736D1*
X31001Y14737D1*
X30829Y14736D1*
X30001Y14737D1*
X29829Y14736D1*
X29001Y14737D1*
X28829Y14736D1*
X28001D1*
Y16114D1*
X29003D1*
X29001Y16286D1*
Y17114D1*
X29051D1*
X28051Y36114D2*
X29379Y36112D1*
X29551Y36114D1*
X30379Y36112D1*
X30551Y36114D1*
X31379Y36112D1*
X31551Y36114D1*
X32379Y36112D1*
X32551Y36114D1*
X33379Y36112D1*
X33551Y36114D1*
X34379Y36112D1*
X34551Y36114D1*
X35379Y36112D1*
X35551Y36114D1*
X36379Y36112D1*
X36551Y36114D1*
X37379Y36112D1*
X37551Y36114D1*
X38379Y36112D1*
X38551Y36114D1*
X39379Y36112D1*
X39551Y36114D1*
X40379Y36112D1*
X40551Y36114D1*
X41379Y36112D1*
X41551Y36114D1*
X42379Y36112D1*
X42551Y36114D1*
X43379Y36112D1*
X43551Y36114D1*
X44379Y36112D1*
X44551Y36114D1*
X45379Y36112D1*
X45551Y36114D1*
X46379Y36112D1*
X46551Y36114D1*
X47379Y36112D1*
X47551Y36114D1*
X48379Y36112D1*
X48551Y36114D1*
X49379Y36112D1*
X49551Y36114D1*
X50379Y36112D1*
X50551Y36114D1*
X51379D1*
X51377Y34736D1*
X51379Y34564D1*
Y33736D1*
X50001Y33737D1*
X49829Y33736D1*
X49001Y33737D1*
X48829Y33736D1*
X48001Y33737D1*
X47829Y33736D1*
X47001Y33737D1*
X46829Y33736D1*
X46001Y33737D1*
X45829Y33736D1*
X45001Y33737D1*
X44829Y33736D1*
X44001Y33737D1*
X43829Y33736D1*
X43001Y33737D1*
X42829Y33736D1*
X42001Y33737D1*
X41829Y33736D1*
X41001Y33737D1*
X40829Y33736D1*
X40001Y33737D1*
X39829Y33736D1*
X39001Y33737D1*
X38829Y33736D1*
X38001Y33737D1*
X37829Y33736D1*
X37001Y33737D1*
X36829Y33736D1*
X36001Y33737D1*
X35829Y33736D1*
X35001Y33737D1*
X34829Y33736D1*
X34001Y33737D1*
X33829Y33736D1*
X33001Y33737D1*
X32829Y33736D1*
X32001Y33737D1*
X31829Y33736D1*
X31001Y33737D1*
X30829Y33736D1*
X30001Y33737D1*
X29829Y33736D1*
X29001D1*
Y34737D1*
X28829Y34736D1*
X28001D1*
Y36114D1*
X28051D1*
X53678Y33625D2*
X53668Y33525D1*
X53648Y33427D1*
X53618Y33332D1*
X53578Y33240D1*
X53530Y33153D1*
X53473Y33071D1*
X53408Y32995D1*
X53336Y32926D1*
X53257Y32864D1*
X53172Y32811D1*
X53082Y32767D1*
X52989Y32732D1*
X52892Y32707D1*
X52793Y32691D1*
X52694Y32686D1*
X52594Y32691D1*
X52495Y32705D1*
X52398Y32730D1*
X52304Y32764D1*
X52214Y32808D1*
X52129Y32860D1*
X52050Y32921D1*
X51977Y32990D1*
X51911Y33065D1*
X51854Y33147D1*
X51805Y33234D1*
X51765Y33326D1*
X51734Y33421D1*
X51713Y33518D1*
X51703Y33618D1*
X51702Y33718D1*
X51711Y33817D1*
X51731Y33915D1*
X51760Y34011D1*
X51799Y34103D1*
X51846Y34191D1*
X51903Y34273D1*
X51967Y34350D1*
X52039Y34419D1*
X52117Y34481D1*
X52202Y34535D1*
X52291Y34580D1*
X52385Y34615D1*
X52481Y34642D1*
X52580Y34658D1*
X52679Y34664D1*
X52779Y34660D1*
X52878Y34646D1*
X52975Y34622D1*
X53069Y34588D1*
X53160Y34545D1*
X53245Y34493D1*
X53325Y34433D1*
X53398Y34365D1*
X53464Y34290D1*
X53522Y34209D1*
X53572Y34122D1*
X53613Y34031D1*
X53644Y33936D1*
X53665Y33838D1*
X53677Y33739D1*
X53678Y33625D1*
Y17125D2*
X53668Y17025D1*
X53648Y16927D1*
X53618Y16832D1*
X53578Y16740D1*
X53530Y16653D1*
X53473Y16571D1*
X53408Y16495D1*
X53336Y16426D1*
X53257Y16364D1*
X53172Y16311D1*
X53082Y16267D1*
X52989Y16232D1*
X52892Y16207D1*
X52793Y16191D1*
X52694Y16186D1*
X52594Y16191D1*
X52495Y16205D1*
X52398Y16230D1*
X52304Y16264D1*
X52214Y16308D1*
X52129Y16360D1*
X52050Y16421D1*
X51977Y16490D1*
X51911Y16565D1*
X51854Y16647D1*
X51805Y16734D1*
X51765Y16826D1*
X51734Y16921D1*
X51713Y17018D1*
X51703Y17118D1*
X51702Y17218D1*
X51711Y17317D1*
X51731Y17415D1*
X51760Y17511D1*
X51799Y17603D1*
X51846Y17691D1*
X51903Y17773D1*
X51967Y17850D1*
X52039Y17919D1*
X52117Y17981D1*
X52202Y18035D1*
X52291Y18080D1*
X52385Y18115D1*
X52481Y18142D1*
X52580Y18158D1*
X52679Y18164D1*
X52779Y18160D1*
X52878Y18146D1*
X52975Y18122D1*
X53069Y18088D1*
X53160Y18045D1*
X53245Y17993D1*
X53325Y17933D1*
X53398Y17865D1*
X53464Y17790D1*
X53522Y17709D1*
X53572Y17622D1*
X53613Y17531D1*
X53644Y17436D1*
X53665Y17338D1*
X53677Y17239D1*
X53678Y17125D1*
X27678Y34875D2*
X27668Y34775D1*
X27648Y34677D1*
X27618Y34582D1*
X27578Y34490D1*
X27530Y34403D1*
X27473Y34321D1*
X27408Y34245D1*
X27336Y34176D1*
X27257Y34114D1*
X27172Y34061D1*
X27082Y34017D1*
X26989Y33982D1*
X26892Y33957D1*
X26793Y33941D1*
X26694Y33936D1*
X26594Y33941D1*
X26495Y33955D1*
X26398Y33980D1*
X26304Y34014D1*
X26214Y34058D1*
X26129Y34110D1*
X26050Y34171D1*
X25977Y34240D1*
X25911Y34315D1*
X25854Y34397D1*
X25805Y34484D1*
X25765Y34576D1*
X25734Y34671D1*
X25713Y34768D1*
X25703Y34868D1*
X25702Y34968D1*
X25711Y35067D1*
X25731Y35165D1*
X25760Y35261D1*
X25799Y35353D1*
X25846Y35441D1*
X25903Y35523D1*
X25967Y35600D1*
X26039Y35669D1*
X26117Y35731D1*
X26202Y35785D1*
X26291Y35830D1*
X26385Y35865D1*
X26481Y35892D1*
X26580Y35908D1*
X26679Y35914D1*
X26779Y35910D1*
X26878Y35896D1*
X26975Y35872D1*
X27069Y35838D1*
X27160Y35795D1*
X27245Y35743D1*
X27325Y35683D1*
X27398Y35615D1*
X27464Y35540D1*
X27522Y35459D1*
X27572Y35372D1*
X27613Y35281D1*
X27644Y35186D1*
X27665Y35088D1*
X27677Y34989D1*
X27678Y34875D1*
Y15875D2*
X27668Y15775D1*
X27648Y15677D1*
X27618Y15582D1*
X27578Y15490D1*
X27530Y15403D1*
X27473Y15321D1*
X27408Y15245D1*
X27336Y15176D1*
X27257Y15114D1*
X27172Y15061D1*
X27082Y15017D1*
X26989Y14982D1*
X26892Y14957D1*
X26793Y14941D1*
X26694Y14936D1*
X26594Y14941D1*
X26495Y14955D1*
X26398Y14980D1*
X26304Y15014D1*
X26214Y15058D1*
X26129Y15110D1*
X26050Y15171D1*
X25977Y15240D1*
X25911Y15315D1*
X25854Y15397D1*
X25805Y15484D1*
X25765Y15576D1*
X25734Y15671D1*
X25713Y15768D1*
X25703Y15868D1*
X25702Y15968D1*
X25711Y16067D1*
X25731Y16165D1*
X25760Y16261D1*
X25799Y16353D1*
X25846Y16441D1*
X25903Y16523D1*
X25967Y16600D1*
X26039Y16669D1*
X26117Y16731D1*
X26202Y16785D1*
X26291Y16830D1*
X26385Y16865D1*
X26481Y16892D1*
X26580Y16908D1*
X26679Y16914D1*
X26779Y16910D1*
X26878Y16896D1*
X26975Y16872D1*
X27069Y16838D1*
X27160Y16795D1*
X27245Y16743D1*
X27325Y16683D1*
X27398Y16615D1*
X27464Y16540D1*
X27522Y16459D1*
X27572Y16372D1*
X27613Y16281D1*
X27644Y16186D1*
X27665Y16088D1*
X27677Y15989D1*
X27678Y15875D1*
X23740Y36624D2*
X23803Y29975D1*
X28940D1*
X28982Y29950D1*
X28990Y29925D1*
Y22925D1*
X28966Y22883D1*
X28940Y22875D1*
X20990D1*
Y14225D1*
X55140D1*
Y36625D1*
X23742D1*
D14*
X28690Y16425D3*
X29690D3*
X30690D3*
X31690D3*
X32690D3*
X33690D3*
X34690D3*
X35690D3*
X36690D3*
X37690D3*
X38690D3*
X39690D3*
X40690D3*
X41690D3*
X42690D3*
X43690D3*
X44690D3*
X45690D3*
X46690D3*
X47690D3*
X48690D3*
X49690D3*
X50690D3*
Y15425D3*
X49690D3*
X48690D3*
X47690D3*
X46690D3*
X45690D3*
X44690D3*
X43690D3*
X42690D3*
X41690D3*
X40690D3*
X39690D3*
X38690D3*
X37690D3*
X36690D3*
X35690D3*
X34690D3*
X33690D3*
X32690D3*
X31690D3*
X30690D3*
X29690D3*
X28690D3*
Y35425D3*
X29690D3*
X30690D3*
X31690D3*
X32690D3*
X33690D3*
X34690D3*
X35690D3*
X36690D3*
X37690D3*
X38690D3*
X39690D3*
X40690D3*
X41690D3*
X42690D3*
X43690D3*
X44690D3*
X45690D3*
X46690D3*
X47690D3*
X48690D3*
X49690D3*
X50690D3*
Y34425D3*
X49690D3*
X48690D3*
X47690D3*
X46690D3*
X45690D3*
X44690D3*
X43690D3*
X42690D3*
X41690D3*
X40690D3*
X39690D3*
X38690D3*
X37690D3*
X36690D3*
X35690D3*
X34690D3*
X33690D3*
X32690D3*
X31690D3*
X30690D3*
X29690D3*
X28690D3*
M02*
