G04 DipTrace 2.4.0.2*
%INBottom.gbr*%
%MOIN*%
%ADD13C,0.07*%
%ADD14C,0.025*%
%ADD15C,0.05*%
%ADD16C,0.02*%
%ADD17C,0.04*%
%ADD18C,0.075*%
%ADD19C,0.065*%
%ADD20C,0.06*%
%ADD21C,0.0625*%
%ADD24C,0.063*%
%ADD25R,0.063X0.063*%
%ADD27R,0.0669X0.0669*%
%ADD28C,0.0669*%
%ADD29C,0.0591*%
%ADD30R,0.0591X0.0591*%
%ADD32C,0.074*%
%ADD33R,0.0748X0.0748*%
%ADD34C,0.0748*%
%FSLAX44Y44*%
G04*
G70*
G90*
G75*
G01*
%LNBottom*%
%LPD*%
X12440Y5190D2*
D13*
Y6190D1*
X12561Y7126D2*
D15*
X14811D1*
X15405Y7720D1*
X15440Y7755D1*
Y8940D1*
X23940Y8190D2*
D16*
Y8067D1*
X23312Y7439D1*
X17749D1*
X17499Y7689D1*
X17187D1*
X15374Y7751D2*
D14*
X15405Y7720D1*
X16565Y21815D2*
X16749D1*
X14686Y19752D1*
X14061D1*
X13561Y19252D1*
Y10752D1*
X12624Y9814D1*
Y7126D1*
X12561D1*
X31440Y11440D2*
X31501D1*
Y10814D1*
X30813Y10126D1*
Y8876D1*
X30313Y8376D1*
X29563D1*
X29063Y8876D1*
Y10001D1*
X28000Y11064D1*
Y11440D1*
X27940D1*
X24440D2*
Y11249D1*
X25687Y10001D1*
Y8689D1*
X26000Y8376D1*
X26875D1*
X27188Y8689D1*
Y10688D1*
X27940Y11440D1*
X14440Y5190D2*
D13*
Y6190D1*
X19690Y17940D2*
D14*
Y17562D1*
X20062Y17190D1*
X26188D1*
X26690Y17692D1*
Y17940D1*
X27188Y12064D2*
X27316D1*
X27940Y11440D1*
X31688Y16939D2*
X34501Y19753D1*
X34688D1*
D15*
X33813Y20628D1*
Y23128D1*
X34376Y23690D1*
Y25691D1*
X34001Y26066D1*
X8686D1*
X8123Y25503D1*
Y23753D1*
X12061Y19815D1*
Y12564D1*
X11686Y12189D1*
X9936D1*
X8248Y10502D1*
Y7814D1*
X11440Y6190D2*
D14*
Y5190D1*
X36501Y18065D2*
Y16940D1*
X34688D1*
X22940Y8190D2*
Y8939D1*
X23000D1*
X11874Y22878D2*
D17*
X13999D1*
X14565Y22312D1*
Y21815D1*
X15565D2*
D15*
Y22690D1*
X15561D1*
Y22878D1*
X16440Y23756D1*
Y24190D1*
X17440Y8940D2*
D14*
Y8623D1*
X17999Y8064D1*
X19312D1*
X25312Y14064D1*
X32126D1*
X34688Y11502D1*
Y9126D1*
X34751Y9064D1*
X34688D1*
X16440Y8940D2*
D16*
Y7248D1*
X16749Y6939D1*
X33751D1*
X34438Y6251D1*
Y5689D1*
X34376Y5626D1*
X13440Y8940D2*
D15*
Y9568D1*
X15437Y11565D1*
X19313D1*
X21690Y13942D1*
Y14940D1*
X14440Y8940D2*
Y9380D1*
X15625Y10565D1*
X20813D1*
X24690Y14442D1*
Y14940D1*
X18565Y21815D2*
X19440Y20940D1*
X23750D1*
X24690Y20000D1*
Y17940D1*
X21690D2*
Y18437D1*
X20874Y19252D1*
X19749D1*
X17565Y21437D1*
Y21815D1*
X33440Y11440D2*
D14*
Y9128D1*
X33438Y9126D1*
X26438D2*
Y11438D1*
X26440Y11440D1*
X29938Y9126D2*
Y11438D1*
X29940Y11440D1*
X18440Y24190D2*
Y23378D1*
Y23062D1*
X19874Y21628D1*
X24125D1*
X27563Y18190D1*
Y17627D1*
X26563Y16627D1*
X17749D1*
X17562Y16815D1*
X15255D1*
X14380Y15940D1*
X18437Y23378D2*
X18440D1*
X19440Y24190D2*
Y23315D1*
Y23000D1*
X20249Y22190D1*
X24375D1*
X28125Y18440D1*
Y17190D1*
X26938Y16002D1*
X18124D1*
X17812Y15690D1*
Y14314D1*
X17312Y13814D1*
X15254D1*
X14380Y12940D1*
X19437Y23315D2*
X19440D1*
X20437Y4438D2*
X35001D1*
X36751Y6189D1*
Y7564D1*
X36064Y8251D1*
X31126D1*
X30625Y7751D1*
X25687D1*
X23750Y9689D1*
X22625D1*
X21940Y9004D1*
Y8190D1*
X20940D2*
Y8817D1*
X22625Y10502D1*
X23250D1*
X13440Y5190D2*
D13*
Y6190D1*
X7248Y7814D2*
D17*
Y7126D1*
X7686Y6689D1*
Y5001D1*
X10811Y9064D2*
X10748Y9001D1*
X9811D1*
X9248Y8439D1*
Y7064D1*
X8936Y6751D1*
X7686D1*
Y6689D1*
X26690Y14940D2*
D18*
X29062D1*
X29063Y14939D1*
X36626D2*
D19*
Y14940D1*
X34688D1*
D18*
X31688D1*
Y14939D1*
D20*
D3*
D18*
X29063D1*
X34688Y14940D2*
D21*
X35189Y14439D1*
X36314D1*
X36626Y14752D1*
Y14939D1*
D20*
X26438Y9126D3*
X29938D3*
X33438D3*
X17187Y7689D3*
X12561Y7126D3*
X15561Y22690D3*
X11874Y22878D3*
X23250Y10502D3*
X34376Y5626D3*
X20437Y4438D3*
X34688Y9064D3*
X15374Y7751D3*
X27188Y12064D3*
X10498Y24003D3*
X10561Y25191D3*
X36501Y18065D3*
X20499Y11502D3*
X20937Y11939D3*
X21375Y12377D3*
X23250Y20065D3*
X21750D3*
X10123Y7314D3*
X7686Y5001D3*
X19437Y9689D3*
X18812D3*
X19437Y23315D3*
X18437Y23378D3*
X23000Y8939D3*
X19374Y12877D3*
X18687Y15252D3*
X18624Y17815D3*
X19812Y13314D3*
X20249Y13752D3*
X18687Y14627D3*
X36501Y18752D3*
Y19440D3*
Y20065D3*
Y20753D3*
Y21440D3*
X30563Y12939D3*
X31376D3*
X6908Y25746D2*
D14*
X7448D1*
X35092D2*
X37221D1*
X6908Y25498D2*
X7405D1*
X35096D2*
X37221D1*
X6908Y25249D2*
X7405D1*
X10377D2*
X11678D1*
X35096D2*
X37221D1*
X6908Y25000D2*
X7405D1*
X10490D2*
X11698D1*
X35096D2*
X37221D1*
X6908Y24752D2*
X7405D1*
X10533D2*
X11819D1*
X35096D2*
X37221D1*
X6908Y24503D2*
X7405D1*
X10517D2*
X11745D1*
X35096D2*
X35292D1*
X35588D2*
X37221D1*
X6908Y24254D2*
X7405D1*
X10443D2*
X11678D1*
X36158D2*
X37221D1*
X6908Y24005D2*
X7405D1*
X10287D2*
X11698D1*
X36373D2*
X37221D1*
X6908Y23757D2*
X7405D1*
X9990D2*
X11815D1*
X36486D2*
X37221D1*
X6908Y23508D2*
X7448D1*
X9377D2*
X11452D1*
X14752D2*
X15128D1*
X20752D2*
X21128D1*
X21752D2*
X22128D1*
X22752D2*
X23128D1*
X23752D2*
X24128D1*
X24752D2*
X25128D1*
X25752D2*
X26128D1*
X26752D2*
X27128D1*
X27752D2*
X28128D1*
X28752D2*
X29128D1*
X29752D2*
X30128D1*
X30752D2*
X31128D1*
X31752D2*
X32128D1*
X32752D2*
X33128D1*
X36533D2*
X37221D1*
X6908Y23259D2*
X7608D1*
X9623D2*
X11210D1*
X14553D2*
X14956D1*
X16951D2*
X17674D1*
X20205D2*
X33104D1*
X36521D2*
X37221D1*
X6908Y23011D2*
X7858D1*
X9873D2*
X11116D1*
X16701D2*
X17764D1*
X20260D2*
X33092D1*
X36443D2*
X37221D1*
X6908Y22762D2*
X8108D1*
X10123D2*
X11112D1*
X16455D2*
X17932D1*
X20510D2*
X33092D1*
X36291D2*
X37221D1*
X6908Y22513D2*
X8354D1*
X10369D2*
X11198D1*
X16935D2*
X17194D1*
X17935D2*
X18159D1*
X24881D2*
X33092D1*
X34533D2*
X34881D1*
X35998D2*
X37221D1*
X6908Y22265D2*
X8604D1*
X10619D2*
X11424D1*
X25131D2*
X33092D1*
X34533D2*
X37221D1*
X6908Y22016D2*
X8854D1*
X10869D2*
X13788D1*
X25381D2*
X33092D1*
X34533D2*
X37221D1*
X6908Y21767D2*
X9100D1*
X11115D2*
X13760D1*
X25627D2*
X33092D1*
X34533D2*
X37221D1*
X6908Y21519D2*
X9350D1*
X11365D2*
X13819D1*
X25877D2*
X33092D1*
X34533D2*
X37221D1*
X6908Y21270D2*
X9600D1*
X11615D2*
X13983D1*
X26127D2*
X33092D1*
X34533D2*
X37221D1*
X6908Y21021D2*
X9846D1*
X11861D2*
X15124D1*
X26373D2*
X33092D1*
X34533D2*
X37221D1*
X6908Y20773D2*
X10096D1*
X12111D2*
X14874D1*
X26623D2*
X33092D1*
X34678D2*
X37221D1*
X6908Y20524D2*
X10346D1*
X12361D2*
X14628D1*
X26873D2*
X33100D1*
X34924D2*
X37221D1*
X7010Y20275D2*
X10592D1*
X12607D2*
X13811D1*
X16041D2*
X16231D1*
X27119D2*
X33190D1*
X35474D2*
X37221D1*
X12748Y20026D2*
X13503D1*
X15791D2*
X16487D1*
X17392D2*
X17967D1*
X19982D2*
X23655D1*
X27369D2*
X33409D1*
X35474D2*
X37221D1*
X12779Y19778D2*
X13256D1*
X15541D2*
X18217D1*
X21353D2*
X23905D1*
X27619D2*
X33655D1*
X35474D2*
X37221D1*
X12779Y19529D2*
X13038D1*
X15295D2*
X16350D1*
X17529D2*
X18464D1*
X21607D2*
X23971D1*
X27865D2*
X33448D1*
X35474D2*
X37221D1*
X12779Y19280D2*
X12967D1*
X15146D2*
X16174D1*
X17705D2*
X18714D1*
X21853D2*
X23971D1*
X25408D2*
X25639D1*
X28115D2*
X33198D1*
X35474D2*
X37221D1*
X12779Y19032D2*
X12967D1*
X15217D2*
X16104D1*
X17775D2*
X18964D1*
X22103D2*
X23971D1*
X25408D2*
X25889D1*
X28365D2*
X32948D1*
X35474D2*
X37221D1*
X12779Y18783D2*
X12967D1*
X15205D2*
X16116D1*
X17764D2*
X19210D1*
X22318D2*
X23971D1*
X25408D2*
X26139D1*
X28603D2*
X32702D1*
X34361D2*
X37221D1*
X12779Y18534D2*
X12967D1*
X15111D2*
X16210D1*
X17674D2*
X19225D1*
X22404D2*
X23971D1*
X28713D2*
X32452D1*
X34115D2*
X37221D1*
X12779Y18286D2*
X12967D1*
X14892D2*
X16327D1*
X17553D2*
X19010D1*
X22408D2*
X23971D1*
X28721D2*
X32202D1*
X33865D2*
X37221D1*
X12779Y18037D2*
X12967D1*
X14154D2*
X16163D1*
X17717D2*
X18932D1*
X22447D2*
X23932D1*
X28721D2*
X31956D1*
X33615D2*
X37221D1*
X12779Y17788D2*
X12967D1*
X14154D2*
X16104D1*
X17775D2*
X18940D1*
X22439D2*
X23940D1*
X28721D2*
X31706D1*
X33369D2*
X37221D1*
X12779Y17540D2*
X12967D1*
X14154D2*
X16120D1*
X17760D2*
X19042D1*
X28721D2*
X31104D1*
X33119D2*
X37221D1*
X12779Y17291D2*
X12967D1*
X14154D2*
X14917D1*
X17900D2*
X19163D1*
X28721D2*
X30924D1*
X32869D2*
X37221D1*
X12779Y17042D2*
X12967D1*
X14154D2*
X14651D1*
X28701D2*
X30850D1*
X32623D2*
X37221D1*
X12779Y16794D2*
X12967D1*
X14154D2*
X14401D1*
X28560D2*
X30858D1*
X32517D2*
X37221D1*
X12779Y16545D2*
X12967D1*
X28310D2*
X30944D1*
X32431D2*
X37221D1*
X12779Y16296D2*
X12967D1*
X28064D2*
X31155D1*
X32221D2*
X37221D1*
X12779Y16047D2*
X12967D1*
X15318D2*
X16108D1*
X27814D2*
X37221D1*
X12779Y15799D2*
X12967D1*
X15209D2*
X16112D1*
X27564D2*
X37221D1*
X12779Y15550D2*
X12967D1*
X15119D2*
X16198D1*
X12779Y15301D2*
X12967D1*
X14912D2*
X16342D1*
X18408D2*
X18924D1*
X22361D2*
X24018D1*
X12779Y15053D2*
X12967D1*
X14154D2*
X16171D1*
X18408D2*
X18924D1*
X22447D2*
X23932D1*
X12779Y14804D2*
X12967D1*
X14154D2*
X16104D1*
X18408D2*
X18924D1*
X22443D2*
X23936D1*
X12779Y14555D2*
X12967D1*
X14154D2*
X16116D1*
X18408D2*
X18924D1*
X22408D2*
X23796D1*
X12779Y14307D2*
X12967D1*
X14154D2*
X14944D1*
X18408D2*
X18924D1*
X22408D2*
X23546D1*
X12779Y14058D2*
X12967D1*
X14154D2*
X14667D1*
X18346D2*
X20799D1*
X22408D2*
X23299D1*
X32963D2*
X34475D1*
X37029D2*
X37221D1*
X12779Y13809D2*
X12967D1*
X14154D2*
X14417D1*
X18139D2*
X20549D1*
X22396D2*
X23049D1*
X33213D2*
X34745D1*
X36760D2*
X37221D1*
X12779Y13561D2*
X12967D1*
X17889D2*
X20299D1*
X22295D2*
X22799D1*
X33459D2*
X37221D1*
X12779Y13312D2*
X12967D1*
X17689D2*
X20053D1*
X22068D2*
X22553D1*
X25392D2*
X32046D1*
X33709D2*
X35546D1*
X36834D2*
X37221D1*
X12779Y13063D2*
X12967D1*
X15334D2*
X16108D1*
X17771D2*
X19803D1*
X21818D2*
X22303D1*
X25142D2*
X32296D1*
X33959D2*
X35296D1*
X37084D2*
X37219D1*
X12779Y12815D2*
X12967D1*
X15209D2*
X16108D1*
X17771D2*
X19553D1*
X21568D2*
X22053D1*
X24892D2*
X32546D1*
X34205D2*
X35163D1*
X12779Y12566D2*
X12967D1*
X15131D2*
X16190D1*
X17689D2*
X19307D1*
X21322D2*
X21807D1*
X24646D2*
X26612D1*
X27764D2*
X32792D1*
X34455D2*
X35104D1*
X12736Y12317D2*
X12967D1*
X14931D2*
X16389D1*
X17490D2*
X19057D1*
X21072D2*
X21557D1*
X24396D2*
X26464D1*
X27912D2*
X33042D1*
X34705D2*
X35104D1*
X4474Y12068D2*
X8807D1*
X12572D2*
X12967D1*
X14154D2*
X14932D1*
X20822D2*
X21307D1*
X25244D2*
X25956D1*
X28744D2*
X29456D1*
X30428D2*
X30635D1*
X32244D2*
X32956D1*
X34951D2*
X35163D1*
X4410Y11820D2*
X8557D1*
X12326D2*
X12967D1*
X14154D2*
X14686D1*
X20576D2*
X21061D1*
X25244D2*
X25733D1*
X28744D2*
X29233D1*
X32244D2*
X32733D1*
X35185D2*
X35293D1*
X37088D2*
X37220D1*
X4410Y11571D2*
X8311D1*
X12029D2*
X12967D1*
X14154D2*
X14436D1*
X20326D2*
X20811D1*
X25244D2*
X25647D1*
X28744D2*
X29147D1*
X32244D2*
X32647D1*
X35279D2*
X35542D1*
X36838D2*
X37221D1*
X4410Y11322D2*
X8061D1*
X10076D2*
X12967D1*
X20076D2*
X20561D1*
X23400D2*
X23635D1*
X25244D2*
X25643D1*
X28744D2*
X29143D1*
X32244D2*
X32643D1*
X35283D2*
X37221D1*
X4410Y11074D2*
X7811D1*
X9830D2*
X12967D1*
X25447D2*
X25725D1*
X28822D2*
X29225D1*
X32244D2*
X32725D1*
X35283D2*
X37221D1*
X4410Y10825D2*
X7608D1*
X9580D2*
X12803D1*
X25693D2*
X25843D1*
X29068D2*
X29342D1*
X32244D2*
X32846D1*
X35283D2*
X37221D1*
X4410Y10576D2*
X7534D1*
X9330D2*
X12553D1*
X24017D2*
X24280D1*
X32045D2*
X32846D1*
X35283D2*
X37221D1*
X4410Y10328D2*
X7530D1*
X9084D2*
X12307D1*
X23998D2*
X24530D1*
X27783D2*
X27905D1*
X31846D2*
X32846D1*
X35283D2*
X37221D1*
X4410Y10079D2*
X7530D1*
X8967D2*
X12092D1*
X24189D2*
X24780D1*
X27783D2*
X28155D1*
X31596D2*
X32846D1*
X35283D2*
X37221D1*
X4410Y9830D2*
X7530D1*
X8967D2*
X12030D1*
X15896D2*
X20249D1*
X24439D2*
X25026D1*
X27783D2*
X28405D1*
X31408D2*
X32846D1*
X35283D2*
X37221D1*
X4410Y9582D2*
X7530D1*
X8967D2*
X9503D1*
X11596D2*
X12030D1*
X17908D2*
X19999D1*
X24689D2*
X25092D1*
X27783D2*
X28467D1*
X31408D2*
X32823D1*
X35283D2*
X37221D1*
X4410Y9333D2*
X7530D1*
X8967D2*
X9206D1*
X11596D2*
X12030D1*
X18139D2*
X19749D1*
X24935D2*
X25092D1*
X27783D2*
X28467D1*
X31408D2*
X32698D1*
X35408D2*
X37221D1*
X4410Y9084D2*
X7530D1*
X11596D2*
X12030D1*
X18232D2*
X19503D1*
X22849D2*
X23522D1*
X27783D2*
X28467D1*
X31408D2*
X32671D1*
X35459D2*
X37221D1*
X4410Y8836D2*
X7530D1*
X11596D2*
X12030D1*
X18236D2*
X19253D1*
X22603D2*
X23135D1*
X27783D2*
X28471D1*
X31408D2*
X32729D1*
X35424D2*
X37221D1*
X4410Y8587D2*
X6124D1*
X6369D2*
X7124D1*
X7369D2*
X7446D1*
X11596D2*
X12030D1*
X22635D2*
X23135D1*
X27775D2*
X28546D1*
X36560D2*
X37221D1*
X4410Y8338D2*
X5647D1*
X11596D2*
X12030D1*
X22732D2*
X23135D1*
X27662D2*
X28768D1*
X36806D2*
X37221D1*
X4410Y8089D2*
X5495D1*
X9920D2*
X12030D1*
X13217D2*
X14686D1*
X22736D2*
X23135D1*
X37056D2*
X37217D1*
X4410Y7841D2*
X5444D1*
X9920D2*
X12030D1*
X13217D2*
X14518D1*
X4410Y7592D2*
X5475D1*
X9920D2*
X11956D1*
X24744D2*
X25014D1*
X31299D2*
X34565D1*
X4410Y7343D2*
X5600D1*
X9920D2*
X11823D1*
X34142D2*
X34424D1*
X4410Y7095D2*
X5921D1*
X9920D2*
X11792D1*
X15787D2*
X15896D1*
X4410Y6846D2*
X6643D1*
X9881D2*
X11846D1*
X15806D2*
X16046D1*
X4410Y6597D2*
X5346D1*
X6533D2*
X6839D1*
X10033D2*
X11733D1*
X4410Y6349D2*
X5073D1*
X6806D2*
X7014D1*
X10306D2*
X11635D1*
X4410Y6100D2*
X4928D1*
X10455D2*
X11620D1*
X4410Y5851D2*
X4858D1*
X10521D2*
X11620D1*
X35111D2*
X35585D1*
X4410Y5603D2*
X4850D1*
X10533D2*
X11620D1*
X35146D2*
X35335D1*
X36998D2*
X37221D1*
X4410Y5354D2*
X4901D1*
X10482D2*
X11620D1*
X36748D2*
X37221D1*
X4410Y5105D2*
X5018D1*
X10361D2*
X11624D1*
X36498D2*
X37221D1*
X4410Y4857D2*
X5245D1*
X6635D2*
X6928D1*
X8443D2*
X8745D1*
X10135D2*
X11694D1*
X36252D2*
X37221D1*
X4428Y4608D2*
X7026D1*
X8342D2*
X11874D1*
X36002D2*
X37202D1*
X34909Y20513D2*
X35448D1*
Y18993D1*
X34546D1*
X32510Y16955D1*
X32498Y16815D1*
X32469Y16693D1*
X32423Y16577D1*
X32359Y16470D1*
X32280Y16373D1*
X32187Y16290D1*
X32082Y16222D1*
X31969Y16170D1*
X31849Y16136D1*
X31725Y16121D1*
X31600Y16125D1*
X31477Y16148D1*
X31359Y16189D1*
X31249Y16248D1*
X31149Y16323D1*
X31061Y16412D1*
X30989Y16513D1*
X30932Y16625D1*
X30893Y16743D1*
X30872Y16867D1*
X30871Y16991D1*
X30888Y17115D1*
X30924Y17235D1*
X30978Y17347D1*
X31048Y17451D1*
X31133Y17542D1*
X31231Y17619D1*
X31340Y17681D1*
X31457Y17725D1*
X31579Y17751D1*
X31700Y17758D1*
X33702Y19759D1*
X33322Y20136D1*
X33242Y20232D1*
X33180Y20341D1*
X33139Y20459D1*
X33121Y20569D1*
X33118Y22003D1*
Y23128D1*
X33130Y23252D1*
X33158Y23361D1*
X33213Y23477D1*
X33007Y23589D1*
X32939Y23648D1*
X32832Y23562D1*
X32721Y23505D1*
X32602Y23468D1*
X32478Y23451D1*
X32353Y23455D1*
X32231Y23480D1*
X32114Y23525D1*
X32007Y23589D1*
X31939Y23648D1*
X31832Y23562D1*
X31721Y23505D1*
X31602Y23468D1*
X31478Y23451D1*
X31353Y23455D1*
X31231Y23480D1*
X31114Y23525D1*
X31007Y23589D1*
X30939Y23648D1*
X30832Y23562D1*
X30721Y23505D1*
X30602Y23468D1*
X30478Y23451D1*
X30353Y23455D1*
X30231Y23480D1*
X30114Y23525D1*
X30007Y23589D1*
X29939Y23648D1*
X29832Y23562D1*
X29721Y23505D1*
X29602Y23468D1*
X29478Y23451D1*
X29353Y23455D1*
X29231Y23480D1*
X29114Y23525D1*
X29007Y23589D1*
X28939Y23648D1*
X28832Y23562D1*
X28721Y23505D1*
X28602Y23468D1*
X28478Y23451D1*
X28353Y23455D1*
X28231Y23480D1*
X28114Y23525D1*
X28007Y23589D1*
X27939Y23648D1*
X27832Y23562D1*
X27721Y23505D1*
X27602Y23468D1*
X27478Y23451D1*
X27353Y23455D1*
X27231Y23480D1*
X27114Y23525D1*
X27007Y23589D1*
X26939Y23648D1*
X26832Y23562D1*
X26721Y23505D1*
X26602Y23468D1*
X26478Y23451D1*
X26353Y23455D1*
X26231Y23480D1*
X26114Y23525D1*
X26007Y23589D1*
X25939Y23648D1*
X25832Y23562D1*
X25721Y23505D1*
X25602Y23468D1*
X25478Y23451D1*
X25353Y23455D1*
X25231Y23480D1*
X25114Y23525D1*
X25007Y23589D1*
X24939Y23648D1*
X24832Y23562D1*
X24721Y23505D1*
X24602Y23468D1*
X24478Y23451D1*
X24353Y23455D1*
X24231Y23480D1*
X24114Y23525D1*
X24007Y23589D1*
X23939Y23648D1*
X23832Y23562D1*
X23721Y23505D1*
X23602Y23468D1*
X23478Y23451D1*
X23353Y23455D1*
X23231Y23480D1*
X23114Y23525D1*
X23007Y23589D1*
X22939Y23648D1*
X22832Y23562D1*
X22721Y23505D1*
X22602Y23468D1*
X22478Y23451D1*
X22353Y23455D1*
X22231Y23480D1*
X22114Y23525D1*
X22007Y23589D1*
X21939Y23648D1*
X21832Y23562D1*
X21721Y23505D1*
X21602Y23468D1*
X21478Y23451D1*
X21353Y23455D1*
X21231Y23480D1*
X21114Y23525D1*
X21007Y23589D1*
X20939Y23648D1*
X20832Y23562D1*
X20721Y23505D1*
X20602Y23468D1*
X20478Y23451D1*
X20353Y23455D1*
X20231Y23480D1*
X20154Y23510D1*
X20180Y23371D1*
X20171Y23191D1*
X20147Y23096D1*
X20487Y22759D1*
X24375Y22760D1*
X24499Y22747D1*
X24617Y22706D1*
X24748Y22621D1*
X28528Y18843D1*
X28606Y18746D1*
X28661Y18634D1*
X28694Y18481D1*
X28695Y17190D1*
X28682Y17066D1*
X28641Y16948D1*
X28556Y16816D1*
X27504Y15762D1*
X29438Y15759D1*
X34688Y15760D1*
X34813Y15750D1*
X34967Y15709D1*
X35849Y15710D1*
X35846Y15719D1*
X37249D1*
X37245Y16440D1*
Y25752D1*
X37006Y25995D1*
X34999D1*
X35047Y25872D1*
X35071Y25691D1*
Y24445D1*
X35273Y24497D1*
X35398Y24509D1*
X35523Y24507D1*
X35646Y24490D1*
X35767Y24459D1*
X35884Y24414D1*
X35994Y24355D1*
X36097Y24284D1*
X36191Y24202D1*
X36275Y24109D1*
X36347Y24007D1*
X36407Y23898D1*
X36454Y23782D1*
X36487Y23661D1*
X36510Y23440D1*
X36503Y23315D1*
X36481Y23192D1*
X36445Y23073D1*
X36395Y22958D1*
X36333Y22850D1*
X36258Y22750D1*
X36172Y22659D1*
X36076Y22579D1*
X35971Y22511D1*
X35859Y22456D1*
X35742Y22413D1*
X35620Y22385D1*
X35496Y22371D1*
X35371Y22372D1*
X35247Y22388D1*
X35125Y22417D1*
X35008Y22461D1*
X34897Y22518D1*
X34793Y22587D1*
X34698Y22669D1*
X34614Y22760D1*
X34538Y22865D1*
X34505Y22837D1*
X34508Y21628D1*
Y20913D1*
X34910Y20514D1*
X18210Y8816D2*
X18178Y8691D1*
X18238Y8631D1*
X18874Y8634D1*
X19073D1*
X20315Y9873D1*
X18563Y9870D1*
X15911D1*
X15710Y9668D1*
X15757Y9652D1*
X15866Y9593D1*
X15937Y9538D1*
X16037Y9607D1*
X16148Y9663D1*
X16267Y9700D1*
X16391Y9718D1*
X16516Y9716D1*
X16639Y9694D1*
X16757Y9652D1*
X16866Y9593D1*
X16937Y9538D1*
X17037Y9607D1*
X17148Y9663D1*
X17267Y9700D1*
X17391Y9718D1*
X17516Y9716D1*
X17639Y9694D1*
X17757Y9652D1*
X17866Y9593D1*
X17965Y9516D1*
X18050Y9425D1*
X18120Y9322D1*
X18172Y9208D1*
X18206Y9088D1*
X18220Y8940D1*
X18210Y8816D1*
X14745Y8225D2*
X14662Y8193D1*
X14539Y8167D1*
X14415Y8161D1*
X14291Y8175D1*
X14170Y8208D1*
X14057Y8261D1*
X13939Y8344D1*
X13886Y8300D1*
X13778Y8237D1*
X13662Y8193D1*
X13539Y8167D1*
X13415Y8161D1*
X13291Y8175D1*
X13197Y8201D1*
X13194Y7818D1*
X14311Y7821D1*
X14526D1*
X14660Y7957D1*
X14683Y8029D1*
X14746Y8150D1*
X15062Y21218D2*
X15011Y21175D1*
X14903Y21112D1*
X14787Y21068D1*
X14664Y21042D1*
X14540Y21036D1*
X14416Y21050D1*
X14295Y21083D1*
X14182Y21136D1*
X14079Y21206D1*
X13988Y21291D1*
X13911Y21390D1*
X13852Y21500D1*
X13811Y21618D1*
X13789Y21741D1*
X13787Y21866D1*
X13805Y21989D1*
X13844Y22121D1*
X13731Y22234D1*
X12245Y22233D1*
X12161Y22191D1*
X12042Y22152D1*
X11919Y22134D1*
X11794Y22137D1*
X11671Y22161D1*
X11554Y22205D1*
X11446Y22267D1*
X11351Y22347D1*
X11269Y22442D1*
X11205Y22549D1*
X11159Y22665D1*
X11134Y22788D1*
X11129Y22912D1*
X11146Y23036D1*
X11182Y23155D1*
X11238Y23267D1*
X11312Y23368D1*
X11402Y23454D1*
X11505Y23525D1*
X11618Y23578D1*
X11739Y23610D1*
X11863Y23623D1*
X11976Y23615D1*
X11912Y23671D1*
X11833Y23767D1*
X11770Y23875D1*
X11727Y23992D1*
X11704Y24114D1*
X11701Y24239D1*
X11720Y24363D1*
X11759Y24481D1*
X11818Y24591D1*
X11892Y24687D1*
X11833Y24767D1*
X11770Y24875D1*
X11727Y24992D1*
X11704Y25114D1*
X11701Y25239D1*
X11724Y25374D1*
X10751Y25371D1*
X10263D1*
X10347Y25257D1*
X10407Y25148D1*
X10454Y25032D1*
X10487Y24911D1*
X10510Y24690D1*
X10503Y24565D1*
X10481Y24442D1*
X10445Y24323D1*
X10395Y24208D1*
X10333Y24100D1*
X10258Y24000D1*
X10172Y23909D1*
X10076Y23829D1*
X9971Y23761D1*
X9859Y23706D1*
X9742Y23663D1*
X9620Y23635D1*
X9496Y23621D1*
X9371Y23622D1*
X9213Y23646D1*
X12552Y20306D1*
X12632Y20211D1*
X12694Y20102D1*
X12735Y19984D1*
X12754Y19873D1*
X12756Y18440D1*
Y12564D1*
X12745Y12440D1*
X12712Y12320D1*
X12657Y12207D1*
X12592Y12116D1*
X12177Y11698D1*
X12082Y11618D1*
X11973Y11556D1*
X11855Y11515D1*
X11744Y11497D1*
X10221Y11494D1*
X8944Y10214D1*
X8943Y9044D1*
X9355Y9457D1*
X9451Y9537D1*
X9561Y9596D1*
X9680Y9633D1*
X9811Y9646D1*
X10049D1*
X10051Y9824D1*
X11571D1*
Y8304D1*
X10051D1*
Y8331D1*
X9894Y8172D1*
X9893Y7064D1*
X9881Y6939D1*
X9845Y6820D1*
X9795Y6723D1*
X9994Y6605D1*
X10097Y6534D1*
X10191Y6452D1*
X10275Y6359D1*
X10347Y6257D1*
X10407Y6148D1*
X10454Y6032D1*
X10487Y5911D1*
X10510Y5690D1*
X10503Y5565D1*
X10481Y5442D1*
X10445Y5323D1*
X10395Y5208D1*
X10333Y5100D1*
X10258Y5000D1*
X10172Y4909D1*
X10076Y4829D1*
X9971Y4761D1*
X9859Y4706D1*
X9742Y4663D1*
X9620Y4635D1*
X9496Y4621D1*
X9371Y4622D1*
X9247Y4638D1*
X9125Y4667D1*
X9008Y4711D1*
X8897Y4768D1*
X8793Y4837D1*
X8698Y4919D1*
X8614Y5010D1*
X8540Y5111D1*
X8479Y5220D1*
X8430Y5335D1*
X8396Y5455D1*
X8376Y5579D1*
X8370Y5703D1*
X8379Y5828D1*
X8402Y5951D1*
X8457Y6109D1*
X8330Y6106D1*
X8331Y5372D1*
X8369Y5298D1*
X8409Y5180D1*
X8431Y5001D1*
X8420Y4877D1*
X8389Y4756D1*
X8338Y4642D1*
X8269Y4538D1*
X8183Y4447D1*
X8099Y4383D1*
X12573Y4385D1*
X19694D1*
X19695Y4492D1*
X19602Y4468D1*
X19478Y4451D1*
X19353Y4455D1*
X19231Y4480D1*
X19114Y4525D1*
X19007Y4589D1*
X18939Y4648D1*
X18832Y4562D1*
X18721Y4505D1*
X18602Y4468D1*
X18478Y4451D1*
X18353Y4455D1*
X18231Y4480D1*
X18114Y4525D1*
X18007Y4589D1*
X17939Y4648D1*
X17832Y4562D1*
X17721Y4505D1*
X17602Y4468D1*
X17478Y4451D1*
X17353Y4455D1*
X17231Y4480D1*
X17114Y4525D1*
X17007Y4589D1*
X16939Y4648D1*
X16832Y4562D1*
X16721Y4505D1*
X16602Y4468D1*
X16478Y4451D1*
X16353Y4455D1*
X16231Y4480D1*
X16114Y4525D1*
X16007Y4589D1*
X15939Y4648D1*
X15832Y4562D1*
X15721Y4505D1*
X15602Y4468D1*
X15478Y4451D1*
X15353Y4455D1*
X15231Y4480D1*
X15114Y4525D1*
X14981Y4612D1*
X14907Y4546D1*
X14800Y4481D1*
X14685Y4434D1*
X14563Y4405D1*
X14439Y4395D1*
X14314Y4405D1*
X14193Y4434D1*
X14078Y4482D1*
X13939Y4576D1*
X13800Y4481D1*
X13685Y4434D1*
X13563Y4405D1*
X13439Y4395D1*
X13314Y4405D1*
X13193Y4434D1*
X13078Y4482D1*
X12939Y4576D1*
X12800Y4481D1*
X12685Y4434D1*
X12563Y4405D1*
X12439Y4395D1*
X12314Y4405D1*
X12193Y4434D1*
X12078Y4482D1*
X11971Y4548D1*
X11877Y4629D1*
X11796Y4724D1*
X11731Y4831D1*
X11683Y4946D1*
X11654Y5068D1*
X11645Y5315D1*
Y6190D1*
X11655Y6314D1*
X11684Y6436D1*
X11732Y6551D1*
X11797Y6658D1*
X11905Y6775D1*
X11847Y6914D1*
X11822Y7036D1*
X11817Y7161D1*
X11833Y7284D1*
X11870Y7404D1*
X11926Y7515D1*
X12000Y7616D1*
X12053Y7668D1*
X12054Y9814D1*
X12067Y9938D1*
X12108Y10056D1*
X12193Y10187D1*
X12991Y10988D1*
Y19252D1*
X13005Y19376D1*
X13045Y19494D1*
X13130Y19626D1*
X13658Y20156D1*
X13756Y20234D1*
X13867Y20289D1*
X14021Y20321D1*
X14448Y20322D1*
X15236Y21108D1*
X15079Y21206D1*
X15064Y21219D1*
X30785Y12220D2*
X32220D1*
Y10660D1*
X32049Y10659D1*
X32002Y10543D1*
X31904Y10411D1*
X31382Y9889D1*
X31381Y8841D1*
X31501Y8821D1*
X32762D1*
X32724Y8914D1*
X32699Y9036D1*
X32694Y9161D1*
X32710Y9285D1*
X32747Y9404D1*
X32803Y9516D1*
X32870Y9607D1*
Y10905D1*
X32786Y11015D1*
X32727Y11125D1*
X32686Y11243D1*
X32664Y11366D1*
X32662Y11491D1*
X32680Y11614D1*
X32718Y11733D1*
X32774Y11845D1*
X32847Y11946D1*
X32935Y12034D1*
X33037Y12107D1*
X33148Y12163D1*
X33204Y12180D1*
X31891Y13493D1*
X25551Y13494D1*
X24390Y12336D1*
X24276Y12222D1*
X25035Y12220D1*
X25220D1*
Y11278D1*
X25868Y10627D1*
X25863Y10916D1*
X25786Y11015D1*
X25727Y11125D1*
X25686Y11243D1*
X25664Y11366D1*
X25662Y11491D1*
X25680Y11614D1*
X25718Y11733D1*
X25774Y11845D1*
X25847Y11946D1*
X25935Y12034D1*
X26037Y12107D1*
X26148Y12163D1*
X26267Y12200D1*
X26391Y12218D1*
X26460Y12222D1*
X26496Y12342D1*
X26552Y12453D1*
X26626Y12554D1*
X26716Y12641D1*
X26819Y12712D1*
X26932Y12764D1*
X27053Y12797D1*
X27177Y12809D1*
X27301Y12800D1*
X27423Y12771D1*
X27538Y12722D1*
X27642Y12654D1*
X27735Y12570D1*
X27811Y12472D1*
X27871Y12362D1*
X27894Y12291D1*
X28035Y12220D1*
X28720D1*
Y11153D1*
X29367Y10503D1*
X29363Y10916D1*
X29286Y11015D1*
X29227Y11125D1*
X29186Y11243D1*
X29164Y11366D1*
X29162Y11491D1*
X29180Y11614D1*
X29218Y11733D1*
X29274Y11845D1*
X29347Y11946D1*
X29435Y12034D1*
X29537Y12107D1*
X29648Y12163D1*
X29767Y12200D1*
X29891Y12218D1*
X30016Y12216D1*
X30139Y12194D1*
X30257Y12152D1*
X30366Y12093D1*
X30465Y12016D1*
X30550Y11925D1*
X30620Y11822D1*
X30661Y11733D1*
X30660Y12220D1*
X30785D1*
X34117Y11056D2*
X34065Y10974D1*
X34011Y10912D1*
X34010Y9600D1*
X34082Y9496D1*
X34118Y9626D1*
Y11052D1*
X24224Y10660D2*
X23974D1*
X23995Y10502D1*
X23984Y10377D1*
X23939Y10224D1*
X23992Y10205D1*
X24123Y10120D1*
X25117Y9128D1*
Y9763D1*
X24221Y10662D1*
X23660Y11125D2*
Y11610D1*
X23299Y11244D1*
X23485Y11208D1*
X23600Y11159D1*
X23662Y11119D1*
X23285Y8970D2*
X23664D1*
X23514Y9119D1*
X22863D1*
X22511Y8769D1*
X22510Y8719D1*
X22620Y8572D1*
X22672Y8458D1*
X22706Y8338D1*
X22720Y8190D1*
X22710Y8066D1*
X22690Y7986D1*
X23089Y7984D1*
X23162Y8059D1*
X23160Y8970D1*
X23285D1*
X24720Y7911D2*
Y7481D1*
X25151Y7484D1*
X24718Y7914D1*
X37246Y14160D2*
X37105D1*
X36849Y13904D1*
X36754Y13823D1*
X36647Y13759D1*
X36530Y13714D1*
X36443Y13693D1*
X36189Y13682D1*
X35189D1*
X35064Y13692D1*
X34943Y13723D1*
X34829Y13773D1*
X34752Y13820D1*
X34565Y13992D1*
X34435Y14122D1*
X32880Y14120D1*
X33501Y13495D1*
X35091Y11905D1*
X35169Y11807D1*
X35224Y11695D1*
X35257Y11542D1*
X35258Y9545D1*
X35312Y9471D1*
X35371Y9361D1*
X35412Y9243D1*
X35433Y9064D1*
X35423Y8939D1*
X35393Y8822D1*
X36064Y8821D1*
X36188Y8808D1*
X36306Y8767D1*
X36437Y8682D1*
X37154Y7967D1*
X37234Y7866D1*
X37245Y7940D1*
Y12264D1*
X37195Y12073D1*
X37145Y11958D1*
X37083Y11850D1*
X37008Y11750D1*
X36922Y11659D1*
X36826Y11579D1*
X36721Y11511D1*
X36609Y11456D1*
X36492Y11413D1*
X36370Y11385D1*
X36246Y11371D1*
X36121Y11372D1*
X35997Y11388D1*
X35875Y11417D1*
X35758Y11461D1*
X35647Y11518D1*
X35543Y11587D1*
X35448Y11669D1*
X35364Y11760D1*
X35290Y11861D1*
X35229Y11970D1*
X35180Y12085D1*
X35146Y12205D1*
X35126Y12329D1*
X35120Y12453D1*
X35129Y12578D1*
X35152Y12701D1*
X35190Y12820D1*
X35241Y12934D1*
X35305Y13041D1*
X35381Y13140D1*
X35468Y13230D1*
X35565Y13309D1*
X35671Y13376D1*
X35783Y13430D1*
X35901Y13470D1*
X36023Y13497D1*
X36148Y13509D1*
X36273Y13507D1*
X36396Y13490D1*
X36517Y13459D1*
X36634Y13414D1*
X36744Y13355D1*
X36847Y13284D1*
X36941Y13202D1*
X37025Y13109D1*
X37097Y13007D1*
X37157Y12898D1*
X37204Y12782D1*
X37246Y12603D1*
X37245Y14163D1*
X15587Y6915D2*
X15696Y6885D1*
X15809Y6832D1*
X15937Y6736D1*
X16081Y6836D1*
X15977Y6960D1*
X15924Y7073D1*
X15898Y7199D1*
X15872Y7197D1*
X15720Y7052D1*
X15584Y6916D1*
X17702Y23499D2*
X17602Y23468D1*
X17478Y23451D1*
X17353Y23455D1*
X17231Y23480D1*
X17098Y23535D1*
X17043Y23410D1*
X16931Y23265D1*
X16304Y22638D1*
X16292Y22544D1*
X16392Y22575D1*
X16516Y22593D1*
X16641Y22591D1*
X16764Y22569D1*
X16882Y22527D1*
X16991Y22468D1*
X17062Y22413D1*
X17162Y22482D1*
X17273Y22538D1*
X17392Y22575D1*
X17516Y22593D1*
X17641Y22591D1*
X17764Y22569D1*
X17882Y22527D1*
X17991Y22468D1*
X18062Y22413D1*
X18193Y22498D1*
X18037Y22659D1*
X17941Y22787D1*
X17911Y22850D1*
X17832Y22942D1*
X17768Y23049D1*
X17723Y23165D1*
X17697Y23288D1*
X17692Y23412D1*
X17704Y23501D1*
X15198Y23493D2*
X15114Y23525D1*
X15007Y23589D1*
X14939Y23648D1*
X14832Y23562D1*
X14721Y23505D1*
X14602Y23468D1*
X14478Y23451D1*
X14353Y23455D1*
X14231Y23480D1*
X14114Y23525D1*
X14007Y23589D1*
X13939Y23648D1*
X13832Y23562D1*
X13752Y23521D1*
X13999Y23523D1*
X14123Y23511D1*
X14243Y23475D1*
X14353Y23417D1*
X14455Y23334D1*
X14855Y22933D1*
X14875Y22990D1*
X14907Y23111D1*
X14959Y23224D1*
X15070Y23369D1*
X15194Y23494D1*
X35647Y5891D2*
X35496Y5871D1*
X35371Y5872D1*
X35247Y5888D1*
X35049Y5946D1*
X35099Y5805D1*
X35121Y5626D1*
X35110Y5502D1*
X35079Y5381D1*
X35040Y5283D1*
X35645Y5888D1*
X34380Y7082D2*
X34402Y7201D1*
X34440Y7320D1*
X34491Y7434D1*
X34555Y7541D1*
X34672Y7682D1*
X31364Y7681D1*
X31161Y7481D1*
X32499Y7484D1*
X33751D1*
X33875Y7469D1*
X33992Y7427D1*
X34070Y7380D1*
X34225Y7236D1*
X34382Y7078D1*
X20430Y14249D2*
Y14200D1*
X18950D1*
Y15430D1*
X18379Y15432D1*
X18382Y14314D1*
X18368Y14190D1*
X18328Y14072D1*
X18242Y13941D1*
X17688Y13387D1*
X17672Y13298D1*
X17718Y13182D1*
X17746Y13060D1*
X17755Y12940D1*
X17745Y12815D1*
X17717Y12694D1*
X17670Y12578D1*
X17606Y12471D1*
X17527Y12374D1*
X17384Y12260D1*
X19027D1*
X20995Y14230D1*
X20971Y14255D1*
X20852Y14218D1*
X20728Y14201D1*
X20603Y14205D1*
X20433Y14248D1*
X22420Y14816D2*
X22384Y14684D1*
X22385Y13942D1*
X22374Y13818D1*
X22341Y13698D1*
X22286Y13585D1*
X22221Y13494D1*
X21209Y12479D1*
X19991Y11261D1*
X20527Y11260D1*
X23981Y14716D1*
X23954Y14864D1*
X23951Y14989D1*
X23970Y15113D1*
X24009Y15231D1*
X24068Y15341D1*
X24137Y15431D1*
X22246Y15432D1*
X22324Y15322D1*
X22379Y15210D1*
X22415Y15090D1*
X22430Y14940D1*
X22420Y14816D1*
X26193Y18485D2*
X26236Y18525D1*
X26352Y18597D1*
X25384Y19563D1*
X25385Y18613D1*
X25456Y18642D1*
X25577Y18672D1*
X25702Y18680D1*
X25826Y18668D1*
X25946Y18635D1*
X26059Y18582D1*
X26187Y18486D1*
X23973Y17761D2*
X23954Y17864D1*
X23951Y17989D1*
X23970Y18113D1*
X23996Y18191D1*
X23995Y19710D1*
X23461Y20246D1*
X19738Y20245D1*
X20037Y19948D1*
X20874Y19947D1*
X20999Y19936D1*
X21119Y19903D1*
X21232Y19849D1*
X21323Y19783D1*
X22181Y18928D1*
X22261Y18832D1*
X22323Y18724D1*
X22364Y18606D1*
X22383Y18495D1*
X22385Y18191D1*
X22415Y18090D1*
X22430Y17940D1*
X22420Y17816D1*
X22405Y17759D1*
X23972Y17760D1*
X19130Y17460D2*
X19083Y17517D1*
X19020Y17625D1*
X18977Y17742D1*
X18954Y17864D1*
X18951Y17989D1*
X18970Y18113D1*
X19009Y18231D1*
X19068Y18341D1*
X19144Y18440D1*
X19236Y18525D1*
X19341Y18593D1*
X19438Y18634D1*
X19301Y18721D1*
X18286Y19733D1*
X17670Y20349D1*
X17606Y20251D1*
X17527Y20154D1*
X17434Y20071D1*
X17329Y20004D1*
X17215Y19953D1*
X17094Y19920D1*
X16970Y19906D1*
X16845Y19911D1*
X16723Y19934D1*
X16605Y19977D1*
X16496Y20037D1*
X16397Y20113D1*
X16310Y20203D1*
X16239Y20305D1*
X16178Y20436D1*
X15086Y19347D1*
X15158Y19182D1*
X15186Y19060D1*
X15195Y18940D1*
X15185Y18815D1*
X15157Y18694D1*
X15110Y18578D1*
X15046Y18471D1*
X14967Y18374D1*
X14874Y18291D1*
X14769Y18224D1*
X14655Y18173D1*
X14534Y18140D1*
X14410Y18126D1*
X14285Y18131D1*
X14130Y18166D1*
X14131Y16717D1*
X14290Y16750D1*
X14387Y16753D1*
X14852Y17218D1*
X14949Y17296D1*
X15061Y17351D1*
X15214Y17383D1*
X16196Y17385D1*
X16146Y17536D1*
X16127Y17660D1*
X16128Y17785D1*
X16147Y17908D1*
X16185Y18027D1*
X16241Y18139D1*
X16313Y18241D1*
X16397Y18333D1*
X16310Y18423D1*
X16239Y18525D1*
X16183Y18637D1*
X16146Y18756D1*
X16127Y18880D1*
X16128Y19005D1*
X16147Y19128D1*
X16185Y19247D1*
X16241Y19359D1*
X16313Y19461D1*
X16400Y19550D1*
X16499Y19626D1*
X16609Y19685D1*
X16727Y19727D1*
X16850Y19750D1*
X16974Y19754D1*
X17098Y19739D1*
X17219Y19706D1*
X17332Y19654D1*
X17437Y19586D1*
X17530Y19502D1*
X17609Y19406D1*
X17672Y19298D1*
X17718Y19182D1*
X17746Y19060D1*
X17755Y18940D1*
X17745Y18815D1*
X17717Y18694D1*
X17670Y18578D1*
X17606Y18471D1*
X17527Y18374D1*
X17477Y18330D1*
X17530Y18282D1*
X17609Y18186D1*
X17672Y18078D1*
X17718Y17962D1*
X17746Y17840D1*
X17755Y17720D1*
X17745Y17595D1*
X17717Y17474D1*
X17678Y17376D1*
X17804Y17331D1*
X17935Y17245D1*
X17984Y17198D1*
X19253Y17197D1*
X19209Y17256D1*
X19143Y17402D1*
X15185Y15815D2*
X15157Y15694D1*
X15110Y15578D1*
X15046Y15471D1*
X14967Y15374D1*
X14874Y15291D1*
X14769Y15224D1*
X14655Y15173D1*
X14534Y15140D1*
X14410Y15126D1*
X14285Y15131D1*
X14130Y15166D1*
X14131Y13717D1*
X14290Y13750D1*
X14387Y13753D1*
X14851Y14217D1*
X14949Y14295D1*
X15061Y14350D1*
X15214Y14383D1*
X16196Y14384D1*
X16146Y14536D1*
X16127Y14660D1*
X16128Y14785D1*
X16147Y14908D1*
X16185Y15027D1*
X16241Y15139D1*
X16313Y15241D1*
X16397Y15333D1*
X16310Y15423D1*
X16239Y15525D1*
X16183Y15637D1*
X16146Y15756D1*
X16127Y15880D1*
X16128Y16005D1*
X16147Y16128D1*
X16184Y16243D1*
X15487Y16245D1*
X15196Y15950D1*
X15185Y15815D1*
Y12815D2*
X15157Y12694D1*
X15110Y12578D1*
X15046Y12471D1*
X14967Y12374D1*
X14874Y12291D1*
X14769Y12224D1*
X14655Y12173D1*
X14534Y12140D1*
X14410Y12126D1*
X14285Y12131D1*
X14130Y12166D1*
X14131Y11241D1*
X14946Y12056D1*
X15042Y12136D1*
X15150Y12198D1*
X15268Y12239D1*
X15379Y12258D1*
X16488Y12260D1*
X16397Y12333D1*
X16310Y12423D1*
X16239Y12525D1*
X16183Y12637D1*
X16146Y12756D1*
X16127Y12880D1*
X16128Y13005D1*
X16147Y13128D1*
X16184Y13243D1*
X15487Y13244D1*
X15196Y12950D1*
X15185Y12815D1*
X7468Y8562D2*
Y8593D1*
X7551D1*
X7553Y10189D1*
Y10502D1*
X7564Y10626D1*
X7598Y10746D1*
X7652Y10859D1*
X7717Y10950D1*
X8729Y11965D1*
X9008Y12244D1*
X4625Y12245D1*
X4385Y12006D1*
Y4624D1*
X4624Y4385D1*
X7264D1*
X7163Y4470D1*
X7081Y4565D1*
X7017Y4672D1*
X6972Y4788D1*
X6946Y4911D1*
X6941Y5035D1*
X6958Y5159D1*
X6994Y5279D1*
X7041Y5376D1*
Y6419D1*
X6792Y6670D1*
X6713Y6766D1*
X6653Y6876D1*
X6616Y6995D1*
X6603Y7123D1*
X6470Y7066D1*
X6348Y7040D1*
X6223Y7034D1*
X6099Y7049D1*
X5978Y7082D1*
X5865Y7135D1*
X5762Y7204D1*
X5671Y7290D1*
X5594Y7389D1*
X5535Y7499D1*
X5494Y7617D1*
X5472Y7740D1*
X5470Y7864D1*
X5488Y7988D1*
X5526Y8107D1*
X5582Y8219D1*
X5655Y8320D1*
X5743Y8408D1*
X5845Y8481D1*
X5956Y8537D1*
X6076Y8574D1*
X6199Y8592D1*
X6324Y8590D1*
X6447Y8568D1*
X6565Y8526D1*
X6674Y8467D1*
X6745Y8412D1*
X6845Y8481D1*
X6956Y8537D1*
X7076Y8574D1*
X7199Y8592D1*
X7324Y8590D1*
X7465Y8561D1*
X7003Y5565D2*
X6981Y5442D1*
X6945Y5323D1*
X6895Y5208D1*
X6833Y5100D1*
X6758Y5000D1*
X6672Y4909D1*
X6576Y4829D1*
X6471Y4761D1*
X6359Y4706D1*
X6242Y4663D1*
X6120Y4635D1*
X5996Y4621D1*
X5871Y4622D1*
X5747Y4638D1*
X5625Y4667D1*
X5508Y4711D1*
X5397Y4768D1*
X5293Y4837D1*
X5198Y4919D1*
X5114Y5010D1*
X5040Y5111D1*
X4979Y5220D1*
X4930Y5335D1*
X4896Y5455D1*
X4876Y5579D1*
X4870Y5703D1*
X4879Y5828D1*
X4902Y5951D1*
X4940Y6070D1*
X4991Y6184D1*
X5055Y6291D1*
X5131Y6390D1*
X5218Y6480D1*
X5315Y6559D1*
X5421Y6626D1*
X5533Y6680D1*
X5651Y6720D1*
X5773Y6747D1*
X5898Y6759D1*
X6023Y6757D1*
X6146Y6740D1*
X6267Y6709D1*
X6384Y6664D1*
X6494Y6605D1*
X6597Y6534D1*
X6691Y6452D1*
X6775Y6359D1*
X6847Y6257D1*
X6907Y6148D1*
X6954Y6032D1*
X6987Y5911D1*
X7010Y5690D1*
X7003Y5565D1*
X28815Y8319D2*
X28660Y8473D1*
X28582Y8571D1*
X28527Y8683D1*
X28494Y8836D1*
X28493Y9763D1*
X27784Y10474D1*
X27758Y10438D1*
Y8689D1*
X27744Y8565D1*
X27704Y8447D1*
X27636Y8337D1*
X27687Y8321D1*
X28809D1*
X7428Y23878D2*
Y25503D1*
X7439Y25627D1*
X7473Y25748D1*
X7527Y25860D1*
X7592Y25952D1*
X7634Y25997D1*
X7124Y25995D1*
X6885Y25756D1*
Y20374D1*
X7124Y20135D1*
X10756D1*
X7632Y23261D1*
X7552Y23357D1*
X7490Y23466D1*
X7449Y23584D1*
X7431Y23695D1*
X7428Y23878D1*
X37066Y5697D2*
X35754Y4385D1*
X37006D1*
X37245Y4624D1*
Y5905D1*
X37182Y5815D1*
X37066Y5697D1*
D24*
X34688Y21753D3*
D25*
Y19753D3*
D24*
Y16940D3*
D25*
Y14940D3*
D27*
X18440Y8940D3*
D28*
X17440D3*
X16440D3*
X15440D3*
X14440D3*
X13440D3*
D27*
X13565Y21815D3*
D28*
X14565D3*
X15565D3*
X16565D3*
X17565D3*
X18565D3*
D27*
X31440Y11440D3*
D28*
X32440D3*
X33440D3*
D27*
X27940D3*
D28*
X28940D3*
X29940D3*
D27*
X24440D3*
D28*
X25440D3*
X26440D3*
D27*
X23940Y8190D3*
D28*
X22940D3*
X21940D3*
X20940D3*
D27*
X36626Y14939D3*
D28*
Y15939D3*
D29*
X11440Y6190D3*
X12440D3*
X13440D3*
X14440D3*
X15440D3*
X16440D3*
X17440D3*
X18440D3*
X19440D3*
X20440D3*
X21440D3*
X22440D3*
X23440D3*
X24440D3*
X25440D3*
X26440D3*
X27440D3*
X28440D3*
X29440D3*
X30440D3*
X31440D3*
X32440D3*
X33440D3*
Y5190D3*
X32440D3*
X31440D3*
X30440D3*
X29440D3*
X28440D3*
X27440D3*
X26440D3*
X25440D3*
X24440D3*
X23440D3*
X22440D3*
X21440D3*
X20440D3*
X19440D3*
X18440D3*
X17440D3*
X16440D3*
X15440D3*
X14440D3*
X13440D3*
X12440D3*
X11440D3*
Y25190D3*
X12440D3*
X13440D3*
X14440D3*
X15440D3*
X16440D3*
X17440D3*
X18440D3*
X19440D3*
X20440D3*
X21440D3*
X22440D3*
X23440D3*
X24440D3*
X25440D3*
X26440D3*
X27440D3*
X28440D3*
X29440D3*
X30440D3*
X31440D3*
X32440D3*
X33440D3*
Y24190D3*
X32440D3*
X31440D3*
X30440D3*
X29440D3*
X28440D3*
X27440D3*
X26440D3*
X25440D3*
X24440D3*
X23440D3*
X22440D3*
X21440D3*
X20440D3*
X19440D3*
X18440D3*
X17440D3*
X16440D3*
X15440D3*
X14440D3*
X13440D3*
X12440D3*
X11440D3*
D30*
X19690Y14940D3*
D29*
X20690D3*
X21690D3*
X22690D3*
X23690D3*
X24690D3*
X25690D3*
X26690D3*
Y17940D3*
X25690D3*
X24690D3*
X23690D3*
X22690D3*
X21690D3*
X20690D3*
X19690D3*
D32*
X14380Y20720D3*
X16940D3*
X14380Y18940D3*
X16940D3*
X14380Y17720D3*
X16940D3*
X14380Y15940D3*
X16940D3*
X14380Y14720D3*
X16940D3*
X14380Y12940D3*
X16940D3*
D33*
X31688Y14939D3*
D34*
Y15939D3*
Y16939D3*
D27*
X8248Y7814D3*
D28*
X7248D3*
X6248D3*
D24*
X29063Y12939D3*
D25*
Y14939D3*
D24*
X10811Y11064D3*
D25*
Y9064D3*
M02*
