M48
INCH
T01C0.031
T02C0.0354
T03C0.04
T04C0.0433
T05C0.125
%
T01
X+026438Y+009126
X+027188Y+012064
X+030563Y+012939
X+031376Y+012939
X+029938Y+009126
X+033438Y+009126
X+034688Y+009064
X+034376Y+005626
X+023000Y+008939
X+023250Y+010502
X+021375Y+012377
X+020937Y+011939
X+020499Y+011502
X+019374Y+012877
X+019812Y+013314
X+020249Y+013752
X+018687Y+014627
X+018687Y+015252
X+018624Y+017815
X+021750Y+020065
X+023250Y+020065
X+019437Y+023315
X+018437Y+023378
X+015561Y+022690
X+011874Y+022878
X+010498Y+024003
X+010561Y+025191
X+018812Y+009689
X+019437Y+009689
X+017187Y+007689
X+015374Y+007751
X+012561Y+007126
X+010123Y+007314
X+007686Y+005001
X+020437Y+004438
X+036501Y+018065
X+036501Y+018752
X+036501Y+019440
X+036501Y+020065
X+036501Y+020753
X+036501Y+021440
T02
X+034688Y+021753
X+034688Y+019753
X+034688Y+016940
X+034688Y+014940
X+029063Y+014939
X+029063Y+012939
X+026690Y+014940
X+025690Y+014940
X+024690Y+014940
X+023690Y+014940
X+022690Y+014940
X+021690Y+014940
X+020690Y+014940
X+019690Y+014940
X+019690Y+017940
X+020690Y+017940
X+021690Y+017940
X+022690Y+017940
X+023690Y+017940
X+024690Y+017940
X+025690Y+017940
X+026690Y+017940
X+026440Y+024190
X+026440Y+025190
X+025440Y+025190
X+025440Y+024190
X+024440Y+024190
X+024440Y+025190
X+023440Y+025190
X+022440Y+025190
X+022440Y+024190
X+023440Y+024190
X+021440Y+024190
X+021440Y+025190
X+020440Y+025190
X+020440Y+024190
X+019440Y+024190
X+019440Y+025190
X+018440Y+025190
X+017440Y+025190
X+017440Y+024190
X+018440Y+024190
X+016440Y+024190
X+016440Y+025190
X+015440Y+025190
X+015440Y+024190
X+014440Y+024190
X+014440Y+025190
X+013440Y+025190
X+013440Y+024190
X+012440Y+024190
X+012440Y+025190
X+011440Y+025190
X+011440Y+024190
X+010811Y+011064
X+010811Y+009064
X+011440Y+006190
X+011440Y+005190
X+012440Y+005190
X+012440Y+006190
X+013440Y+006190
X+013440Y+005190
X+014440Y+005190
X+014440Y+006190
X+015440Y+006190
X+015440Y+005190
X+016440Y+005190
X+016440Y+006190
X+017440Y+006190
X+018440Y+006190
X+018440Y+005190
X+017440Y+005190
X+019440Y+005190
X+019440Y+006190
X+020440Y+006190
X+020440Y+005190
X+021440Y+005190
X+021440Y+006190
X+022440Y+006190
X+022440Y+005190
X+023440Y+005190
X+023440Y+006190
X+024440Y+006190
X+024440Y+005190
X+025440Y+005190
X+025440Y+006190
X+026440Y+006190
X+026440Y+005190
X+027440Y+005190
X+027440Y+006190
X+028440Y+006190
X+028440Y+005190
X+029440Y+005190
X+029440Y+006190
X+030440Y+006190
X+031440Y+006190
X+031440Y+005190
X+030440Y+005190
X+032440Y+005190
X+032440Y+006190
X+033440Y+006190
X+033440Y+005190
X+033440Y+024190
X+033440Y+025190
X+032440Y+025190
X+032440Y+024190
X+031440Y+024190
X+030440Y+024190
X+030440Y+025190
X+031440Y+025190
X+029440Y+025190
X+029440Y+024190
X+028440Y+024190
X+028440Y+025190
X+027440Y+025190
X+027440Y+024190
T03
X+014380Y+020720
X+014380Y+018940
X+014380Y+017720
X+014380Y+015940
X+014380Y+014720
X+014380Y+012940
X+016940Y+012940
X+016940Y+014720
X+016940Y+015940
X+016940Y+017720
X+016940Y+018940
X+016940Y+020720
T04
X+018440Y+008940
X+017440Y+008940
X+016440Y+008940
X+015440Y+008940
X+014440Y+008940
X+013440Y+008940
X+008248Y+007814
X+007248Y+007814
X+006248Y+007814
X+020940Y+008190
X+021940Y+008190
X+022940Y+008190
X+023940Y+008190
X+024440Y+011440
X+025440Y+011440
X+026440Y+011440
X+027940Y+011440
X+028940Y+011440
X+029940Y+011440
X+031440Y+011440
X+032440Y+011440
X+033440Y+011440
X+031688Y+014939
X+031688Y+015939
X+031688Y+016939
X+036626Y+015939
X+036626Y+014939
X+018565Y+021815
X+017565Y+021815
X+016565Y+021815
X+015565Y+021815
X+014565Y+021815
X+013565Y+021815
T05
X+035440Y+023440
X+036190Y+012440
X+035440Y+006940
X+009440Y+005690
X+005940Y+005690
X+009440Y+024690
T00
M30
